<svg width="198" height="269" viewBox="0 0 198 269" fill="none" xmlns="http://www.w3.org/2000/svg">
<g clip-path="url(#clip0_79:17)">
<path d="M76.8829 210.459C78.227 211.175 79.5426 211.862 80.8867 212.578C80.8295 212.864 80.8009 213.122 80.7437 213.408C78.1126 214.066 75.5102 214.753 72.6789 215.469C73.5083 216.442 74.2805 217.358 75.453 218.732C73.0793 218.732 71.2204 218.732 69.0755 218.732C71.5636 227.864 70.4769 236.566 67.6742 244.954C66.5303 248.389 64.0994 251.567 61.64 254.315C55.8345 260.727 49.1139 266.051 40.563 268.399C38.9901 268.828 37.2456 268.857 35.5868 268.943C26.2066 269.401 17.2553 268.284 10.1915 261.185C4.64341 255.632 1.15441 249.133 1.55478 240.975C1.95516 232.788 2.06955 224.572 5.27257 216.843C6.44511 214.038 7.78923 211.29 9.01896 208.484C9.44793 207.54 9.76252 206.566 9.61952 205.364C8.99036 206.337 8.2468 207.253 7.76063 208.284C5.32977 213.293 1.41179 216.986 -2.67778 220.564C-4.19349 221.881 -5.7664 222.253 -7.19632 221.252C-8.31166 220.479 -9.48419 218.99 -9.65578 217.702C-10.5995 210.917 -8.59764 204.62 -6.02379 198.494C-3.67872 192.883 -1.04767 187.387 1.52618 181.662C0.382249 180.831 -0.818882 180.001 -1.96282 179.171C-3.47853 180.803 -4.67967 182.663 -6.36697 183.694C-7.91128 184.639 -10.1706 185.326 -11.7435 184.868C-12.8588 184.524 -13.9455 182.091 -14.0027 180.545C-14.2315 173.16 -12.5442 166.118 -9.68438 159.276C-8.56904 156.614 -7.93988 153.694 -7.36791 150.831C-6.30977 145.736 -3.85031 141.356 -0.0181269 138.064C12.0218 127.615 20.1723 114.247 28.2371 100.535C24.8625 101.909 21.5736 103.455 18.1418 104.629C10.4775 107.262 2.61292 109.094 -5.56621 107.949C-7.16772 107.72 -8.56904 106.26 -10.0848 105.373C-8.91222 103.827 -8.02568 101.823 -6.48136 100.821C-4.16489 99.3041 -1.39085 98.4739 1.09721 96.8422C-1.01907 96.6705 -3.10675 96.3269 -5.22303 96.3556C-13.4594 96.4128 -21.1809 94.0941 -28.6737 91.0311C-30.3896 90.3441 -32.3057 88.6838 -32.9349 87.0234C-34.3648 83.2734 -32.6775 80.5539 -28.6451 80.2104C-23.6976 79.781 -18.6929 80.0959 -13.488 80.0959C-17.7777 78.3783 -22.2963 77.0615 -26.3286 74.8287C-31.1046 72.1951 -35.6517 69.0462 -39.7985 65.5252C-40.9996 64.4947 -41.2284 61.3458 -40.685 59.5137C-40.3132 58.2542 -37.911 56.9374 -36.3381 56.8229C-33.6784 56.6511 -30.7328 56.8801 -28.3019 57.882C-13.0304 64.1798 2.18395 70.7065 17.3983 77.1188C17.7701 77.2619 18.1704 77.3478 18.485 77.5768C23.2609 81.2123 28.7518 82.6436 34.6145 83.1589C35.787 83.2734 36.931 84.0463 38.2179 84.5902C38.7613 83.9318 39.419 83.1303 40.1054 82.2715C36.4162 79.2371 32.4124 78.0348 27.6937 77.7772C17.8559 77.2619 10.1057 72.4814 3.95705 64.7809C0.439445 60.4011 -1.76263 55.506 -2.42039 50.0957C-3.42134 41.5937 -0.990473 30.0288 8.2468 25.42C13.6805 22.7291 19.6862 21.8131 25.7776 22.357C28.2943 22.586 30.7537 23.502 33.2704 23.7883C34.2999 23.9028 35.5582 23.502 36.4734 22.9581C42.765 19.0936 49.4571 16.4886 56.8926 15.8874C57.722 15.8302 58.6371 14.771 59.2377 13.9409C64.128 7.15647 70.5913 2.66216 78.7132 0.457949C85.8914 -1.48863 96.3012 2.94842 99.5328 9.73282C104.395 19.9524 107.512 30.3723 104.595 41.7082C102.65 49.2369 98.2745 55.3915 92.8408 60.8305C92.2402 61.4603 91.2965 62.0042 91.1249 62.7485C89.409 69.8478 84.6617 74.4852 78.8848 78.2925C79.228 79.6379 79.5425 80.9261 79.9429 82.5578C90.1525 79.323 100.334 76.1455 110.515 72.8249C118.265 70.3058 125.958 67.5577 133.708 65.0099C135.624 64.3802 137.712 63.8649 139.342 65.9832C141.715 69.1035 141.744 70.821 138.484 73.1684C135.567 75.2867 132.421 77.2047 129.104 78.5501C123.298 80.8974 117.292 82.7581 111.458 85.1341C115.233 85.1341 119.037 84.7906 122.726 85.2772C124.842 85.5349 127.13 86.7658 128.703 88.2257C130.533 89.9433 129.733 92.0044 127.359 92.7487C123.069 94.0368 118.694 95.2105 114.29 96.1552C110.972 96.8708 107.569 97.1285 104.109 97.6151C106.883 98.7602 109.542 99.9625 112.288 100.936C114.719 101.823 115.148 103.856 114.461 105.688C114.004 106.89 112.116 108.379 110.944 108.321C103.994 107.949 96.9876 107.577 90.1525 106.346C84.7761 105.373 79.6283 103.169 74.881 101.651C73.5655 105.001 72.5931 108.35 70.963 111.356C69.2185 114.59 66.1585 116.193 62.5837 115.821C59.5237 122.72 56.6067 129.476 53.5466 136.175C52.0595 139.409 50.5438 142.615 48.6563 145.621C45.1673 151.203 42.908 157.1 41.6783 163.627C40.9061 167.778 38.7899 171.785 36.8166 175.621C32.8128 183.436 28.4945 191.08 21.2877 196.604C20.6585 197.091 20.2295 198.007 19.9149 198.809C16.9693 206.652 13.9665 214.467 11.1924 222.368C7.98942 231.442 7.36025 240.66 10.5061 249.878C11.8216 253.714 14.6528 256.376 18.2276 258.38C23.5469 261.357 29.2094 263.132 35.1579 262.33C38.9901 261.815 42.8222 260.011 46.3112 258.151C49.3141 256.548 51.8593 254.086 54.4904 251.881C60.1243 247.13 62.6409 240.431 64.2424 233.704C65.2434 229.467 64.2996 224.715 63.842 220.221C63.6133 217.959 61.6972 217.501 58.9517 218.675C56.721 219.62 54.5762 221.022 51.2874 219.563C52.6029 217.874 53.7468 216.356 55.0623 214.639C50.6296 211.776 43.9948 210.459 44.5667 202.444C46.1397 202.788 47.684 203.103 50.0004 203.589C45.2817 194.915 43.623 186.728 50.5724 178.455C51.1444 179.343 51.4589 179.801 51.7449 180.259C52.0309 180.774 52.2883 181.289 52.4313 181.547C54.4904 178.656 56.2063 175.335 58.7515 172.902C60.8106 170.927 63.699 169.381 66.4731 168.694C68.8182 168.121 72.1642 168.236 73.9659 169.553C76.4539 171.356 78.4844 174.362 79.6283 177.282C80.7437 180.058 80.4863 183.408 80.8009 186.356C82.002 185.698 83.0315 185.125 84.0611 184.553C84.4329 185.812 85.205 187.129 85.062 188.36C84.6331 192.196 83.8609 195.975 83.2603 199.581C84.7475 199.123 86.6921 198.522 88.6368 197.95C88.8084 198.265 88.98 198.58 89.1516 198.894C87.5501 205.364 82.145 208.026 76.7113 210.66C77.5121 209.772 78.1984 208.742 79.1136 208.026C81.0297 206.509 83.2031 205.278 85.0334 203.646C86.0344 202.759 86.492 201.27 87.1783 200.068C86.8923 199.839 86.6063 199.582 86.349 199.352C83.4605 200.898 80.5721 202.473 77.7123 204.019C82.6312 196.633 84.2327 191.91 82.9458 187.244C81.3442 189.333 79.7999 191.309 78.1984 193.398C78.513 190.392 79.1708 187.673 78.9706 185.011C78.6274 180.574 78.9134 175.85 75.5388 172.186C73.6227 170.097 71.9354 170.326 70.7914 172.902C70.0765 174.534 69.4759 176.223 68.8182 177.911C68.5322 175.908 68.7038 174.047 68.8182 172.186C68.9326 170.154 68.046 169.639 66.0727 170.125C63.0985 170.869 60.7248 172.244 58.7229 174.648C55.1195 178.999 53.0605 183.894 52.4313 189.562C51.8879 186.728 51.3732 183.894 50.7154 180.373C48.3131 184.266 46.254 187.616 47.255 191.452C48.5991 196.547 50.6296 201.442 52.2883 206.251C50.6582 205.65 48.7421 204.935 46.7402 204.19C45.6821 207.654 48.3989 209.028 50.172 210.574C52.0595 212.234 54.4618 213.322 56.721 214.725C55.4055 216.385 54.4904 217.53 53.6896 218.532C56.6067 218.074 59.3521 217.673 62.0689 217.187C62.4407 217.129 62.8697 216.757 63.0699 216.414C64.2996 214.295 65.6437 215.068 67.2166 216.042C68.618 216.929 70.2195 217.473 71.7352 218.188C71.8496 217.988 71.9926 217.759 72.107 217.559C71.7924 216.929 71.4492 216.271 71.106 215.584C73.5655 214.61 75.882 213.723 78.9706 212.492C77.2833 212.005 76.4825 211.776 75.2242 211.404C76.0821 210.86 76.4825 210.66 76.8829 210.459ZM76.0535 95.1246C77.1689 93.4071 78.3986 91.7754 79.3424 90.0006C80.1717 88.4261 80.3147 86.7085 78.3414 85.2486C76.7971 88.8269 73.3939 91.2315 73.4225 95.4968C74.4806 95.325 75.3386 95.1819 76.1679 95.0388C75.7962 95.4682 75.5102 95.9548 75.0526 96.2697C72.8505 97.8727 72.9077 98.7029 75.2242 99.9338C86.0916 105.602 97.8741 106.919 109.857 107.176C110.829 107.205 112.373 106.117 112.659 105.23C112.945 104.314 112.202 102.882 111.516 101.966C110.972 101.279 109.885 100.936 108.97 100.649C104.28 99.1323 99.5328 97.701 95.2717 96.3842C99.4184 96.1552 104.08 96.2983 108.598 95.554C114.375 94.6094 120.038 92.9777 125.729 91.4891C126.472 91.2887 126.987 90.2296 127.616 89.5712C126.816 88.8269 126.129 87.7105 125.186 87.4242C123.327 86.8803 121.325 86.6227 119.38 86.594C113.603 86.5082 107.826 86.5654 102.049 86.5654C102.85 85.8211 103.737 85.5063 104.623 85.22C112.545 82.5864 120.524 80.0959 128.389 77.2333C131.105 76.2314 133.679 74.5424 135.881 72.6245C136.939 71.7085 136.939 69.5901 137.397 68.0157C135.91 67.6722 134.308 66.842 132.964 67.1283C129.618 67.8153 126.329 68.9317 123.069 70.0195C108.656 74.8287 94.2421 79.6951 79.9429 84.4757C82.3452 87.8822 80.7437 92.7487 76.0535 95.1246ZM48.4847 91.1456C49.0281 89.3422 50.172 87.2811 49.6858 86.7658C48.0557 84.991 45.9967 83.1303 43.7946 82.6436C42.622 82.3574 40.2484 84.4757 39.3618 86.0502C28.7518 105.172 16.6833 123.236 2.12675 139.61C0.0390698 141.957 -2.163 144.362 -3.50713 147.138C-8.39745 157.301 -6.73875 167.263 -1.61964 176.852C-0.389907 179.142 1.86936 180.087 4.61481 179.801C10.935 179.114 14.5384 175.163 16.9693 169.724C19.5146 164.056 19.6862 158.102 19.4574 152.033C19.4288 151.003 19.8005 149.972 20.0007 148.942C20.3153 148.999 20.6013 149.056 20.9159 149.114C22.26 154.266 22.117 159.448 20.6871 164.514C18.2848 173.045 14.2525 180.202 4.47182 182.005C3.52807 182.177 2.38413 183.093 1.95516 183.98C-0.189719 188.417 -2.2774 192.883 -4.0505 197.463C-6.36697 203.389 -9.3126 209.2 -8.48325 215.927C-8.08287 219.133 -6.48136 220.278 -3.79311 218.647C2.58433 214.753 6.13052 208.599 9.27634 202.129C7.18866 200.956 5.04378 200.354 5.18678 198.408C7.53184 198.665 10.1343 199.811 11.8216 199.009C16.1686 196.919 21.2305 194.83 24.0045 191.194C29.4096 184.123 33.5564 176.108 37.9319 168.293C39.5906 165.316 40.4486 161.881 41.6783 158.675C41.4209 158.56 41.1635 158.417 40.8775 158.303C40.0196 159.304 39.1616 160.306 38.3037 161.308C38.4753 160.163 38.9043 159.219 39.3618 158.274C45.5963 146.079 51.8307 133.884 58.008 121.69C58.8087 120.115 59.4379 118.426 59.8383 116.709C60.0099 115.993 59.6953 114.877 59.1805 114.276C58.2082 113.102 56.9498 112.157 55.5771 110.926C51.5447 113.13 47.2264 114.447 42.5934 111.356C37.9891 108.321 36.9882 103.827 36.6164 98.5312C37.8175 101.308 38.4753 104.056 40.0482 106.031C41.7069 108.092 44.052 110.153 46.4828 110.955C53.2606 113.216 58.1796 107.978 60.5532 102.997C64.0708 95.6113 66.8163 87.9395 72.7361 81.8994C73.9087 80.6971 73.7657 78.1493 74.2232 76.2314C72.4216 76.3459 70.5341 76.1455 68.8468 76.6035C63.1843 78.178 58.7801 81.8421 54.4904 85.6494C52.5457 87.4528 50.6296 89.199 48.4847 91.1456ZM77.7409 77.2047C85.4624 70.8497 89.981 62.8057 90.3527 52.8152C90.5243 48.8075 90.6959 44.4564 89.3232 40.8208C86.349 32.8914 81.4586 26.336 73.5941 22.0421C60.2672 14.7138 48.2273 17.4619 37.2742 25.1051C27.5793 31.8608 22.9464 42.1663 23.4325 54.3324C23.5755 57.4526 23.2895 60.8305 24.3191 63.6645C27.8081 73.3974 34.6145 79.5806 45.0815 81.3268C46.4256 81.5558 47.7984 82.4719 48.9137 83.3593C50.8298 84.9051 52.7173 84.8192 54.519 83.5597C57.4074 81.5558 60.1243 79.3516 63.2129 77.0043C58.0652 70.3058 56.3493 61.5462 51.2874 55.277C55.5199 54.9908 60.0099 53.9602 64.271 50.9259C63.8992 52.3572 63.2129 53.445 63.4417 54.2751C65.3292 61.0595 67.3882 67.7867 69.3901 74.5138C73.8229 73.1684 76.1107 73.8554 77.7409 77.2047ZM30.2961 97.6724C29.6384 97.2144 29.4096 96.9853 29.1522 96.8995C23.0608 94.7811 21.6308 89.4567 23.4897 84.304C24.2619 82.1856 22.9464 81.699 21.5736 81.0978C5.35837 74.0272 -10.8569 66.8993 -27.1294 59.9431C-29.5888 58.8839 -32.4487 58.5977 -35.1655 58.3114C-36.0521 58.2255 -37.5106 59.1416 -37.8538 59.9717C-38.2542 60.9164 -38.1398 62.6626 -37.5106 63.3496C-34.8509 66.0977 -32.2771 69.218 -29.0169 70.9928C-22.5536 74.4852 -15.7186 77.3192 -8.94082 80.1532C-3.82171 82.2715 1.46899 83.9318 6.70249 85.8211C6.13052 86.0501 5.64435 85.9929 5.18678 85.8784C-5.25163 83.1875 -15.8616 81.7562 -26.6146 81.5845C-28.0159 81.5558 -30.4754 82.615 -30.5898 83.4738C-30.79 84.8479 -29.932 87.0521 -28.7881 87.8822C-24.8987 90.7448 -20.609 92.9204 -15.6042 93.3212C-6.48136 94.0368 2.61292 94.8956 11.7358 95.7258C13.1085 95.8403 14.4241 96.3269 15.7682 96.6132C15.7396 96.8995 15.711 97.1571 15.711 97.4434C6.95988 97.0998 -1.59104 97.5006 -9.14101 104.571C-7.08193 105.401 -5.50901 106.604 -4.0219 106.518C7.87502 105.945 19.2572 103.083 30.2961 97.6724ZM31.1827 76.4031C30.239 75.3726 29.953 75.0291 29.6098 74.7428C24.2619 70.1913 21.8596 64.3802 21.6022 57.3667C21.3735 51.0117 22.5746 45.0289 24.8911 39.2464C25.7204 37.2139 25.2342 36.2693 23.4611 35.296C19.1428 32.92 12.9655 33.7502 9.61952 37.3857C8.304 38.817 7.18866 40.4487 5.98753 41.9945C5.75874 41.8514 5.50136 41.6796 5.27257 41.5365C6.75969 39.3609 7.87503 36.7845 9.79112 35.1242C14.9102 30.7158 20.8301 31.4315 26.6928 33.607C28.809 30.8303 30.8109 28.2253 33.2132 25.0478C24.1761 23.3016 15.9112 22.815 8.64718 27.8532C4.18583 30.9162 0.782627 35.3246 0.468045 41.2502C0.325053 43.9983 0.267858 46.7751 0.353653 49.5518C0.41085 51.6129 0.35365 53.8171 1.09721 55.6492C5.18678 65.8973 12.7081 72.5672 23.2609 75.6589C25.4916 76.2886 27.9797 76.1169 31.1827 76.4031ZM92.3832 58.1969C93.4128 57.2809 93.7845 56.9946 94.0705 56.6797C101.249 48.8648 104.681 39.5899 103.279 29.1127C102.221 21.1833 100.763 13.2538 94.9285 6.87021C90.6387 2.14689 85.2336 1.0591 79.6855 1.91788C71.1918 3.23469 65.8725 9.50381 60.6962 15.9733C64.4998 16.8607 67.9316 17.6623 71.3634 18.4352C75.3386 13.6546 77.8266 11.708 82.5454 9.67557C86.6349 7.90075 92.1544 10.0191 93.9847 14.0554C85.8914 8.58778 76.8829 11.2214 74.0231 19.9524C89.0086 27.9963 93.7273 41.3075 92.3832 58.1969ZM65.7009 216.099C65.3864 216.271 65.0718 216.442 64.7858 216.614C64.986 217.53 65.3864 218.446 65.3864 219.362C65.4436 224.658 66.2443 230.126 65.2148 235.221C63.842 242.005 60.0385 247.988 55.3483 253.141C52.9175 255.803 50.2006 258.551 47.0548 260.154C38.8757 264.334 30.2676 265.565 21.5164 261.528C14.9102 258.494 9.33354 254.172 8.21821 246.557C7.41745 241.089 7.10287 235.278 8.10381 229.897C9.41933 222.797 12.222 215.984 14.4241 209.085C15.425 205.965 16.5117 202.874 17.6557 199.496C14.3669 200.383 12.1648 201.643 11.793 204.935C11.6786 206.08 11.0208 207.139 10.5919 208.255C8.50419 213.98 5.84454 219.563 4.41462 225.431C1.38319 238.084 2.67012 249.735 12.365 259.868C21.0589 268.971 35.3009 269.401 44.4237 265.479C56.3207 260.355 64.9002 251.452 67.6742 238.284C68.9897 232.072 69.7905 225.603 67.903 219.276C67.5026 218.103 66.4159 217.129 65.7009 216.099ZM57.2358 110.297C60.4102 115.964 67.5884 115.077 70.3339 109.466C72.3358 105.373 73.1079 101.165 71.9068 96.6705C71.6208 95.5827 71.7638 94.3804 71.678 93.2067C71.4778 89.5139 74.1375 87.1666 75.8248 84.3326C76.7399 82.7868 77.9124 81.241 76.1679 78.3497C69.6761 89.3135 63.4989 99.7334 57.2358 110.297ZM-8.59764 161.051C-8.76923 160.936 -8.94082 160.793 -9.11241 160.679C-10.4851 167.062 -11.9437 173.417 -13.1162 179.801C-13.2878 180.745 -12.201 182.692 -11.4289 182.892C-10.142 183.179 -8.39745 182.692 -7.22492 181.976C-6.02379 181.232 -5.16584 179.858 -4.39368 178.627C-4.0219 177.997 -3.90751 176.995 -4.1077 176.28C-5.53761 171.156 -7.08193 166.118 -8.59764 161.051ZM63.8134 76.8039C67.2452 76.2886 68.332 74.6569 67.6742 72.281C66.4445 67.8439 65.0432 63.4641 63.4703 59.1702C63.3273 58.7408 61.3254 58.5118 60.6104 58.9126C59.1805 59.7141 56.3207 59.9431 57.3216 62.4908C59.2091 67.3573 61.6114 72.0806 63.8134 76.8039ZM37.7889 85.4776C34.0711 84.6188 31.0683 83.7887 28.0083 83.3307C27.1789 83.2162 25.7776 84.0463 25.32 84.8479C22.6032 89.5712 24.9197 94.0368 31.2399 96.1552C32.0692 94.7811 33.2132 93.4643 33.6708 91.9185C33.9281 91.0025 33.3562 89.1418 32.6698 88.8269C31.6689 88.3689 30.0388 88.5979 28.952 89.1418C28.5516 89.3422 28.7804 91.2029 29.0092 92.2334C29.1522 92.8632 29.8672 93.3498 30.3247 93.9223C26.9501 91.7468 26.3496 90.0864 27.7795 88.1685C29.381 86.0215 31.0111 86.1933 35.5011 89.1418C36.1016 88.1971 36.7022 87.2525 37.7889 85.4776ZM62.1833 56.1644C60.8678 53.8457 58.2082 54.1034 54.7192 56.9946C55.1767 57.9965 55.6629 58.9984 56.1205 59.9717C58.2082 58.6549 60.0957 57.4526 62.1833 56.1644Z" fill="#FFC2EE"/>
<path d="M88.6079 41.9658C85.6337 39.9333 83.26 39.9047 81.4297 43.4544C81.2295 43.025 81.0007 42.567 80.8005 42.1376C81.9159 41.2215 82.9168 39.8761 84.1751 39.504C85.8052 38.9887 87.7213 39.1604 88.6079 41.9658Z" fill="#FFC2EE"/>
<path d="M27.8362 59.7142C29.0087 56.3076 30.8962 54.8477 34.471 56.5653C34.3852 56.0786 34.2708 55.592 34.185 55.134C32.7265 55.0767 31.1536 54.5901 29.8953 55.0481C28.2652 55.6206 26.8639 56.9374 27.8362 59.7142Z" fill="#FFC2EE"/>
<path d="M57.2354 52.071C58.0409 52.071 58.6939 51.648 58.6939 51.1263C58.6939 50.6046 58.0409 50.1816 57.2354 50.1816C56.4299 50.1816 55.7769 50.6046 55.7769 51.1263C55.7769 51.648 56.4299 52.071 57.2354 52.071Z" fill="#FFC2EE"/>
</g>
<g opacity="0.2" clip-path="url(#clip1_79:17)">
<path d="M133.194 13.3946C133.002 14.1301 132.812 14.8606 132.624 15.5984C132.061 17.8535 131.487 20.1042 130.958 22.363C130.494 24.3365 130.086 26.33 129.631 28.308C129.354 29.5192 129.021 30.7175 128.703 31.9523C133.105 31.91 137.508 32.0376 141.888 32.833C141.711 33.5999 141.541 34.3395 141.373 35.0741C141.319 35.2975 141.255 35.5164 141.223 35.744C141.192 35.942 141.108 35.9943 140.914 35.9719C140.148 35.8816 139.378 35.8014 138.574 35.7175C138.286 37.1603 138.003 38.5931 137.716 40.0482C134.372 39.3947 131.049 38.7381 127.7 38.0824C127.563 38.6977 127.427 39.2835 127.296 39.8715C127.004 41.1668 126.714 42.4572 126.426 43.7548C126.394 43.8913 126.364 43.9564 126.2 43.9476C124.045 43.8267 121.894 43.7131 119.737 43.5973C119.695 43.5963 119.651 43.5758 119.574 43.5589C119.653 42.8866 119.715 42.2125 119.817 41.5443C120.442 37.2885 121.086 33.0295 121.716 28.776C122.421 24.03 123.114 19.2844 123.814 14.5361C123.827 14.4569 123.814 14.3786 123.814 14.2999C123.837 14.2498 123.86 14.1997 123.883 14.1497C124.163 14.078 124.448 14.0085 124.727 13.9368C126.491 13.4911 128.263 13.146 130.084 13.0477C131.029 12.9961 131.967 13.0628 132.896 13.2578C132.995 13.3034 133.095 13.349 133.194 13.3946Z" fill="#FFC2EE"/>
<path d="M157.974 57.4141C157.183 55.2648 156.399 53.1375 155.599 50.9664C156.072 50.7769 156.553 50.5675 157.045 50.3871C159.517 49.4849 161.993 48.6023 164.46 47.6855C167.581 46.5234 170.55 45.0125 173.46 43.3904C174.412 42.8636 175.343 42.303 176.282 41.7519C176.337 41.7229 176.393 41.6938 176.472 41.6515C176.807 42.604 177.155 43.5389 177.45 44.4855C177.941 46.055 178.403 47.6354 178.863 49.2085C178.954 49.5227 178.974 49.8591 179.046 50.1764C179.119 50.4765 179.026 50.6398 178.728 50.7516C177.327 51.285 175.954 51.8912 174.534 52.3613C171.326 53.4232 168.107 54.4436 164.878 55.4349C162.697 56.1075 160.489 56.6949 158.295 57.3187C158.188 57.3669 158.086 57.3927 157.974 57.4141Z" fill="#FFC2EE"/>
<path d="M178.036 59.5554C182.398 53.4383 186.751 47.3412 191.122 41.2163C193.087 42.5648 195.032 43.9041 197.005 45.2621C192.188 51.1768 187.391 57.076 182.564 62.9984C181.044 61.8478 179.549 60.7087 178.036 59.5554Z" fill="#FFC2EE"/>
<path d="M158.691 40.8939C157.918 43.2108 157.156 45.4781 156.388 47.7728C150.448 46.0449 144.533 44.3284 138.589 42.5982C138.944 40.7985 139.294 39.0089 139.655 37.1819C146.101 37.9488 152.473 38.9177 158.691 40.8939Z" fill="#FFC2EE"/>
<path d="M175.568 58.1217C174.163 57.0481 172.784 55.9983 171.399 54.9461C171.386 54.8974 171.369 54.8537 171.361 54.8073C171.459 54.8037 171.562 54.827 171.654 54.7966C174.135 53.9827 176.617 53.1638 179.011 52.1167C179.403 51.945 179.784 51.7441 180.181 51.5746C180.353 51.5018 180.399 51.4017 180.408 51.2242C180.493 50.0398 180.207 48.9157 179.887 47.8001C179.559 46.6505 179.196 45.5094 178.834 44.3684C178.777 44.1785 178.78 44.0406 178.899 43.8713C180.561 41.5319 182.215 39.1828 183.869 36.8338C183.888 36.806 183.912 36.7805 183.954 36.7273C185.839 38.027 187.717 39.3171 189.61 40.6264C184.93 46.4647 180.262 52.2779 175.568 58.1217Z" fill="#FFC2EE"/>
<path d="M156.833 38.1533C157.794 36.2258 158.74 34.3332 159.694 32.4084C159.944 32.5051 160.183 32.5899 160.407 32.6925C161.906 33.3614 163.42 33.988 164.89 34.722C166.163 35.3598 167.381 36.1178 168.624 36.8207C168.797 36.9177 168.804 37.0061 168.71 37.1867C168.095 38.383 167.491 39.5839 166.894 40.7943C166.59 41.4182 166.311 42.0535 166.002 42.7292C162.925 41.1924 159.903 39.6806 156.833 38.1533Z" fill="#FFC2EE"/>
<path d="M142.204 31.1184C140.62 30.3566 139.059 29.6111 137.47 28.847C139.018 25.6134 140.552 22.4098 142.088 19.2012C143.89 20.0265 145.681 20.8472 147.497 21.6794C145.724 24.84 143.975 27.9628 142.204 31.1184Z" fill="#FFC2EE"/>
<path d="M136.685 28.5902C135.091 27.8238 133.54 27.0829 131.952 26.3188C133.497 23.0902 135.035 19.8766 136.59 16.628C138.166 17.3803 139.732 18.128 141.326 18.8944C139.783 22.1303 138.244 25.3439 136.685 28.5902Z" fill="#FFC2EE"/>
<path d="M176.122 60.986C177.987 62.4217 179.817 63.8293 181.674 65.2555C180.455 66.8528 179.245 68.4302 178.013 70.0402C176.192 68.6004 174.382 67.1774 172.538 65.7211C173.731 64.142 174.92 62.5728 176.122 60.986Z" fill="#FFC2EE"/>
<path d="M174.704 60.3361C173.502 61.923 172.323 63.4844 171.134 65.0536C169.371 63.6584 167.625 62.2773 165.857 60.8798C167.024 59.3189 168.179 57.7829 169.35 56.2119C171.138 57.5939 172.905 58.9545 174.704 60.3361Z" fill="#FFC2EE"/>
</g>
<defs>
<clipPath id="clip0_79:17">
<rect width="141" height="269" fill="white"/>
</clipPath>
<clipPath id="clip1_79:17">
<rect width="79.4308" height="33.0962" fill="white" transform="translate(125.784 10) rotate(24.6133)"/>
</clipPath>
</defs>
</svg>
