<svg width="133" height="305" viewBox="0 0 133 305" fill="none" xmlns="http://www.w3.org/2000/svg">
<g clip-path="url(#clip0_79:16)">
<path d="M72.5275 162.128C72.1359 164.87 71.6137 167.324 71.4832 169.804C71.2743 173.668 72.6319 177.036 75.2428 179.882C75.7649 180.456 75.8172 180.952 75.6344 181.736C75.0078 184.294 74.564 186.905 74.0418 189.49C73.9896 189.699 73.9374 189.96 74.0157 190.143C74.6945 191.866 73.6502 192.779 72.397 193.641C67.1753 197.296 61.9536 200.925 56.8102 204.685C54.4344 206.408 52.2413 208.418 49.9698 210.272C47.1501 212.57 44.2521 214.763 41.4846 217.139C37.5161 220.559 33.4954 223.953 30.3624 228.182C28.0388 231.316 25.8979 234.579 23.8092 237.843C23.3392 238.574 23.3653 239.644 23.1565 240.558C23.0781 240.897 23.1043 241.263 22.9737 241.55C20.8328 247.033 19.6841 252.751 18.9269 258.573C18.3786 262.802 18.3786 266.927 19.5274 271.053C19.8146 272.071 20.0496 273.167 21.355 273.272C22.7126 273.376 23.3392 272.462 23.8614 271.392C26.655 265.909 29.4747 260.453 32.3205 254.996C32.7122 254.265 33.2604 253.612 33.9654 253.038C33.7826 254.761 33.4432 256.51 33.4171 258.233C33.3388 261.314 33.3649 264.395 33.5215 267.45C33.5737 268.337 34.0959 269.277 34.6181 270.034C35.323 271.026 35.5841 272.071 35.8713 273.22C36.4196 275.334 37.2811 277.371 38.0905 279.433C38.4821 280.399 39.4742 280.817 40.3097 280.582C40.8841 280.425 41.4585 279.538 41.6151 278.859C42.059 277.136 42.2417 275.36 42.6073 273.637C43.6516 268.807 44.4871 263.899 45.9491 259.199C46.8629 256.275 48.7688 253.664 50.257 250.923C50.3615 250.714 50.6225 250.557 50.8314 250.427C55.6092 247.868 59.5777 244.396 62.5541 239.801C64.8777 236.25 68.2718 233.796 71.4571 231.107C72.2664 230.402 73.0758 229.671 73.9374 228.914C74.1201 229.096 74.329 229.227 74.3812 229.41C75.2428 232.203 77.0443 234.344 79.0807 236.328C79.8117 237.033 79.7334 237.477 79.2113 238.286C76.9659 241.681 74.6945 245.075 72.7364 248.625C71.3526 251.158 71.2482 254.082 72.658 256.667C74.1201 259.356 74.4073 262.28 75.1122 265.1C75.5822 266.98 75.9738 268.912 76.4438 270.791C76.8876 272.567 76.8876 272.802 75.2167 273.455C72.5536 274.525 69.9167 275.648 67.1753 276.431C66.0265 276.77 64.6428 276.405 63.3634 276.274C60.361 275.987 57.3585 275.387 54.3038 275.961C54.0427 276.013 53.7817 276.039 53.5467 276.118C51.223 276.979 48.8472 277.632 46.3669 277.71C44.5654 277.788 43.3644 278.937 42.0851 279.955C40.858 280.948 39.6831 281.992 38.3777 282.906C34.5136 285.595 30.8324 288.493 28.2998 292.54C27.4905 293.793 27.0205 295.255 26.3417 296.613C25.7673 297.761 26.4461 298.44 27.3338 298.727C28.4826 299.093 29.7097 299.119 30.8846 299.38C31.4329 299.485 31.9028 299.798 32.425 300.033C33.0516 300.294 33.6782 300.764 34.2787 300.738C36.2629 300.633 38.2471 300.372 40.2314 300.111C41.0407 300.007 41.6412 300.033 42.2156 300.842C42.6334 301.417 43.5994 301.913 44.3043 301.86C48.1422 301.599 51.9541 301.025 55.792 300.816C58.5334 300.659 61.3009 300.973 64.0423 300.999C66.3659 301.051 68.6896 301.051 71.0393 300.973C71.7965 300.947 72.2664 300.947 72.4231 301.86C72.6319 302.957 73.6502 302.853 74.4334 302.826C76.6004 302.774 78.7674 302.644 80.9344 302.565C81.2738 302.565 81.8743 302.618 81.9526 302.826C82.4487 303.897 83.3625 303.819 84.2763 303.871C89.9679 304.08 95.6073 303.688 101.195 302.565C102.369 302.33 103.492 301.939 104.667 301.625C104.85 304.419 105.79 305.176 108.766 304.967C114.118 304.602 119.47 304.184 124.849 303.871C126.572 303.766 128.295 303.897 130.018 303.845C130.619 303.819 131.245 303.714 131.794 303.453C134.77 302.043 138.007 302.278 141.14 301.965C145.97 301.469 150.801 301.129 155.578 300.346C158.946 299.798 161.975 298.127 165.004 296.43C169.729 293.741 170.042 290.634 167.484 285.908C164.742 280.817 161.218 276.144 158.189 271.209C157.354 269.852 157.014 268.181 156.492 266.64C154.665 261.262 152.393 256.066 149.782 251.001C148.66 248.834 148.66 246.563 149.835 244.291C151.375 241.289 152.602 238.156 154.195 235.18C154.769 234.083 155.944 233.326 156.832 232.386C158.764 230.402 160.774 228.496 162.575 226.381C164.664 223.901 166.779 221.394 168.398 218.627C171.426 213.64 173.515 208.236 174.429 202.335C175.186 197.453 175.264 192.571 174.69 187.688C174.298 184.451 172.706 183.067 169.468 183.145C166.335 183.224 163.228 183.537 160.121 183.537C158.137 183.537 156.153 183.25 154.195 182.989C153.803 182.937 153.333 182.467 153.15 182.049C152.68 180.978 152.471 179.804 151.949 178.759C150.696 176.305 149.469 173.825 148.007 171.501C146.702 169.465 145.866 167.35 145.448 164.948C144.456 159.1 142.028 154.061 136.702 150.849C135.553 150.171 134.457 149.361 133.412 148.5C133.047 148.186 132.681 147.534 132.76 147.116C133.151 145.21 132.368 143.539 131.506 142.051C130.723 140.641 130.645 139.414 130.775 137.9C130.958 135.785 131.506 134.349 133.491 133.017C137.642 130.198 140.54 126.151 142.603 121.556C143.36 119.859 144.508 118.188 144.665 116.438C145.083 112 145.292 107.483 145.109 103.019C144.822 95.8389 142.864 88.9724 140.592 82.1581C140.122 80.7221 140.462 79.0512 140.279 77.5108C140.07 75.7615 139.835 73.9601 139.313 72.2891C138.503 69.7044 136.598 68.1901 133.908 67.8507C132.707 67.694 131.846 67.3546 130.958 66.3886C128.165 63.36 124.823 61.0625 121.089 59.3132C120.828 59.1827 120.489 59.2088 120.201 59.1305C118.504 58.765 117.199 57.9817 116.416 56.3108C115.319 53.9349 112.969 52.7861 110.907 51.5329C107.434 49.4181 103.518 49.0265 99.5497 49.0004C96.1034 48.9743 93.0487 50.2014 89.994 51.559C89.2369 51.8984 88.3753 52.0551 87.5398 52.1595C83.4147 52.6034 79.2374 52.029 75.1383 53.1778C74.2507 53.4388 73.0758 52.76 72.0575 52.4206C69.6295 51.6635 67.1753 50.8802 64.6689 51.8723C61.1703 53.2822 57.6718 54.692 54.3299 56.4152C50.8053 58.2689 47.4373 60.4359 44.0954 62.6029C41.0669 64.5871 38.5082 67.1197 37.8033 70.827C37.3856 72.9418 37.4117 75.2133 37.5944 77.3803C37.6989 78.5551 37.3595 79.234 36.5501 79.7561C32.4511 82.367 28.2998 84.8473 24.2269 87.4842C18.9008 90.9305 13.4703 94.2724 8.35301 98.0581C5.63774 100.068 3.44462 102.784 1.1993 105.342C-0.393315 107.17 -0.0800113 109.494 0.337723 111.687C0.938217 114.872 1.74758 118.031 2.16531 121.242C2.55694 124.245 2.50473 127.3 2.7397 130.328C2.97468 133.278 3.60127 136.15 4.88058 138.866C5.66383 140.563 7.07369 141.476 8.6402 142.312C9.08404 142.547 9.554 142.965 9.73675 143.382C11.2249 146.803 13.0264 150.04 15.6634 152.651C18.7442 155.706 22.3732 157.899 26.8639 158.029C29.9708 158.134 33.1038 158.029 36.2107 157.899C41.5368 157.69 46.8368 157.429 52.1368 157.115C55.3221 156.933 58.5334 156.541 61.7186 156.306C62.2147 156.28 62.8413 156.358 63.1807 156.645C66.1048 159.074 69.2117 160.979 72.5275 162.128ZM130.697 185.991C130.828 186.122 130.984 186.2 131.063 186.357C132.159 188.211 133.282 190.064 134.326 191.97C134.457 192.205 134.378 192.753 134.169 192.962C132.603 194.868 131.089 196.826 129.339 198.576C124.744 203.223 119.392 206.904 113.988 210.559C111.116 212.491 108.165 214.345 105.972 217.139C103.831 219.88 101.403 222.282 98.4532 224.24C96.3123 225.65 94.6935 227.686 93.832 230.219C93.6492 230.741 93.3359 231.237 92.9965 231.681C91.2472 234.031 89.498 236.407 87.6965 238.704C87.4354 239.044 86.7044 239.331 86.3389 239.226C83.5191 238.234 80.9866 236.694 79.0807 234.37C75.5561 230.01 73.9896 224.815 73.5457 219.332C72.8147 210.168 75.295 201.63 79.1852 193.432C79.4201 192.91 80.1251 192.545 80.6994 192.283C81.8482 191.709 83.0753 191.239 84.2241 190.691C84.5374 190.534 84.7462 190.169 84.9812 189.908C83.3886 190.273 82.031 190.9 80.595 191.344C80.2295 191.448 79.4723 191.161 79.2635 190.821C77.5403 187.845 76.6526 184.686 77.3053 181.213C77.8536 178.263 78.4802 175.339 79.0546 172.415C79.159 171.841 79.1329 171.214 79.159 170.64C79.0285 170.613 78.8718 170.613 78.7413 170.587C78.0625 173.433 77.4098 176.279 76.731 179.125C76.6004 179.125 76.4438 179.151 76.3132 179.151C75.6083 178.133 74.7467 177.167 74.2246 176.07C72.2403 171.867 72.7103 167.637 74.2507 163.408C74.5378 162.624 75.0861 162.468 75.9216 162.755C79.7595 164.008 83.5975 165.183 87.4615 166.384C87.7748 166.488 88.1142 166.436 88.4536 166.462C88.4797 166.332 88.5059 166.201 88.532 166.071C88.1664 165.914 87.8009 165.705 87.4093 165.601C85.0595 164.843 82.7359 163.982 80.3339 163.355C75.06 161.998 69.9689 160.196 65.661 156.776C63.7551 155.262 61.6142 154.766 59.3428 154.896C55.1132 155.183 50.9097 155.784 46.6802 156.019C40.1792 156.384 33.7043 156.645 27.2033 156.698C24.0181 156.724 21.0156 155.497 18.6397 153.33C16.6555 151.528 14.8801 149.492 13.2353 147.377C12.1909 146.045 11.5643 144.427 10.6244 142.651C11.3555 142.599 11.721 142.547 12.0865 142.547C14.1491 142.599 16.2116 142.834 18.2481 142.651C21.0939 142.416 23.8875 141.894 26.7072 141.476C27.4122 141.372 27.8821 141.476 28.3521 142.155C28.8742 142.938 29.6053 143.565 30.3363 144.192C30.989 144.766 31.6678 144.662 32.0595 143.878C32.5555 142.834 33.156 141.764 33.3127 140.641C33.4432 139.597 33.9915 139.283 34.8008 138.996C39.6309 137.273 44.5654 136.203 49.7087 136.464C51.6408 136.568 53.1551 135.811 54.591 134.688C55.7398 133.774 56.9669 132.939 58.0895 131.999C58.8206 131.372 59.4211 131.529 59.9955 132.156C60.6482 132.861 61.2487 133.592 61.9014 134.297C63.1285 135.602 64.1728 135.471 64.5905 133.722C64.9561 132.234 64.7472 130.589 64.7211 128.997C64.7211 128.422 64.4861 127.9 65.2432 127.639C68.3502 126.516 71.4832 125.524 74.825 125.446C77.2792 125.394 79.7595 125.472 82.2137 125.211C83.728 125.054 84.9029 125.133 85.7906 126.542C86.1822 127.169 86.8871 127.639 87.4876 128.135C88.793 129.205 90.0463 128.736 90.229 127.091C90.3596 125.811 90.2812 124.506 90.4118 123.201C90.464 122.757 90.6729 122.208 90.9862 121.921C93.0487 120.015 95.1896 118.188 97.2783 116.334C98.3748 115.368 99.6019 115.029 101.012 115.472C102.004 115.786 102.996 116.125 104.014 116.386C104.563 116.517 105.137 116.465 105.711 116.517C105.711 116.386 105.737 116.256 105.737 116.099C104.824 115.76 103.884 115.42 102.996 115.055C100.464 113.984 98.2443 114.193 96.2078 116.23C94.6413 117.796 92.9443 119.206 91.2733 120.642C88.8975 122.678 86.2344 124.193 83.0753 124.454C80.0989 124.689 77.1226 124.584 74.1462 124.767C69.9428 125.028 65.9221 126.151 62.3191 128.37C59.2383 130.276 56.3925 132.6 53.3639 134.61C52.5023 135.184 51.4058 135.498 50.3614 135.602C48.3772 135.785 46.3408 135.576 44.3826 135.863C42.9467 136.072 42.0068 135.706 40.9885 134.819C40.2575 134.166 39.3959 133.644 38.5082 133.226C37.6989 132.835 36.9417 133.07 36.7067 134.088C36.4718 135.054 36.3412 136.046 36.1063 137.012C36.0018 137.404 35.8191 137.952 35.5319 138.056C33.7565 138.735 31.9811 139.518 30.1274 139.884C26.1851 140.693 22.2166 141.424 18.222 141.868C15.7939 142.129 13.2614 141.972 10.8333 141.685C9.21459 141.503 7.62197 140.772 6.89093 139.074C5.37664 135.55 4.48896 131.842 4.12344 128.004C3.78403 124.167 3.49685 120.329 3.00079 116.491C2.7397 114.454 1.95645 112.47 1.64314 110.407C1.46039 109.311 1.5126 108.032 1.93033 107.013C2.37417 105.917 3.28797 105.003 4.07122 104.115C8.48355 99.1286 13.7836 95.2384 19.4752 91.8704C24.4619 88.9202 29.4486 85.9438 34.3831 82.8891C36.4718 81.5837 38.5343 80.2 40.4141 78.6074C42.3984 76.8842 44.1476 74.9 45.9752 72.994C46.2624 72.6807 46.3146 72.1586 46.4713 71.7408C46.3669 71.7147 46.2363 71.6886 46.1319 71.6364C44.0954 74.1428 42.2156 76.832 38.9521 78.4507C38.9521 76.5187 38.8476 74.9 38.9782 73.2812C39.2393 70.0699 40.5447 67.2763 43.1555 65.3704C46.3408 63.0467 49.5782 60.7753 52.9723 58.7911C56.8886 56.4935 60.8831 54.2482 65.426 53.2561C68.1152 52.6817 70.5955 53.3344 73.1802 54.431C71.4048 55.3186 69.8122 56.1019 68.2196 56.8852C71.3526 56.2324 74.3551 55.2403 77.4098 54.5354C80.4906 53.8044 83.6236 53.3083 87.1221 54.3265C84.6418 55.7886 82.527 57.2246 80.2556 58.3472C76.7048 60.0965 73.3369 61.9502 71.3004 65.5531C69.9428 67.9551 69.6034 70.5399 69.7339 73.229C70.1255 72.1586 70.4127 71.062 70.5955 69.9394C71.1699 66.1797 73.1802 63.3078 76.3654 61.3758C80.9083 58.6083 85.6339 56.128 90.2029 53.3866C95.2157 50.3842 100.698 49.9664 106.155 51.0891C110.489 51.9768 114.223 54.3787 116.39 58.6083C116.546 58.9216 116.964 59.1044 117.303 59.2871C120.28 60.8797 123.361 62.2896 126.206 64.065C127.903 65.1354 129.235 66.7802 130.775 68.2162C130.097 68.8689 129.653 69.2866 129.078 69.8088C130.801 69.6783 132.264 69.4172 133.7 69.4694C135.605 69.5216 137.172 70.3571 137.72 72.3413C138.19 74.0123 138.765 75.6832 138.895 77.3803C139.13 80.4349 139.652 83.4113 140.54 86.3616C142.994 94.7163 144.691 103.201 143.882 112C143.307 117.953 141.271 123.305 136.885 127.561C135.083 129.31 133.073 130.824 131.271 132.547C130.619 133.174 130.201 134.14 129.914 135.054C129.601 136.046 129.731 137.169 129.366 138.108C128.687 139.832 129.078 141.268 130.175 142.573C131.506 144.166 131.663 145.941 131.193 147.847C131.115 148.186 130.567 148.578 130.201 148.63C129.287 148.787 128.321 148.761 127.381 148.813C127.381 148.97 127.381 149.1 127.381 149.257C128.008 149.361 128.608 149.544 129.235 149.518C132.655 149.466 135.318 151.215 137.694 153.304C140.879 156.123 142.629 159.831 143.595 163.956C144.221 166.619 145.031 169.204 146.362 171.632C148.19 174.974 150.096 178.315 151.453 181.84C153.046 186.043 154.847 190.09 157.067 193.98C158.685 196.852 159.469 199.724 158.033 202.883C157.537 203.98 157.014 205.077 156.544 206.199C154.952 209.985 153.542 213.875 151.767 217.582C147.876 225.702 142.524 232.83 136.519 239.461C134.822 241.341 133.151 243.169 132.29 245.623C130.723 250.009 128.243 253.534 123.543 255.048C122.708 255.309 122.16 255.309 121.585 254.656C120.671 253.612 119.784 252.542 118.792 251.576C116.833 249.722 114.823 247.973 111.821 249.33C111.116 249.644 110.802 249.33 110.385 248.704C109.105 246.85 109.158 244.84 109.967 242.986C110.985 240.715 112.134 238.417 113.648 236.485C116.207 233.221 118.191 229.853 118.165 225.572C118.165 225.128 118.087 224.684 118.061 224.214C117.956 224.214 117.852 224.214 117.721 224.24C117.617 224.841 117.46 225.415 117.408 226.016C117.068 228.887 116.494 231.655 114.562 233.979C113.309 235.467 112.16 237.059 111.09 238.678C109.628 240.871 108.635 243.247 108.662 245.962C108.662 246.276 108.531 246.667 108.322 246.876C106.103 248.991 102.709 248.495 101.168 245.858C100.881 245.362 100.568 244.892 100.307 244.396C98.8448 241.759 96.73 239.879 93.9625 238.73C93.7014 238.626 93.362 238.26 93.3881 238.025C93.597 235.545 93.9364 233.143 95.7901 231.185C98.5054 228.313 101.325 225.519 103.623 222.334C106.416 218.47 109.654 215.102 113.335 212.126C115.006 210.768 116.886 209.672 118.687 208.471C124.562 204.528 129.966 200.09 134.248 194.424C135.684 192.518 137.537 191.109 139.966 190.586C140.932 190.378 141.871 190.038 143.151 189.673C142.655 189.464 142.498 189.333 142.341 189.359C140.201 189.542 138.112 189.881 136.363 191.213C135.788 191.631 135.318 191.944 134.874 191.187C133.36 188.733 131.663 186.357 131.193 183.354C130.723 180.43 129.601 177.767 127.172 175.861C125.371 174.425 124.718 172.363 124.196 170.222C123.961 169.204 123.778 168.159 123.569 167.115C123.465 167.115 123.361 167.089 123.256 167.089C123.178 167.48 122.995 167.924 123.047 168.29C123.596 171.893 124.927 175.104 127.642 177.689C128.347 178.368 129.052 179.177 129.418 180.065C130.984 183.877 130.775 184.634 128.165 187.767C125.293 191.239 121.82 193.458 117.121 192.779C113.622 192.283 110.15 191.5 106.651 190.874C103.675 190.325 100.698 189.803 97.696 189.281C97.4088 189.229 97.0955 189.411 96.8083 189.49C97.0694 189.881 97.3044 189.934 97.5133 189.986C101.299 190.769 105.111 191.396 108.818 192.362C112.343 193.276 115.867 193.772 119.497 193.667C122.16 193.589 124.535 192.832 126.389 190.821C127.695 189.177 129.157 187.636 130.697 185.991ZM133.047 280.765C134.326 280.19 135.423 279.694 136.545 279.172C136.493 279.016 136.441 278.885 136.389 278.728C135.449 278.989 134.378 279.042 133.595 279.564C132.368 280.373 131.402 280.295 130.149 279.616C125.475 277.162 119.34 278.52 116.468 283.089C115.946 283.898 115.241 284.603 114.614 285.36C112.656 287.71 110.672 290.059 108.766 292.461C108.113 293.297 107.669 294.341 106.991 295.568C106.756 294.837 106.625 294.472 106.521 294.106C105.711 290.817 104.458 287.788 102.187 285.203C100.751 283.558 98.4793 282.384 96.0773 283.767C95.5551 284.081 94.9546 284.289 94.0931 284.707C94.3541 283.872 94.4064 283.35 94.6674 282.958C97.0172 279.355 100.411 277.423 104.615 276.822C105.502 276.692 105.946 276.927 106.103 277.893C106.26 278.807 106.651 279.721 107.095 280.556C107.748 281.757 108.557 281.888 109.445 280.869C110.411 279.773 111.22 278.52 111.977 277.266C112.343 276.64 112.734 276.431 113.413 276.483C114.17 276.509 115.058 276.666 115.711 276.353C117.956 275.334 120.071 274.029 122.342 273.089C124.797 272.045 125.136 270.713 124.614 268.285C123.987 265.335 123.1 262.411 122.395 259.46C122.264 258.964 122.342 258.39 122.473 257.868C122.891 256.014 124.614 255.779 125.998 255.126C128.295 254.056 130.201 252.594 131.324 250.218C133.125 246.537 134.404 242.542 137.746 239.827C138.242 239.409 138.686 238.939 139.078 238.417C141.506 235.206 143.934 231.994 146.336 228.757C149.887 224.005 152.628 218.81 154.847 213.327C156.205 209.985 157.38 206.565 159.599 203.562C161.035 201.63 161.087 198.863 160.043 196.591C158.711 193.693 156.936 190.978 155.396 188.158C154.847 187.166 154.456 186.07 153.881 184.816C154.638 184.816 155.108 184.816 155.552 184.816C158.894 184.921 162.236 185.025 165.552 185.104C167.249 185.156 168.946 185.025 170.617 185.234C172.444 185.443 173.123 186.122 173.228 187.923C173.384 190.717 173.254 193.537 173.332 196.356C173.489 202.205 171.948 207.714 169.729 213.014C168.789 215.285 167.406 217.348 166.152 219.488C163.072 224.684 159.129 229.122 154.404 232.882C153.829 233.326 153.307 234.005 153.072 234.71C151.923 237.895 150.592 241.002 148.555 243.743C147.668 244.944 147.171 246.223 147.694 247.738C147.798 248.077 147.668 248.495 147.72 248.886C147.824 249.722 147.772 250.636 148.137 251.367C149.234 253.612 150.513 255.779 151.714 257.998C153.411 261.157 154.795 264.473 155.422 268.05C155.578 269.016 155.761 270.034 156.231 270.87C157.432 272.932 158.816 274.864 160.069 276.875C161.74 279.512 163.515 282.096 164.977 284.838C165.97 286.691 166.622 288.728 167.223 290.764C167.536 291.861 167.588 293.323 166.466 294.002C164.038 295.49 161.609 297.291 158.946 297.944C151.793 299.667 144.482 300.712 137.094 300.842C136.702 300.842 136.284 300.868 135.945 301.025C133.386 302.304 130.593 302.252 127.825 302.461C126.598 302.539 126.311 302.122 126.363 300.921C126.494 296.091 125.084 291.73 121.872 288.101C120.541 286.613 118.792 285.543 117.199 284.237C118.792 281.026 121.585 279.433 125.24 279.355C128.086 279.277 130.488 280.582 132.864 281.966C133.177 282.149 133.517 282.279 133.83 282.436C133.882 282.331 133.961 282.253 134.013 282.149C133.752 281.783 133.491 281.418 133.047 280.765ZM38.7171 241.759C39.3437 238.234 40.1531 234.892 42.5028 231.968C44.7743 229.149 46.7324 226.068 48.7688 223.065C49.056 222.648 49.1344 222.073 49.3171 221.577C49.1605 221.525 49.0299 221.447 48.8733 221.394C46.7585 225.598 44.0171 229.357 40.8841 232.699C40.1531 232.151 39.5526 231.707 38.9521 231.263C38.8737 231.368 38.7954 231.472 38.7171 231.577C39.2654 232.282 39.8137 232.96 40.3358 233.613C38.9782 236.537 37.8816 239.435 37.8033 242.647C37.7772 243.508 37.2289 244.344 36.9156 245.284C35.4013 244.37 34.1742 243.56 32.8949 242.855C30.493 241.602 28.091 240.349 24.8535 240.741C25.0885 239.618 25.0885 238.495 25.5585 237.634C26.4461 236.067 27.5688 234.605 28.6654 233.169C32.9471 227.451 37.8294 222.36 43.3905 217.896C48.2989 213.953 53.1812 210.037 58.1418 206.147C60.7265 204.111 63.4157 202.231 66.0787 200.299C68.794 198.288 71.5615 196.356 74.1984 194.268C75.3472 193.354 75.9216 192.127 75.8433 190.508C75.7649 189.333 76.1305 188.158 76.2871 186.957C77.2792 188.576 78.0364 190.143 78.7413 191.709C78.8457 191.944 78.7935 192.31 78.6891 192.545C76.5221 196.957 74.9295 201.578 73.8068 206.356C72.8669 210.455 72.162 214.632 72.658 218.862C72.9191 221.185 73.4413 223.457 73.859 225.754C73.9896 226.538 74.1723 227.269 73.3891 227.869C72.4753 228.574 71.6137 229.383 70.726 230.167C68.1413 232.49 65.4521 234.683 63.0763 237.164C61.1442 239.174 59.7083 241.654 57.8546 243.743C56.7319 245.022 55.2698 246.041 53.9644 247.163C53.8861 247.059 53.7817 246.981 53.7033 246.876C54.5649 245.388 55.5309 243.952 56.262 242.412C57.2541 240.271 58.7684 238.574 60.5176 237.059C64.1989 233.822 66.2354 229.749 67.0708 224.997C67.1231 224.71 67.0447 224.397 67.0186 224.11C66.8881 224.083 66.7575 224.057 66.6009 224.057C66.4442 224.606 66.2615 225.128 66.1309 225.676C65.1388 229.488 63.5984 233.039 60.6221 235.676C58.1157 237.895 56.0792 240.375 54.6432 243.43C53.8861 245.022 53.0767 246.719 51.1969 247.503C50.4659 247.816 49.9959 247.685 49.4738 247.216C46.4974 244.422 42.9467 242.699 38.7171 241.759ZM85.7384 273.82C86.4694 272.802 87.0699 271.992 87.6704 271.157C92.161 264.813 96.5995 258.468 101.116 252.15C101.795 251.21 102.552 250.166 103.518 249.67C104.615 249.148 105.998 249.2 107.696 248.939C105.189 250.871 103.048 252.698 100.725 254.265C98.662 255.649 98.5837 256.066 99.7847 258.207C101.508 261.262 103.335 264.264 105.111 267.293C105.372 267.737 105.764 268.181 105.764 268.651C105.842 271 105.79 273.324 105.79 275.7C105.424 275.778 105.137 275.856 104.85 275.883C102.396 276.118 100.02 276.64 98.0093 278.076C96.5472 279.094 94.9285 279.172 93.3359 279.303C90.2812 279.538 87.8531 280.713 86.2083 283.376C85.9211 283.846 85.399 284.263 84.9029 284.524C80.83 286.561 77.2792 289.276 74.825 293.114C73.7024 294.89 73.1802 297.057 72.3186 299.041C72.162 299.406 71.7181 299.746 71.3526 299.955C71.0393 300.137 70.5955 300.111 70.2038 300.137C68.1413 300.268 66.1048 300.163 64.4339 299.537C63.3896 293.219 62.6324 287.161 55.4004 285.151C56.4969 282.436 59.16 280.739 61.9797 280.948C63.494 281.052 64.9822 281.391 66.4965 281.522C68.8201 281.757 71.1438 281.94 73.4935 282.044C73.8851 282.07 74.2768 281.705 74.6684 281.522C74.6162 281.418 74.564 281.287 74.4856 281.183C73.8068 281.183 73.128 281.235 72.4492 281.183C69.0812 280.843 65.7393 280.556 62.3974 280.112C58.7945 279.642 56.1575 281.6 54.5127 284.237C54.1211 284.864 53.7294 285.464 53.4422 285.934C51.7191 284.551 50.2048 283.35 48.7688 282.07C48.56 281.888 48.5339 281.078 48.7166 280.922C49.9176 279.903 51.0925 278.702 52.5023 278.076C56.0531 276.535 59.7866 277.423 63.4157 277.867C65.4782 278.128 67.4625 278.154 69.4206 277.319C71.8748 276.274 74.3812 275.282 76.8876 274.29C78.3497 273.689 78.5324 273.324 78.193 271.81C77.4881 268.624 76.8354 265.439 76.0782 262.28C75.6605 260.557 75.0861 258.886 74.5378 257.215C73.7807 254.97 73.128 252.698 74.0157 250.349C75.7388 245.91 78.2714 241.916 81.2216 238.208C81.3783 237.999 81.8743 237.843 82.0832 237.947C83.6758 238.704 85.2162 239.54 86.8349 240.401C85.9472 242.281 85.0073 244.109 84.198 246.015C82.3443 250.322 80.8822 254.761 80.6211 259.513C80.4906 261.758 80.8822 262.097 83.0753 261.732C83.1275 261.732 83.2058 261.81 83.1014 261.758C82.8664 265.857 82.6315 269.852 82.4226 273.82C81.8482 273.872 81.1955 273.951 80.5428 274.029C80.5428 274.186 80.5689 274.368 80.5689 274.525C83.6236 274.708 86.6783 274.89 89.7068 275.073C89.7329 274.89 89.7591 274.734 89.7852 274.551C88.4797 274.368 87.2265 274.107 85.7384 273.82ZM86.9655 302.461C86.3127 302.461 85.66 302.409 85.0073 302.461C84.0413 302.539 83.7019 302.095 83.6236 301.208C83.4147 299.171 83.9369 297.291 84.9812 295.621C87.827 291.078 91.4822 287.318 96.2601 284.759C98.6098 283.506 99.9675 283.924 101.638 286.013C104.275 289.302 105.372 293.192 106.103 297.213C106.442 299.093 105.424 300.398 103.544 300.842C98.1138 302.2 92.5527 302.409 86.9655 302.461ZM84.4852 273.507C84.3546 273.455 84.2241 273.428 84.0935 273.376C83.9891 272.88 83.7541 272.384 83.7802 271.888C84.1196 267.423 84.3807 262.959 84.9812 258.52C85.2684 256.38 86.1561 254.265 87.0438 252.254C88.8192 248.26 90.7773 244.37 92.6832 240.427C93.2054 239.357 93.9103 239.226 94.8763 239.931C96.8344 241.367 98.6881 242.882 99.8369 245.127C100.385 246.223 101.351 247.111 102.03 248.155C102.213 248.417 102.187 249.017 102.004 249.278C101.351 250.192 100.568 251.001 99.9152 251.915C95.6073 257.998 91.3256 264.082 87.0177 270.165C86.2344 271.287 85.3206 272.384 84.4852 273.507ZM112.108 303.871C112.108 303.819 112.108 303.766 112.082 303.714C111.168 303.766 110.28 303.845 109.366 303.871C106.442 303.923 105.946 303.323 106.573 300.607C107.931 294.863 110.985 290.164 115.293 286.195C116.024 285.517 116.781 285.386 117.512 285.882C118.844 286.77 120.254 287.605 121.298 288.754C124.431 292.253 125.58 296.482 125.423 301.129C125.397 301.808 125.24 302.383 124.353 302.487C120.28 302.931 116.207 303.401 112.108 303.871ZM110.28 250.401C110.411 250.401 110.541 250.401 110.698 250.401C111.377 250.296 112.108 250.296 112.734 250.035C114.327 249.383 115.659 249.8 116.807 250.871C118.348 252.333 119.732 253.978 121.324 255.361C122.107 256.04 121.951 256.458 121.533 257.189C120.201 259.46 118.844 261.758 117.617 264.082C115.476 268.128 113.439 272.227 111.272 276.274C110.515 277.684 109.471 278.911 108.583 280.243C108.427 280.19 108.244 280.138 108.087 280.086C107.8 279.146 107.304 278.232 107.278 277.292C107.173 273.924 106.86 270.504 107.304 267.188C108.035 261.523 109.262 255.988 110.28 250.401ZM21.9555 272.175C21.7466 272.123 21.5639 272.097 21.355 272.045C21.1461 271.444 20.8851 270.87 20.7545 270.243C19.8407 266.066 19.919 261.836 20.6501 257.711C21.4855 252.855 22.8954 248.103 23.9919 243.299C24.3052 241.863 25.2713 241.419 26.5245 241.393C27.1511 241.367 27.856 241.472 28.4304 241.733C30.8062 242.855 33.1299 244.109 35.5058 245.257C36.5762 245.78 36.6284 246.354 35.9757 247.294C34.4614 249.487 32.8427 251.68 31.5373 254.004C28.9526 258.651 26.5506 263.429 24.0964 268.154C23.3915 269.486 22.6604 270.844 21.9555 272.175ZM37.0462 270.896C35.2447 269.59 34.6442 268.05 34.6181 266.275C34.592 263.951 34.4875 261.601 34.6442 259.278C34.9575 253.847 36.4979 248.704 38.4821 243.691C38.7432 243.012 39.1609 242.777 39.892 242.908C43.4688 243.586 46.4191 245.414 49.056 247.79C49.3693 248.077 49.4215 248.782 49.3693 249.278C49.3171 249.774 49.0299 250.27 48.7688 250.714C46.0013 255.57 43.2077 260.426 40.4141 265.256C39.3176 267.136 38.221 268.964 37.0462 270.896ZM56.8363 299.72C56.8363 299.667 56.8363 299.641 56.8363 299.589C54.7216 299.746 52.6068 299.928 50.492 300.085C48.56 300.216 46.6018 300.398 44.6437 300.398C43.3383 300.425 42.7639 299.537 43.26 298.466C45.4009 293.793 48.5339 289.955 52.8679 287.135C55.061 285.725 57.5935 286.065 59.2905 288.075C61.823 291.052 62.9718 294.602 63.1285 298.492C63.1546 299.302 62.8413 299.72 62.0058 299.72C60.2827 299.72 58.5595 299.72 56.8363 299.72ZM52.4501 286.326C51.8235 286.77 51.6147 286.926 51.4058 287.083C51.1969 287.24 51.0142 287.423 50.8053 287.579C47.2023 290.347 44.5915 293.897 42.555 297.918C42.3201 298.362 41.7196 298.78 41.2235 298.858C39.5265 299.171 37.8033 299.354 36.0801 299.537C33.2604 299.85 32.6077 298.936 33.7043 296.221C33.7565 296.091 33.8087 295.986 33.8609 295.856C36.4457 289.694 41.354 285.83 47.0196 282.775C47.3851 282.566 48.1422 282.592 48.4555 282.854C49.7087 283.872 50.9097 284.994 52.4501 286.326ZM90.1507 287.814C89.1586 288.858 88.3753 289.798 87.4876 290.634C84.6418 293.323 82.762 296.456 82.3965 300.424C82.3704 300.816 81.796 301.443 81.4305 301.469C79.5507 301.652 77.6448 301.782 75.7388 301.756C73.9374 301.73 73.1541 300.868 73.5457 299.093C73.8851 297.5 74.4595 295.908 75.295 294.524C77.4881 290.895 80.5689 288.232 84.2763 286.091C85.8689 285.177 86.9655 285.282 88.2709 286.274C88.8453 286.718 89.4458 287.24 90.1507 287.814ZM92.5265 234.005C92.631 234.057 92.7093 234.135 92.8137 234.187C92.6571 235.362 92.4743 236.563 92.3177 237.738C92.2394 238.417 92.3699 239.174 92.1088 239.749C90.5945 242.908 88.8192 245.936 87.4615 249.148C86.1039 252.359 85.1379 255.753 83.9108 259.017C83.6758 259.643 82.9186 260.061 82.3443 260.531C82.292 260.557 81.6655 260.139 81.6655 259.956C81.6916 259.095 81.8221 258.233 81.9526 257.398C82.6315 253.09 83.9891 248.991 85.895 245.075C87.3832 242.02 89.0802 239.044 90.7773 236.067C91.2211 235.31 91.9522 234.71 92.5265 234.005ZM43.8866 283.323C43.0511 283.95 42.3462 284.472 41.6151 285.021C37.5944 288.101 34.3048 291.756 32.6077 296.665C32.0072 298.414 31.8767 298.545 30.023 298.179C29.6836 298.101 29.3442 298.049 29.0048 297.944C27.7255 297.605 27.4383 297.187 28.0649 295.986C29.0048 294.211 29.9447 292.331 31.2501 290.843C33.9915 287.684 37.3334 285.203 40.8841 283.036C41.9545 282.41 42.79 282.357 43.8866 283.323ZM121.194 261.079C121.35 261.105 121.507 261.131 121.664 261.157C122.603 264.003 123.334 266.927 123.517 269.93C123.543 270.478 122.838 271.366 122.264 271.653C120.306 272.619 118.243 273.428 116.207 274.264C115.685 274.473 115.11 274.603 114.275 274.864C116.677 270.06 118.922 265.57 121.194 261.079ZM40.2836 279.538C40.127 279.538 39.9964 279.564 39.8398 279.564C39.5787 279.303 39.2132 279.068 39.1087 278.728C38.3777 276.666 37.6989 274.577 37.0462 272.462C36.9678 272.201 37.2028 271.81 37.3595 271.549C38.4038 269.904 39.5265 268.311 40.5447 266.666C41.589 264.995 42.555 263.298 43.5472 261.601C43.6255 261.627 43.6777 261.68 43.756 261.706C42.6073 267.658 41.4324 273.611 40.2836 279.538ZM90.9339 286.979C89.7852 286.248 88.793 285.464 87.6965 284.916C86.8871 284.498 86.9394 284.159 87.3832 283.558C88.8714 281.444 91.0384 280.478 93.4926 280.034C94.0669 279.929 94.6936 280.008 95.0852 280.008C94.3541 281.522 93.4665 282.932 93.0487 284.446C92.6571 285.804 91.9261 286.535 90.9339 286.979ZM105.972 265.857C104.093 262.776 102.422 260.035 100.751 257.293C100.62 257.085 100.568 256.823 100.464 256.588C101.586 256.066 102.657 255.57 103.805 255.022C103.518 257.607 103.518 257.607 106.051 258.547C106.26 258.625 106.495 258.677 106.625 258.834C106.808 258.99 107.043 259.252 107.017 259.434C106.73 261.471 106.39 263.507 105.972 265.857ZM63.5723 128.344C64.5122 131.346 64.2772 133.252 62.9457 134.323C61.9275 133.2 60.8831 132.077 59.7605 130.824C61.092 129.963 62.2669 129.205 63.5723 128.344ZM108.531 252.542C108.139 254.421 107.904 255.988 107.434 257.502C107.095 258.625 106.181 257.789 105.555 257.711C105.006 257.633 104.354 257.45 104.615 256.536C105.189 254.656 106.468 253.534 108.531 252.542ZM48.3772 279.198C46.6541 282.984 44.6437 283.48 43.0772 281.653C44.3043 279.694 46.1319 278.833 48.3772 279.198ZM89.2369 123.044C89.3935 123.096 89.5502 123.174 89.733 123.227C89.5502 124.61 89.3674 125.968 89.1064 127.326C89.0802 127.508 88.2709 127.743 88.1403 127.639C87.2265 126.856 86.3911 125.968 85.4773 125.054C86.8871 124.297 88.062 123.67 89.2369 123.044ZM37.2028 137.299C37.3595 136.255 37.4117 135.445 37.6466 134.688C37.7511 134.401 38.4821 134.036 38.691 134.166C39.6048 134.61 40.4664 135.237 41.3279 135.811C41.2757 135.915 41.2496 136.046 41.1974 136.15C39.9964 136.49 38.7693 136.855 37.2028 137.299ZM28.9264 141.111C30.0752 140.771 31.1979 140.432 32.3205 140.093C32.4511 140.223 32.5816 140.328 32.7122 140.458C32.1378 141.503 31.5373 142.547 30.9629 143.591C30.2841 142.886 29.6053 142.155 28.9264 141.45C28.8742 141.398 28.9003 141.346 28.9264 141.111ZM95.764 229.41C96.5734 227.008 98.6098 225.728 100.62 224.397C100.725 224.501 100.829 224.606 100.907 224.684C99.1842 226.277 97.461 227.869 95.764 229.41ZM108.792 249.957C108.923 250.114 109.053 250.296 109.158 250.453C107.878 251.732 106.468 252.803 104.51 253.116C105.972 252.046 107.382 251.001 108.792 249.957Z" fill="#FFC2EE"/>
<path d="M97.461 100.695C99.7585 99.9904 101.821 99.6248 103.596 98.7371C107.121 96.9879 109.079 93.7765 110.254 90.1475C110.75 88.6071 110.985 86.9361 111.116 85.3174C111.22 83.9076 111.403 82.6283 112.264 81.4273C113.074 80.3307 112.839 79.8085 111.533 79.4691C110.411 79.1819 109.758 78.5553 109.079 77.5893C106.756 74.2474 103.518 72.0543 99.4713 71.5322C96.1817 71.1144 93.4403 72.6026 91.0383 74.8479C88.3492 77.3544 86.861 80.4874 86.2605 84.012C85.8166 86.5967 85.7383 89.2598 85.4511 91.8967C85.3989 92.3406 85.1639 92.7844 84.9028 93.1499C84.6418 93.5677 84.2501 93.9332 83.8846 94.377C88.8974 96.9357 92.8137 101.191 98.6098 101.896C101.56 102.262 104.406 101.87 107.147 100.852C107.617 100.669 108.035 100.278 108.4 99.8076C104.954 101.061 101.429 101.896 97.461 100.695ZM98.3487 98.8155C98.5575 98.0061 98.8708 97.3012 98.9231 96.5963C98.9753 95.8391 98.7664 95.082 98.6359 94.1943C99.0536 94.0376 99.5236 93.9071 99.9152 93.6982C100.803 93.2022 101.847 92.8105 102.552 92.1056C105.79 88.7898 105.476 83.2287 101.978 80.148C101.769 79.9652 101.56 79.7302 101.482 79.4691C100.803 77.2238 100.124 74.9785 99.4713 72.7332C100.725 72.8376 102.134 73.1509 103.335 74.1691C105.424 75.9184 107.565 77.6415 108.688 80.2002C109.497 82.1061 109.706 84.0642 109.523 86.179C109.262 89.5992 108.348 92.7844 106.181 95.4214C104.223 97.7711 101.638 99.0243 98.3487 98.8155ZM92.0827 97.9017C91.1428 97.3534 90.1506 96.7007 89.1063 96.1524C87.0698 95.0559 86.2344 93.3588 86.5216 91.0874C86.8871 88.2938 87.2004 85.5002 87.6964 82.7327C88.062 80.8007 89.0019 79.0775 90.4639 77.5371C90.9339 79.1558 91.3777 80.5918 91.7171 82.0539C91.7955 82.3411 91.5866 82.7066 91.4561 83.0199C90.0984 86.3879 90.3073 89.5209 92.8137 92.3406C93.0226 92.5756 93.2836 92.9411 93.2314 93.1761C92.9442 94.6642 92.5265 96.1524 92.0827 97.9017ZM100.49 79.8608C100.646 80.9573 99.9674 82.3149 98.2965 83.1765C96.8083 83.9598 95.4506 83.6726 94.1191 82.811C92.4221 81.7145 91.0905 78.0332 91.691 76.0489C91.7955 75.7095 92.0566 75.344 92.3699 75.1351C93.362 74.4302 94.328 73.7253 95.3984 73.1509C96.3644 72.6287 97.3305 72.6287 98.2181 73.5425C99.7063 75.1612 100.281 77.041 100.49 79.8608ZM93.1531 96.3874C93.2836 95.7869 93.2836 95.0036 93.6492 94.4815C94.1191 93.8288 94.824 93.1238 95.5551 92.9672C96.0511 92.8628 97.0433 93.4632 97.2782 94.0115C97.696 94.9514 97.9571 96.1002 97.8265 97.0923C97.6176 98.7633 96.7561 99.1027 94.6152 98.8416C93.127 98.6588 93.3881 97.4578 93.1531 96.3874Z" fill="#FFC2EE"/>
<path d="M122.499 125.446C122.082 126.856 121.559 128.213 121.22 129.649C120.75 131.712 120.489 133.827 120.045 135.915C119.549 138.213 118.452 140.249 116.573 141.711C113.988 143.748 111.299 145.628 108.218 146.881C106.181 147.716 104.067 147.769 101.952 147.377C99.1583 146.855 96.3647 146.306 93.4928 146.646C92.9445 146.724 92.3963 146.881 91.848 147.351C92.0307 147.429 92.2135 147.612 92.344 147.586C95.6337 147.064 98.8189 147.847 102.03 148.317C105.189 148.787 108.14 148.212 110.855 146.463C112.709 145.288 114.641 144.192 116.468 142.938C118.844 141.294 120.254 138.996 120.802 136.098C121.429 132.782 122.16 129.493 122.839 126.177C122.891 125.994 122.891 125.785 122.917 125.576C122.786 125.55 122.63 125.498 122.499 125.446Z" fill="#FFC2EE"/>
<path d="M112.134 156.384C111.69 156.541 111.481 156.541 111.351 156.671C108.635 159.465 105.163 160.901 101.664 162.311C98.5574 163.564 95.6594 165.157 93.0224 167.271C92.7613 167.48 92.5786 167.741 92.3697 167.976C92.4219 168.081 92.4741 168.159 92.5264 168.264C92.8397 168.159 93.1791 168.107 93.4141 167.924C96.5732 165.339 100.254 163.721 104.014 162.206C106.86 161.058 109.575 159.596 111.664 157.22C111.794 157.063 111.873 156.828 112.134 156.384Z" fill="#FFC2EE"/>
<path d="M24.8797 114.898C25.1408 114.585 25.3497 114.245 25.6368 113.958C26.3418 113.227 26.9945 112.47 27.7777 111.843C28.4043 111.347 29.1615 110.93 29.9709 111.739C30.0753 111.843 30.4147 111.739 30.6758 111.739C30.6236 111.478 30.6497 111.139 30.4669 110.982C28.9265 109.415 27.5167 109.442 26.0546 111.139C25.1669 112.157 24.3836 113.279 24.4881 114.689C24.6186 114.768 24.7492 114.846 24.8797 114.898Z" fill="#FFC2EE"/>
<path d="M31.3024 103.019C31.0935 103.202 30.8324 103.332 30.7802 103.515C30.7541 103.698 30.9108 104.037 31.0674 104.115C33.1039 105.055 34.1743 106.726 34.6704 108.841C34.7487 109.128 34.8009 109.441 34.9575 109.703C35.1142 109.938 35.4014 110.12 35.6103 110.303C35.6886 110.042 35.8975 109.755 35.8452 109.52C35.3753 107.092 34.2004 105.081 32.2423 103.567C31.9812 103.332 31.6679 103.202 31.3024 103.019Z" fill="#FFC2EE"/>
<path d="M131.663 78.7119C132.864 79.1035 134.039 79.4952 135.24 79.8346C135.397 79.8868 135.762 79.8085 135.788 79.704C135.841 79.4952 135.814 79.208 135.71 78.9991C134.848 77.6153 132.629 77.537 131.663 78.7119Z" fill="#FFC2EE"/>
<path d="M4.25398 115.342C4.43674 113.593 3.96678 112.026 2.97466 110.59C2.84412 110.616 2.71358 110.668 2.55693 110.695C2.97467 112.287 3.3663 113.906 3.78403 115.498C3.96679 115.446 4.09733 115.394 4.25398 115.342Z" fill="#FFC2EE"/>
<path d="M146.676 273.507C145.736 272.724 130.88 272.541 129.392 273.194C130.932 273.455 132.211 273.846 133.491 273.846C135.919 273.846 138.321 273.559 140.749 273.481C142.211 273.429 143.699 273.507 145.161 273.533C145.657 273.507 146.153 273.507 146.676 273.507Z" fill="#FFC2EE"/>
<g opacity="0.2" clip-path="url(#clip1_79:16)">
<path d="M34.5418 8.85642C34.7687 9.582 34.995 10.3021 35.2274 11.027C35.9457 13.2377 36.6533 15.4498 37.4028 17.6454C38.0557 19.5648 38.7675 21.471 39.4312 23.389C39.838 24.5631 40.1919 25.7552 40.5766 26.9711C44.2865 24.6003 48.0868 22.3732 52.222 20.7243C52.4789 21.4682 52.7268 22.1855 52.9741 22.8973C53.0466 23.1155 53.1084 23.3351 53.2019 23.545C53.2811 23.7291 53.2375 23.818 53.0607 23.9021C52.3639 24.2316 51.6686 24.572 50.9421 24.9275C51.4634 26.3033 51.9834 27.6681 52.5116 29.0541C49.3307 30.2733 46.1647 31.4795 42.9783 32.6994C43.1882 33.294 43.3837 33.8626 43.5846 34.4306C44.0238 35.6838 44.4622 36.9315 44.9068 38.184C44.9517 38.3169 44.961 38.3879 44.8168 38.4678C42.9264 39.5079 41.0421 40.5528 39.1523 41.5983C39.1165 41.6197 39.0676 41.626 38.9938 41.6523C38.7043 41.0403 38.3993 40.436 38.1309 39.8157C36.4036 35.8763 34.6912 31.9239 32.9693 27.9837C31.0499 23.5863 29.1203 19.1957 27.1955 14.7989C27.1638 14.7253 27.1119 14.6654 27.0701 14.5987C27.063 14.5441 27.0559 14.4895 27.0488 14.4349C27.2478 14.2258 27.4524 14.0159 27.6515 13.8068C28.9102 12.4935 30.2291 11.2613 31.7209 10.212C32.4945 9.6671 33.3258 9.22573 34.2161 8.89883C34.3247 8.88469 34.4332 8.87056 34.5418 8.85642Z" fill="#FFC2EE"/>
<path d="M78.8961 33.0313C77.0852 31.6291 75.2926 30.2412 73.4632 28.8248C73.763 28.4137 74.0599 27.9809 74.3814 27.567C75.999 25.4908 77.6295 23.4295 79.2348 21.3438C81.2646 18.7031 82.9794 15.848 84.5866 12.9292C85.1141 11.9777 85.6062 11.0086 86.1098 10.0435C86.1414 9.98946 86.173 9.93538 86.2181 9.85733C87.0067 10.4876 87.7979 11.0953 88.5499 11.7414C89.7988 12.8114 91.0287 13.9061 92.2526 14.9961C92.4962 15.2142 92.692 15.4886 92.9209 15.7197C93.1421 15.9352 93.15 16.123 92.9566 16.3758C92.0523 17.5707 91.2094 18.8131 90.2553 19.9646C88.099 22.5662 85.9112 25.1386 83.6989 27.692C82.207 29.4187 80.6469 31.0877 79.1174 32.7804C79.0528 32.8777 78.9799 32.9538 78.8961 33.0313Z" fill="#FFC2EE"/>
<path d="M97.0397 24.2063C97.4931 16.707 97.9493 9.22961 98.4066 1.71875C100.788 1.8196 103.147 1.92329 105.54 2.02819C104.594 9.5972 103.655 17.143 102.704 24.7236C100.806 24.5544 98.9339 24.3816 97.0397 24.2063Z" fill="#FFC2EE"/>
<path d="M70.7417 18.6462C71.3158 21.0201 71.8725 23.3462 72.4383 25.699C66.4863 27.3845 60.5615 29.0665 54.6041 30.7527C53.9504 29.0388 53.2982 27.3358 52.6355 25.5954C58.5071 22.8265 64.4227 20.2685 70.7417 18.6462Z" fill="#FFC2EE"/>
<path d="M94.1871 24.2999C92.4268 24.1348 90.7005 23.9765 88.9688 23.8188C88.9312 23.7848 88.8944 23.7563 88.8623 23.7216C88.9434 23.6666 89.0437 23.6314 89.1058 23.5567C90.7767 21.5512 92.4469 19.5404 93.9214 17.3828C94.1624 17.0294 94.3789 16.657 94.6253 16.3029C94.7324 16.1501 94.7182 16.0409 94.6317 15.8856C94.0756 14.8364 93.2371 14.035 92.3743 13.2589C91.4862 12.4584 90.5738 11.6833 89.6615 10.9081C89.512 10.7777 89.4414 10.6591 89.4531 10.4522C89.6211 7.58748 89.7775 4.71874 89.9339 1.84999C89.9351 1.81652 89.9417 1.78235 89.9495 1.71471C92.237 1.81666 94.5129 1.91457 96.812 2.02057C95.9414 9.45198 95.0672 16.8561 94.1871 24.2999Z" fill="#FFC2EE"/>
<path d="M67.7136 17.3082C67.5063 15.1642 67.3039 13.0585 67.0918 10.9207C67.3556 10.8696 67.6025 10.8153 67.8467 10.7835C69.473 10.5551 71.0881 10.2837 72.7237 10.1263C74.1414 9.99173 75.5761 9.98817 77.003 9.92455C77.2006 9.91548 77.2539 9.98627 77.2694 10.1897C77.3831 11.5297 77.5077 12.8682 77.6439 14.2109C77.7172 14.9009 77.8176 15.5874 77.9135 16.3245C74.4898 16.6537 71.1258 16.975 67.7136 17.3082Z" fill="#FFC2EE"/>
<path d="M51.5804 19.1033C49.8338 19.2974 48.115 19.4934 46.3629 19.6882C45.9598 16.1261 45.561 12.5967 45.1615 9.06188C47.1265 8.80606 49.0806 8.55165 51.0618 8.29371C51.235 11.9135 51.4079 15.489 51.5804 19.1033Z" fill="#FFC2EE"/>
<path d="M45.5607 19.8871C43.8032 20.0826 42.0952 20.2772 40.3431 20.472C39.9408 16.9153 39.5406 13.375 39.1354 9.7965C40.8705 9.59837 42.5948 9.40164 44.3523 9.20614C44.7607 12.7676 45.161 16.3079 45.5607 19.8871Z" fill="#FFC2EE"/>
<path d="M96.1762 26.434C98.5188 26.6621 100.817 26.8848 103.148 27.1088C102.961 29.1098 102.771 31.0889 102.582 33.1069C100.274 32.8521 97.9844 32.6061 95.6491 32.3493C95.823 30.3778 95.9983 28.4172 96.1762 26.434Z" fill="#FFC2EE"/>
<path d="M94.6291 26.6355C94.4512 28.6186 94.2799 30.5676 94.1046 32.5282C91.8698 32.2806 89.6575 32.0356 87.4174 31.7886C87.5785 29.8465 87.7432 27.9317 87.9029 25.9787C90.1511 26.2024 92.3707 26.4187 94.6291 26.6355Z" fill="#FFC2EE"/>
</g>
</g>
<defs>
<clipPath id="clip0_79:16">
<rect width="133" height="305" fill="white"/>
</clipPath>
<clipPath id="clip1_79:16">
<rect width="79.4308" height="33.0962" fill="white" transform="translate(26.4595 9.90869) rotate(-7.41782)"/>
</clipPath>
</defs>
</svg>
