<svg width="125" height="204" viewBox="0 0 125 204" fill="none" xmlns="http://www.w3.org/2000/svg">
<g clip-path="url(#clip0_201_1289)">
<path d="M-0.736441 140.734C-1.91427 142.115 -3.01086 143.414 -4.10746 144.673C-4.2293 144.592 -4.31053 144.47 -4.43238 144.389C-3.21394 143.211 -2.03611 142.034 -0.736441 140.734C-4.59484 136.795 -7.76278 132.45 -8.45323 126.684C-9.83413 127.09 -11.0526 127.456 -12.271 127.821C-12.3116 127.74 -12.3522 127.659 -12.4335 127.578C-12.1492 127.415 -11.9055 127.131 -11.6212 127.05C-10.6464 126.765 -9.38737 126.806 -8.77815 126.197C-8.25016 125.669 -8.49384 124.37 -8.372 123.436C-7.92524 120.39 -7.27541 117.385 -6.9911 114.34C-6.7068 111.457 -6.58496 108.574 -6.58496 105.69C-6.58496 103.619 -6.95049 101.589 -7.19418 99.5182C-7.23479 99.1933 -7.31602 98.909 -7.39725 98.5842C-9.02184 98.8684 -10.5246 99.2745 -12.0273 99.3963C-17.1042 99.8836 -21.8967 99.0715 -26.3643 96.432C-32.9033 92.5744 -37.1678 87.0112 -39.5235 79.8644C-41.3511 74.3824 -41.9197 68.7786 -40.9856 63.0531C-40.3358 59.033 -38.7924 55.2565 -36.5992 51.8455C-35.0558 49.4091 -33.35 47.0133 -31.4005 44.9017C-27.6234 40.8004 -23.1964 37.6331 -17.7946 35.887C-15.0734 34.9936 -12.3522 34.2627 -9.4686 34.0596C-3.53885 33.6942 1.98474 35.0342 7.18342 37.9579C10.2701 39.704 12.9913 41.8562 15.2657 44.5769C17.4996 47.2975 18.5962 50.4649 18.9617 53.9165C19.0023 54.485 19.1241 55.0535 19.2054 55.825C19.774 55.2971 20.2207 54.8504 20.6675 54.4038C22.9013 52.211 25.3788 50.3431 28.2624 49.1248C29.3184 48.6782 30.2526 49.003 30.415 50.4649C31.0649 50.0994 31.6741 49.6933 32.3239 49.4497C34.2328 48.6782 36.1823 47.866 38.1724 47.2569C39.3096 46.8915 40.1626 47.8254 40.0407 49.2061C41.2591 48.4345 42.437 47.663 43.6554 46.9321C44.1022 46.6478 44.5489 46.323 45.0769 46.1199C45.4018 45.9981 46.0111 45.8357 46.1329 45.9981C46.3766 46.323 46.4172 46.8102 46.4984 47.2569C46.5391 47.3787 46.4578 47.5412 46.3766 47.8254C47.3514 47.6224 48.2449 47.46 49.2196 47.2975C49.2196 47.0539 49.2602 46.7696 49.2196 46.5666C47.6763 40.841 48.5292 35.3591 50.763 29.9583C52.5906 25.5322 55.3524 21.7963 59.1296 18.9538C62.9474 16.1113 67.3744 14.6495 72.1263 14.3246C78.8683 13.878 85.3261 15.2586 91.3777 18.1011C96.9419 20.6999 101.734 24.3952 105.43 29.3898C109.167 34.4251 111.198 40.0695 111.726 46.323C112.294 52.5764 111.076 58.4239 107.989 63.8652C105.146 68.8599 101.044 72.5145 95.8047 74.7885C95.0736 75.1133 94.3019 75.3164 93.5303 75.3976C92.8398 75.4788 92.6367 75.8037 92.7586 76.3722C93.2459 79.1334 93.4896 81.9759 94.2613 84.6966C95.1954 88.1482 96.4951 91.478 97.7542 94.8077C98.5665 96.8381 99.6631 98.7872 100.597 100.777C100.882 101.386 101.288 101.264 101.775 101.142C104.496 100.615 107.217 100.087 109.939 99.5588C110.264 99.5182 110.588 99.5588 110.913 99.8024C107.664 100.412 104.456 101.061 100.963 101.752C103.603 106.503 104.09 111.375 103.481 116.492C106.771 117.06 110.06 117.223 113.188 118.238C113.188 118.36 113.147 118.441 113.147 118.563C112.132 118.4 111.157 118.197 110.142 118.035C108.111 117.71 106.08 117.385 104.049 117.06C103.481 116.979 103.197 117.142 103.034 117.71C101.816 122.542 99.0945 126.603 96.2108 130.583C94.0582 133.506 91.4995 136.064 88.5753 138.257C88.0473 138.663 87.8848 138.907 88.2097 139.557C90.0374 143.252 92.0275 146.866 93.6115 150.683C95.4797 155.19 96.9825 159.82 97.9979 164.611C98.6477 167.575 99.1757 170.499 99.0538 173.545C98.7695 180.082 96.5357 185.727 91.662 190.234C91.3371 190.518 91.0934 190.843 90.8091 191.128C91.7026 192.671 92.5961 194.173 93.4084 195.676C93.8145 196.447 94.2207 197.3 93.8552 198.234C93.5709 199.005 93.2053 199.574 92.2712 199.574C91.9463 199.574 91.662 199.899 91.3777 200.102C91.2558 200.183 91.2558 200.386 91.1746 200.467C90.8903 200.711 90.4841 201.198 90.2405 201.117C88.5346 200.67 87.3568 203.431 85.4073 201.767C83.6203 200.224 81.5895 198.924 79.7213 197.422C78.7465 196.65 77.8124 196.203 76.4315 196.163C72.7761 196.122 69.1614 195.797 65.5061 195.513C57.8299 194.863 50.1944 193.442 42.4776 193.889C39.066 194.092 35.6949 194.498 32.3239 194.823C30.6993 194.985 29.0747 195.31 27.4908 195.351C25.0945 195.391 23.3887 196.853 21.5204 197.99C18.8398 199.574 16.2405 201.279 13.5599 202.822C12.5446 203.391 11.3667 203.959 10.3108 202.741C10.2295 202.66 10.0671 202.619 9.90461 202.619C7.54896 202.498 7.26465 202.294 7.02096 200.142C5.03084 199.614 4.66531 198.884 5.55883 197.016C6.04621 196 6.73666 195.107 7.3865 194.214C7.75203 193.726 7.79264 193.402 7.30527 192.914C5.15269 190.803 3.73118 188.244 2.43151 185.524C2.06597 184.793 1.21306 184.346 0.685073 183.696C-0.614597 182.072 -1.87365 180.407 -3.13271 178.742C-3.57947 178.133 -3.45762 177.484 -2.88902 176.996C-2.03611 176.184 -1.26443 175.291 -0.330295 174.682C0.725687 174.032 1.09122 173.139 1.17245 172.042C1.5786 167.697 2.26905 163.434 3.81241 159.332C5.23392 155.556 6.85851 151.861 8.48309 148.125C8.84863 147.313 8.80801 147.069 7.99572 146.582C5.51822 145.12 3.16257 143.455 0.725687 141.871C0.31954 141.628 0.0352376 141.384 -0.736441 140.734ZM15.2251 148.612C15.0627 148.774 15.0221 148.937 14.9002 148.977C12.5446 150.318 10.4732 152.023 8.72678 154.053C7.34588 155.637 5.80252 157.221 5.03085 159.089C2.87827 164.408 1.74106 169.971 1.65983 175.778C1.5786 181.138 2.87827 186.011 6.04621 190.356C7.79264 192.752 9.98584 194.62 12.8695 195.188C15.1033 195.635 17.4996 195.716 19.774 195.513C26.1505 194.945 32.4864 194.011 38.8629 193.442C42.6807 193.117 46.5391 193.077 50.3568 193.32C55.1088 193.605 59.8607 194.254 64.6126 194.742C66.1966 194.904 67.7805 194.823 69.3645 195.026C73.5072 195.594 77.6499 195.676 81.752 194.823C88.1691 193.523 92.4743 189.26 95.6016 183.859C98.6071 178.742 98.6477 173.017 97.5917 167.291C96.5764 161.687 94.9518 156.287 92.7992 151.008C92.5149 150.318 92.0681 149.587 91.4995 149.059C88.3316 146.257 85.0418 143.617 81.1022 141.628C82.0363 141.1 82.8892 140.694 83.7015 140.206C87.6005 137.932 91.0527 135.09 94.0176 131.638C97.3886 127.699 100.313 123.517 101.775 118.482C101.937 117.994 101.978 117.466 102.141 116.614C96.9419 116.614 91.9463 116.614 86.9913 116.614C86.9913 116.451 86.9913 116.289 86.9913 116.126C87.5193 116.045 88.0066 115.964 88.5346 115.923C90.2811 115.883 92.0681 115.883 93.8145 115.923C96.2514 115.964 98.7289 116.005 101.166 116.248C102.181 116.37 102.425 116.045 102.465 115.233C102.506 113.487 102.669 111.741 102.506 110.035C102.262 107.274 101.328 104.716 99.9068 102.036C97.4293 103.092 94.9111 104.026 92.5555 105.244C90.1592 106.421 87.9254 107.883 85.6104 109.223C85.6104 109.142 85.5698 108.939 85.6104 108.898C89.8343 105.569 94.6268 103.376 99.8661 101.711C96.7388 95.5793 93.7333 89.4882 92.5961 82.7881C91.0527 83.1535 89.7531 83.4378 88.2909 83.7626C89.3469 86.5645 89.6718 89.4882 88.9408 92.3713C88.2503 95.2544 87.235 98.0563 84.3107 99.7618C85.123 95.9041 84.6762 92.8586 79.8837 92.7368C78.0561 92.6962 76.2284 94.158 76.2284 95.8635C76.1878 97.2036 76.4721 98.6654 76.9595 99.9242C77.6093 101.549 79.2339 101.995 80.9397 102.158C80.6148 102.604 80.2899 103.01 79.8431 103.132C74.4413 104.756 69.3239 103.904 64.6938 100.858C59.8201 97.6502 57.5862 92.818 57.6675 86.9706C57.6675 86.1991 57.6675 85.4681 57.6675 84.6154C57.2613 84.656 56.8958 84.6966 56.5709 84.7372C55.19 84.8184 53.8091 85.0621 52.4688 84.9402C48.8541 84.6154 45.1988 84.4123 41.6247 83.722C37.3601 82.8693 33.055 81.8947 28.9935 80.3922C23.7136 78.4025 19.0835 75.1945 14.9002 71.3775C13.0319 69.6314 11.1637 67.8853 9.25477 66.0174C6.93973 67.8853 4.38101 69.7532 3.5281 72.9612C2.47212 72.8393 1.45675 72.7175 0.400771 72.5551C0.360156 72.7175 0.278926 72.8799 0.238312 73.0018C1.13183 73.5703 2.02536 74.0982 2.91888 74.6667C1.5786 74.8697 0.40077 74.2606 -0.736441 74.8291C-0.777056 74.9509 -0.817669 75.0727 -0.858284 75.2352C0.238313 75.763 1.29429 76.2909 2.39089 76.8188C0.806918 76.5752 0.197696 77.7934 -0.533368 78.7274C-2.76718 81.6511 -4.26992 84.8996 -5.36652 88.3918C-6.34127 91.478 -6.78803 94.6453 -6.46311 97.8939C-6.13819 101.224 -5.85389 104.513 -5.65082 107.843C-5.36651 112.634 -6.38188 117.345 -7.07233 122.055C-7.23479 123.273 -7.31602 124.532 -7.43786 125.791C-3.33578 125.06 0.522613 124.37 4.38101 123.72C9.01108 122.948 14.9408 122.827 16.2405 123.598C8.03633 123.354 0.278927 124.776 -7.51909 126.522C-6.9911 132.288 -3.98561 136.511 -0.0459899 140.206C4.66531 136.146 9.41723 132.369 14.9814 129.77C9.74215 132.857 4.94962 136.552 0.360157 140.572C2.43151 142.683 4.909 144.064 7.3865 145.363C9.94522 146.541 12.5852 147.516 15.2251 148.612ZM-40.4576 72.3927C-40.3358 72.3927 -40.1733 72.4333 -40.0515 72.4333C-39.7265 71.6211 -39.4422 70.809 -39.1173 70.0375C-37.7364 66.3016 -35.462 63.4591 -31.563 62.0379C-28.4763 60.9009 -25.3083 60.4136 -22.0185 60.17C-16.7386 59.7639 -11.7024 60.4136 -6.9911 62.8906C-3.90439 64.5149 -0.898901 66.261 1.33491 69.0223C1.90351 69.7532 2.55335 70.4435 3.2438 71.2557C5.03085 68.8192 6.93973 66.5859 9.37662 65.124C11.2855 66.9513 13.1132 68.7786 15.0221 70.5653C19.8958 75.0321 25.3788 78.6461 31.6741 80.6359C35.4919 81.8541 39.4721 82.7068 43.4523 83.4378C47.9606 84.2499 52.5906 84.5342 57.1801 83.9657C57.505 83.9251 57.9924 83.6814 58.0736 83.4378C58.561 81.8135 59.4951 80.4735 60.4699 79.1334C63.3129 75.2352 67.0089 72.9612 71.842 72.8393C76.5127 72.7175 80.5742 74.423 83.8639 77.7122C85.2448 79.0522 86.3008 80.7577 87.5193 82.2602C87.763 82.5444 88.291 82.9099 88.6159 82.8693C89.8343 82.6662 91.0527 82.3008 92.3524 81.9759C92.2306 81.245 92.19 80.5953 92.0681 79.9456C91.7838 78.5649 91.7838 77.0625 91.1746 75.8443C88.9814 71.5805 86.4633 67.4386 82.9704 64.0682C81.5895 62.7282 80.5742 60.6166 78.0967 60.8197C78.0967 60.8197 78.0561 60.6978 78.0154 60.576C78.3404 60.373 78.7465 60.2106 78.9902 59.9669C79.6806 59.236 80.3711 58.5051 80.9803 57.7335C81.1428 57.5305 81.1022 57.0026 80.9397 56.759C80.8585 56.5965 80.3305 56.5965 80.0462 56.7184C79.5588 56.8808 79.1527 57.165 78.7059 57.3681C78.4216 57.4899 78.0967 57.5711 77.8124 57.6929C78.3404 56.6778 78.9496 55.8656 79.5182 54.9723C79.6806 54.7286 79.5994 54.2819 79.5994 53.9571C79.2339 53.9571 78.8277 53.7947 78.5028 53.9165C77.1219 54.485 76.1472 55.4189 75.9035 57.0838C75.6598 56.759 75.4567 56.3935 75.5379 56.0686C76.269 52.8201 77.6499 49.8558 79.5182 47.0945C83.1329 41.7344 88.0067 37.9579 94.0989 35.8464C97.1856 34.7906 100.394 34.4251 103.562 35.2779C105.268 35.7245 106.892 36.5773 108.517 37.227C108.476 37.3082 108.558 37.227 108.517 37.1864C107.177 33.9378 105.512 30.8517 103.034 28.3341C101.288 26.5473 99.2569 24.9637 97.348 23.38C93.9364 20.4969 90.078 18.4259 85.8135 17.1265C81.7114 15.8677 77.4874 15.5022 73.1823 15.4616C67.9836 15.4616 63.3942 17.2483 59.3733 20.1314C54.9869 23.2988 52.1439 27.6843 50.8442 33.0851C49.7882 37.5112 48.9759 41.8562 50.4381 46.323C50.5599 46.6884 50.8036 47.2975 51.0473 47.3381C52.3063 47.5818 52.5094 48.1909 51.8596 49.2061C55.2712 49.7746 55.5149 49.8558 55.5961 50.5867C53.5654 50.3431 51.5347 50.0588 49.2196 49.7746C50.1132 49.2467 50.8036 48.8 51.5347 48.3939C51.494 48.2721 51.4534 48.1909 51.4128 48.0691C48.0824 47.9066 45.1582 48.9624 42.64 51.277C42.5588 51.1958 42.4776 51.1146 42.3557 50.9928C43.4523 49.6933 44.5489 48.3939 45.6455 47.0945C45.5643 47.0133 45.4831 46.9321 45.4018 46.8509C43.8991 47.8254 42.437 48.8812 40.8936 49.6933C39.3909 50.5055 37.9287 51.5613 36.1011 51.6831C37.1977 50.5055 38.7004 49.8558 39.269 48.1503C34.111 48.5157 30.2932 51.3988 26.6785 54.8504C27.3689 53.0231 28.9529 51.7237 29.3997 49.734C24.8102 51.4801 21.2767 54.6474 18.0275 58.2614C17.9869 57.6523 18.1088 57.1244 18.1494 56.5559C18.3119 51.5613 16.606 47.2569 13.235 43.6429C9.864 39.9883 5.68068 37.5925 0.969377 36.2524C-1.50812 35.5621 -4.14807 35.0342 -6.7068 35.1154C-9.87474 35.2372 -13.0833 35.9276 -16.2106 36.5367C-19.7035 37.227 -22.8308 38.7701 -25.6332 40.9222C-28.4357 43.0744 -30.7101 45.7139 -32.9439 48.4345C-35.2589 51.277 -37.1678 54.4038 -38.4675 57.8554C-39.6859 61.0633 -40.2139 64.3931 -40.417 67.8041C-40.5388 69.3877 -40.4576 70.8902 -40.4576 72.3927ZM3.12195 72.0678C1.74105 70.5247 0.685074 69.0629 -0.65521 67.9259C-5.73205 63.5403 -11.4993 60.7385 -18.4038 60.6978C-22.8714 60.6572 -27.2984 61.1039 -31.4818 62.7282C-32.4971 63.1343 -33.4313 63.6622 -34.3248 64.2713C-36.3555 65.6519 -37.3709 67.8447 -38.3456 69.9562C-39.4828 72.3927 -40.3764 74.8697 -39.361 77.5904C-39.0767 78.3619 -38.833 79.174 -38.5487 79.9456C-36.3149 86.5645 -32.1316 91.6404 -26.2018 95.1732C-20.597 98.5436 -14.4642 98.909 -8.16893 97.5284C-7.2754 97.3254 -7.11295 96.9599 -7.11295 96.1478C-7.11295 90.544 -5.40713 85.4275 -2.48287 80.6765C-1.62996 79.2553 -0.533369 77.9964 0.31954 76.8188C-0.167836 76.1285 -0.73644 75.5194 -1.02074 74.7885C-1.10197 74.6261 -0.167835 74.0982 0.238312 73.7733C0.197697 73.3672 -0.0866071 72.6363 0.116466 72.3927C0.400769 72.0678 1.09122 72.0678 1.61921 72.0272C2.02536 71.946 2.39089 71.9866 3.12195 72.0678ZM79.6806 60.2918C80.6148 61.0633 81.6301 61.7942 82.5237 62.5658C85.6916 65.327 87.8848 68.9005 90.0374 72.4333C91.7838 75.2352 91.7838 75.4382 94.8705 74.0982C101.978 71.012 106.811 65.7737 109.492 58.4645C111.685 52.4952 111.401 46.5666 109.817 40.5568C109.411 38.9731 108.395 37.9173 107.055 37.227C102.669 34.953 98.0791 34.9124 93.5709 36.6179C86.3821 39.3386 81.1834 44.2926 77.9748 51.3176C77.6093 52.1298 77.325 52.9825 76.8782 54.0789C78.1373 53.4698 79.112 52.6171 80.0462 53.5916C80.9397 54.5256 79.7213 55.2565 79.4776 56.1499C79.6806 56.1093 79.8837 56.028 80.0462 56.0686C80.6148 56.2717 81.4271 56.3529 81.7114 56.759C81.9144 57.0838 81.5489 57.896 81.2646 58.3832C80.7772 59.0736 80.2086 59.6827 79.6806 60.2918ZM69.5676 95.2544C73.3854 95.9447 78.1779 90.1785 77.7311 85.9148C77.1625 80.4735 74.4007 77.5904 69.3645 77.4685C64.044 77.3467 60.3074 81.2044 60.3887 86.6051C60.4699 91.4374 63.5566 95.4168 69.5676 95.2544ZM22.5358 196.406C22.4952 196.285 22.4545 196.203 22.4545 196.082C22.2921 196.041 22.089 196 21.9266 196C20.6675 196.122 19.4084 196.244 18.1494 196.366C15.3876 196.61 12.7476 196.366 10.2701 195.107C8.11756 194.011 8.11756 194.011 6.85851 196.203C6.69605 196.447 6.53359 196.691 6.41174 196.934C5.55883 198.721 5.76191 199.087 7.71141 199.29C7.75203 199.29 7.83326 199.371 7.87387 199.411C7.79264 199.452 7.71141 199.493 7.63018 199.533C7.91449 200.264 8.03633 201.401 8.56432 201.645C9.13293 201.929 10.1077 201.401 10.8794 201.239C11.0418 202.579 11.3667 202.782 12.7476 202.213C12.8289 202.173 12.8695 202.132 12.9507 202.091C16.078 200.224 19.3272 198.315 22.5358 196.406ZM87.3568 199.29C87.3974 199.249 87.4787 199.208 87.5193 199.168C87.8036 199.371 88.0066 199.655 88.3316 199.736C88.9408 199.899 89.5906 200.102 90.1592 200.021C90.3217 200.021 90.4029 199.127 90.4842 198.64C90.5248 198.518 90.5248 198.396 90.5654 198.234C90.7278 198.274 90.8091 198.274 90.9309 198.274C91.5401 198.356 92.1494 198.396 92.718 198.477C92.7586 197.787 93.0835 197.016 92.7992 196.447C92.1087 195.026 91.2152 193.686 90.4029 192.346C90.0374 191.737 89.5906 191.818 89.0626 192.224C88.3722 192.752 87.6411 193.239 86.9101 193.645C84.6356 194.904 82.1987 195.716 79.3963 196.082C81.1022 197.462 82.6049 198.721 84.1889 199.899C84.9606 200.467 85.8135 200.954 86.707 201.32C87.5193 201.645 87.8848 201.198 87.6411 200.386C87.6411 200.021 87.4787 199.655 87.3568 199.29ZM91.337 147.8C91.4183 147.759 91.4995 147.719 91.5807 147.719C89.9968 144.876 88.4128 141.993 86.7882 139.069C85.2449 140.003 83.9452 140.775 82.7267 141.546C85.651 143.658 88.494 145.729 91.337 147.8ZM79.7213 84.859C79.64 86.1178 80.6554 87.4173 81.752 87.4985C83.2954 87.5797 84.595 86.4427 84.6356 84.8996C84.7169 83.4378 83.6609 82.3008 82.2394 82.2196C80.8991 82.1383 79.8025 83.2753 79.7213 84.859ZM0.603844 174.479C-0.411523 175.372 -1.38628 176.184 -2.32041 177.037C-2.88902 177.565 -2.88902 178.133 -2.44226 178.783C-1.95488 179.473 -1.58935 180.204 -1.06136 180.854C-0.208449 181.869 0.685074 182.844 1.5786 183.818C1.25368 180.651 0.928762 177.687 0.603844 174.479ZM6.0056 155.475C6.04621 155.515 6.12744 155.515 6.16806 155.556C8.64555 153.282 11.0824 151.048 13.5599 148.774C12.504 148.409 11.3667 147.962 10.2295 147.597C10.0265 147.516 9.53907 147.8 9.41723 148.044C8.28002 150.521 7.14281 152.998 6.0056 155.475ZM83.1735 92.6556C84.1889 91.2749 84.8387 88.0264 84.3107 87.2954C83.7015 87.5391 83.0923 87.7015 82.5237 87.9858C82.28 88.1076 81.9144 88.3106 81.8738 88.5136C81.5489 89.5694 81.3052 90.6252 81.0209 91.8028C81.6708 92.0059 82.4424 92.3307 83.1735 92.6556ZM75.4161 98.0157C73.6291 98.4624 72.0451 98.8684 70.2986 99.3151C72.2075 100.168 74.0352 99.6806 75.9847 99.8024C75.741 99.0309 75.5786 98.503 75.4161 98.0157ZM82.28 81.6511C81.3865 79.8644 78.9496 77.8746 77.8936 77.9152C78.6247 78.8086 79.5182 79.6613 80.0868 80.7171C80.6148 81.6917 81.224 81.9759 82.28 81.6511Z" fill="#FFC2EE"/>
<path d="M11.6916 204C11.0824 204 10.4732 203.797 9.86394 203.147H9.82332C7.34583 203.025 6.73661 202.619 6.41169 200.548C5.64001 200.305 4.90895 199.939 4.58403 199.249C4.2185 198.437 4.58403 197.462 4.94956 196.691C5.39632 195.716 6.04616 194.863 6.65538 194.011L6.81784 193.808C6.9803 193.605 6.9803 193.523 6.9803 193.523C6.9803 193.523 6.9803 193.483 6.81784 193.32C4.54341 191.087 3.04067 188.366 1.82223 185.767C1.65977 185.443 1.33486 185.158 0.969324 184.874C0.685021 184.63 0.400716 184.387 0.116413 184.062C-1.26449 182.316 -2.60477 180.57 -3.74198 179.108C-4.3512 178.296 -4.22936 177.321 -3.45768 176.55C-3.2546 176.347 -3.01092 176.144 -2.80784 175.9C-2.19862 175.291 -1.54879 174.641 -0.777109 174.154C-0.00542965 173.667 0.360103 173.057 0.441332 171.961C0.806864 168.347 1.41608 163.637 3.1219 159.089C4.46219 155.475 6.04616 151.901 7.5489 148.409L7.79259 147.841C7.95505 147.475 7.95505 147.394 7.95505 147.353C7.95505 147.353 7.91443 147.272 7.5489 147.069C5.68063 145.932 3.81235 144.714 2.02531 143.536C1.4567 143.13 0.847478 142.765 0.278873 142.359C0.0351844 142.196 -0.167887 142.034 -0.45219 141.749C-0.533419 141.709 -0.574034 141.628 -0.655263 141.587L-4.0669 145.567L-5.28534 144.389L-1.63002 140.694C-4.67612 137.526 -8.04714 133.263 -8.98127 127.456L-12.5554 128.512L-13.2864 127.375L-12.7991 127.05C-12.7178 127.009 -12.6366 126.928 -12.596 126.887C-12.3929 126.725 -12.1492 126.522 -11.8243 126.441C-11.4588 126.319 -11.0932 126.278 -10.7277 126.197C-10.1185 126.116 -9.50927 125.994 -9.26558 125.71C-9.10312 125.507 -9.06251 124.898 -9.06251 124.37C-9.06251 124.004 -9.0625 123.639 -8.98127 123.273C-8.81882 122.258 -8.65636 121.243 -8.4939 120.228C-8.16898 118.238 -7.80345 116.208 -7.60038 114.177C-7.31607 111.497 -7.19423 108.695 -7.19423 105.609C-7.19423 104.188 -7.3973 102.726 -7.55976 101.305C-7.64099 100.696 -7.72222 100.087 -7.76283 99.5182C-7.76283 99.4369 -7.80345 99.3557 -7.80345 99.2339C-8.12837 99.3151 -8.41267 99.3557 -8.73759 99.4369C-9.83418 99.64 -10.8496 99.8836 -11.9461 99.9648C-17.4697 100.493 -22.3029 99.4776 -26.6487 96.9193C-33.1064 93.1023 -37.6146 87.4173 -40.0921 80.0268C-42.001 74.3012 -42.4884 68.535 -41.5543 62.9312C-40.9044 58.9111 -39.3611 55.0535 -37.0866 51.4801C-35.787 49.4497 -33.9999 46.8103 -31.8473 44.455C-27.7453 39.9883 -23.1964 36.9834 -17.9977 35.2779C-15.3984 34.4251 -12.5554 33.613 -9.50927 33.4505C-3.53891 33.0851 2.14715 34.4251 7.46767 37.43C10.8387 39.3386 13.5193 41.5313 15.7125 44.2114C17.865 46.8103 19.1241 49.9776 19.5302 53.8759C19.5708 54.1195 19.5708 54.3632 19.6115 54.6068C19.8145 54.4038 20.0176 54.2007 20.2207 53.9977C22.6982 51.5207 25.2569 49.7746 28.0187 48.597C28.7498 48.2721 29.4402 48.2721 30.0088 48.597C30.2931 48.7594 30.618 49.0436 30.8211 49.5715C31.2273 49.3279 31.6334 49.0842 32.1208 48.9218L32.8925 48.597C34.5577 47.9472 36.2635 47.2569 37.9693 46.6884C38.6191 46.4854 39.269 46.6072 39.797 46.9727C40.1625 47.2569 40.4062 47.663 40.5686 48.1503L40.7717 48.0285C41.6246 47.46 42.4775 46.9321 43.3304 46.4042L43.5741 46.2418C43.9803 45.9981 44.3864 45.7139 44.8332 45.5514C45.1175 45.4296 46.1735 45.0642 46.6202 45.6326C46.9045 45.9981 46.9858 46.4448 47.067 46.8509C47.067 46.9321 47.1076 46.9727 47.1076 47.0539L48.651 46.7696C48.651 46.729 48.651 46.729 48.651 46.6884C47.1888 41.2877 47.7168 35.7245 50.2349 29.6741C52.1438 25.0043 55.0275 21.2278 58.8046 18.426C62.5412 15.6241 67.0494 14.0404 72.1263 13.6749C78.7058 13.2283 85.2854 14.4871 91.7025 17.492C97.551 20.2127 102.384 24.0703 105.958 28.9838C109.695 34.0597 111.807 39.704 112.375 46.2011C112.944 52.5764 111.644 58.6269 108.558 64.0682C105.674 69.1441 101.491 72.88 96.0889 75.2758C95.3172 75.6006 94.4643 75.8443 93.652 75.9255C93.4896 75.9661 93.4083 75.9661 93.3677 76.0067C93.3677 76.0067 93.3677 76.0879 93.4083 76.2097C93.5708 77.0625 93.6926 77.9152 93.8145 78.7274C94.0988 80.6359 94.3831 82.585 94.9111 84.453C95.8858 87.9045 97.1449 91.3155 98.404 94.5235C98.8913 95.8229 99.5412 97.0817 100.15 98.2999C100.516 98.9903 100.881 99.7212 101.206 100.452C101.247 100.533 101.288 100.574 101.288 100.574C101.328 100.574 101.491 100.533 101.613 100.493L101.734 100.452C104.212 99.9648 106.892 99.4369 109.898 98.8684C110.385 98.7872 110.913 98.8684 111.319 99.1933L112.497 100.005L101.978 102.036C104.049 106.137 104.78 110.523 104.252 115.802C105.105 115.923 105.958 116.045 106.811 116.167C109.045 116.451 111.319 116.776 113.513 117.507L114 117.669L113.756 119.131L112.254 118.847C111.563 118.725 110.873 118.603 110.182 118.482C109.248 118.319 108.314 118.197 107.42 118.035C106.324 117.873 105.187 117.669 104.09 117.507C103.928 117.466 103.846 117.507 103.846 117.507C103.846 117.507 103.806 117.548 103.765 117.71C102.465 122.786 99.5005 127.131 96.8606 130.786C94.708 133.75 92.0681 136.389 89.1032 138.582C88.8595 138.745 88.8189 138.826 88.8189 138.826C88.8189 138.826 88.8189 138.907 88.9407 139.11C89.3469 139.963 89.7936 140.815 90.2404 141.628C91.6619 144.43 93.124 147.313 94.3425 150.236C96.2514 154.866 97.7541 159.576 98.7695 164.286C99.3787 167.169 99.9879 170.215 99.8255 173.382C99.5006 180.489 97.0231 186.092 92.2305 190.478C92.0681 190.64 91.865 190.843 91.7025 191.006C91.9056 191.331 92.0681 191.655 92.2711 191.98C92.921 193.077 93.5302 194.092 94.0988 195.188C94.5862 196.082 95.0329 197.097 94.5862 198.274C94.3019 199.046 93.7739 199.98 92.4336 200.021C92.393 200.021 92.1899 200.183 92.0681 200.264C92.0274 200.305 91.9868 200.305 91.9462 200.345C91.9056 200.467 91.8244 200.63 91.6619 200.792C91.5807 200.833 91.5401 200.914 91.4588 200.995C91.0933 201.32 90.6872 201.685 90.1998 201.564C89.753 201.442 89.3469 201.685 88.697 202.051C87.8035 202.579 86.5851 203.31 85.123 202.051C84.1076 201.158 82.9298 200.345 81.8332 199.533C81.0615 198.965 80.2492 198.356 79.4369 197.747C78.6246 197.097 77.8123 196.65 76.5126 196.65C72.7761 196.61 68.9177 196.285 65.5467 196C63.3129 195.797 61.0791 195.554 58.9265 195.31C53.606 194.701 48.0824 194.092 42.5994 194.376C40.0813 194.539 37.4819 194.782 34.9638 195.026C34.1109 195.107 33.2986 195.188 32.4457 195.269C31.8365 195.31 31.2273 195.432 30.6587 195.513C29.6433 195.676 28.5873 195.797 27.5719 195.838C25.8255 195.879 24.4446 196.772 22.9825 197.706C22.617 197.95 22.2514 198.153 21.8859 198.396C20.8705 199.005 19.8145 199.655 18.7992 200.305C17.2152 201.279 15.55 202.295 13.9254 203.269C13.3162 203.553 12.5445 204 11.6916 204ZM11.6104 201.929C11.6916 201.929 11.8947 201.929 12.4633 201.685C12.5039 201.685 12.5039 201.645 12.5445 201.645L20.7893 196.731C20.2613 196.772 19.6927 196.853 19.1647 196.894L18.1899 196.975C14.9814 197.3 12.3008 196.853 9.94517 195.635C9.2141 195.27 8.56427 194.904 8.3612 194.985C8.15812 195.066 7.79259 195.716 7.34583 196.488C7.30521 196.569 7.22398 196.65 7.18337 196.731C7.10214 196.894 6.9803 197.016 6.93968 197.178C6.49292 198.112 6.49292 198.356 6.53353 198.396C6.57415 198.437 6.77722 198.559 7.75198 198.68C8.03628 198.721 8.19874 198.884 8.23935 198.965L8.97042 199.614L8.3612 199.899C8.40181 199.98 8.40181 200.061 8.44242 200.142C8.52365 200.467 8.68611 201.036 8.80796 201.158C8.97042 201.239 9.53902 201.036 9.90455 200.954C10.1889 200.873 10.4325 200.792 10.7168 200.711L11.3667 200.589L11.4479 201.239C11.4885 201.726 11.5698 201.888 11.6104 201.929ZM80.899 196.488C81.0209 196.61 81.1833 196.731 81.3052 196.813C82.4424 197.747 83.4984 198.599 84.595 199.411C85.3666 199.98 86.1789 200.427 86.9912 200.751C87.0725 200.792 87.1131 200.792 87.1537 200.792C87.1537 200.711 87.1537 200.63 87.1131 200.508C87.0318 200.264 86.9912 200.061 86.8694 199.817C86.8288 199.696 86.7882 199.574 86.7475 199.493L86.6257 199.087L87.4786 198.396L87.8441 198.68C87.9254 198.762 88.0472 198.843 88.1284 198.924C88.2503 199.005 88.3721 199.127 88.4534 199.168C88.9001 199.29 89.3063 199.411 89.7124 199.452C89.753 199.33 89.753 199.208 89.753 199.087C89.7936 198.884 89.8343 198.68 89.8749 198.518L90.0779 197.584L90.7684 197.665C90.8496 197.665 90.8902 197.665 90.9715 197.706L92.1899 197.828C92.1899 197.787 92.1899 197.747 92.1899 197.747C92.2711 197.381 92.3118 196.934 92.2305 196.772C91.7431 195.716 91.0933 194.66 90.4435 193.645C90.2404 193.32 90.0779 193.036 89.8749 192.711C89.8343 192.63 89.7936 192.589 89.753 192.549C89.7124 192.549 89.6312 192.589 89.4281 192.752C88.8189 193.239 88.0472 193.726 87.1943 194.214C85.2854 195.31 83.1734 196.041 80.899 196.488ZM88.3315 200.386C88.3721 200.548 88.3721 200.67 88.3721 200.833C88.5752 200.751 88.7377 200.63 88.9407 200.548C88.7783 200.508 88.5752 200.427 88.3315 200.386ZM91.0933 198.884C91.0527 199.005 91.0527 199.127 91.0121 199.249C91.0121 199.33 90.9715 199.411 90.9715 199.493C91.0121 199.452 91.0527 199.411 91.0933 199.411C91.2964 199.249 91.4995 199.087 91.7838 198.965L91.0933 198.884ZM22.9825 195.757L23.1043 196.163C23.3886 196 23.6729 195.838 23.9572 195.676C23.6323 195.716 23.3074 195.757 22.9825 195.757ZM1.33485 140.531C3.28436 142.359 5.55878 143.617 7.75198 144.754C9.45779 145.607 11.2042 146.297 13.0319 147.069C13.8442 147.394 14.6565 147.719 15.4281 148.044L16.1998 148.368L15.6312 149.018C15.5906 149.059 15.55 149.099 15.5094 149.14C15.4282 149.262 15.3063 149.424 15.1032 149.505C12.8288 150.764 10.7981 152.429 9.09226 154.419C8.88919 154.662 8.68611 154.906 8.48304 155.109C7.30521 156.409 6.12739 157.749 5.51817 159.251C3.36559 164.571 2.26899 170.093 2.18776 175.697C2.10654 181.219 3.52805 185.889 6.45231 189.909C8.3612 192.508 10.4732 194.011 12.91 194.498C15.022 194.904 17.337 195.026 19.6115 194.823C22.6169 194.539 25.7037 194.173 28.6685 193.848C31.9583 193.442 35.37 193.077 38.7004 192.792C42.4369 192.468 46.3359 192.427 50.2755 192.63C53.4029 192.792 56.5302 193.158 59.5763 193.523C61.2009 193.726 62.8661 193.889 64.5313 194.051C65.2218 194.132 65.9122 194.133 66.562 194.173C67.4556 194.214 68.3897 194.214 69.2832 194.336C73.7508 194.985 77.7311 194.904 81.4676 194.132C86.9912 192.996 91.3776 189.503 94.9111 183.493C97.4292 179.189 98.0384 174.073 96.8606 167.332C95.8858 161.972 94.3019 156.53 92.1087 151.17C91.8244 150.48 91.4182 149.871 90.9715 149.465C88.2097 147.028 84.8387 144.226 80.696 142.115L79.6806 141.587L80.696 141.019C80.9803 140.856 81.3052 140.694 81.5895 140.531C82.1987 140.206 82.7673 139.922 83.2953 139.597C87.1537 137.364 90.5653 134.521 93.449 131.151C96.1701 127.984 99.5005 123.639 101.085 118.197C101.166 117.913 101.247 117.588 101.288 117.182C101.288 117.182 101.288 117.142 101.288 117.101H86.3008L86.2196 115.477L86.7882 115.396C86.9506 115.396 87.1131 115.355 87.2755 115.314C87.6411 115.274 88.0066 115.192 88.4127 115.192C90.4029 115.152 92.0275 115.152 93.7333 115.192C94.18 115.192 94.5862 115.192 95.0329 115.233C97.0231 115.274 99.0944 115.314 101.125 115.517C101.572 115.558 101.694 115.477 101.694 115.477C101.694 115.477 101.734 115.396 101.775 115.071C101.775 114.665 101.816 114.299 101.816 113.893C101.856 112.594 101.937 111.213 101.816 109.914C101.613 107.64 100.881 105.325 99.5412 102.645C98.9319 102.889 98.3633 103.132 97.7541 103.376C96.0077 104.107 94.3425 104.797 92.7179 105.609C91.0933 106.421 89.4687 107.396 87.9254 108.33C87.2349 108.736 86.5039 109.183 85.8134 109.589L84.8793 110.117V109.061C84.8386 108.898 84.798 108.492 85.123 108.249C88.9001 105.244 93.2865 103.01 98.8913 101.142C95.6828 94.8077 93.124 89.407 92.0274 83.316L89.022 84.0063C89.9967 86.8488 90.1186 89.6507 89.4687 92.3307C88.7783 95.092 87.8035 98.2187 84.5543 100.087L83.3765 100.777L83.6608 99.4369C84.1482 96.9599 84.0264 95.3762 83.2547 94.4017C82.6048 93.5895 81.4676 93.1835 79.8024 93.1429C78.9901 93.1022 78.1372 93.4677 77.528 94.0362C77.0406 94.5235 76.7563 95.092 76.7563 95.6605C76.7157 96.9599 76.9594 98.2999 77.4468 99.4775C77.9748 100.777 79.1932 101.142 80.9396 101.345L82.0362 101.467L81.3458 102.32C81.0209 102.767 80.5741 103.295 79.9649 103.498C74.5631 105.122 69.1208 104.35 64.3282 101.183C59.4139 97.9751 56.977 93.1023 57.0176 86.7676C57.0176 86.2803 57.0176 85.7524 57.0176 85.2245V85.1027C56.8551 85.1027 56.6927 85.1433 56.5302 85.1433C56.1241 85.1839 55.7179 85.2245 55.3118 85.2245C54.337 85.3057 53.3217 85.4275 52.3469 85.3057C51.7783 85.2651 51.1691 85.2245 50.6005 85.1433C47.595 84.8996 44.4677 84.656 41.4622 84.0469C37.5632 83.2753 33.0143 82.2602 28.7498 80.6765C23.8354 78.8492 19.1647 75.8443 14.494 71.5399C13.1943 70.3623 11.9353 69.1441 10.6356 67.8853C10.1889 67.4386 9.70148 66.9919 9.2141 66.5453L9.05164 66.6671C7.14275 68.2102 5.19325 69.8344 4.29973 72.2302L4.58403 72.5551L4.2185 72.5145C4.17788 72.6363 4.13727 72.7581 4.13727 72.8393L4.01543 73.3672L2.02531 73.1236L4.70587 74.7885L3.04067 75.0321C2.43145 75.1133 1.86284 75.0727 1.33485 74.9915C1.00994 74.9509 0.725634 74.9103 0.481946 74.9509L6.24923 77.7934L2.26899 77.3873C1.29424 77.2249 0.847479 77.7934 0.197644 78.6868C0.116415 78.8086 -0.00543088 78.9304 -0.0866602 79.0928C-2.11739 81.7323 -3.66075 84.859 -4.79796 88.5543C-5.81333 91.8028 -6.17886 94.8484 -5.89456 97.8127L-5.85394 98.4218C-5.56964 101.467 -5.28534 104.675 -5.08226 107.802C-4.83858 111.781 -5.48841 115.72 -6.09763 119.497C-6.21948 120.39 -6.38193 121.284 -6.50378 122.136C-6.62562 122.948 -6.66624 123.761 -6.74747 124.613C-6.74747 124.735 -6.78808 124.898 -6.78808 125.019C-5.77272 124.857 -4.79796 124.654 -3.82321 124.491C-1.0208 124.004 1.57854 123.517 4.25911 123.07C8.80796 122.299 14.9814 122.096 16.5247 123.03L18.5555 124.248L16.1998 124.167C8.03628 123.923 0.278874 125.344 -6.90993 126.969C-6.38193 131.476 -4.22936 135.334 -0.0460431 139.354C4.13727 135.78 9.05165 131.841 14.6971 129.202L15.2657 130.298C10.7168 133.019 6.12739 136.389 1.33485 140.531ZM8.19874 193.564C8.19874 193.645 8.19874 193.686 8.15812 193.767C8.23935 193.767 8.32058 193.767 8.44242 193.767C8.36119 193.726 8.27997 193.645 8.19874 193.564ZM90.1998 191.331C90.2404 191.331 90.2404 191.331 90.281 191.331H90.1998ZM0.116413 175.697C0.0757985 175.697 0.0757985 175.697 0.116413 175.697C-0.614651 176.306 -1.26449 176.875 -1.91432 177.484C-2.19862 177.727 -2.27985 177.93 -1.95494 178.418C-1.75186 178.702 -1.54879 179.027 -1.38633 179.311C-1.14264 179.717 -0.898952 180.123 -0.614649 180.448C-0.167888 180.976 0.278874 181.504 0.766251 182.032L0.116413 175.697ZM5.68063 156.003C5.43694 156.571 5.19325 157.18 4.99018 157.749C5.31509 157.18 5.68063 156.652 6.08677 156.165L5.68063 156.003ZM9.98578 148.328C9.2141 149.993 8.40181 151.698 7.67075 153.363L12.4633 148.977C11.7322 148.693 10.9605 148.45 10.1889 148.206C10.1076 148.247 10.0264 148.287 9.98578 148.328ZM91.6213 148.368C91.7025 148.45 91.7838 148.531 91.865 148.612C91.9868 148.693 92.0681 148.815 92.1899 148.937C92.1087 148.734 91.9868 148.531 91.9056 148.287L91.6213 148.368ZM9.01103 146.704C9.17349 146.907 9.2141 147.15 9.2141 147.394C9.37656 147.231 9.62025 147.11 9.82332 147.069C9.53902 146.947 9.29533 146.825 9.01103 146.704ZM83.8233 141.587L89.9561 146.054L86.5851 139.922L83.8233 141.587ZM87.1943 138.582L87.3974 138.948C87.3974 138.704 87.438 138.501 87.5598 138.298C87.4786 138.379 87.3568 138.501 87.1943 138.582ZM102.79 116.248L102.709 116.695C102.709 116.776 102.669 116.898 102.669 116.979C102.709 116.898 102.75 116.857 102.831 116.776L102.872 116.37C102.872 116.289 102.912 116.167 102.912 116.086C102.831 116.126 102.831 116.208 102.79 116.248ZM58.2766 84.1281V85.3869C58.2766 85.9148 58.2766 86.4427 58.2766 86.93C58.1954 92.818 60.4698 97.3254 65.0187 100.29C69.5675 103.254 74.4413 104.026 79.5587 102.482C78.3403 102.198 77.1625 101.67 76.5126 100.452L75.944 100.412C75.3348 100.371 74.7662 100.371 74.157 100.412C72.8167 100.452 71.4764 100.493 70.0549 99.843L68.4709 99.1121L75.6597 97.2848C75.5785 96.7569 75.5785 96.229 75.5785 95.7011C75.5785 94.8077 76.0253 93.9144 76.7157 93.2241C77.5686 92.4119 78.7464 91.9652 79.843 91.9652C80.0055 91.9652 80.1273 91.9652 80.2898 91.9652L80.4116 91.5186C80.4929 91.2343 80.5741 90.9095 80.6147 90.6252C80.8178 89.8131 81.0209 89.0009 81.2646 88.2294C81.3052 88.1482 81.3458 88.067 81.3864 87.9858C80.8584 87.8639 80.371 87.5797 79.9649 87.0924C79.3963 86.4427 79.0714 85.5493 79.112 84.7372C79.1932 83.5596 79.7212 82.585 80.5335 82.0165C80.168 81.7729 79.843 81.4074 79.5587 80.9201C79.1932 80.2704 78.6652 79.6207 78.1372 79.0522C77.8935 78.768 77.6499 78.5243 77.4468 78.2401L76.7157 77.3467L77.8935 77.2655C79.3557 77.1437 81.955 79.4989 82.8485 81.3262L83.011 81.6917C84.3919 82.0571 85.3666 83.3566 85.2854 84.8996C85.2448 85.5493 85.0417 86.1585 84.6762 86.6457L84.8386 86.8894C85.5697 87.9452 84.7574 91.5186 83.6608 92.9804L83.5796 93.0616C83.8233 93.2647 84.067 93.4677 84.27 93.7114C85.2854 94.9702 85.326 96.7569 85.123 98.2999C87.0725 96.6351 87.7629 94.3611 88.3315 92.0871C88.9813 89.4476 88.7783 86.6863 87.6817 83.8438L87.438 83.1941L87.7629 83.1129C87.438 82.9505 87.1943 82.7069 87.0318 82.5038C86.5445 81.9353 86.0977 81.3262 85.6509 80.7577C84.9199 79.7831 84.1888 78.8492 83.3765 78.037C80.1273 74.8291 76.2283 73.2454 71.8013 73.3672C67.415 73.4891 63.7596 75.5194 60.9166 79.4177C59.8606 80.8389 59.0483 82.0571 58.6016 83.5596C58.6016 83.8032 58.4391 83.9657 58.2766 84.1281ZM73.1416 99.2339C73.4665 99.2339 73.8321 99.2339 74.157 99.2339C74.4819 99.2339 74.8474 99.1933 75.1724 99.1933L75.0505 98.7466L73.1416 99.2339ZM-24.3742 96.7975C-20.6783 98.5842 -16.6168 99.2339 -12.0274 98.7872C-11.012 98.706 -10.0373 98.503 -8.98127 98.2593C-8.4939 98.1781 -7.96591 98.0563 -7.47853 97.9751L-7.113 97.8939V97.8533C-7.113 97.7721 -7.113 97.6908 -7.113 97.6502C-7.35669 97.8127 -7.64099 97.9751 -8.04714 98.0563C-14.2206 99.4369 -19.5817 99.0309 -24.3742 96.7975ZM-18.8506 61.2664C-23.8462 61.2664 -27.7859 61.9161 -31.2381 63.2561C-32.091 63.5809 -33.0252 64.0682 -33.9593 64.7179C-35.8276 65.9768 -36.7211 67.9259 -37.6959 70.0375L-37.7365 70.1593C-38.7925 72.3521 -39.686 74.7479 -38.7112 77.3061C-38.5082 77.834 -38.3051 78.4025 -38.1426 78.9304C-38.0614 79.174 -37.9802 79.4177 -37.8989 79.7019C-35.7464 86.0772 -31.6849 91.0719 -25.8364 94.6047C-20.8001 97.6502 -15.0735 98.3812 -8.25021 96.8787C-7.72222 96.7569 -7.68161 96.7163 -7.68161 96.1072C-7.68161 90.6658 -6.13825 85.4681 -2.9703 80.311C-2.36108 79.2959 -1.67063 78.4025 -0.980182 77.5092C-0.777109 77.2655 -0.614649 77.0219 -0.411576 76.7782C-0.452191 76.7376 -0.492806 76.6564 -0.533421 76.6158C-0.777109 76.3316 -0.980182 76.0067 -1.18326 75.6818L-1.54879 75.5194L-1.46756 75.2352C-1.50817 75.1539 -1.54879 75.0727 -1.54879 75.0321C-1.75186 74.4636 -1.26449 74.1388 -0.533421 73.6109C-0.492806 73.5703 -0.452191 73.5297 -0.370962 73.5297C-0.370962 73.5297 -0.370962 73.5297 -0.370962 73.4891C-0.370962 73.4078 -0.411576 73.3672 -0.411576 73.286C-0.492805 72.8393 -0.574034 72.3521 -0.249117 72.0272C0.15703 71.5805 0.806865 71.5399 1.37547 71.4993C1.4567 71.4993 1.57854 71.4993 1.65977 71.4587C1.70039 71.4587 1.78162 71.4587 1.82223 71.4587C1.70039 71.3369 1.61916 71.2151 1.49731 71.0932C0.685019 70.1187 -0.0866597 69.2253 -0.939568 68.4538C-6.38194 63.7434 -12.068 61.4288 -18.282 61.3476C-18.5663 61.2663 -18.6882 61.2664 -18.8506 61.2664ZM93.5302 84.5748C94.18 87.5391 95.1954 90.341 96.4544 93.2647C95.4391 90.5846 94.4237 87.7421 93.6114 84.859C93.6114 84.7778 93.5708 84.656 93.5302 84.5748ZM81.7113 91.3968L82.9298 91.884C83.5796 90.747 83.9045 88.9603 83.9045 88.067C83.4984 88.1888 83.1328 88.3512 82.7673 88.5137C82.5642 88.5949 82.483 88.6761 82.4424 88.7167C82.1987 89.4476 82.0362 90.2192 81.8332 90.9907C81.7925 91.1125 81.7519 91.2343 81.7113 91.3968ZM80.3304 84.8996C80.2898 85.3869 80.4929 85.9554 80.8584 86.3615C81.1427 86.6863 81.4676 86.8488 81.7925 86.8894C82.3611 86.93 82.9298 86.7269 83.3359 86.3615C83.7421 85.996 83.9857 85.4681 84.0263 84.8996C84.067 83.8032 83.2953 82.9099 82.1987 82.8693C81.1833 82.7881 80.4117 83.6408 80.3304 84.8996ZM9.45779 64.3525L9.78271 64.6773C10.3919 65.2458 10.9605 65.8143 11.5698 66.3828C12.8288 67.601 14.1285 68.8599 15.4281 70.0781C20.7487 74.9509 26.1098 78.1995 31.8771 80.0268C35.1669 81.0826 38.9034 81.9353 43.5741 82.7881C48.4479 83.6814 52.8749 83.8439 57.0988 83.316C57.2207 83.316 57.4237 83.1941 57.505 83.1535C57.9923 81.4886 58.9265 80.1486 59.9825 78.7274C63.0286 74.5042 67.0088 72.3115 71.8419 72.1896C76.6345 72.0678 80.8178 73.7733 84.3107 77.2249C85.2042 78.1183 85.9759 79.1334 86.7069 80.108C87.1537 80.6765 87.5598 81.245 88.0472 81.8135C88.2097 82.0165 88.494 82.179 88.6158 82.179C89.4281 82.0571 90.281 81.8135 91.2152 81.5699C91.3776 81.5293 91.5807 81.4886 91.7431 81.448C91.7431 81.4074 91.7431 81.3668 91.7431 81.2856C91.7025 80.8389 91.6213 80.3923 91.5401 79.9862C91.4588 79.5801 91.4182 79.1334 91.337 78.6868C91.2151 77.7122 91.0933 76.7782 90.6872 76.0473C88.7377 72.2708 86.2195 67.9259 82.6048 64.4337C82.2393 64.1088 81.955 63.7434 81.6301 63.3779C80.6553 62.2409 79.8024 61.2257 78.2185 61.3882C78.0154 61.3882 77.6905 61.3476 77.528 60.8603C77.528 60.8197 77.528 60.7791 77.4874 60.7791L77.3249 60.3324L77.7311 60.0887C77.8529 60.0075 77.9748 59.9669 78.0966 59.8857C78.2997 59.7639 78.5028 59.6827 78.6246 59.5609C79.1932 58.9924 79.8837 58.2208 80.5335 57.4087C80.5335 57.3681 80.5335 57.3275 80.5335 57.2463C80.4523 57.2463 80.371 57.2463 80.3304 57.2869C80.0867 57.3681 79.843 57.4899 79.5994 57.6523C79.4369 57.7335 79.2338 57.8554 79.0307 57.9366C78.7871 58.0584 78.584 58.099 78.3403 58.1802C78.2591 58.2208 78.1778 58.2208 78.056 58.2614L76.6345 58.7487L77.2843 57.4087C77.6499 56.6778 78.0966 56.028 78.5028 55.4189C78.6652 55.1753 78.8683 54.891 79.0307 54.6474C79.0307 54.6068 79.0307 54.5662 79.0307 54.485C78.9495 54.485 78.8277 54.4444 78.7871 54.485C77.4468 55.0535 76.7563 55.9062 76.5532 57.2056L76.3502 58.6675L75.4567 57.4899C75.0505 56.962 74.8881 56.4341 75.0099 55.9874C75.7003 52.8201 77.0812 49.7746 79.0714 46.8103C82.7673 41.3283 87.8035 37.4706 93.9769 35.3185C97.5104 34.1003 100.719 33.8972 103.806 34.75C105.024 35.0748 106.202 35.6027 107.339 36.09C107.38 36.1306 107.461 36.1306 107.502 36.1712C106.161 33.1663 104.577 30.7705 102.709 28.862C101.369 27.4813 99.8255 26.1819 98.3227 24.9637C97.9166 24.5982 97.4698 24.2734 97.0637 23.9079C93.7333 21.106 89.9155 19.0757 85.7322 17.7762C82.1581 16.6798 78.2185 16.152 73.3041 16.152H73.2635C68.5522 16.152 64.0439 17.695 59.8606 20.7405C55.6367 23.7861 52.8343 28.0498 51.5752 33.3287C50.5599 37.4706 49.7069 41.8562 51.1285 46.2418C51.2503 46.6072 51.3315 46.8103 51.4128 46.8915C52.1844 47.0539 52.6312 47.3788 52.8343 47.866C52.9561 48.1909 52.9967 48.5157 52.8749 48.9218C55.5961 49.3685 56.2053 49.5715 56.2865 50.7085L56.3678 51.4801L47.4325 50.1806L49.8288 48.7188C47.2701 48.9218 45.0363 49.8964 43.0461 51.7237L42.5994 52.1298L41.5028 51.074L43.2492 49.003C42.5588 49.4497 41.8277 49.8964 41.0966 50.2618C40.7717 50.4243 40.4874 50.5867 40.1625 50.7897C38.9034 51.4801 37.6444 52.211 36.0604 52.3328L34.5171 52.4546L35.5324 51.3176C35.8979 50.9116 36.3447 50.5461 36.7509 50.2212C37.2382 49.8152 37.7256 49.4091 38.0911 48.9624C33.5423 49.6527 30.0494 52.414 27.0033 55.3377L25.0944 57.165L26.0286 54.688C26.3535 53.7947 26.8409 53.0637 27.3689 52.3328C27.6938 51.8455 28.0187 51.3582 28.2624 50.871C24.0791 52.7795 20.9517 55.8656 18.393 58.7081L17.4589 59.7639L17.337 58.3426C17.2964 57.896 17.337 57.4899 17.3777 57.165C17.4183 56.962 17.4183 56.759 17.4183 56.5965C17.5807 51.8455 15.9561 47.6224 12.6664 44.0896C9.45779 40.638 5.43694 38.2016 0.685019 36.9021C-2.32047 36.09 -4.67612 35.7245 -6.78808 35.7651C-9.50927 35.8464 -12.3117 36.4149 -15.0329 36.9427L-16.1295 37.1864C-19.338 37.8361 -22.4247 39.2573 -25.3084 41.4501C-28.1514 43.6429 -30.5071 46.4448 -32.4972 48.8812C-34.9341 51.8861 -36.7211 54.9317 -37.9395 58.099C-38.9955 60.9415 -39.6454 64.1494 -39.8484 67.8853C-39.889 68.6568 -39.8891 69.469 -39.8891 70.2811C-39.8484 70.1187 -39.7672 69.9563 -39.7266 69.7938C-38.1832 65.5301 -35.5839 62.8094 -31.8067 61.4288C-29.0449 60.4136 -26.0394 59.8451 -22.0998 59.5202C-16.2107 59.033 -11.1745 59.9669 -6.70685 62.2815C-3.70137 63.8652 -0.574035 65.6519 1.82223 68.5756C2.22838 69.0629 2.63452 69.5502 3.08129 70.0375C3.1219 70.1187 3.20313 70.1593 3.24375 70.2405C4.86833 68.0883 6.69599 65.9768 9.09226 64.5555L9.45779 64.3525ZM92.8804 81.5292C92.8804 81.6105 92.921 81.7323 92.921 81.8135L92.9616 82.0165C92.9616 81.8541 92.921 81.6917 92.8804 81.5292ZM80.5335 80.2704C80.5741 80.311 80.5741 80.3923 80.6147 80.4329C80.8178 80.8389 81.0209 81.042 81.2646 81.1232C81.0615 80.8389 80.7772 80.5547 80.5335 80.2704ZM91.5807 75.3164C91.6213 75.3976 91.6619 75.4382 91.7025 75.5194C91.9462 75.9661 92.1087 76.4534 92.1899 76.9813C92.1493 76.8188 92.1493 76.6564 92.1087 76.494C92.0681 76.3316 91.9868 75.8849 92.2305 75.4788C91.9868 75.4788 91.7838 75.3976 91.5807 75.3164ZM80.5741 60.2106C80.6959 60.3324 80.8584 60.4136 80.9802 60.5354C81.6301 61.0633 82.3205 61.5912 82.9704 62.1191C86.1789 64.921 88.4127 68.5756 90.5653 72.0678L90.7684 72.3521C91.4588 73.4485 91.865 74.1388 92.2305 74.2606C92.6367 74.3824 93.449 74.0576 94.6674 73.5297C101.531 70.5654 106.324 65.4083 108.964 58.2614C110.913 52.9419 110.995 47.3381 109.248 40.7192C108.923 39.4198 108.111 38.4452 106.811 37.7955C102.75 35.6839 98.3633 35.4809 93.8551 37.227C86.8694 39.8665 81.7113 44.6987 78.584 51.6019C78.4215 52.0079 78.2591 52.414 78.056 52.8607C78.8277 52.5358 79.7212 52.3734 80.5335 53.2262C81.427 54.1601 80.899 55.0535 80.5335 55.622C80.5741 55.622 80.6553 55.6626 80.696 55.6626C81.2646 55.7844 81.8738 55.9468 82.2393 56.4747C82.7267 57.165 82.0362 58.3833 81.7925 58.7487C81.4676 59.2766 81.0615 59.7233 80.6553 60.17C80.5741 60.17 80.5741 60.17 80.5741 60.2106ZM-40.4577 73.0018C-40.417 73.3266 -40.3764 73.6515 -40.2952 73.9763C-40.2546 73.6515 -40.214 73.3672 -40.1327 73.0424L-40.4577 73.0018ZM29.8058 50.4649C29.6433 50.9522 29.3996 51.3988 29.1559 51.8455C29.3996 51.6425 29.6433 51.4395 29.887 51.277L29.8058 50.5867C29.8058 50.5461 29.8058 50.5055 29.8058 50.4649ZM39.4314 49.2467C39.1877 49.6527 38.9034 49.9776 38.5785 50.3025C38.8628 50.1806 39.1065 50.0182 39.3908 49.8558L39.4314 49.2467ZM45.7267 47.9879L44.9956 48.8406C45.1987 48.7188 45.4018 48.6376 45.6049 48.5157L45.7267 47.9879ZM49.5851 45.5108C49.6663 45.7951 49.7069 46.0793 49.7882 46.3636C49.8694 46.6072 49.8288 46.8509 49.8288 47.0539C49.8288 47.1351 49.8288 47.1757 49.8288 47.2569V47.46C49.9913 47.46 50.1537 47.46 50.3162 47.4194C50.1537 47.1757 49.9912 46.8509 49.8694 46.4448C49.7476 46.1605 49.6663 45.8357 49.5851 45.5108ZM50.1537 33.3693C49.3414 36.09 48.9759 38.6888 49.0165 41.2065C49.0165 38.5264 49.5445 35.9276 50.1537 33.3693ZM108.842 37.7549C109.086 37.9985 109.329 38.2422 109.532 38.5264C109.411 38.161 109.289 37.7549 109.126 37.3894C109.086 37.5112 109.004 37.5925 108.923 37.6737L108.842 37.7549ZM-8.90005 34.6688C-9.0625 34.6688 -9.26558 34.6688 -9.42804 34.7094C-11.3775 34.8312 -13.2864 35.2373 -15.0735 35.7245C-13.0427 35.3185 -10.9714 34.9124 -8.90005 34.6688ZM93.8551 20.0502C95.236 20.903 96.5357 21.8369 97.7541 22.8927C98.1603 23.2582 98.5664 23.583 99.0132 23.9079C100.394 25.0449 101.816 26.2225 103.156 27.5219C100.557 24.5576 97.4292 22.0806 93.8551 20.0502ZM74.8474 14.8525C76.3096 14.8931 77.7311 14.9744 79.0307 15.1368C77.6498 14.9337 76.269 14.8525 74.8474 14.8525ZM70.1768 95.9041C69.9331 95.9041 69.73 95.9041 69.5269 95.8635C66.6839 95.9447 64.247 95.092 62.5412 93.4677C60.8354 91.8028 59.8606 89.407 59.82 86.6457C59.7794 83.8032 60.7541 81.245 62.5412 79.4583C64.2876 77.7122 66.7245 76.8188 69.4051 76.8594C74.6444 76.9813 77.7311 80.108 78.3403 85.8336C78.6246 88.3512 77.2031 91.5186 74.8068 93.752C73.3041 95.1732 71.6795 95.9041 70.1768 95.9041ZM69.6081 94.6453H69.6894C70.989 94.889 72.5324 94.2392 73.9945 92.8586C76.0659 90.9095 77.3655 88.1076 77.1219 85.9554C76.5532 80.7577 74.0351 78.1589 69.3645 78.037C67.0088 77.9964 64.8968 78.768 63.3941 80.2704C61.8101 81.8135 60.9978 84.0469 61.0384 86.5645C61.0791 89.0009 61.932 91.1125 63.3941 92.5338C64.8968 93.955 67.0088 94.6859 69.5675 94.6047L69.6081 94.6453Z" fill="#FFC2EE"/>
<path d="M7.63001 114.664C7.42694 114.583 7.10203 114.543 6.85834 114.38C3.12179 111.578 0.887979 107.843 0.238144 103.213C-0.533535 97.4471 1.4972 92.6555 5.72113 88.7572C7.91432 86.7269 10.6355 85.6711 13.6004 85.2244C16.0779 84.8589 18.4741 84.8183 20.911 85.4274C24.5663 86.402 27.4094 88.3917 29.1558 91.8433C31.877 97.1629 32.0801 102.564 29.765 108.005C27.6937 112.878 23.8759 115.761 18.7178 116.776C16.7683 117.142 14.8594 117.182 12.9099 116.735C12.4225 116.614 11.9352 116.37 11.4072 116.126C11.5696 115.883 11.6103 115.761 11.6915 115.72C14.2908 115.071 14.8594 113.081 15.1843 110.807C15.5093 108.533 13.5598 107.233 11.8133 106.909C9.09214 106.421 6.4928 108.98 6.93957 111.741C7.10203 112.715 7.38633 113.609 7.63001 114.664ZM19.2864 106.624C23.551 106.827 27.7343 103.741 27.7343 97.7314C27.7343 93.2646 23.7947 89.0008 19.2458 88.8384C13.6816 88.676 10.3918 92.6961 10.1075 97.2847C9.7826 102.361 12.9099 106.706 19.2864 106.624ZM5.39621 96.3507C3.77162 96.3101 2.39072 98.0156 2.39072 100.046C2.39072 101.589 3.77162 103.051 5.19313 103.091C7.02079 103.091 8.60477 101.508 8.686 99.6399C8.72661 97.772 7.34571 96.3913 5.39621 96.3507ZM3.04056 103.376C3.48732 105.69 4.38084 107.802 6.24912 109.426C7.10203 108.411 7.8737 107.518 8.56415 106.665C7.95493 105.528 7.38633 104.391 6.93957 103.538C5.59928 103.498 4.38084 103.416 3.04056 103.376ZM15.5905 112.918C18.2711 113.162 23.3885 110.279 23.6728 108.614C21.1953 109.264 18.6366 109.954 15.9154 110.685C15.8342 111.213 15.7123 112.066 15.5905 112.918ZM3.93408 95.5792C4.01531 95.701 4.09654 95.7822 4.21838 95.904C4.46207 95.904 4.70576 95.8634 4.94945 95.904C5.96481 96.0665 6.41157 95.6604 6.61465 94.6452C6.77711 93.7519 7.26448 92.8991 7.63001 92.0464C7.75186 91.7215 7.8737 91.3967 7.99555 91.0718C7.8737 90.9906 7.75186 90.95 7.63001 90.8688C6.33034 92.4524 5.1119 93.9955 3.93408 95.5792Z" fill="#FFC2EE"/>
<path d="M15.8747 117.669C14.8187 117.669 13.8033 117.548 12.7879 117.345C12.3818 117.263 12.0163 117.101 11.6507 116.938C11.4883 116.857 11.3258 116.817 11.1633 116.735L10.4323 116.451L10.879 115.842C10.9197 115.761 10.9603 115.72 11.0009 115.639C11.0821 115.477 11.2446 115.274 11.5289 115.192C13.6408 114.664 14.2501 113.162 14.5344 110.766C14.8187 108.695 12.8692 107.761 11.6507 107.558C10.5947 107.355 9.45753 107.721 8.60462 108.573C7.75171 109.426 7.30495 110.604 7.50802 111.7C7.58925 112.309 7.75171 112.918 7.95478 113.568C8.03601 113.893 8.11724 114.218 8.19847 114.543L8.48278 115.639L7.42679 115.274C7.38618 115.274 7.30495 115.233 7.26434 115.233C7.06126 115.192 6.77696 115.111 6.49266 114.908C2.59364 111.984 0.278605 108.086 -0.37123 103.335C-1.14291 97.5689 0.765982 92.5337 5.27421 88.3511C7.38618 86.402 10.148 85.1432 13.4784 84.6559C16.362 84.2092 18.7583 84.2904 21.0327 84.8995C25.0942 85.9553 27.8966 88.1887 29.6837 91.6403C32.4861 97.1223 32.6891 102.726 30.3335 108.289C28.2215 113.243 24.3631 116.329 18.8395 117.426C17.8648 117.588 16.8494 117.669 15.8747 117.669ZM12.7473 116.045C12.8692 116.086 12.9504 116.126 13.0722 116.126C14.8593 116.532 16.7276 116.532 18.6365 116.167C23.7539 115.152 27.328 112.309 29.2369 107.761C31.4707 102.523 31.2676 97.2441 28.6277 92.1276C27.0031 88.9603 24.4444 86.9705 20.7484 85.9959C18.6365 85.4274 16.4026 85.3868 13.6815 85.7929C10.5541 86.2802 8.07663 87.3766 6.12712 89.2039C1.90319 93.1022 0.116146 97.772 0.847211 103.132C1.41582 107.315 3.36532 110.807 6.65511 113.446C6.49266 112.918 6.37081 112.391 6.28958 111.863C6.20835 111.335 6.20835 110.766 6.3302 110.238V110.279L5.84282 109.873C4.09639 108.37 2.95918 106.259 2.43118 103.457L2.26873 102.685L2.95917 102.726C2.87794 102.645 2.83733 102.604 2.7561 102.523C2.10627 101.833 1.74073 100.899 1.74073 100.005C1.74073 98.7059 2.26872 97.4877 3.12163 96.635C3.28409 96.4725 3.48717 96.3101 3.64963 96.1883L3.08102 95.5386L7.34556 90.016L8.64523 90.7064L8.36093 91.5185C8.2797 91.7621 8.19847 91.9652 8.11724 92.2088C7.9954 92.4931 7.87355 92.7773 7.75171 93.0616C7.50802 93.6301 7.26433 94.1579 7.14249 94.7264C7.06126 95.2137 6.8988 95.6198 6.65511 95.9041C7.26434 96.1071 7.79232 96.4319 8.19847 96.8786C8.88892 97.6095 9.25445 98.5435 9.21384 99.5993C9.17322 100.98 8.40155 102.239 7.30495 102.97L9.17322 106.624C10.0261 106.259 10.9603 106.137 11.8538 106.299C13.7221 106.624 15.5903 107.924 15.7528 110.035L24.3225 107.721L24.16 108.655C23.7945 110.726 18.3521 113.731 15.4279 113.446L15.103 113.406C14.7781 114.583 14.047 115.517 12.7473 116.045ZM16.4433 111.172L16.2808 112.309C18.1897 112.147 20.789 110.807 22.1699 109.629L16.4433 111.172ZM3.81209 104.025C4.29946 105.934 5.07114 107.396 6.20835 108.573L7.83294 106.624L6.57388 104.147L3.81209 104.025ZM5.35544 96.9598C4.74622 96.9598 4.29946 97.2847 4.01516 97.5689C3.40594 98.178 3.04041 99.112 2.99979 100.087C2.99979 100.655 3.24348 101.264 3.69024 101.751C4.137 102.239 4.66499 102.482 5.19298 102.523C5.19298 102.523 5.19299 102.523 5.2336 102.523C6.69573 102.523 8.03601 101.183 8.07663 99.6805C8.07663 98.9496 7.87355 98.2999 7.38618 97.8126C6.8988 97.2441 6.16774 96.9598 5.35544 96.9598C5.35544 96.9598 5.39606 96.9598 5.35544 96.9598ZM4.90868 95.2949C4.9493 95.2949 4.98991 95.2949 5.03053 95.2949C5.59913 95.3762 5.8022 95.3762 5.96466 94.5234C6.04589 94.1579 6.12712 93.8331 6.24897 93.5082L4.90868 95.2949ZM19.6924 107.274C19.5706 107.274 19.4081 107.274 19.2863 107.274C16.1996 107.315 13.6408 106.34 11.8538 104.472C10.148 102.645 9.29507 100.127 9.49814 97.2847C9.90429 90.9094 14.8593 88.1075 19.2863 88.2699C24.1194 88.3918 28.3434 92.8179 28.3434 97.7314C28.3434 100.696 27.4092 103.213 25.5816 104.959C23.9976 106.462 21.9262 107.274 19.6924 107.274ZM19.2863 106.015C21.3576 106.096 23.2665 105.406 24.688 104.025C26.272 102.523 27.0843 100.33 27.0843 97.6908C27.0843 93.4676 23.3071 89.5288 19.2051 89.4069C19.1238 89.4069 19.002 89.4069 18.9208 89.4069C13.6408 89.4069 10.9197 93.4676 10.676 97.2847C10.5135 99.7617 11.2446 101.995 12.7067 103.538C14.2907 105.244 16.5245 106.056 19.2863 106.015Z" fill="#FFC2EE"/>
<path d="M36.3854 116.898C36.3041 117.385 36.2635 117.67 36.2229 117.913C35.8574 119.578 36.0198 121.243 36.7103 122.786C37.3601 124.248 38.7816 124.695 40.1219 125.019C43.1274 125.75 45.7674 124.938 48.0418 122.908C49.2196 121.852 50.4787 120.796 50.6005 118.644C52.2251 120.715 54.1746 121.527 56.2459 121.974C59.8607 122.745 62.6631 121.771 64.8563 118.888C66.3184 116.979 66.0341 113.934 64.4095 111.7C64.2877 111.497 64.1658 111.294 64.044 111.132C64.1658 111.051 64.247 110.969 64.3689 110.888C64.8563 111.497 65.4655 112.066 65.831 112.797C67.7399 116.695 65.2624 121.608 60.6323 122.624C59.3733 122.908 58.0736 122.908 56.6521 123.03C55.7992 125.222 54.9057 127.74 52.0626 127.984C49.8288 128.187 48.3667 126.522 47.2295 124.573C46.6203 124.857 46.0517 125.182 45.4424 125.425C42.7213 126.441 40.1219 126.238 37.5632 124.735C35.3294 123.476 34.8826 119.172 35.7355 117.385C35.8168 117.223 36.0605 117.142 36.3854 116.898ZM51.1285 120.471C50.4381 121.284 49.7476 122.218 48.9759 123.07C47.7575 124.41 47.7169 124.776 49.0978 125.994C49.5039 126.359 49.9507 126.644 50.4381 126.887C52.022 127.618 52.9968 127.496 54.0934 126.156C54.7838 125.304 55.2712 124.288 55.7586 123.273C55.8398 123.111 55.6367 122.624 55.4743 122.542C54.0528 121.811 52.55 121.162 51.1285 120.471Z" fill="#FFC2EE"/>
<path d="M51.7378 128.633C49.4228 128.633 47.9607 126.928 47.0265 125.385C47.0265 125.385 46.9859 125.385 46.9859 125.425C46.5798 125.628 46.133 125.832 45.6862 126.035C42.762 127.131 40.0002 126.887 37.279 125.304C34.8015 123.882 34.2329 119.213 35.2077 117.182C35.3295 116.939 35.5326 116.776 35.7763 116.654C35.8575 116.614 35.9387 116.533 36.0606 116.451L37.279 115.558L36.9541 117.507C36.9135 117.751 36.8729 117.913 36.8322 118.116C36.5073 119.7 36.6292 121.202 37.279 122.624C37.807 123.842 39.0254 124.207 40.2845 124.532C42.9651 125.182 45.4426 124.532 47.6764 122.583C48.8542 121.568 49.9102 120.634 50.032 118.725L50.1539 117.142L51.1286 118.4C52.7532 120.512 54.7027 121.162 56.4491 121.527C59.8608 122.258 62.4195 121.324 64.4502 118.685C65.7093 117.06 65.5062 114.259 64.0035 112.228C63.8816 112.106 63.8004 111.944 63.7192 111.782L63.313 111.132L64.5315 110.157L64.897 110.645C65.0595 110.848 65.2219 111.01 65.3844 111.213C65.7499 111.66 66.156 112.106 66.4404 112.675C67.4151 114.624 67.4151 116.939 66.3997 119.01C65.3031 121.243 63.2724 122.827 60.8355 123.395C59.942 123.598 59.0485 123.639 58.0737 123.72C57.7894 123.72 57.4645 123.761 57.1396 123.801C56.3273 125.953 55.2307 128.552 52.144 128.796C52.0221 128.593 51.9003 128.633 51.7378 128.633ZM51.2911 121.243C51.1692 121.365 51.088 121.527 50.9661 121.649C50.4788 122.258 49.9914 122.867 49.4228 123.476C49.1791 123.72 48.6511 124.329 48.6917 124.532C48.6917 124.776 49.3009 125.304 49.5446 125.507C49.9102 125.832 50.3163 126.116 50.7631 126.278C52.1846 126.928 52.7938 126.806 53.7279 125.71C54.2559 125.06 54.6621 124.248 55.0682 123.476C55.1495 123.355 55.1901 123.233 55.2713 123.07C55.2713 123.03 55.2307 123.03 55.2307 122.989C54.1341 122.461 52.9969 121.933 51.9409 121.446L51.2911 121.243Z" fill="#FFC2EE"/>
<path d="M27.2067 157.87C27.694 158.479 28.0596 158.804 28.2627 159.21C29.3999 161.403 30.4558 163.596 31.5524 165.789C31.7961 166.276 31.9992 166.804 32.3241 167.21C33.3395 168.388 33.705 169.809 33.705 171.311C33.705 173.057 33.5426 173.301 31.7961 173.585C31.7961 173.788 31.7555 173.991 31.7555 174.194C31.7149 175.819 30.5371 176.712 28.9125 176.468C28.547 176.428 28.019 176.509 27.8159 176.712C27.1661 177.484 26.3538 177.524 25.5415 177.362C24.8916 177.24 24.0387 177.077 23.6732 176.631C22.2111 174.966 20.0585 174.844 18.2714 173.87C17.8247 173.626 17.3779 173.342 16.9312 173.057C16.9718 172.976 17.0124 172.895 17.053 172.814C18.312 173.26 19.5305 173.666 20.7895 174.113C21.7237 174.479 22.5766 174.357 23.4701 173.91C26.3538 172.448 28.9531 170.702 30.9838 168.144C31.5524 167.454 31.5524 166.885 31.1869 166.154C29.8466 163.555 28.4657 160.956 27.1254 158.358C27.1661 158.439 27.2067 158.358 27.2067 157.87ZM31.918 167.657C29.6029 171.189 26.2725 173.301 22.6172 174.885C24.12 177.24 26.4756 177.565 27.5316 176.022C28.6688 175.859 29.8466 176.062 30.4558 175.575C31.0651 175.088 31.1463 173.91 31.5118 172.936C31.5931 172.936 31.8774 172.895 32.1617 172.936C32.8521 173.057 33.177 172.692 33.2583 172.083C33.3801 170.499 33.0958 169.078 31.918 167.657Z" fill="#FFC2EE"/>
<path d="M26.3129 178.133C25.9474 178.133 25.6225 178.052 25.46 178.011L25.3382 177.971C24.6477 177.808 23.7542 177.646 23.2668 177.077C22.4545 176.103 21.3173 175.737 20.0989 175.331C19.4084 175.088 18.6774 174.844 18.0275 174.479C17.7026 174.276 17.3777 174.113 17.0528 173.91C16.9309 173.829 16.7685 173.748 16.6466 173.666L16.1187 173.342L16.8497 172.164L18.3931 172.692C19.2866 173.017 20.1395 173.301 21.033 173.626C21.7641 173.91 22.4545 173.829 23.2262 173.463C26.5566 171.758 28.831 170.052 30.5775 167.86C30.943 167.413 30.9836 167.088 30.6993 166.56C29.359 163.961 27.9781 161.363 26.6378 158.764C26.5566 158.561 26.5566 158.398 26.5566 158.236C26.5566 158.155 26.5566 158.033 26.5972 157.83L26.6785 156.246L27.6532 157.505C27.8157 157.708 27.9781 157.87 28.1 158.033C28.3843 158.358 28.628 158.642 28.7904 158.967C29.5215 160.429 30.2932 161.931 30.9836 163.352C31.3491 164.083 31.7147 164.814 32.0802 165.545C32.1614 165.667 32.2021 165.789 32.2833 165.951C32.4457 166.276 32.6082 166.601 32.8113 166.845C33.8266 168.022 34.314 169.443 34.3546 171.352C34.3952 173.26 34.0297 173.829 32.4051 174.154C32.4051 174.194 32.4051 174.235 32.4051 174.276C32.3645 175.21 32.0396 176.022 31.3898 176.55C30.7399 177.077 29.8464 177.321 28.8717 177.159C28.6686 177.118 28.3843 177.199 28.303 177.24C27.6938 177.93 26.9221 178.133 26.3129 178.133ZM23.5511 175.128C24.201 175.9 24.9726 176.347 25.7443 176.347C26.2723 176.347 26.7191 176.103 27.0034 175.656L27.1658 175.413L27.4501 175.372C27.8563 175.331 28.2218 175.291 28.5874 175.291C29.1966 175.25 29.8058 175.25 30.0901 175.047C30.3338 174.844 30.4962 174.276 30.6587 173.707C30.7399 173.382 30.8212 173.017 30.943 172.692L31.1055 172.286H31.5522C31.7147 172.286 31.9584 172.245 32.2427 172.286C32.4051 172.326 32.4864 172.286 32.527 172.286C32.5676 172.245 32.6082 172.164 32.6488 171.961C32.8113 170.702 32.6082 169.646 31.9584 168.672C29.9683 171.392 27.3283 173.423 23.5511 175.128Z" fill="#FFC2EE"/>
<path d="M81.7111 173.179C81.1425 173.626 80.6551 174.235 80.0053 174.56C78.2588 175.413 76.4718 176.144 74.6847 176.875C73.8318 177.24 72.9789 177.605 72.0854 177.971C70.7045 178.499 69.811 178.174 68.9987 176.996C68.7956 176.712 68.4301 176.428 68.1052 176.347C66.9274 176.062 66.44 175.291 66.3994 174.154C66.3994 173.91 66.3587 173.545 66.1557 173.423C65.0185 172.367 64.7342 171.514 65.2215 170.093C65.2621 169.971 65.3028 169.809 65.384 169.687C67.1304 166.073 68.9175 162.418 70.7045 158.845C70.9076 158.439 71.3137 158.114 71.6386 157.789C71.7605 157.87 71.8417 157.952 71.9636 157.992C71.7605 158.358 71.5168 158.723 71.3544 159.089C70.0547 161.647 68.7144 164.246 67.496 166.845C67.2929 167.251 67.4147 167.941 67.6178 168.347C69.2018 171.23 71.395 173.626 73.8725 175.778C74.4004 176.225 74.8878 176.347 75.5377 176.022C77.3247 175.047 79.1524 174.113 80.98 173.179C81.1425 173.098 81.3456 173.057 81.508 172.976C81.5486 172.976 81.6299 173.057 81.7111 173.179ZM73.7506 176.631C71.3137 173.748 69.0393 171.027 66.7649 168.306C65.0185 170.093 65.1403 172.083 67.171 173.423C67.1304 173.545 67.1304 173.667 67.0898 173.829C66.7649 175.25 66.968 175.453 68.3082 175.9C68.7956 176.062 69.1205 176.55 69.5267 176.875C69.811 177.118 70.2171 177.565 70.4608 177.484C71.6386 177.281 72.7352 176.915 73.7506 176.631Z" fill="#FFC2EE"/>
<path d="M70.9076 178.783C69.9735 178.783 69.2018 178.296 68.5113 177.281C68.3895 177.118 68.1458 176.956 67.9833 176.915C66.6024 176.59 65.8714 175.656 65.8308 174.154C65.8308 173.951 65.7901 173.87 65.7901 173.829C64.4905 172.611 64.1655 171.514 64.7342 169.89L64.7748 169.809C64.8154 169.687 64.856 169.565 64.9372 169.403L65.912 167.413C67.3335 164.489 68.7956 161.484 70.2578 158.561C70.4608 158.195 70.7451 157.911 70.9888 157.667C71.0701 157.586 71.1919 157.464 71.2731 157.383L71.6387 156.977L72.8571 157.83L72.5728 158.317C72.4916 158.439 72.451 158.561 72.3697 158.683C72.2073 158.926 72.0854 159.17 71.9636 159.373L71.1919 160.875C70.1765 162.906 69.0799 165.017 68.1052 167.129C68.0239 167.291 68.0646 167.779 68.227 168.063C69.6079 170.58 71.5574 172.854 74.3192 175.331C74.6848 175.656 74.9284 175.697 75.294 175.494C76.7561 174.682 78.2589 173.91 79.721 173.139L80.7364 172.611C80.8988 172.53 81.0613 172.489 81.1831 172.448C81.2237 172.448 81.305 172.408 81.3456 172.408L81.7517 172.245L82.6046 173.342L82.1579 173.707C81.9954 173.829 81.8329 173.991 81.6705 174.154C81.2643 174.519 80.8582 174.925 80.3302 175.169C79.0305 175.819 77.6496 176.387 76.35 176.915C75.9032 177.118 75.4158 177.281 74.9691 177.484L74.6848 177.605C73.9131 177.93 73.1414 178.255 72.3697 178.58C71.7605 178.702 71.3137 178.783 70.9076 178.783ZM66.7649 169.24C66.3181 169.849 66.1151 170.459 66.1963 171.027C66.2775 171.717 66.7243 172.367 67.5366 172.895L67.8615 173.098L67.7803 173.585C67.7803 173.667 67.7396 173.788 67.7396 173.91C67.496 174.925 67.496 174.925 68.5519 175.25C68.9987 175.413 69.3236 175.737 69.6079 176.022C69.7298 176.144 69.8516 176.265 69.9735 176.347C70.0547 176.428 70.1765 176.509 70.2578 176.59C70.339 176.671 70.4608 176.793 70.5421 176.834C71.2731 176.671 72.0042 176.468 72.6946 176.265L66.7649 169.24Z" fill="#FFC2EE"/>
<path d="M47.4327 106.097C47.5545 106.097 47.6764 106.056 47.7576 106.097C48.448 106.381 49.4634 106.503 49.7477 106.99C50.2351 107.843 49.3416 108.492 48.7323 109.02C47.7982 109.792 46.133 109.751 45.1989 108.98C44.0617 108.086 44.1023 107.234 45.3613 106.543C45.9705 106.218 46.7016 106.097 47.3921 105.894C47.4327 106.015 47.4327 106.056 47.4327 106.097ZM45.077 107.437C46.9859 108.127 48.3668 107.965 49.1385 107.031C47.5951 106.218 46.2142 106.34 45.077 107.437ZM49.0573 108.086C47.7982 108.168 46.4985 108.249 45.3207 108.33C46.3361 109.467 47.7576 109.386 49.0573 108.086Z" fill="#FFC2EE"/>
<path d="M47.0263 110.198C46.2546 110.198 45.4423 109.954 44.8331 109.508C43.8989 108.777 43.7365 108.086 43.7771 107.64C43.8177 107.193 44.0614 106.584 45.0768 106.056C45.5641 105.812 46.0921 105.691 46.5795 105.528C46.7826 105.487 46.9857 105.406 47.1887 105.366L47.7573 105.203L47.8386 105.528C47.8792 105.528 47.9198 105.528 47.9198 105.569C48.0822 105.65 48.3259 105.691 48.529 105.772C49.1788 105.975 49.8693 106.178 50.1942 106.746C50.3161 106.949 50.3973 107.152 50.3973 107.355H50.4379L50.3973 107.396C50.4785 108.33 49.6256 109.02 49.0976 109.467L49.0164 109.548C48.5696 109.995 47.7979 110.198 47.0263 110.198ZM46.5795 107.193C47.0669 107.274 47.473 107.274 47.8386 107.152C47.3918 107.071 46.9857 107.071 46.5795 107.193Z" fill="#FFC2EE"/>
</g>
<defs>
<clipPath id="clip0_201_1289">
<rect width="125" height="204" fill="white"/>
</clipPath>
</defs>
</svg>
