<svg width="139" height="160" viewBox="0 0 139 160" fill="none" xmlns="http://www.w3.org/2000/svg">
<g clip-path="url(#clip0_201_1160)">
<path d="M-18.6117 8.63812C-13.5274 9.4843 -9.78484 12.2344 -7.2074 16.5006C-4.62997 20.7316 -5.2655 26.9017 -9.78484 30.1454C-10.1379 30.3922 -10.491 30.7095 -10.8794 31.0268C-7.80763 31.5557 -6.60718 33.0365 -6.6778 36.104C-6.74841 38.431 -7.7017 40.3349 -9.114 41.8157C-7.94886 43.085 -6.81902 44.319 -5.61858 45.5883C-5.30081 45.3063 -5.01835 45.0595 -4.73589 44.7774C-3.18237 43.3318 -1.34639 42.5209 0.807353 42.7677C2.43149 42.9792 3.63194 42.4504 4.93831 41.4632C9.13988 38.2899 13.977 36.4565 18.9553 34.9052C20.3323 34.4821 21.7799 34.1648 23.1922 33.8122C23.7571 33.6712 24.0043 33.3891 24.2514 32.825C24.9222 31.1326 25.7343 29.4755 26.5464 27.7831C27.3231 26.1965 28.8061 25.4561 30.3596 24.892C33.1842 23.8695 36.1147 23.5874 39.0805 23.658C42.011 23.7285 44.0235 25.5619 45.6829 27.8184C46.2479 28.594 46.8128 29.3697 47.2718 30.2159C47.6248 30.8505 48.0485 31.1326 48.7547 31.1679C54.1567 31.4852 58.8879 33.7417 63.5837 36.1392C68.7033 38.7483 73.3992 41.8862 77.1064 46.3287C77.3183 46.5755 77.6714 46.8223 77.9891 46.7871C84.2738 46.5755 88.4754 49.643 91.0528 55.249C91.8649 54.4733 92.677 53.7329 93.4537 52.9572C93.5596 52.8514 93.6656 52.6399 93.6303 52.4989C93.2066 51.1943 93.9833 50.4186 94.9719 49.7135C91.6177 47.5628 89.8877 44.4601 89.8524 40.5817C89.8171 36.7386 91.2647 33.5301 94.9013 31.6615C93.4537 27.36 95.7487 23.94 98.3967 22.1066C99.0323 21.6835 99.915 21.6835 100.692 21.4367C101.009 21.3309 101.433 21.1899 101.61 20.9431C103.693 17.241 106.941 16.0423 111.001 16.6416C113.12 16.9237 115.203 17.4173 116.898 18.8981C117.11 19.0744 117.604 19.0392 117.957 18.9687C120.993 18.334 123.818 18.7219 126.113 20.9078C126.854 21.613 127.208 22.706 127.843 23.799C130.032 23.6227 132.327 24.2926 134.34 25.7382C137.27 27.8536 138.506 30.8858 138.718 34.3411C138.894 37.2322 137.906 39.806 135.999 41.9568C135.434 42.5914 135.293 43.1555 135.681 44.0017C139.283 51.7937 132.08 58.0343 126.254 58.1048C124.171 58.1401 122.123 57.858 119.864 57.6818C119.122 59.7972 117.357 61.2075 114.991 61.8422C111.849 62.6884 108.742 62.5121 105.705 61.2428C103.622 60.3613 101.822 59.0921 100.762 57.0471C100.268 56.1304 99.9856 55.1079 99.5266 54.0149C98.4674 54.5085 97.161 55.1079 95.9252 55.7073C94.6895 56.3067 93.489 56.9766 92.1474 57.6818C93.489 60.9607 92.1473 63.8166 90.841 66.6725C90.6997 66.9898 90.6644 67.4129 90.7704 67.7302C92.8888 74.7465 94.0892 81.8686 93.489 89.2375C93.3831 90.5068 93.1713 91.7761 92.7829 93.0101C92.1827 94.9493 92.9594 96.3243 94.3364 97.5231C95.8546 98.8629 96.9845 100.414 96.8785 102.459C96.702 106.267 95.0779 109.617 92.5357 112.402C91.5824 113.424 90.1348 113.812 88.6872 113.636C87.169 113.46 86.4629 114.2 85.6508 115.434C84.062 117.902 82.1201 120.123 80.39 122.486C80.1429 122.803 79.9663 123.332 80.0722 123.649C81.1668 127.281 79.4367 129.643 76.6121 131.547C72.6577 134.156 72.3753 133.874 68.7386 131.441C68.5621 131.335 68.3855 131.194 68.2443 131.089C63.4425 135.108 57.8993 137.541 51.9676 139.233C51.2262 139.445 50.4494 139.656 49.6727 139.691C48.7194 139.727 48.2251 140.22 47.7661 140.925C47.6248 141.137 47.4836 141.313 47.3424 141.525C45.7536 144.134 43.388 145.015 40.4575 144.839C38.7627 144.733 37.068 144.592 35.3379 144.451C34.3493 144.381 33.6431 143.817 33.3254 142.935C32.5839 140.996 31.3482 140.185 29.1591 140.009C24.5339 139.656 20.1558 138.14 15.8836 136.271C15.6717 136.166 15.354 136.236 15.1421 136.342C11.6467 137.999 8.2572 138.14 4.97362 135.778C4.51462 135.461 4.02032 135.143 3.52602 134.896C0.842664 133.521 -0.675553 131.441 -0.32248 128.303C-0.216558 127.14 -0.569631 126.435 -1.3817 125.518C-3.50014 123.261 -5.47735 120.793 -7.27802 118.255C-10.3144 113.988 -12.2917 109.229 -13.7039 104.187C-13.7393 104.011 -13.8452 103.834 -13.8099 103.658C-13.4215 101.648 -14.8691 100.873 -16.2108 99.9559C-17.4112 99.145 -18.541 98.2282 -19.6003 97.241C-21.1185 95.8307 -21.8952 93.9621 -21.8952 91.9171C-21.8952 90.0484 -21.754 88.1445 -21.4362 86.3111C-21.1538 84.5835 -19.8121 83.3847 -18.4704 82.3975C-17.1288 81.4455 -16.7757 80.3173 -16.5285 78.7307C-15.5399 71.8554 -13.9158 65.1564 -10.2085 59.1273C-9.67892 58.2811 -9.39646 57.4702 -9.71422 56.5535C-10.5263 53.9797 -9.71422 51.7584 -8.37254 49.6077C-8.05478 49.1141 -7.77232 48.6558 -7.34863 47.9859C-8.655 47.0691 -9.96137 46.1172 -11.2677 45.2005C-11.3737 45.13 -11.5855 45.2357 -11.762 45.271C-13.5274 45.4473 -15.1515 45.13 -16.5991 44.037C-17.5878 43.2613 -18.541 42.4856 -19.5297 41.71C-20.5183 43.3671 -21.9306 44.6011 -24.049 44.6716C-26.0262 44.7069 -27.8269 44.1075 -29.0626 42.944C-30.4749 44.037 -31.746 45.3063 -33.2642 46.1172C-35.5592 47.3865 -38.1366 46.9986 -40.5728 46.5755C-43.7505 46.0467 -46.4691 44.5658 -48.7288 42.3093C-49.0113 42.0273 -49.1172 41.6042 -49.1878 41.1458C-46.8222 43.8254 -43.7152 45.13 -40.361 45.7999C-38.7015 46.1524 -36.9008 46.1172 -35.1708 46.0114C-33.123 45.8704 -31.746 44.3896 -30.369 43.085C-29.9453 42.6619 -29.5569 42.2036 -29.1685 41.7805C-27.8269 43.4728 -26.0262 43.8959 -24.0137 43.8959C-21.7893 43.8959 -20.5536 42.3799 -19.3884 40.7227C-18.541 41.4632 -17.7996 42.2036 -16.9522 42.7677C-16.0695 43.4023 -15.0456 43.8959 -14.0923 44.3896C-13.7393 44.5658 -13.1743 44.7774 -12.8566 44.6364C-10.9853 43.8254 -9.96137 45.3063 -8.655 46.0467C-8.01947 46.4345 -7.45455 46.9281 -6.78372 47.3865C-6.46595 46.9281 -6.14818 46.505 -5.65388 45.8704C-6.99556 44.6011 -8.33724 43.3671 -9.67892 42.0978C-7.91355 39.806 -6.96025 37.3732 -7.31332 34.5174C-7.52517 32.7545 -9.39646 31.1326 -11.0912 31.3089C-11.3737 31.3442 -11.6561 31.5557 -12.0798 31.5557C-11.868 31.3442 -11.6914 31.0621 -11.409 30.9563C-6.53656 28.4178 -5.23019 21.7188 -7.63109 17.0647C-9.85545 12.7633 -13.4921 10.1189 -18.2586 8.95544C-18.3998 9.4843 -18.5057 9.94266 -18.6117 10.401C-18.647 10.401 -18.7176 10.401 -18.7529 10.401C-18.8235 10.1189 -18.8941 9.83688 -18.9294 9.55482C-19.8474 3.70202 -22.8132 1.16346 -28.8155 1.26923C-32.9817 1.33975 -36.9008 2.32697 -40.0785 5.07708C-43.2915 7.86244 -44.9156 11.494 -44.6331 15.866C-44.6331 16.0775 -44.6331 16.3243 -44.8097 16.6064C-44.9862 16.2538 -45.1628 15.9365 -45.3746 15.5134C-47.1047 16.7122 -48.3051 18.2988 -49.2231 20.1322C-49.329 20.0969 -49.4702 20.0264 -49.5762 19.9911C-49.3643 19.3212 -49.2584 18.5103 -48.87 17.9814C-47.9167 16.7827 -46.7869 15.7602 -45.763 14.6319C-45.5158 14.3499 -45.2334 13.962 -45.1981 13.6095C-44.5978 7.82719 -40.8906 3.17315 -35.3473 1.51604C-32.0637 0.528817 -28.7096 -0.105824 -25.2847 0.775622C-21.1891 1.83336 -18.9647 4.44244 -18.6117 8.63812ZM-8.37254 57.0119C-12.3976 63.6403 -14.516 70.8682 -15.7165 78.3781C-16.0695 80.7756 -16.9875 82.5385 -18.9294 83.9488C-20.3417 84.9713 -21.1185 86.4874 -21.1891 88.2503C-21.2597 89.6959 -21.1891 91.1767 -21.0832 92.6223C-20.9066 94.8435 -19.8121 96.5711 -17.9761 97.8404C-16.7051 98.7219 -15.3987 99.4975 -14.1629 100.379C-13.8805 100.555 -13.598 100.908 -13.5274 101.225C-13.2803 102.353 -13.2803 103.552 -12.9625 104.645C-10.8441 111.908 -6.99556 118.184 -1.94661 123.755C-0.534321 125.342 0.560203 126.858 0.383666 129.044C0.348359 129.643 0.418972 130.278 0.630816 130.842C0.84266 131.406 1.12512 132.076 1.54881 132.393C2.9611 133.451 4.44401 134.438 5.96222 135.355C8.11597 136.624 10.3403 137.435 12.8118 136.095C13.2355 135.848 13.7651 135.848 14.2241 135.672C15.0362 135.425 15.7777 135.496 16.5897 135.848C22.9803 138.493 29.6181 139.762 36.5384 139.727C36.7502 139.727 36.962 139.762 37.1386 139.797C37.1386 139.903 37.1386 139.974 37.1386 140.079C35.6557 140.256 34.1728 140.432 32.5839 140.608C32.9723 141.243 33.2548 141.948 33.7491 142.477C34.2434 142.97 34.9142 143.605 35.5144 143.64C37.9506 143.781 40.3868 143.781 42.823 143.676C44.659 143.605 46.3538 141.913 46.8128 139.903C45.8948 139.903 45.0474 139.903 44.1647 139.903C47.2718 139.163 50.4141 138.739 53.4505 137.858C58.2876 136.412 62.7011 134.05 66.7261 131.018C67.0086 130.806 67.5029 130.595 67.8206 130.701C69.127 131.124 70.3981 131.653 71.6691 132.182C72.4812 132.534 73.2933 132.464 73.9994 131.97C75.2352 131.089 76.5062 130.242 77.6714 129.255C78.8012 128.268 79.5073 126.999 79.2249 125.377C79.0836 124.495 78.9777 123.614 78.8718 122.732C78.7306 121.71 78.554 120.723 78.4128 119.736C78.5187 119.7 78.5893 119.7 78.6953 119.665C78.9424 120.37 79.1896 121.075 79.5426 122.098C81.308 119.665 83.0734 117.55 84.4857 115.223C85.439 113.636 86.4629 112.86 88.3342 112.931C90.4879 113.037 92.112 111.944 93.03 110.04C93.8774 108.347 94.6895 106.584 95.3603 104.786C96.1724 102.671 95.7134 100.767 94.2658 99.0392C93.5596 98.193 92.9241 97.2763 92.3239 96.3596C92.112 96.0423 91.9708 95.6544 91.9708 95.2666C91.9355 94.3146 91.9708 93.3627 92.0767 92.4107C92.5357 87.122 92.6063 81.8334 91.5824 76.6152C90.6998 72.1727 90.2055 67.6245 88.087 63.5346C87.8399 63.0409 87.7339 62.4768 87.5574 61.9832C87.628 61.948 87.6633 61.948 87.7339 61.9127C88.4401 63.2877 89.1462 64.6981 89.9936 66.3199C91.0175 63.5346 92.3592 61.137 91.3706 58.3517C90.3114 55.3547 88.7578 52.6046 86.2863 50.4892C85.0153 49.3962 83.6736 48.3737 81.9435 48.0916C80.7078 47.9153 79.472 47.8096 78.1303 47.6333C78.554 48.2679 78.9424 48.7968 79.3308 49.3609C78.7659 49.2199 78.4128 48.9026 78.0597 48.5852C76.1178 46.7166 74.2112 44.7774 72.1634 43.0145C67.8912 39.3124 62.8423 36.8091 57.6874 34.5526C52.6738 32.3666 47.4836 31.4147 42.011 32.0493C41.1283 32.1551 40.2809 32.1903 39.3982 32.2609C39.3982 32.1551 39.3629 32.0141 39.3629 31.9083C41.6226 31.591 43.8823 31.2384 46.2125 30.9211C45.5417 29.8986 44.8709 28.9466 44.2353 27.9594C42.7524 25.7734 40.6693 24.6099 38.0919 24.7862C35.5497 24.9625 33.0076 25.4208 30.5361 25.985C28.6648 26.4081 27.2878 27.7126 26.4758 29.5107C25.9109 30.7448 25.4519 32.0493 24.9222 33.3891C26.3345 33.1423 27.6762 32.8955 29.0179 32.6487C29.0532 32.7545 29.0532 32.8602 29.0885 32.966C26.8288 33.6712 24.6045 34.4116 22.3448 35.011C14.3654 37.1617 6.8449 40.1234 0.736739 45.9762C0.59551 46.0819 0.418976 46.1524 0.242439 46.223C0.207132 46.1524 0.171821 46.1172 0.101207 46.0467C0.736738 45.3415 1.37227 44.6011 2.07842 43.7902C-0.216557 43.6844 -2.40561 43.6844 -4.02975 45.3768C-6.14819 47.598 -7.91355 50.1013 -9.18461 52.8867C-9.36115 53.2745 -9.43176 53.7681 -9.39646 54.2265C-9.32584 55.1784 -9.14931 56.1304 -9.00808 57.0824C-8.76093 57.0119 -8.58439 57.0119 -8.37254 57.0119ZM100.056 52.5341C100.127 52.5341 100.197 52.5694 100.268 52.5694C100.268 52.8514 100.303 53.0982 100.268 53.3803C100.091 55.0727 100.692 56.4125 101.786 57.6465C104.222 60.2908 107.329 61.4191 110.825 61.5249C114.497 61.5954 117.745 60.6787 119.581 57.0471C119.616 56.9766 119.722 56.9061 119.758 56.9061C122.618 57.2234 125.372 57.7875 128.161 57.0119C134.375 55.2842 137.094 49.5019 134.587 43.4023C135.046 42.5914 135.54 41.7805 135.964 40.9695C138.153 36.8796 138.435 32.7897 135.893 28.7351C134.869 27.1132 133.457 25.985 131.692 25.2798C129.926 24.5394 128.125 24.2221 126.078 25.174C126.466 24.7509 126.678 24.4689 126.925 24.2221C126.501 22.1066 125.018 21.1194 123.182 20.3085C119.758 18.7924 116.651 19.5328 114.038 22.3182C113.967 22.1771 113.861 22.0713 113.791 21.9303C114.603 21.1194 115.45 20.3085 116.262 19.4975C111.955 16.007 103.94 17.1353 102.245 21.5425C102.704 21.6835 103.163 21.7893 103.658 21.9303C101.151 22.3182 98.6086 22.1771 96.9491 24.6099C95.4662 26.8312 94.9013 29.1582 95.8193 31.8378C92.1474 33.6007 90.6291 36.7386 90.6998 40.6522C90.7351 44.5306 92.3945 47.6333 96.2077 49.5019C95.7134 49.9955 95.3956 50.4186 95.0072 50.736C94.3717 51.2648 94.0892 51.7937 95.2191 52.7457C94.2305 53.5566 93.3125 54.3675 92.3592 55.0727C91.4412 55.7426 91.4059 56.4125 91.9708 57.0824C94.5482 55.7426 97.0904 54.4028 99.6325 53.0982C99.6678 53.204 99.7384 53.2745 99.7737 53.3803C99.8443 53.0982 99.9503 52.8162 100.056 52.5341Z" fill="#FFC2EE"/>
<path d="M41.0575 145.299C40.8104 145.299 40.5632 145.299 40.3161 145.263C38.692 145.158 36.9972 145.017 35.1965 144.876C34.102 144.77 33.2899 144.17 32.8662 143.113C32.1954 141.35 31.1009 140.574 29.0178 140.433C23.8629 140.045 19.167 138.212 15.6363 136.661C15.5657 136.625 15.3185 136.625 15.1773 136.696C11.2229 138.564 7.76275 138.353 4.65571 136.096C4.26733 135.814 3.80834 135.532 3.24342 135.25C0.242298 133.699 -1.13469 131.372 -0.816922 128.304C-0.711 127.317 -0.958152 126.718 -1.80553 125.801C-3.81804 123.65 -5.83056 121.182 -7.73716 118.503C-10.5264 114.589 -12.6449 109.935 -14.1984 104.329L-14.2337 104.223C-14.269 104.047 -14.3396 103.836 -14.3043 103.624C-13.9865 102.002 -14.9752 101.332 -16.2462 100.521C-16.3521 100.451 -16.4581 100.38 -16.564 100.31C-17.7291 99.5341 -18.8943 98.6174 -19.9888 97.5596C-21.5776 96.0788 -22.3897 94.1396 -22.3897 91.9889C-22.3897 89.9792 -22.2485 88.0753 -21.9307 86.3124C-21.6129 84.4437 -20.1653 83.1745 -18.8236 82.1872C-17.6232 81.3058 -17.2701 80.3186 -17.023 78.732C-16.2109 73.0202 -14.728 65.6161 -10.6324 59.0228C-10.0674 58.1061 -9.92621 57.4362 -10.1734 56.7311C-11.1267 53.7694 -9.92621 51.3014 -8.79637 49.5032C-8.58453 49.1859 -8.37269 48.8686 -8.16084 48.4808L-7.949 48.1634L-8.47861 47.7756C-9.46721 47.0704 -10.4911 46.33 -11.5503 45.6249C-11.5857 45.6249 -11.621 45.6249 -11.6563 45.6601C-11.7269 45.6954 -11.8328 45.6954 -11.9034 45.6954C-13.9159 45.9069 -15.5754 45.4838 -16.9877 44.3909C-17.6585 43.862 -18.3293 43.2979 -19.0002 42.769C-19.212 42.5927 -19.3886 42.4517 -19.6004 42.2754C-20.7656 44.0735 -22.3191 45.0255 -24.2257 45.0608C-26.2029 45.096 -27.9682 44.5319 -29.2746 43.4389C-29.6277 43.721 -29.9808 44.003 -30.3338 44.2851C-31.2518 45.0607 -32.2404 45.8717 -33.2996 46.4711C-35.7358 47.8109 -38.4545 47.3525 -40.8201 46.9647C-43.9978 46.4358 -46.787 44.955 -49.1879 42.5927C-49.541 42.2401 -49.6822 41.676 -49.7528 41.2529L-49.9647 40.0189L-49.1526 40.9708C-47.1048 43.2626 -44.3861 44.7082 -40.5376 45.5191C-38.8076 45.8717 -37.0069 45.8364 -35.4534 45.7306C-33.7233 45.6249 -32.5229 44.4614 -31.2518 43.2626L-30.8634 42.91C-30.581 42.628 -30.2985 42.3459 -30.0514 42.0286C-29.9455 41.8875 -29.8042 41.7465 -29.6983 41.6055L-29.4158 41.2882L-29.1687 41.6055C-28.0742 42.9805 -26.5913 43.5799 -24.3316 43.5799H-24.2963C-22.2131 43.5799 -21.0833 42.2049 -19.9535 40.5477L-19.7416 40.2304L-19.4592 40.4772C-19.1767 40.724 -18.9296 40.9356 -18.6824 41.1824C-18.1528 41.676 -17.6232 42.1344 -17.0583 42.5222C-16.1403 43.1568 -15.1164 43.6504 -14.2337 44.1088C-13.7747 44.3556 -13.4216 44.3909 -13.3157 44.3556C-11.6916 43.6504 -10.6324 44.4614 -9.67906 45.2018C-9.3966 45.4133 -9.11414 45.6249 -8.79637 45.8012C-8.33738 46.0832 -7.91369 46.3653 -7.49 46.7179C-7.38408 46.7884 -7.27816 46.8942 -7.17224 46.9647L-6.46609 46.0127L-10.4911 42.2401L-10.2793 41.9933C-8.4433 39.5958 -7.66654 37.1983 -7.98431 34.6597C-8.16084 33.0731 -9.8909 31.6275 -11.3738 31.7686C-11.4444 31.7686 -11.5503 31.8038 -11.6563 31.8391C-11.8681 31.9096 -12.1153 32.0154 -12.433 31.9801L-13.2804 31.9448L-12.6449 31.3455C-12.5743 31.2749 -12.5036 31.2044 -12.4683 31.1692C-12.3271 30.9929 -12.1506 30.8166 -11.9034 30.7108C-6.9957 28.1723 -6.0424 21.6143 -8.26677 17.3128C-10.3499 13.2582 -13.6688 10.7196 -18.3293 9.45035L-18.6471 10.7901L-19.3533 10.8254L-19.4239 10.5433C-19.4239 10.4728 -19.4592 10.3671 -19.4945 10.2965C-19.5298 10.085 -19.6004 9.87344 -19.6004 9.6619C-20.1653 3.98539 -22.9899 1.48208 -28.8156 1.62311C-33.4762 1.69363 -37.0775 2.92765 -39.8668 5.36044C-43.0798 8.14581 -44.5627 11.6716 -44.2802 15.832C-44.2802 16.0788 -44.2802 16.3961 -44.4921 16.784L-44.8098 17.3481L-45.4807 16.0436C-46.8576 17.066 -47.9522 18.4411 -48.9055 20.2745L-49.0467 20.5566L-50 20.1335L-49.8941 19.8161C-49.8235 19.6046 -49.7882 19.3931 -49.7175 19.1815C-49.5763 18.6526 -49.4351 18.1238 -49.1173 17.7007C-48.5171 16.925 -47.8109 16.2199 -47.1754 15.55C-46.787 15.1621 -46.3987 14.739 -46.0103 14.3512C-45.6219 13.9281 -45.516 13.6813 -45.516 13.5403C-44.9157 7.61694 -41.0673 2.89239 -35.4534 1.20002C-32.4523 0.283316 -28.8862 -0.492357 -25.179 0.459605C-21.048 1.51734 -18.7177 4.19693 -18.294 8.35736C-13.4216 9.2388 -9.57314 11.9184 -6.88978 16.3256C-4.34765 20.486 -4.66542 26.9382 -9.57313 30.4288C-9.74967 30.5698 -9.92621 30.7108 -10.1027 30.8518C-7.38408 31.5217 -6.25425 33.1436 -6.36017 36.1405C-6.43078 38.256 -7.20755 40.1952 -8.65515 41.817L-5.61872 45.096L-5.5481 45.0608C-5.33626 44.8845 -5.15972 44.7082 -4.98318 44.5319C-3.21782 42.8748 -1.24061 42.1696 0.842521 42.4517C2.21951 42.628 3.34934 42.2754 4.72632 41.2176C9.13974 37.8682 14.3299 35.9995 18.8492 34.6244C20.0497 34.2719 21.2501 33.9545 22.4153 33.6725L23.0861 33.4962C23.5098 33.3904 23.6863 33.2141 23.8982 32.7205C24.6043 30.9929 25.4164 29.3005 26.1932 27.6786C27.0405 25.9158 28.7 25.1753 30.1829 24.6112C32.725 23.6593 35.6202 23.2714 39.0097 23.3419C42.4345 23.4124 44.5883 25.8452 45.8946 27.6434L46.0712 27.9254C46.5655 28.5953 47.0951 29.3358 47.4835 30.0762C47.7659 30.605 48.0837 30.8166 48.6839 30.8518C54.0153 31.1339 58.6053 33.2846 63.6542 35.8585C69.5858 38.8554 73.9286 42.1343 77.2828 46.1537C77.4594 46.3653 77.7418 46.5063 77.8831 46.5063C83.8853 46.33 88.2987 49.0801 91.0527 54.7567L91.2998 54.5098C91.9001 53.9457 92.5003 53.3463 93.1005 52.7822C93.1358 52.747 93.1711 52.6764 93.1711 52.6412C92.7827 51.3366 93.383 50.4905 94.2303 49.8206C91.0527 47.5993 89.3932 44.5319 89.3579 40.6888C89.3226 36.4931 90.9821 33.4257 94.3363 31.5923C92.7121 26.1626 96.7725 22.8483 98.0435 21.9316C98.5025 21.6143 99.0674 21.5085 99.6324 21.4028C99.9148 21.3322 100.197 21.297 100.444 21.2265C100.656 21.1559 101.08 21.0149 101.151 20.8739C103.198 17.2776 106.447 15.7615 110.895 16.3961C112.979 16.6782 115.168 17.1718 116.968 18.7232C117.004 18.7584 117.251 18.7937 117.71 18.7232C121.205 17.9827 123.994 18.6526 126.183 20.7681C126.713 21.297 127.066 21.9669 127.419 22.7073C127.56 22.9894 127.702 23.2714 127.843 23.5535C130.067 23.4477 132.362 24.1529 134.339 25.5632C137.093 27.5376 138.612 30.5345 138.859 34.4481C139.035 37.3745 138.082 40.0189 136.034 42.3106C135.505 42.91 135.434 43.2979 135.752 44.003C137.235 47.1762 137.058 50.4905 135.293 53.2758C133.316 56.3785 129.502 58.5645 126.007 58.5998C124.595 58.5998 123.182 58.494 121.699 58.3529C121.099 58.2824 120.499 58.2472 119.863 58.2119C119.051 60.2569 117.321 61.6672 114.85 62.3371C111.566 63.2185 108.389 63.007 105.352 61.7024C102.845 60.6447 101.221 59.2697 100.233 57.3657C99.9148 56.7311 99.6324 56.0612 99.3852 55.3208C99.3146 55.1092 99.2087 54.8624 99.1381 54.6509C98.9262 54.7567 98.7144 54.8624 98.4672 54.9682C97.6198 55.356 96.7372 55.7791 95.8545 56.2022C95.0071 56.6253 94.1597 57.0484 93.277 57.542C92.9593 57.7183 92.6768 57.8593 92.3591 58.0356C93.5595 61.3146 92.2531 64.1705 90.9821 66.9559L90.9468 67.0264C90.8408 67.2379 90.8408 67.5905 90.9115 67.8373C93.3124 75.7351 94.195 82.8219 93.6301 89.4856C93.5242 90.8959 93.277 92.1652 92.924 93.3287C92.4297 94.8801 92.8887 96.1493 94.3716 97.4539C96.2782 99.1462 97.1255 100.803 97.0549 102.672C96.8784 106.409 95.3955 109.829 92.6062 112.826C91.6529 113.849 90.0994 114.342 88.4399 114.166C87.1336 114.025 86.5334 114.589 85.7566 115.823C84.6974 117.445 83.4969 118.996 82.3318 120.512C81.7316 121.288 81.096 122.099 80.4958 122.91C80.284 123.192 80.178 123.58 80.2133 123.791C81.2373 127.141 80.0721 129.785 76.612 132.077C72.6576 134.686 72.128 134.51 68.5266 132.077L68.3501 131.971C68.2442 131.901 68.1382 131.83 68.0676 131.76C63.7601 135.321 58.57 137.895 51.8616 139.799C51.0848 140.01 50.3081 140.257 49.496 140.257C48.6839 140.292 48.2955 140.68 47.8719 141.35C47.8012 141.456 47.7306 141.561 47.66 141.667C47.5894 141.773 47.5188 141.843 47.4482 141.949C46.1065 144.1 43.9527 145.299 41.0575 145.299ZM33.4312 142.549C33.4665 142.654 33.5018 142.76 33.5724 142.866C33.8549 143.642 34.4551 144.1 35.2671 144.17C37.0678 144.312 38.7273 144.453 40.3514 144.558C43.3525 144.77 45.5063 143.747 46.9186 141.42C46.9892 141.315 47.0598 141.174 47.1657 141.068C47.2363 140.962 47.3069 140.892 47.3422 140.786C47.7659 140.116 48.3662 139.411 49.5313 139.375C50.2727 139.34 51.0142 139.129 51.7557 138.952C58.4287 137.048 63.5483 134.51 67.8205 130.984C67.6793 130.949 67.3262 131.055 67.079 131.231C62.8068 134.439 58.2875 136.766 53.6976 138.141C51.8616 138.67 49.9903 139.058 48.1543 139.411C47.9072 139.446 47.66 139.516 47.4129 139.552L47.3069 139.94C46.7773 142.161 44.906 143.888 42.9641 143.994C40.5279 144.1 38.0564 144.1 35.5849 143.959C34.8435 143.924 34.102 143.254 33.5724 142.69C33.5018 142.654 33.4665 142.619 33.4312 142.549ZM33.184 140.856C33.2193 140.892 33.2193 140.962 33.2546 140.997C33.5018 141.456 33.7136 141.879 34.0314 142.196C34.2785 142.443 35.02 143.219 35.5849 143.254C38.0211 143.395 40.4573 143.395 42.8582 143.289C44.3764 143.219 45.824 141.914 46.4243 140.222H41.2694L44.1999 139.516C45.471 139.199 46.742 138.952 47.9778 138.741C49.8138 138.388 51.685 138.036 53.4504 137.507C58.005 136.167 62.4185 133.875 66.62 130.702C66.9378 130.455 67.5733 130.173 68.0323 130.349C69.3034 130.773 70.5391 131.301 71.7749 131.795L71.9161 131.866C72.6576 132.183 73.2931 132.112 73.8933 131.689C74.1052 131.548 74.317 131.372 74.5289 131.231C75.5528 130.526 76.5767 129.785 77.53 128.974C78.7304 127.917 79.1894 126.788 78.9423 125.413C78.8364 124.884 78.7657 124.32 78.7304 123.791C78.6951 123.439 78.6598 123.122 78.5892 122.769C78.4833 122.064 78.3774 121.359 78.2714 120.654L78.0949 119.419L79.0129 119.208L79.7543 121.323C80.178 120.759 80.5664 120.23 80.9901 119.702C82.1906 118.115 83.3204 116.634 84.309 115.012C85.4035 113.179 86.6393 112.474 88.4753 112.544C90.4172 112.615 91.9354 111.698 92.8534 109.829C93.8067 107.925 94.5481 106.233 95.1836 104.611C95.8898 102.707 95.572 100.909 94.1597 99.2168C93.4183 98.3353 92.7474 97.3481 92.1825 96.5372C91.9354 96.1846 91.7941 95.691 91.7941 95.2679C91.7588 94.2454 91.7941 93.2582 91.9001 92.3767C92.465 86.1714 92.2884 81.2 91.4058 76.687C91.2292 75.8408 91.088 75.0299 90.9468 74.1837C90.3112 70.6579 89.6404 66.9911 87.9456 63.6769C87.7691 63.3243 87.6279 62.9365 87.522 62.5486C87.4866 62.3723 87.416 62.2313 87.3807 62.055L87.2748 61.7377L88.0869 61.4556L90.0994 65.4398C90.17 65.2282 90.2759 65.0167 90.3465 64.8051C91.2292 62.5486 91.9707 60.6447 91.1939 58.4587C89.9935 55.1092 88.3693 52.6059 86.2156 50.7373C85.0151 49.7148 83.7441 48.6923 82.0493 48.4455C81.2373 48.3045 80.3899 48.234 79.5072 48.1282C79.366 48.1282 79.1894 48.0929 79.0129 48.0929L80.3193 49.9968L79.366 49.7148C78.7304 49.5385 78.3067 49.1859 77.9537 48.8333C77.3181 48.234 76.6826 47.5993 76.0471 46.9999C74.776 45.7659 73.4696 44.4614 72.0927 43.2979C67.7499 39.5253 62.595 37.022 57.7226 34.9065C52.603 32.6853 47.3776 31.8391 42.2227 32.4385C41.6225 32.509 41.0222 32.5442 40.422 32.6147C40.1396 32.65 39.8571 32.65 39.6099 32.6853L39.2569 32.7205L39.1509 31.698L45.7887 30.7461L44.1293 28.278C42.6817 26.1626 40.6692 25.1048 38.3036 25.2811C36.0439 25.4221 33.5724 25.81 30.8184 26.4446C29.1237 26.8325 27.8173 27.996 27.0052 29.7589C26.6169 30.605 26.2991 31.4512 25.946 32.3679C25.8754 32.5795 25.7695 32.791 25.6989 33.0378L29.5121 32.3679L29.6886 33.3552L29.4061 33.4609C28.7 33.6725 27.9938 33.884 27.2877 34.1308C25.7695 34.6244 24.216 35.118 22.6271 35.5411C10.1636 38.8906 4.6204 43.1216 1.19559 46.4005C1.05436 46.5416 0.913134 46.6121 0.736598 46.6474C0.70129 46.6826 0.630678 46.6826 0.595371 46.7179L0.348221 46.8589L-0.146085 46.2595L1.51336 44.3556C-0.499159 44.2851 -2.22922 44.4614 -3.6062 45.8717C-5.79525 48.1282 -7.49 50.6315 -8.69045 53.2758C-8.83168 53.5931 -8.9023 54.0162 -8.86699 54.4393C-8.83168 55.1092 -8.72576 55.7439 -8.61984 56.4138C-8.58453 56.5901 -8.54922 56.7663 -8.54922 56.9426H-7.66654L-7.98431 57.4715C-11.5857 63.4301 -13.9865 70.3759 -15.2576 78.6967C-15.6813 81.3058 -16.7052 83.1039 -18.6118 84.479C-19.8829 85.3957 -20.6596 86.8413 -20.7302 88.4984C-20.8009 90.0497 -20.6949 91.6363 -20.6243 92.7998C-20.4478 94.8448 -19.4592 96.5372 -17.6585 97.7712C-17.023 98.1943 -16.3874 98.6174 -15.7519 99.0405C-15.1164 99.4636 -14.4808 99.8867 -13.8453 100.31C-13.5276 100.521 -13.1745 100.909 -13.0686 101.367C-12.9626 101.861 -12.892 102.355 -12.8567 102.813C-12.7861 103.483 -12.6802 104.153 -12.5036 104.752C-10.4911 111.592 -6.92508 117.798 -1.59368 123.721C-0.252004 125.202 1.01906 126.824 0.842521 129.292C0.807213 129.821 0.87783 130.42 1.05437 130.949C1.1956 131.407 1.47805 132.042 1.86643 132.324C3.31403 133.382 4.79694 134.369 6.27984 135.25C8.22175 136.414 10.3755 137.295 12.7764 135.991C13.0942 135.814 13.4119 135.744 13.765 135.673C13.9415 135.638 14.1181 135.603 14.2593 135.532C15.1067 135.25 15.9187 135.321 16.8367 135.709C23.0508 138.282 29.6886 139.552 36.5735 139.552C36.6088 139.552 36.6441 139.552 36.6794 139.552C36.856 139.552 36.9972 139.587 37.1384 139.587C37.209 139.587 37.2444 139.622 37.315 139.622L37.6327 139.657L37.5974 140.574L33.184 140.856ZM15.5304 135.955C15.6716 135.955 15.8128 135.991 15.954 136.026C19.4142 137.577 24.0394 139.375 29.0884 139.728C30.6419 139.834 31.7364 140.292 32.5485 141.138C32.4779 140.997 32.4073 140.892 32.3366 140.75L32.0542 140.292L34.5257 140.01C28.2763 139.799 22.2034 138.494 16.519 136.132C15.7422 135.814 15.1067 135.779 14.4005 135.991C14.224 136.061 14.0121 136.096 13.8356 136.132C13.5532 136.202 13.2707 136.237 13.0589 136.379C10.3402 137.859 7.90398 136.837 5.85616 135.638C4.33794 134.757 2.85504 133.769 1.40744 132.676C0.842523 132.253 0.524757 131.513 0.348221 130.949C0.136377 130.349 0.0304505 129.644 0.101065 129.01C0.17168 128.269 0.0657589 127.599 -0.146085 126.965C-0.00485571 127.388 0.0304527 127.846 -0.0401619 128.41C-0.32262 131.196 0.877826 133.205 3.6318 134.651C4.23202 134.968 4.72632 135.25 5.15001 135.568C8.04521 137.683 11.2582 137.859 14.9654 136.096C15.0714 135.991 15.3185 135.955 15.5304 135.955ZM69.1975 131.478C72.4104 133.628 72.6929 133.699 76.2942 131.337C79.5072 129.221 80.5311 126.894 79.6131 123.862C79.4719 123.368 79.7544 122.698 80.0015 122.381C80.6017 121.57 81.2373 120.759 81.8728 119.984C83.0379 118.503 84.2384 116.951 85.2623 115.365C86.0037 114.201 86.8158 113.214 88.6518 113.39C90.0994 113.531 91.4058 113.108 92.2178 112.262C94.8659 109.371 96.3135 106.127 96.49 102.566C96.5606 100.909 95.7839 99.4283 94.0538 97.9122C93.9832 97.877 93.9479 97.8064 93.8773 97.7712C94.1244 98.1238 94.4069 98.4763 94.6893 98.8289C96.2782 100.733 96.6666 102.778 95.8545 104.929C95.219 106.55 94.4775 108.278 93.5242 110.182C92.465 112.262 90.6996 113.39 88.4753 113.285C86.8511 113.214 85.8978 113.778 84.9445 115.4C83.9559 117.022 82.8261 118.538 81.5903 120.16C81.0607 120.865 80.5311 121.57 79.9662 122.311L79.5778 122.839L79.2247 121.852C79.26 122.134 79.2954 122.416 79.366 122.698C79.4013 123.051 79.4719 123.404 79.5072 123.756C79.5778 124.285 79.6484 124.814 79.719 125.343C80.0015 126.929 79.4366 128.34 78.0596 129.538C77.1063 130.385 76.0471 131.125 75.0232 131.83C74.8113 131.971 74.5995 132.112 74.3876 132.289C73.6109 132.853 72.6576 132.923 71.7043 132.535L71.5631 132.465C70.751 132.077 69.9742 131.76 69.1975 131.478ZM-13.5276 103.483C-13.5276 103.589 -13.5629 103.695 -13.5629 103.8C-13.5629 103.836 -13.5276 103.977 -13.4922 104.047L-13.4569 104.153C-11.9034 109.688 -9.82029 114.237 -7.10162 118.115C-5.19503 120.795 -3.21782 123.227 -1.24061 125.343C-0.852228 125.766 -0.534465 126.189 -0.322621 126.612C-0.711002 125.731 -1.34653 124.884 -2.19391 123.932C-7.63123 117.939 -11.2326 111.628 -13.2804 104.682C-13.3863 104.294 -13.4569 103.906 -13.5276 103.483ZM-21.5423 88.9567C-21.6129 89.944 -21.6835 90.9664 -21.6835 91.9889C-21.6835 93.9633 -20.9421 95.7262 -19.4945 97.066C-18.4 98.0885 -17.2701 99.0052 -16.1403 99.7456C-16.0344 99.8161 -15.9284 99.8867 -15.8225 99.9572C-15.0105 100.486 -14.1278 101.085 -13.7394 102.002C-13.7747 101.755 -13.81 101.473 -13.8806 101.226C-13.9159 101.05 -14.1278 100.768 -14.3749 100.627C-15.0105 100.204 -15.646 99.7809 -16.2815 99.3578C-16.9171 98.9347 -17.5526 98.5116 -18.1881 98.0885C-20.1653 96.7135 -21.2599 94.8801 -21.4364 92.6236C-21.507 91.6011 -21.5776 90.2965 -21.5423 88.9567ZM89.9228 66.7443C90.6996 69.1418 91.1586 71.6099 91.5823 74.0074C91.7235 74.8536 91.9001 75.6645 92.0413 76.5107C92.924 81.0942 93.1005 86.1008 92.5709 92.3062C92.818 91.3895 92.9593 90.3671 93.0652 89.3093C93.5948 82.7514 92.7121 75.7351 90.3465 67.9431C90.2406 67.52 90.2406 67.0264 90.4172 66.6385L90.4525 66.568C91.7588 63.7121 92.9946 61.0325 91.7235 57.9299L91.6176 57.6478L91.7941 57.542L91.6529 57.3657C91.2998 56.9426 91.1586 56.5195 91.1939 56.1317C91.2292 55.8849 91.2998 55.6734 91.4764 55.4618L90.9115 55.9907L90.6996 55.5323C89.0049 51.8655 86.7099 49.4327 83.7088 48.1987C84.8033 48.6923 85.7213 49.4327 86.604 50.1731C88.8636 52.1123 90.5584 54.7567 91.7941 58.2119C92.6768 60.6447 91.8295 62.7954 90.9468 65.0519C90.7702 65.5103 90.5937 65.9334 90.4172 66.427L90.1347 67.2027L89.9228 66.7443ZM-10.4911 60.1511C-14.1631 66.4623 -15.5401 73.4433 -16.3168 78.873C-16.564 80.5654 -16.9877 81.7641 -18.4 82.7866C-19.6357 83.6681 -20.9421 84.8316 -21.2245 86.4534C-21.2599 86.5592 -21.2599 86.665 -21.2952 86.806C-20.9421 85.5367 -20.2006 84.4437 -19.1061 83.6681C-17.376 82.3988 -16.4228 80.7417 -16.0344 78.3441C-14.9752 71.3983 -13.1392 65.4045 -10.4911 60.1511ZM101.645 58.0356C102.563 59.2697 103.905 60.2216 105.741 60.9973C108.636 62.2313 111.672 62.4076 114.779 61.5967C116.545 61.1383 117.886 60.2216 118.734 58.9876C117.004 61.0325 114.461 61.9845 110.825 61.8787C107.047 61.773 103.975 60.4684 101.645 58.0356ZM99.8442 52.1123L100.621 52.2533V52.5354C100.621 52.6059 100.621 52.7117 100.621 52.7822C100.621 52.9938 100.621 53.17 100.621 53.3816C100.444 54.8272 100.903 56.0964 102.069 57.3657C104.293 59.7985 107.188 61.0325 110.86 61.1031C115.097 61.2088 117.78 59.8338 119.263 56.8369C119.334 56.6958 119.475 56.5901 119.546 56.5548L119.652 56.449L119.793 56.4843C120.287 56.5195 120.746 56.5901 121.24 56.6606C123.606 56.9426 125.795 57.2247 128.055 56.5901C130.915 55.7791 133.139 54.0515 134.269 51.6892C135.434 49.2564 135.434 46.33 134.234 43.4741L134.163 43.2979L134.234 43.1568C134.375 42.91 134.516 42.628 134.693 42.3812C135.01 41.817 135.328 41.2882 135.611 40.724C137.905 36.4578 137.87 32.5795 135.575 28.8422C134.657 27.3613 133.28 26.2331 131.515 25.5279C130.032 24.9285 128.267 24.4349 126.183 25.4221L124.665 26.1273L126.501 24.0471C126.078 22.2489 124.806 21.3322 123.006 20.5566C119.758 19.1463 116.827 19.7809 114.25 22.4957L113.932 22.8131L113.296 21.7906L115.662 19.4636C113.402 17.8065 110.083 17.2776 107.047 18.0885C104.964 18.6526 103.375 19.7809 102.669 21.2617L105.317 21.9669L103.622 22.2137C103.198 22.2842 102.81 22.3195 102.386 22.3547C100.339 22.6015 98.4319 22.8131 97.1255 24.7522C95.572 27.0793 95.219 29.3005 96.0663 31.6628L96.1722 31.9448L95.8898 32.0859C92.5709 33.6725 90.9115 36.5284 90.9468 40.5477C91.0174 44.5319 92.7827 47.3878 96.2429 49.0801L96.6665 49.2917L96.3135 49.6443C96.1369 49.8206 95.9957 49.9616 95.8545 50.1026C95.572 50.3847 95.3249 50.6667 95.0424 50.8783C94.76 51.1251 94.6187 51.3014 94.6187 51.4777C94.6187 51.6187 94.7246 51.9008 95.2543 52.3591L95.572 52.6412L95.2543 52.9232C94.9365 53.1701 94.654 53.4169 94.3716 53.6637C93.7007 54.2278 93.0652 54.7567 92.3944 55.2503C92.0413 55.5323 91.8295 55.7791 91.7941 56.0612C91.7588 56.2022 91.8294 56.3785 91.9354 56.5548L99.5264 52.6059L99.8442 52.1123ZM-11.515 44.955C-11.4091 44.955 -11.3032 44.9902 -11.2326 45.0255C-10.1734 45.7659 -9.11414 46.5063 -8.09023 47.2467L-6.9957 48.0224L-7.56062 48.9039C-7.80777 49.2564 -7.98431 49.609 -8.19615 49.9263C-9.78498 52.4296 -10.1734 54.4746 -9.50252 56.5901C-9.29068 57.2247 -9.32598 57.8241 -9.50252 58.3529C-9.32598 58.0356 -9.14945 57.7183 -8.97291 57.4362H-9.22006L-9.25537 57.1189C-9.29068 56.8369 -9.32598 56.5548 -9.36129 56.2727C-9.46721 55.6028 -9.57313 54.9329 -9.60844 54.2278C-9.64375 53.6989 -9.57313 53.1348 -9.3966 52.747C-8.16084 49.9968 -6.39548 47.4583 -4.17112 45.1313C-2.44106 43.3331 -0.181393 43.2979 2.2195 43.4389L2.96096 43.4741L2.43135 44.0735C6.03269 41.0414 11.7172 37.5156 22.38 34.6597C23.6863 34.3071 25.028 33.884 26.2991 33.4962L24.4984 33.8135L24.7456 33.2141C24.9221 32.791 25.0633 32.3679 25.2399 31.9801C25.5929 31.0634 25.946 30.2172 26.3344 29.3358C27.2171 27.3613 28.7353 26.0568 30.6419 25.6337C33.4665 24.999 35.938 24.6112 38.233 24.4349C40.881 24.2586 43.1054 25.3869 44.6942 27.7492L46.9892 31.1692L44.7648 31.4865C49.1782 31.3807 53.6269 32.2974 58.0404 34.2013C62.9834 36.3521 68.1735 38.8906 72.6223 42.7337C73.9993 43.9325 75.3409 45.237 76.612 46.4711C77.1416 46.9647 77.6712 47.4935 78.1655 47.9872L77.6006 47.1762H77.6712C77.3535 47.0704 77.071 46.8589 76.8945 46.6474C73.6109 42.6985 69.3387 39.49 63.4777 36.5284C58.4993 34.0251 53.98 31.9096 48.7898 31.6275C47.9425 31.5923 47.4129 31.2397 47.0245 30.4993C46.6361 29.7941 46.1418 29.089 45.6475 28.4191L45.4356 28.137C43.4584 25.4221 41.5165 24.1529 39.1156 24.1176C35.7968 24.0471 33.0075 24.4349 30.536 25.3516C28.8412 25.9863 27.6055 26.6562 26.9346 28.0665C26.1579 29.6883 25.3458 31.3807 24.6396 33.0731C24.3925 33.6725 24.0747 34.0956 23.3333 34.2719L22.6624 34.4481C21.4973 34.7302 20.2968 35.0123 19.1317 35.4001C14.683 36.7752 9.52812 38.6086 5.22062 41.8875C3.6671 43.0511 2.39604 43.4389 0.807211 43.2626C-1.06408 43.0158 -2.82944 43.6504 -4.45358 45.1665C-4.63011 45.3428 -4.84195 45.5191 -5.0538 45.6954L-5.44218 46.048L-6.96039 48.0929L-7.24285 47.8814C-7.4547 47.7403 -7.66654 47.5641 -7.84308 47.423C-8.26676 47.1057 -8.65514 46.7884 -9.07883 46.5768C-9.3966 46.4005 -9.71436 46.1537 -9.99682 45.9422C-10.9148 45.237 -11.7269 44.6377 -12.9273 45.2018C-12.9626 45.237 -12.9979 45.237 -13.0686 45.237C-12.7155 45.237 -12.3271 45.237 -11.9387 45.2018C-11.9034 45.2018 -11.8328 45.2018 -11.7975 45.1665C-11.7269 44.9902 -11.621 44.955 -11.515 44.955ZM119.758 57.401C120.464 57.4362 121.17 57.5068 121.876 57.5773C123.359 57.7183 124.736 57.8241 126.148 57.8241C129.432 57.7888 132.998 55.7439 134.834 52.8175C135.999 50.9841 137.023 47.9872 135.257 44.2146C135.222 44.1793 135.222 44.144 135.187 44.0735C136.14 46.8589 136.034 49.6795 134.904 52.0418C133.669 54.5804 131.303 56.449 128.231 57.2952C125.83 57.9651 123.429 57.683 121.135 57.3657C120.711 57.2952 120.287 57.26 119.863 57.2247C119.828 57.2952 119.793 57.3657 119.758 57.401ZM99.4205 53.5931L97.0549 54.8272C97.4786 54.6509 97.867 54.4393 98.2907 54.263C98.6438 54.0868 98.9615 53.9457 99.2793 53.8047L99.4558 53.6989L99.4205 53.5931ZM95.0424 50.1379C94.0891 50.843 93.6301 51.4424 93.9479 52.4649C94.0538 52.7822 93.842 53.1348 93.7007 53.2758C93.2064 53.7694 92.7121 54.2278 92.2178 54.6861C92.818 54.2278 93.4183 53.7342 94.0538 53.2053C94.2657 53.029 94.4422 52.888 94.654 52.7117C94.2657 52.3239 94.0538 51.936 94.0538 51.5834C94.0538 51.0898 94.4069 50.702 94.76 50.4552C94.8306 50.3494 94.9365 50.2789 95.0424 50.1379ZM99.8089 54.122C99.8089 54.1573 99.8442 54.1925 99.8442 54.263C99.8442 54.1925 99.8442 54.0868 99.8442 54.0162L99.8089 54.122ZM91.6882 34.9418C90.6643 36.4931 90.1347 38.397 90.17 40.6535C90.2053 44.4261 91.8648 47.3878 95.1483 49.5032L95.5014 49.7148C95.5367 49.6795 95.572 49.6443 95.6073 49.609C92.1472 47.7756 90.3818 44.7787 90.3465 40.6535C90.2406 38.397 90.7349 36.4931 91.6882 34.9418ZM78.1302 47.2115L78.3067 47.2467C78.7304 47.282 79.1541 47.3525 79.5425 47.3878C80.4252 47.4935 81.2726 47.5641 82.1199 47.7051C82.3671 47.7403 82.6142 47.8109 82.8614 47.8814C81.4138 47.3525 79.825 47.141 78.1302 47.2115ZM-45.0923 44.8139C-43.7153 45.5544 -42.2324 46.048 -40.6789 46.2948C-38.6664 46.6121 -36.6185 46.9647 -34.7119 46.33C-34.9238 46.3653 -35.1356 46.4005 -35.3475 46.4005C-36.9363 46.5063 -38.8429 46.5416 -40.6436 46.189C-42.303 45.8717 -43.7859 45.4133 -45.0923 44.8139ZM-19.6004 41.3939L-19.4592 41.4997C-19.1414 41.7465 -18.859 41.9933 -18.5412 42.2401C-17.8704 42.769 -17.1995 43.3331 -16.5287 43.8267C-15.7872 44.4261 -14.9398 44.7787 -13.9865 44.955C-14.1631 44.8845 -14.3043 44.8139 -14.4455 44.7434C-15.5401 44.1793 -16.4934 43.721 -17.376 43.1216C-17.9763 42.6985 -18.5059 42.2401 -19.0708 41.7465C-19.212 41.6055 -19.3886 41.4645 -19.5298 41.3234C-19.5651 41.3587 -19.5651 41.3939 -19.6004 41.3939ZM-27.2974 43.862C-26.3794 44.2498 -25.3202 44.4261 -24.2257 44.4261C-23.2018 44.3909 -22.3191 44.1088 -21.5776 43.5094C-22.3191 44.0383 -23.1664 44.3556 -24.261 44.3556C-25.179 44.3203 -26.2382 44.2498 -27.2974 43.862ZM134.94 43.4036C134.975 43.5094 135.046 43.6504 135.081 43.7562C135.046 43.6152 135.01 43.4741 135.01 43.3331C134.975 43.3331 134.94 43.3684 134.94 43.4036ZM-29.3805 42.3812C-29.4158 42.4164 -29.4158 42.4517 -29.4511 42.4869C-29.7336 42.8042 -29.9808 43.1216 -30.2985 43.4036L-30.5104 43.6152C-30.1573 43.3331 -29.8042 43.0158 -29.4158 42.7337L-29.204 42.5574C-29.2746 42.5222 -29.3452 42.4517 -29.3805 42.3812ZM-9.46721 42.1696L-8.05492 43.5094L-9.3966 42.0638C-9.3966 42.0638 -9.4319 42.1344 -9.46721 42.1696ZM128.62 24.2234C129.82 24.2234 130.915 24.576 131.797 24.9285C133.704 25.7042 135.152 26.903 136.175 28.5248C138.541 32.3327 138.612 36.4226 136.423 40.7946C137.8 38.8906 138.435 36.7399 138.294 34.4129C138.082 30.6756 136.705 27.9607 134.057 26.0568C132.15 24.6817 129.926 24.0118 127.808 24.1881L127.596 24.2234L127.49 24.0471C127.278 23.6945 127.101 23.3419 126.925 22.9894C126.572 22.2842 126.254 21.6848 125.83 21.2265C123.818 19.3225 121.276 18.6879 117.992 19.3931C117.357 19.5341 116.898 19.4636 116.615 19.252C115.062 17.9122 113.226 17.4186 110.931 17.066C106.764 16.4667 103.799 17.8417 101.892 21.1912C101.68 21.579 101.151 21.7553 100.798 21.8611C100.515 21.9669 100.197 22.0021 99.9148 22.0726C99.4205 22.1784 98.9615 22.2489 98.6084 22.4957C97.3727 23.3419 93.5242 26.5151 95.2543 31.6275L95.2896 31.7333C95.3249 31.698 95.3602 31.698 95.3955 31.6628C94.6187 29.1595 95.0071 26.8325 96.6312 24.3997C97.9729 22.4252 99.8795 22.0021 101.786 21.7906H101.751L101.892 21.438C102.598 19.5693 104.434 18.159 106.906 17.4891C110.295 16.5724 114.038 17.2776 116.474 19.252L116.792 19.4988L115.98 20.3098C118.239 18.97 120.711 18.8642 123.324 19.9924C125.089 20.7681 126.784 21.8258 127.278 24.1529L127.313 24.3292L127.243 24.3997C127.702 24.2586 128.161 24.2234 128.62 24.2234ZM-8.12554 32.5795C-7.63123 33.1436 -7.31347 33.8488 -7.20755 34.5892C-6.9957 36.4578 -7.31347 38.256 -8.16084 40.0541C-7.4547 38.8554 -7.06631 37.5156 -6.9957 36.1405C-6.9957 34.4834 -7.31347 33.3552 -8.12554 32.5795ZM-12.0446 11.6716C-10.2087 13.0819 -8.72576 14.8448 -7.59593 16.9955C-5.97179 20.0982 -5.93648 24.3644 -7.70185 27.6081C-5.37156 24.2586 -5.58341 19.8161 -7.4547 16.6782C-8.76107 14.598 -10.2793 12.9409 -12.0446 11.6716ZM-47.8109 17.2776C-48.0581 17.5596 -48.3406 17.8417 -48.5524 18.159C-48.6936 18.3353 -48.7642 18.5116 -48.8349 18.7584C-48.5171 18.1943 -48.164 17.7007 -47.8109 17.2776ZM-44.9864 14.1396C-45.0923 14.3512 -45.2688 14.5627 -45.4807 14.8095C-45.869 15.2326 -46.2574 15.6557 -46.6458 16.0436C-46.6811 16.0788 -46.6811 16.0788 -46.7164 16.1141C-46.3633 15.7615 -45.975 15.4794 -45.5513 15.1974L-45.2335 14.9506L-45.0217 15.3737C-45.0217 14.9506 -45.0217 14.5627 -44.9864 14.1396ZM-28.4272 0.917956C-22.7075 0.917956 -19.671 3.52704 -18.9296 9.06251L-18.8943 8.95674H-18.9296L-18.9649 8.67468C-19.2826 4.65529 -21.4364 2.11672 -25.3555 1.1295C-28.8862 0.2128 -32.3463 0.988472 -35.2415 1.86992C-38.3839 2.82188 -40.9613 4.76106 -42.6561 7.37014C-42.0205 6.48869 -41.2438 5.6425 -40.3258 4.83157C-37.3953 2.29301 -33.6527 1.02373 -28.8156 0.917956C-28.6744 0.917956 -28.5685 0.917956 -28.4272 0.917956Z" fill="#FFC2EE"/>
<path d="M111.848 134.896C111.742 137.435 110.86 139.48 108.883 141.066C108.6 141.278 108.459 141.772 108.388 142.159C108.282 142.829 108.459 143.534 108.282 144.169C107.859 146.073 106.093 147.166 103.939 146.813C103.127 146.672 102.739 146.884 102.28 147.589C100.868 149.951 97.2664 151.08 94.23 150.163C93.0648 149.81 91.9703 149.352 91.1935 148.294C91.0523 148.118 90.7345 147.977 90.4874 147.942C84.4145 147.378 80.7073 141.454 82.9316 135.884C83.0729 135.496 83.2141 135.002 83.5319 134.791C84.4852 134.156 84.2733 133.345 84.2027 132.428C83.7437 128.197 85.3678 125.447 88.8986 124.284C90.6286 123.72 92.3234 123.755 94.0181 124.319C94.583 124.531 94.9008 124.46 95.3951 124.072C97.9372 122.027 100.727 122.38 103.551 123.332C104.857 123.79 106.199 124.495 106.446 125.906C106.764 127.739 107.788 128.62 109.306 129.537C111.177 130.736 111.778 132.816 111.848 134.896ZM107.364 141.031C109.165 140.643 111.142 137.646 111.107 135.002C111.072 131.899 109.342 129.572 106.482 128.903C106.482 127.527 106.234 126.223 105.175 125.2C102.88 123.014 98.0432 122.838 95.501 124.777C95.2539 124.954 94.9008 125.024 94.583 124.989C93.3473 124.918 92.1115 124.707 90.8758 124.742C87.9453 124.813 85.8621 126.505 85.0501 129.326C84.5558 130.983 84.4852 132.675 85.2266 134.226C83.2494 135.919 82.4373 138.034 82.9669 140.361C84.0615 145.297 87.4157 147.519 92.6765 147.378C92.2175 147.765 92.0409 147.942 91.8644 148.083C92.8177 149.105 93.4532 149.528 95.2186 149.74C97.8313 150.057 100.232 149.528 101.821 147.272C102.457 146.355 103.092 146.108 104.187 146.179C106.623 146.32 108.07 144.522 107.541 142.124C107.47 141.772 107.435 141.384 107.364 141.031Z" fill="#FFC2EE"/>
<path d="M96.4545 150.868C95.6778 150.868 94.901 150.762 94.1242 150.516C92.9238 150.163 91.7233 149.669 90.9113 148.506C90.876 148.435 90.6641 148.33 90.4523 148.33C87.4158 148.048 84.7678 146.426 83.2496 143.922C81.7667 141.49 81.5195 138.493 82.6141 135.778C82.6494 135.707 82.6847 135.637 82.6847 135.566C82.8259 135.178 83.0024 134.755 83.3202 134.509C83.991 134.05 83.9557 133.592 83.8498 132.71L83.8145 132.464C83.3202 128.092 85.0503 125.165 88.7575 123.931C90.5229 123.332 92.3236 123.367 94.1242 123.966C94.5479 124.108 94.7598 124.108 95.1835 123.755C98.0434 121.428 101.221 122.133 103.693 122.979C104.893 123.402 106.517 124.143 106.8 125.835C107.117 127.492 107.965 128.338 109.483 129.255C111.178 130.313 112.096 132.182 112.166 134.861C112.06 137.611 111.036 139.727 109.059 141.278C108.918 141.384 108.777 141.736 108.706 142.16C108.671 142.442 108.671 142.724 108.671 143.006C108.671 143.394 108.671 143.781 108.6 144.204C108.141 146.285 106.164 147.483 103.834 147.131C103.163 147.025 102.916 147.131 102.563 147.766C101.468 149.705 98.9966 150.868 96.4545 150.868ZM92.3942 148.118C93.1709 148.894 93.7712 149.211 95.2541 149.387C98.114 149.74 100.162 149 101.539 147.06C102.245 146.108 102.986 145.756 104.222 145.826C105.246 145.897 106.129 145.58 106.658 144.945C107.223 144.275 107.435 143.288 107.188 142.23C107.117 141.948 107.082 141.701 107.047 141.419C107.047 141.313 107.011 141.172 107.011 141.067L106.976 140.749L107.294 140.679C108.847 140.326 110.825 137.505 110.789 135.002C110.754 132.041 109.13 129.89 106.446 129.22L106.164 129.149V128.867C106.164 127.316 105.811 126.223 104.964 125.447C102.81 123.367 98.1846 123.191 95.7484 125.059C95.36 125.377 94.7598 125.377 94.5832 125.342C94.0889 125.306 93.6299 125.271 93.1356 125.236C92.3942 125.165 91.6174 125.095 90.9113 125.095C88.1573 125.165 86.2154 126.717 85.4033 129.396C84.8737 131.159 84.9443 132.675 85.5446 134.05L85.6505 134.297L85.4386 134.473C83.5674 136.095 82.8259 138.105 83.2849 140.291C84.3088 144.98 87.3805 147.201 92.6413 147.025L93.6299 146.99L92.3942 148.118ZM90.8053 147.695C91.0172 147.766 91.2643 147.871 91.4056 148.048L91.7233 147.766C91.4409 147.73 91.1231 147.73 90.8053 147.695ZM108 143.499C107.929 144.24 107.682 144.874 107.223 145.403C106.764 145.932 106.164 146.285 105.458 146.461C106.729 146.214 107.682 145.368 107.965 144.099C108 143.922 108 143.711 108 143.499ZM107.753 141.278C107.753 141.313 107.753 141.313 107.753 141.349C107.788 141.595 107.823 141.842 107.894 142.089C107.929 142.301 107.965 142.477 108 142.688C108 142.512 108 142.336 108.035 142.16C108.071 141.877 108.212 141.172 108.636 140.82C109.977 139.762 110.825 138.422 111.248 136.8C110.683 138.81 109.236 140.714 107.753 141.278ZM84.1323 134.826C84.0263 134.932 83.9204 135.002 83.7792 135.108C83.6027 135.214 83.4967 135.531 83.3908 135.813C83.6027 135.496 83.8498 135.143 84.1323 134.826ZM109.871 130.454C110.895 131.617 111.46 133.169 111.46 134.967C111.46 134.932 111.46 134.896 111.46 134.896C111.425 132.922 110.895 131.441 109.871 130.454ZM84.6619 133.698C84.6266 134.015 84.5206 134.332 84.3088 134.65C84.4853 134.473 84.6619 134.297 84.8384 134.121C84.7678 133.98 84.6972 133.839 84.6619 133.698ZM91.4056 124.249C90.5935 124.249 89.8167 124.39 89.04 124.636C86.4625 125.483 84.9797 127.175 84.5913 129.714C84.6266 129.537 84.6619 129.396 84.7325 129.22C85.6152 126.258 87.8748 124.495 90.876 124.39C91.6527 124.354 92.4295 124.46 93.2063 124.531C93.3122 124.531 93.4181 124.566 93.524 124.566C92.8532 124.354 92.1117 124.249 91.4056 124.249ZM106.87 128.621C107.188 128.726 107.506 128.832 107.823 128.973C107.435 128.621 107.082 128.268 106.8 127.81C106.835 128.056 106.87 128.338 106.87 128.621ZM103.516 123.72C104.257 124.037 104.928 124.425 105.458 124.954C105.67 125.165 105.846 125.377 106.023 125.624C105.705 124.813 104.893 124.213 103.516 123.72ZM99.6675 122.944C98.573 122.944 97.4784 123.191 96.3839 123.825C98.0434 123.05 100.126 122.873 101.998 123.261C101.256 123.085 100.48 122.944 99.6675 122.944Z" fill="#FFC2EE"/>
<path d="M73.6465 12.1286C75.5178 10.7536 77.3891 10.9299 79.1897 11.7761C80.9904 12.6223 82.3321 13.9621 82.3321 16.1833C82.3321 16.3596 82.3674 16.6064 82.4733 16.6416C84.4152 17.8404 84.0268 19.7091 83.6385 21.4015C83.3913 22.4239 82.5439 23.3054 82.0143 24.2926C81.8378 24.6099 81.7672 24.9978 81.7672 25.3503C81.6612 27.7831 79.8606 30.1454 77.6362 30.5332C76.2945 30.7448 74.9882 30.9563 73.6818 31.2736C71.528 31.732 69.3743 31.3442 67.4677 30.0396C66.4438 29.3345 65.9142 28.453 65.8436 27.2543C63.4427 26.7959 62.8071 26.0907 62.4188 23.6227C62.3835 23.4111 62.2775 23.2349 62.1716 23.0586C61.0771 21.5425 61.2183 19.9559 61.9598 18.334C62.2069 17.8052 62.3835 17.2058 62.4894 16.6416C62.9131 13.9268 65.7024 11.2825 68.6682 10.9299C70.3982 10.6831 72.2695 10.4363 73.6465 12.1286ZM74.8822 13.7152C74.8116 13.7505 74.7763 13.821 74.7057 13.8563C74.4233 13.6447 74.0702 13.5037 73.8583 13.2569C72.5873 11.7761 70.9278 11.5645 69.1272 11.7056C66.5497 11.9171 63.8311 13.9973 63.1955 16.2538C62.9131 17.2763 62.56 18.2635 62.2422 19.286C61.8539 20.4495 61.8892 21.5777 62.6306 22.6355C62.7718 22.847 62.8778 23.1291 62.9131 23.4111C63.019 25.033 63.9017 26.1965 65.4552 26.6549C66.0201 26.8312 66.1966 27.1485 66.4438 27.6421C66.8322 28.4178 67.4324 29.2992 68.1739 29.687C69.9392 30.7095 71.9164 30.9211 73.9289 30.4275C74.9176 30.1807 75.9415 29.9691 77.0007 29.8986C78.4483 29.7576 79.5781 29.1229 80.2136 27.9241C80.7079 26.9369 80.9198 25.8087 81.2729 24.7157C81.3788 24.3631 81.52 23.9753 81.7672 23.6932C83.0735 22.1066 83.5678 20.3085 82.9676 18.334C82.8264 17.8404 82.2968 17.4173 81.7672 16.7122C81.7319 14.5262 80.602 12.9748 78.2364 12.1639C76.6123 11.5998 75.1647 11.8466 74.3526 12.8338C74.5292 13.1511 74.7057 13.4332 74.8822 13.7152Z" fill="#FFC2EE"/>
<path d="M71.881 31.7673C70.2569 31.7673 68.668 31.2737 67.2204 30.2864C66.1612 29.5813 65.5963 28.6646 65.4904 27.5011C63.1601 27.0075 62.454 26.1613 62.0303 23.6227C61.995 23.4817 61.9597 23.3406 61.8537 23.1996C60.7945 21.7188 60.7239 20.0969 61.6066 18.1225C61.8537 17.5584 62.0303 17.0295 62.1009 16.5006C62.5599 13.6095 65.5257 10.8594 68.5621 10.5068C70.2922 10.2952 72.2341 10.0837 73.6817 11.635C75.3764 10.5421 77.283 10.4715 79.3309 11.4235C81.5552 12.4812 82.685 14.0678 82.685 16.148C82.685 16.2186 82.6851 16.3243 82.7204 16.3596C84.8388 17.6994 84.3445 19.7796 83.9914 21.472C83.8149 22.2124 83.3912 22.847 82.9322 23.4817C82.7204 23.799 82.4732 24.1163 82.2967 24.4336C82.1908 24.6452 82.1201 24.9625 82.0848 25.3151C81.9436 28.0299 80.0017 30.4275 77.6361 30.8153C76.365 31.0268 75.0234 31.2384 73.717 31.5205C73.0815 31.6967 72.4812 31.7673 71.881 31.7673ZM69.586 30.7095C70.8571 31.1326 72.1988 31.2031 73.5405 30.9211C73.5758 30.9211 73.6111 30.9211 73.6111 30.8858C72.1988 31.1679 70.8571 31.0974 69.586 30.7095ZM76.7534 30.2864C75.9414 30.3922 75.0234 30.5332 73.9995 30.78C73.9642 30.78 73.8935 30.8153 73.8582 30.8153C74.8468 30.6038 75.8354 30.4275 76.7534 30.2864ZM70.0803 12.0229C69.7626 12.0229 69.4448 12.0229 69.1624 12.0581C66.7261 12.2697 64.1487 14.2089 63.5485 16.3243C63.3013 17.1705 63.0542 17.9815 62.7717 18.7924L62.5952 19.3565C62.2068 20.5553 62.3127 21.5425 62.9483 22.3887C63.1248 22.6355 63.266 22.9881 63.3013 23.3406C63.4073 24.8567 64.2193 25.8792 65.5963 26.267C66.3378 26.4786 66.5496 26.9017 66.7968 27.4306C67.2558 28.3473 67.8207 29.0172 68.3856 29.3345C70.045 30.2864 71.9163 30.5332 73.8935 30.0396C75.0587 29.7576 76.0826 29.5813 77.0006 29.5108C78.3776 29.3697 79.3662 28.7703 79.9311 27.7126C80.2488 27.1132 80.4254 26.4081 80.6372 25.7029C80.7432 25.3151 80.8491 24.9272 80.955 24.5747C81.0962 24.1868 81.2375 23.7637 81.5199 23.4464C82.791 21.8951 83.1794 20.2027 82.6498 18.4045C82.5791 18.1577 82.332 17.8757 82.0495 17.5584C81.873 17.3821 81.6964 17.1705 81.5199 16.9237L81.4493 16.8179V16.7122C81.414 14.632 80.3195 13.2569 78.1657 12.4812C76.7887 12.0229 75.5883 12.1639 74.8468 12.8691L75.4118 13.7505L74.8115 14.2794L74.5997 14.1031C74.5291 14.0326 74.4231 13.9973 74.3525 13.9268C74.1407 13.7858 73.8935 13.6447 73.717 13.4332C72.5872 12.3049 71.3514 12.0229 70.0803 12.0229ZM66.3378 28.1357C66.5496 28.6998 66.9027 29.1934 67.4676 29.5813C66.9733 29.1934 66.6202 28.6293 66.3378 28.1357ZM81.3434 25.5619C81.3081 25.6677 81.2728 25.8087 81.2375 25.9145C81.0609 26.5138 80.8844 27.1485 80.6372 27.7479C81.0256 27.078 81.2728 26.3376 81.3434 25.5619ZM82.6144 17.1705C82.9322 17.5231 83.1794 17.8404 83.2853 18.193C83.4618 18.7571 83.5324 19.286 83.5677 19.8501C83.6737 18.8629 83.5324 17.9109 82.6144 17.1705ZM76.5769 11.5293C77.1065 11.5293 77.7067 11.635 78.3069 11.8466C80.1429 12.4812 81.3081 13.539 81.8024 15.0198C81.4493 13.7858 80.5313 12.8338 79.0131 12.0934C77.0712 11.1767 75.3764 11.2825 73.8229 12.4107L73.6464 12.5517C73.717 12.6223 73.8229 12.728 73.8935 12.7986L74.0348 12.6223C74.6703 11.9171 75.553 11.5293 76.5769 11.5293ZM70.4334 11.1062C69.8685 11.1062 69.2683 11.1767 68.6681 11.2472C66.479 11.494 64.3606 13.0806 63.372 14.9845C64.5018 13.1159 66.8321 11.5645 69.0917 11.3882C70.4334 11.2825 71.9163 11.3177 73.2227 12.1992C72.4106 11.3177 71.4926 11.1062 70.4334 11.1062Z" fill="#FFC2EE"/>
<path d="M10.411 155.557C11.1525 157.003 10.6935 157.955 9.74018 158.836C8.75158 159.753 7.62175 159.859 6.38599 159.154C5.39739 158.625 4.40879 158.061 3.42019 157.532C1.72544 156.58 1.30175 154.888 2.32566 153.195C2.50219 152.913 2.5022 152.525 2.5375 152.208C2.64343 150.798 3.59672 149.951 5.00901 150.022C5.25616 150.022 5.53862 149.881 5.78577 149.846C6.35069 149.81 7.12745 149.564 7.40991 149.81C8.50443 150.868 10.3051 149.987 11.2231 151.397C12.0705 152.772 11.8586 154.041 10.411 155.557ZM4.72655 156.827C4.26756 157.814 4.62063 158.061 5.4327 157.99C5.67985 157.99 5.96231 158.096 6.13884 158.237C7.12745 159.048 8.57505 159.048 9.52834 158.167C10.3404 157.426 10.3757 156.545 9.52834 155.346C9.88142 155.029 10.411 154.747 10.5523 154.323C10.7641 153.583 10.87 152.772 10.7641 152.032C10.7288 151.679 10.0226 151.256 9.59896 151.221C8.78689 151.115 8.04543 151.115 7.33929 150.516C7.02152 150.269 6.35069 150.445 5.82108 150.48C5.53862 150.48 5.25616 150.727 5.04432 150.657C4.30286 150.445 3.73795 150.586 3.4908 151.327C3.31426 151.891 3.31426 152.525 3.17304 153.407C2.46689 153.689 2.00789 154.464 2.43158 155.593C2.81996 156.509 3.38488 157.109 4.72655 156.827Z" fill="#FFC2EE"/>
<path d="M7.93936 160C7.37444 160 6.80952 159.824 6.2093 159.506C5.18539 158.942 4.16148 158.378 3.24349 157.849C2.3255 157.356 1.72527 156.615 1.51343 155.769C1.30158 154.888 1.44281 153.971 2.00773 153.019C2.11365 152.843 2.14896 152.525 2.14896 152.279V152.173C2.25488 150.586 3.42002 149.564 5.00885 149.669C5.07947 149.669 5.18539 149.634 5.29131 149.599C5.43254 149.564 5.57377 149.528 5.715 149.493C5.85623 149.493 6.03277 149.458 6.174 149.423C6.70361 149.352 7.26852 149.246 7.58629 149.564C8.00998 149.987 8.57489 150.022 9.17512 150.128C9.95188 150.234 10.8699 150.339 11.4348 151.221C12.3528 152.666 12.1409 154.041 10.7639 155.593C11.5054 157.25 10.7639 158.272 9.91657 159.083C9.35165 159.683 8.68082 160 7.93936 160ZM7.19791 159.154C7.86874 159.365 8.50428 159.295 9.06919 158.942C8.46897 159.224 7.83344 159.295 7.19791 159.154ZM5.46785 157.673C5.75031 157.673 6.10338 157.814 6.35053 157.99C7.23322 158.695 8.43366 158.695 9.28104 157.955C9.77534 157.532 10.1284 156.897 9.24573 155.628L9.06919 155.381L9.28104 155.17C9.38696 155.064 9.52819 154.958 9.66942 154.852C9.91657 154.676 10.1637 154.5 10.199 154.323C10.4462 153.583 10.5168 152.807 10.4109 152.173C10.3756 152.032 9.88126 151.679 9.5635 151.644L9.31634 151.609C8.57489 151.538 7.83344 151.468 7.12729 150.868C7.02137 150.762 6.56237 150.833 6.31522 150.868C6.17399 150.903 5.99746 150.903 5.85623 150.903C5.78561 150.903 5.715 150.939 5.60908 150.974C5.43254 151.045 5.18539 151.115 4.93824 151.044C4.16148 150.798 3.94963 151.115 3.84371 151.468C3.73779 151.82 3.70248 152.173 3.63186 152.666C3.59656 152.913 3.56125 153.195 3.52595 153.477L3.49064 153.689L3.3141 153.759C2.8198 153.971 2.39611 154.535 2.74918 155.487C3.10225 156.404 3.63187 156.686 4.58517 156.509L5.29131 156.368L4.97354 157.003C4.7617 157.497 4.79701 157.602 4.79701 157.602C4.79701 157.602 4.86762 157.708 5.32662 157.673C5.43254 157.673 5.46785 157.673 5.46785 157.673ZM5.7503 158.449C5.78561 158.484 5.85623 158.484 5.89154 158.519C5.82092 158.484 5.78561 158.449 5.7503 158.449ZM3.49064 157.179C3.52594 157.215 3.59656 157.25 3.63186 157.25C3.8084 157.356 3.98494 157.461 4.16147 157.567C4.16147 157.461 4.16148 157.356 4.19678 157.285C3.91433 157.25 3.70248 157.215 3.49064 157.179ZM10.0225 155.487L10.0578 155.452C10.0225 155.452 10.0225 155.452 10.0225 155.487ZM11.1523 152.032C11.2582 152.702 11.1876 153.513 10.9758 154.288C11.4348 153.513 11.4701 152.807 11.1523 152.032ZM3.17287 151.291C3.03164 151.573 2.92572 151.891 2.89041 152.243V152.314C2.85511 152.596 2.85511 152.948 2.71388 153.23C2.78449 153.195 2.8198 153.16 2.89041 153.125C2.92572 152.913 2.92572 152.702 2.96103 152.525C2.99633 152.102 3.06695 151.714 3.17287 151.291ZM10.1284 151.044C10.3403 151.15 10.5874 151.291 10.7639 151.432C10.5874 151.256 10.3756 151.115 10.1284 151.044Z" fill="#FFC2EE"/>
<path d="M113.296 80.1763C112.837 79.859 112.448 79.5769 112.06 79.3301C111.848 79.1891 111.601 79.048 111.389 78.907C110.895 78.5897 110.33 78.3076 109.941 77.9198C109.2 77.1088 109.412 76.0864 110.365 75.487C110.648 75.3107 110.93 75.0992 111.071 74.8171C111.53 73.9356 112.236 73.6888 113.19 73.8651C113.578 73.9356 114.037 73.9709 114.39 73.8651C115.238 73.5831 115.979 73.7946 116.367 74.4645C116.685 75.0286 116.65 75.8396 116.721 76.5447C116.756 76.8973 116.544 77.2499 116.544 77.6025C116.509 78.5544 116.226 79.2243 115.132 79.4006C114.496 79.5064 113.967 79.859 113.296 80.1763ZM111.142 75.8043C110.718 75.9453 109.906 76.1216 110.083 77.1441C110.224 77.955 111.177 78.4134 112.378 78.3076C112.837 79.8942 112.872 79.8942 114.39 78.907C114.567 78.8012 114.885 78.8365 115.096 78.8717C115.838 78.9775 116.12 78.5897 116.05 77.955C116.014 77.4967 115.732 77.0736 115.555 76.6152C116.12 76.3332 116.579 75.9101 116.12 75.1697C115.697 74.4293 115.061 74.2177 114.214 74.4645C113.931 74.535 113.578 74.4293 113.26 74.4293C112.766 74.4293 112.166 74.2882 111.777 74.4645C111.46 74.6055 111.389 75.2049 111.142 75.8043Z" fill="#FFC2EE"/>
<path d="M113.261 80.5994L112.696 80.2115C112.413 80 112.131 79.8237 111.848 79.6122C111.742 79.5416 111.637 79.4711 111.531 79.4006C111.425 79.3301 111.319 79.2596 111.213 79.1891C111.072 79.0833 110.93 79.0128 110.789 78.907C110.401 78.6955 110.012 78.4487 109.695 78.1313C109.271 77.7082 109.094 77.1441 109.165 76.6152C109.236 76.0511 109.624 75.5222 110.189 75.1697C110.471 74.9934 110.683 74.8171 110.754 74.6408C111.283 73.6536 112.096 73.301 113.261 73.5126C113.684 73.5831 114.037 73.5831 114.285 73.5126C115.273 73.1952 116.226 73.4773 116.685 74.253C117.003 74.7818 117.039 75.4517 117.039 76.0864C117.039 76.2274 117.039 76.3684 117.074 76.4742C117.074 76.721 117.039 76.9678 116.968 77.1794C116.933 77.3204 116.897 77.4614 116.897 77.6025C116.862 78.4839 116.615 79.5064 115.203 79.7179C114.885 79.7532 114.532 79.9295 114.143 80.141C113.932 80.2468 113.72 80.3526 113.473 80.4583L113.261 80.5994ZM112.625 77.9198L112.696 78.2018C112.802 78.6249 112.978 79.1538 113.084 79.2243C113.225 79.2243 113.72 78.907 114.214 78.5897C114.496 78.4134 114.814 78.4487 115.167 78.4839C115.379 78.5192 115.556 78.4839 115.626 78.4134C115.697 78.3429 115.732 78.1666 115.697 77.955C115.662 77.7082 115.556 77.4262 115.414 77.1441C115.344 77.0031 115.273 76.8268 115.203 76.6858L115.097 76.4037L115.379 76.2627C115.697 76.1216 115.873 75.9453 115.909 75.8043C115.944 75.6985 115.909 75.5222 115.803 75.346C115.45 74.7818 114.991 74.6055 114.285 74.8171C114.037 74.8876 113.755 74.8523 113.543 74.8171C113.437 74.8171 113.331 74.7818 113.225 74.7818C113.084 74.7818 112.908 74.7818 112.766 74.7466C112.449 74.7113 112.096 74.6761 111.884 74.7818C111.813 74.8171 111.707 75.1344 111.672 75.346C111.601 75.5222 111.531 75.7338 111.46 75.9806L111.389 76.1216L111.178 76.1921C110.648 76.3332 110.295 76.4742 110.401 77.1088C110.507 77.7082 111.283 78.0608 112.307 77.955L112.625 77.9198ZM111.601 78.6249C111.707 78.6955 111.778 78.7307 111.884 78.8012C111.99 78.8717 112.096 78.9423 112.201 79.0128C112.166 78.907 112.131 78.8012 112.096 78.6602C111.919 78.6602 111.742 78.6602 111.601 78.6249ZM115.979 76.7563C116.015 76.7915 116.015 76.862 116.05 76.8973C116.085 77.0031 116.156 77.1089 116.191 77.2146C116.191 77.1441 116.226 77.1089 116.226 77.0383C116.262 76.862 116.332 76.6858 116.297 76.58C116.297 76.5447 116.297 76.5095 116.297 76.5095C116.226 76.58 116.121 76.6858 115.979 76.7563Z" fill="#FFC2EE"/>
<path d="M42.611 115.117C39.2215 113.601 36.1498 112.155 33.0074 110.886C31.5951 110.322 30.0769 110.004 28.6293 109.581C26.7933 109.052 25.5576 107.325 25.4517 105.139C25.3457 102.882 26.405 100.943 28.135 100.238C29.7239 99.5681 32.266 100.344 32.9368 101.93C33.537 103.305 34.5256 104.011 35.7614 104.61C40.2807 106.831 44.7648 109.123 49.2841 111.379C49.7431 111.591 50.3786 111.662 50.8729 111.485C56.7693 109.617 62.03 106.725 66.0904 101.966C67.6792 100.097 69.6917 99.7444 71.3865 100.802C73.1165 101.895 73.8933 104.751 73.0459 106.937C72.2692 108.947 70.751 110.04 68.5619 109.969C67.3614 109.934 66.3729 110.251 65.3489 110.815C62.8068 112.226 60.2294 113.565 57.6519 114.941C57.2989 115.117 57.0164 115.364 56.4515 115.716C58.3934 116.492 60.1235 117.268 61.9241 117.832C62.5597 118.043 63.3717 117.726 64.0779 117.62C65.1018 117.444 66.161 117.091 67.1849 117.127C68.915 117.162 69.9389 118.678 69.833 120.582C69.6564 123.861 66.2316 126.611 62.9833 126.047C62.489 125.976 61.8888 125.729 61.5711 125.377C59.4526 123.226 56.7339 122.38 53.9447 121.604C53.2385 121.393 52.5324 121.146 51.8262 120.899C50.5199 120.476 49.1782 120.264 47.8718 120.793C43.9174 122.415 39.963 124.072 36.0086 125.765C35.6908 125.906 35.373 126.117 35.1612 126.364C32.5484 129.431 29.7592 129.749 26.6168 127.21C24.8868 125.8 24.4984 124.072 25.4164 122.027C25.8401 121.075 26.5109 120.37 27.5348 120.264C28.6999 120.123 29.971 119.982 31.1008 120.229C32.0188 120.405 32.6897 120.3 33.5017 119.877C35.9379 118.607 38.3742 117.444 40.8104 116.21C41.34 115.892 41.799 115.61 42.611 115.117ZM55.2864 115.646C56.4515 114.976 57.4754 114.412 58.464 113.812C61.1121 112.331 63.7601 110.815 66.4435 109.335C66.8318 109.123 67.3261 108.982 67.7498 109.052C70.9275 109.335 73.1165 106.937 72.4457 103.799C72.1279 102.389 71.1746 101.507 69.833 101.119C68.6678 100.802 67.7145 101.225 66.9378 102.212C66.161 103.164 65.2783 104.081 64.3956 104.927C60.5824 108.559 55.8866 110.639 50.9789 112.367C50.0962 112.684 49.3547 112.578 48.5427 112.155C43.8468 109.652 39.1156 107.184 34.4197 104.716C33.6077 104.293 33.0074 103.764 32.6191 102.918C32.0541 101.754 31.0655 101.014 29.6532 101.014C28.4175 101.014 27.2877 101.507 26.8993 102.494C25.6988 105.597 26.2991 108.524 30.1829 109.229C32.266 109.581 34.1373 110.357 35.9733 111.168C38.2682 112.155 40.5279 113.354 42.717 114.553C43.7056 115.117 43.6349 115.646 42.6463 116.139C39.6805 117.585 36.7147 119.03 33.7489 120.476C32.6544 121.005 31.5598 121.393 30.2888 121.04C29.7592 120.899 29.1589 120.934 28.594 120.97C27.323 121.04 26.299 121.781 25.9813 122.803C25.5223 124.249 25.8047 125.835 26.7934 126.399C27.8526 126.999 29.0177 127.528 30.1829 127.81C31.807 128.197 33.1134 127.492 34.2432 126.258C34.9846 125.447 35.9379 124.813 36.8559 124.249C37.5268 123.825 38.3741 123.649 39.1156 123.367C42.2933 122.168 45.4709 120.934 48.6839 119.806C49.3547 119.559 50.2374 119.63 50.9789 119.841C53.4857 120.547 55.9572 121.322 58.3934 122.204C59.2055 122.486 59.9469 123.015 60.5825 123.579C61.8888 124.707 63.2305 125.624 65.1018 125.165C67.0437 124.672 68.8091 122.697 69.0562 120.723C69.1974 119.383 68.5619 118.114 67.5733 118.008C66.161 117.832 64.8193 117.937 63.513 118.537C63.054 118.748 62.3831 118.854 61.9241 118.678C60.1588 118.043 58.4287 117.303 56.6986 116.562C56.2397 116.351 55.8513 116.034 55.2864 115.646Z" fill="#FFC2EE"/>
<path d="M30.6772 129.185C29.3003 129.185 27.888 128.585 26.4051 127.422C24.5338 125.906 24.1101 124.037 25.134 121.816C25.6636 120.617 26.4757 119.982 27.4996 119.841C28.7 119.7 29.9711 119.559 31.1715 119.806C31.9836 119.982 32.5838 119.877 33.3253 119.489C34.9141 118.678 36.5382 117.867 38.0918 117.091C38.9391 116.668 39.7865 116.245 40.6339 115.822C40.9517 115.681 41.2694 115.469 41.6578 115.258C41.7284 115.222 41.7637 115.187 41.8343 115.152C41.0576 114.799 40.2808 114.447 39.5394 114.129C37.2444 113.107 35.0906 112.12 32.8663 111.203C31.9483 110.815 30.9244 110.568 29.9711 110.322C29.4768 110.181 29.0178 110.075 28.5235 109.934C26.5463 109.37 25.2046 107.501 25.0987 105.174C24.9928 102.776 26.1226 100.696 27.9939 99.9206C29.6533 99.2154 32.4779 99.9558 33.2547 101.789C33.8196 103.059 34.7023 103.693 35.9027 104.293C38.0212 105.315 40.1043 106.373 42.1874 107.43C44.553 108.629 46.9892 109.863 49.4254 111.027C49.7785 111.203 50.3434 111.238 50.7318 111.133C57.193 109.088 62.136 106.02 65.808 101.719C67.5027 99.7443 69.6565 99.2859 71.5631 100.485C73.4344 101.648 74.2817 104.716 73.3638 107.043C72.4811 109.264 70.8216 110.392 68.562 110.322C67.5027 110.286 66.5848 110.533 65.5255 111.133C63.8308 112.085 62.0654 113.001 60.3707 113.918C59.5233 114.376 58.6759 114.799 57.8285 115.258C57.652 115.363 57.4755 115.469 57.2283 115.646C57.5814 115.787 57.9345 115.928 58.2522 116.069C59.5586 116.598 60.7944 117.126 62.0654 117.514C62.4185 117.62 62.9481 117.514 63.4424 117.408C63.6542 117.373 63.8661 117.303 64.0779 117.267C64.431 117.197 64.7841 117.126 65.1019 117.056C65.808 116.915 66.5141 116.739 67.2203 116.774C68.0324 116.809 68.7738 117.126 69.3034 117.726C69.9743 118.431 70.292 119.453 70.2214 120.617C70.1155 122.274 69.2328 123.896 67.7852 125.059C66.3376 126.188 64.5722 126.681 62.9481 126.399C62.6303 126.329 61.8536 126.152 61.324 125.659C59.2055 123.508 56.381 122.697 53.8741 121.992C53.3798 121.851 52.8855 121.675 52.3912 121.498C52.1794 121.428 51.9675 121.357 51.7557 121.287C50.2375 120.793 49.0723 120.758 48.0484 121.181C44.1646 122.768 40.2102 124.425 36.4323 126.047L36.1852 126.152C35.9027 126.293 35.6203 126.47 35.4437 126.646C33.9608 128.303 32.3367 129.185 30.6772 129.185ZM26.5463 126.646C26.6522 126.717 26.7581 126.822 26.864 126.893C29.8652 129.29 32.4073 129.044 34.9141 126.082C34.7729 126.223 34.667 126.329 34.5257 126.47C33.1487 127.951 31.7011 128.479 30.1123 128.127C28.9825 127.845 27.8173 127.386 26.6169 126.681C26.5816 126.646 26.5816 126.646 26.5463 126.646ZM29.4768 121.216C29.2649 121.216 29.0178 121.216 28.806 121.252H28.6294C27.4996 121.322 26.6169 121.957 26.3344 122.838C25.9108 124.248 26.1932 125.588 26.97 126.047C28.0998 126.681 29.2296 127.175 30.2889 127.422C31.6305 127.739 32.7957 127.281 33.9961 125.976C34.8082 125.13 35.7968 124.46 36.7148 123.896C37.2444 123.579 37.8093 123.402 38.3742 123.191C38.5861 123.12 38.8332 123.05 39.0451 122.944C39.8571 122.627 40.6339 122.345 41.446 122.027C43.7762 121.146 46.2124 120.229 48.6133 119.383C49.2842 119.136 50.2022 119.171 51.1202 119.418C53.6976 120.159 56.2044 120.934 58.5347 121.78C59.2408 122.027 59.9823 122.486 60.8297 123.226C62.2773 124.46 63.4424 125.13 65.0312 124.742C66.8672 124.284 68.4914 122.415 68.7032 120.582C68.8444 119.453 68.2795 118.36 67.5381 118.255C66.0905 118.078 64.8194 118.255 63.6543 118.748C63.1599 118.995 62.3832 119.136 61.783 118.925C60.0529 118.325 58.3229 117.585 56.6634 116.88L56.5575 116.844C56.2397 116.703 55.9573 116.492 55.6395 116.28C55.4983 116.174 55.3217 116.033 55.1099 115.928L54.6156 115.61L56.2044 114.694C56.9459 114.271 57.6167 113.883 58.2875 113.495L59.7704 112.649C61.8889 111.45 64.1132 110.216 66.267 109.017C66.726 108.77 67.2909 108.629 67.7852 108.665C69.1975 108.806 70.4686 108.347 71.2806 107.43C72.0927 106.514 72.3752 105.245 72.0927 103.834C71.8455 102.6 70.9982 101.789 69.7271 101.401C68.7738 101.119 67.9264 101.437 67.2203 102.353C66.5495 103.2 65.7021 104.081 64.6429 105.103C60.6531 108.911 55.7807 110.956 51.1202 112.613C50.1669 112.966 49.3195 112.895 48.4015 112.367C43.2113 109.616 38.5861 107.184 34.2786 104.927C33.3253 104.434 32.7251 103.834 32.3014 102.953C31.7718 101.824 30.8891 101.26 29.6533 101.26C28.7353 101.26 27.6055 101.578 27.2524 102.53C26.5816 104.257 26.5463 105.809 27.1818 106.902C27.7467 107.854 28.7706 108.488 30.2889 108.77C32.4426 109.158 34.3845 109.934 36.1499 110.709C38.1624 111.591 40.2455 112.613 42.9289 114.129C43.5291 114.482 43.8469 114.835 43.8116 115.222C43.8116 115.646 43.4938 115.998 42.8229 116.315C39.8571 117.761 36.8913 119.207 33.9255 120.652C32.9016 121.146 31.6658 121.639 30.2182 121.216C29.9711 121.252 29.7239 121.216 29.4768 121.216ZM61.3946 124.636C61.5358 124.777 61.7123 124.918 61.8536 125.059C62.1007 125.306 62.5597 125.518 63.0893 125.624C64.5369 125.87 66.0905 125.447 67.3615 124.425C68.6679 123.402 69.4446 121.957 69.5153 120.511C69.5859 119.559 69.3034 118.713 68.7738 118.149C68.3501 117.691 67.8205 117.444 67.185 117.444C66.7966 117.444 66.3729 117.479 65.9492 117.549C66.4788 117.514 67.0084 117.549 67.5734 117.62C68.7385 117.761 69.5153 119.171 69.3387 120.723C69.0916 122.838 67.2203 124.954 65.1372 125.482C63.6543 125.87 62.4538 125.377 61.3946 124.636ZM46.4596 120.969C44.8708 121.569 43.2466 122.168 41.6931 122.768C40.8811 123.085 40.1043 123.367 39.2922 123.684C39.0804 123.755 38.8332 123.861 38.5861 123.931C38.0212 124.107 37.5269 124.284 37.0679 124.566C36.5383 124.883 36.0086 125.236 35.479 125.659C35.6203 125.588 35.7615 125.482 35.9027 125.447L36.1499 125.341C39.5041 123.861 42.9995 122.38 46.4596 120.969ZM29.6886 120.37C28.9825 120.37 28.2763 120.441 27.5702 120.546C26.7934 120.652 26.1932 121.181 25.7342 122.133C25.134 123.402 25.0987 124.531 25.6283 125.518C25.3105 124.742 25.3105 123.72 25.6283 122.662C25.9814 121.463 27.1465 120.652 28.5588 120.546H28.7353C29.2649 120.511 29.8299 120.476 30.3595 120.617C31.1009 120.828 31.7718 120.758 32.4779 120.546C32.0189 120.617 31.5246 120.617 30.995 120.511C30.6066 120.405 30.1476 120.37 29.6886 120.37ZM49.5666 120.053C50.4846 120.053 51.332 120.3 51.9675 120.511C52.1794 120.582 52.3912 120.652 52.6384 120.723C53.0974 120.899 53.5917 121.04 54.086 121.181C56.1338 121.745 58.3935 122.415 60.3354 123.755C59.5586 123.085 58.9231 122.697 58.2875 122.45C55.9573 121.639 53.4857 120.828 50.9083 120.088C50.1669 119.877 49.3901 119.841 48.8252 120.053C48.7899 120.053 48.7546 120.088 48.7546 120.088C49.037 120.088 49.3195 120.053 49.5666 120.053ZM56.5222 116.069C56.6281 116.139 56.6987 116.174 56.8046 116.21L56.9106 116.245C58.57 116.95 60.2648 117.691 61.9948 118.29C62.3126 118.396 62.8775 118.36 63.3365 118.149C63.4777 118.078 63.6542 118.008 63.7955 117.973C63.7249 117.973 63.6543 118.008 63.5836 118.008C62.9834 118.149 62.3832 118.29 61.8536 118.114C60.5472 117.726 59.3115 117.197 58.0051 116.668C57.5108 116.456 57.0518 116.28 56.5222 116.069ZM43.0701 115.258L42.7876 115.399C42.5052 115.575 42.258 115.716 42.0462 115.857C41.6225 116.104 41.3047 116.28 40.987 116.456C40.1396 116.88 39.2922 117.303 38.4448 117.726C38.0565 117.902 37.6681 118.114 37.2797 118.29C39.0098 117.444 40.7398 116.598 42.5052 115.751C43.0701 115.469 43.0701 115.293 43.0701 115.258C43.0701 115.293 43.0701 115.293 43.0701 115.258ZM29.4415 100.308C29.0178 100.308 28.6294 100.379 28.2763 100.52C26.6875 101.19 25.7342 102.988 25.8401 105.103C25.9461 107.113 27.0759 108.735 28.7706 109.229C29.2296 109.37 29.7239 109.475 30.1829 109.616C31.1715 109.863 32.1955 110.145 33.1841 110.533C35.4084 111.45 37.5622 112.437 39.8571 113.46C40.3514 113.671 40.8457 113.918 41.34 114.129C39.2569 113.001 37.5269 112.155 35.8674 111.415C34.1374 110.639 32.2308 109.899 30.1476 109.511C28.4176 109.193 27.2171 108.453 26.5816 107.289C25.8401 105.985 25.8754 104.257 26.6169 102.318C27.0406 101.26 28.2057 100.59 29.6886 100.59C29.6886 100.59 29.6886 100.59 29.7239 100.59C31.2068 100.59 32.3367 101.331 33.0075 102.706C33.3606 103.446 33.8549 103.94 34.667 104.363C38.9745 106.584 43.5997 109.052 48.8252 111.802C49.5666 112.19 50.2375 112.261 50.9789 111.979C55.5689 110.357 60.3354 108.312 64.2545 104.61C65.3137 103.623 66.0905 102.776 66.7613 101.93C67.6793 100.767 68.7738 100.379 70.0096 100.732C71.5631 101.155 72.5517 102.177 72.8695 103.693C73.2225 105.28 72.8695 106.831 71.9162 107.889C70.9629 108.982 69.4447 109.511 67.8205 109.37C67.4674 109.334 67.0438 109.44 66.726 109.616C65.5608 110.251 64.431 110.886 63.2659 111.556C63.9367 111.203 64.6075 110.815 65.2784 110.427C66.4435 109.758 67.5028 109.475 68.6679 109.546C70.6451 109.616 72.0574 108.665 72.7988 106.725C73.5756 104.751 72.8342 102.036 71.2806 101.049C69.6918 100.026 67.8911 100.449 66.4435 102.142C62.701 106.549 57.652 109.687 51.0496 111.767C50.4846 111.943 49.7432 111.873 49.2136 111.626C46.7774 110.427 44.3412 109.193 41.9756 108.03C39.8924 106.972 37.774 105.914 35.6909 104.892C34.5257 104.328 33.3959 103.587 32.6898 102.036C32.1601 101.014 30.7479 100.308 29.4415 100.308Z" fill="#FFC2EE"/>
<path d="M16.1306 66.9194C13.5885 66.9899 11.4701 66.2142 10.0225 64.0283C12.8117 66.5668 16.2365 66.1437 19.5201 66.1085C34.3845 65.9674 49.2489 65.8264 64.1133 65.6501C67.7852 65.6149 71.4219 65.5091 75.0938 65.4738C77.071 65.4738 79.0483 65.4033 80.4605 63.2878C79.9662 65.5796 78.8364 66.1085 74.5995 66.3905C73.9993 67.6598 73.505 68.9644 72.8342 70.1631C72.0221 71.644 70.9629 71.8202 69.5153 70.9035C66.267 73.7594 62.5244 75.8044 58.4641 77.3205C55.357 78.484 52.1088 78.9776 48.7546 79.1186C41.0576 79.4712 33.6077 78.2372 26.3344 75.6986C24.4985 75.064 22.7684 74.112 21.109 73.1248C20.2616 72.6312 19.6614 71.8908 18.6021 71.6087C16.7662 71.0798 16.2012 69.8458 16.1306 66.9194ZM67.644 66.2495C52.7796 66.3905 37.7034 66.5668 22.8037 66.7079C22.1329 68.506 21.5326 70.1279 20.8265 72.0318C21.6033 72.4901 22.5566 73.2306 23.6511 73.6537C31.2068 76.6506 39.0098 78.4487 47.2011 78.2019C52.709 78.0609 58.0051 77.1089 62.8422 74.3236C64.9959 73.0895 67.1497 71.8908 68.7032 70.3394C68.3148 68.9996 68.0324 67.8361 67.644 66.2495ZM16.7308 66.8489C16.9074 67.6951 16.978 68.4355 17.1898 69.1407C17.437 70.0574 18.6021 70.9035 19.4848 70.9035C20.6147 70.9035 20.8971 70.0221 21.1443 69.2464C21.3914 68.506 21.462 67.6951 21.6033 66.8489C19.9085 66.8489 18.3903 66.8489 16.7308 66.8489ZM68.7738 66.4963C68.5973 68.365 69.2328 69.7048 70.5745 70.3394C70.857 70.4804 71.4925 70.4452 71.669 70.2336C72.5517 69.1759 73.2225 67.9771 73.3285 66.5316C71.7749 66.4963 70.292 66.4963 68.7738 66.4963Z" fill="#FFC2EE"/>
<path d="M46.2829 79.4711C39.6451 79.4711 32.9368 78.3076 26.2637 75.9806C24.6748 75.4165 22.9801 74.6055 20.9676 73.3715C20.6851 73.1952 20.4027 72.9837 20.1555 72.8074C19.6612 72.4196 19.2022 72.067 18.5314 71.8907C16.3776 71.3266 15.848 69.8105 15.7421 67.2367C13.0234 67.2367 11.0462 66.2142 9.66924 64.1692L8.11572 61.7717L10.1989 63.7109C12.5291 65.8616 15.2831 65.7911 18.2136 65.7206C18.6373 65.7206 19.0257 65.6853 19.4494 65.6853C34.4903 65.5443 49.743 65.4032 64.0425 65.227C65.7726 65.1917 67.5026 65.1917 69.1974 65.1564C71.104 65.1212 73.0812 65.0859 75.0231 65.0507C76.9297 65.0507 78.7656 65.0154 80.1073 63.041L81.1312 61.4896L80.7428 63.2878C80.1779 65.8263 78.8009 66.3552 74.7759 66.6373C74.6347 66.9546 74.4935 67.3072 74.3522 67.6245C73.9639 68.5059 73.5755 69.3874 73.1165 70.2336C72.6575 71.0445 72.1279 71.5028 71.5276 71.6439C70.9274 71.7849 70.2919 71.6439 69.5504 71.2208C66.5493 73.8299 62.9833 75.8748 58.6052 77.5319C55.7806 78.5897 52.6382 79.1891 48.7897 79.3653C47.9777 79.4711 47.1303 79.4711 46.2829 79.4711ZM23.5803 74.0414C24.6042 74.5703 25.5575 74.9934 26.4755 75.3107C33.9254 77.8845 41.4105 79.0128 48.7544 78.6954C52.5323 78.5192 55.5687 77.955 58.3227 76.9326C62.7361 75.2754 66.3022 73.1952 69.268 70.5861L69.4798 70.4099L69.6917 70.5509C70.3625 70.974 70.8921 71.1503 71.3511 71.0445C71.7748 70.9387 72.1279 70.5861 72.4809 69.9515C72.9399 69.1406 73.293 68.2944 73.6814 67.4129C73.8579 67.0251 74.0345 66.6373 74.211 66.2142L74.2816 66.0379H74.4935C77.0003 65.8616 78.3066 65.6148 79.0481 65.0507C77.777 65.7911 76.3294 65.8263 74.9878 65.8263C73.0459 65.8263 71.0686 65.8969 69.1621 65.9321C68.7031 65.9321 68.2441 65.9321 67.8204 65.9674L68.9855 70.5509L68.8443 70.6919C67.2908 72.2433 65.1017 73.4773 62.9833 74.6761L62.9127 74.7113C58.4992 77.2146 53.4856 78.4486 47.095 78.6249C39.6098 78.8012 31.8775 77.3204 23.5803 74.0414ZM21.2147 71.8907C21.356 71.9965 21.5325 72.1022 21.709 72.208C22.3093 72.5958 23.0154 73.0542 23.7216 73.3363C31.9835 76.58 39.6451 78.0608 47.1303 77.8845C53.415 77.7082 58.3227 76.5095 62.5949 74.0767L62.6655 74.0414C64.678 72.9132 66.7258 71.7144 68.2088 70.3041L67.2908 66.6373L22.9448 67.0956L21.2147 71.8907ZM16.4836 67.4129C16.6248 69.881 17.1897 70.7977 18.7432 71.2208C19.4141 71.3971 19.9437 71.7497 20.4027 72.1022L21.0029 70.5509C20.7204 70.974 20.2614 71.2913 19.52 71.2913C18.4255 71.2913 17.1544 70.3041 16.8719 69.2816C16.7307 68.788 16.6601 68.2591 16.5542 67.7303C16.5189 67.5892 16.5189 67.5187 16.4836 67.4129ZM17.1544 67.2014C17.1897 67.3424 17.1897 67.4482 17.225 67.554C17.3309 68.0828 17.4015 68.5765 17.5428 69.0348C17.7546 69.7752 18.7432 70.5509 19.52 70.5509C19.52 70.5509 19.52 70.5509 19.5553 70.5509C20.332 70.5509 20.5792 70.022 20.8617 69.1406C21.0029 68.647 21.1088 68.1181 21.1794 67.5892C21.2147 67.4482 21.2147 67.3424 21.25 67.2014H17.1544ZM16.307 66.4962H22.0268L21.9562 66.9193C21.9209 67.1661 21.8856 67.4482 21.8503 67.695C21.815 68.0123 21.7443 68.3649 21.6737 68.6822L22.5211 66.4257C21.5325 66.4257 20.5086 66.461 19.52 66.461C19.1316 66.461 18.7079 66.461 18.2842 66.4962C16.4835 66.5315 14.6123 66.602 12.8822 66.0731C13.8002 66.461 14.8594 66.6373 16.0952 66.602H16.307V66.4962ZM71.0333 70.7624C70.8215 70.7624 70.5743 70.7272 70.4331 70.6567C68.9502 69.9868 68.2441 68.5059 68.4206 66.461L68.4559 66.1437H73.7167L73.6814 66.5315C73.5755 67.9065 73.0105 69.1758 71.9513 70.4451C71.7395 70.6919 71.3864 70.7624 71.0333 70.7624ZM69.0914 66.8488C69.0561 68.0123 69.3386 69.3874 70.7156 70.022C70.8921 70.0925 71.3158 70.0573 71.3864 69.9868C72.2691 68.9643 72.7634 67.9418 72.9046 66.8488H69.0914Z" fill="#FFC2EE"/>
<path d="M47.3777 106.796C45.5417 108.1 44.9768 107.924 43.5292 106.373C42.7524 105.527 41.6932 104.963 40.7752 104.293C39.5748 103.446 38.2331 102.741 37.1033 101.789C35.691 100.626 35.1614 98.9687 35.1261 97.1353C35.0908 92.1992 36.6443 89.7664 41.3402 88.1798C46.6716 86.4169 52.1795 86.2406 57.6168 87.8272C60.9357 88.7792 63.3719 91.0004 64.6783 94.2794C66.0553 97.6994 64.8548 101.014 61.3947 103.094C60.1943 103.834 59.0997 104.539 58.1817 105.703C56.9107 107.325 55.5337 107.501 53.6271 106.584C53.0622 106.302 52.7091 106.373 52.356 106.831C52.1795 107.043 52.003 107.254 51.7911 107.466C50.8378 108.524 49.4608 108.629 48.4016 107.713C48.0839 107.466 47.7661 107.149 47.3777 106.796ZM50.4848 87.8272C49.8139 87.8272 49.1431 87.792 48.4722 87.8272C45.118 87.9682 41.9051 88.6029 39.0099 90.3658C37.1033 91.5293 36.15 93.2569 36.0088 95.4782C35.8322 99.1802 37.3857 101.754 40.7399 103.411C42.1169 104.081 43.3174 105.139 44.4472 106.161C45.2593 106.902 45.6476 107.113 46.495 106.408C47.2365 105.773 47.6955 105.879 48.2604 106.549C49.3902 107.854 50.5201 107.924 51.5087 106.584C52.3207 105.491 53.0975 105.456 54.2979 105.879C56.3105 106.62 57.5109 105.985 58.4642 104.116C58.7114 103.658 59.241 103.164 59.7353 103.023C62.5952 102.283 64.8548 98.8277 64.2899 95.9718C63.6897 92.7986 61.6065 90.8241 58.8879 89.3786C56.2398 88.0035 53.4153 87.6862 50.4848 87.8272Z" fill="#FFC2EE"/>
<path d="M50.0256 108.735C49.39 108.735 48.7898 108.488 48.2249 108.03C47.9778 107.818 47.7306 107.607 47.5188 107.395C47.4835 107.36 47.4481 107.325 47.3775 107.29C45.5416 108.559 44.7648 108.242 43.3172 106.655C42.7876 106.056 42.0461 105.562 41.34 105.104C41.0928 104.927 40.8457 104.786 40.5985 104.61C40.1749 104.328 39.7159 104.011 39.2569 103.729C38.4448 103.235 37.6327 102.706 36.8913 102.071C35.5143 100.908 34.8081 99.2508 34.8081 97.1353C34.7728 91.9524 36.5029 89.4138 41.2694 87.8625C46.7773 86.0291 52.3206 85.9233 57.7226 87.5099C61.1474 88.4971 63.6895 90.7889 65.0312 94.1737C66.4788 97.8052 65.2077 101.26 61.6064 103.411C60.5118 104.081 59.382 104.786 58.4993 105.915C57.1577 107.607 55.6041 107.889 53.521 106.902C53.062 106.69 52.9208 106.761 52.6736 107.043C52.4971 107.29 52.2853 107.501 52.1087 107.713C51.5085 108.383 50.767 108.735 50.0256 108.735ZM47.4128 106.373L47.6247 106.549C47.7306 106.655 47.8718 106.761 47.9778 106.866C48.2249 107.078 48.4368 107.29 48.6839 107.501C49.6019 108.277 50.767 108.206 51.6144 107.29C51.7909 107.078 51.9675 106.902 52.144 106.655C52.603 106.056 53.1326 105.95 53.8388 106.302C55.5688 107.113 56.6987 106.972 57.7932 105.738C56.8752 106.655 55.7101 106.796 54.1918 106.232C53.1326 105.844 52.5677 105.844 51.8263 106.796C51.2966 107.501 50.6964 107.889 50.0609 107.924C49.3901 107.924 48.6839 107.572 48.0131 106.796C47.7306 106.479 47.5541 106.338 47.4128 106.373C47.201 106.338 46.9892 106.443 46.742 106.655C45.6828 107.572 45.0473 107.184 44.2352 106.408C43.2113 105.491 41.9755 104.398 40.5985 103.729C40.5632 103.729 40.5279 103.693 40.4926 103.693C40.6692 103.799 40.8104 103.905 40.9869 104.011C41.2341 104.187 41.4459 104.328 41.6931 104.469C42.4345 104.963 43.2113 105.456 43.8115 106.126C45.0826 107.536 45.5063 107.713 47.1657 106.514L47.4128 106.373ZM47.3422 105.632C47.3775 105.632 47.3775 105.632 47.4128 105.632C47.9071 105.668 48.2602 106.02 48.5074 106.302C49.037 106.902 49.5313 107.219 49.9903 107.184C50.414 107.184 50.8023 106.902 51.226 106.338C52.2146 105.033 53.1679 105.068 54.4037 105.527C56.1691 106.197 57.2283 105.738 58.1463 103.94C58.4287 103.376 59.0642 102.812 59.6292 102.671C62.3125 101.966 64.431 98.6514 63.9013 96.0071C63.3717 93.2569 61.7123 91.2473 58.6759 89.6607C56.4162 88.4971 53.8035 88.0035 50.4493 88.1446C50.2374 88.1446 50.0256 88.1446 49.8137 88.1446C49.3548 88.1446 48.8957 88.1446 48.4368 88.1446C44.6589 88.2856 41.6931 89.0965 39.1509 90.6479C37.3503 91.7409 36.4323 93.2922 36.3264 95.4782C36.1498 99.004 37.6327 101.507 40.881 103.094C42.3286 103.799 43.635 104.963 44.6942 105.879C45.471 106.584 45.6475 106.655 46.283 106.091C46.6714 105.773 47.0245 105.632 47.3422 105.632ZM51.7203 87.4394C54.6155 87.4394 56.9811 87.9683 59.0642 89.0613C62.2419 90.7184 64.0779 92.9749 64.6428 95.9013C65.243 98.9335 62.9127 102.565 59.841 103.376C59.4526 103.482 58.9936 103.87 58.7818 104.293C58.6406 104.61 58.464 104.892 58.2875 105.139C59.2055 104.152 60.2294 103.482 61.2533 102.847C64.5369 100.873 65.702 97.7347 64.3956 94.4557C63.1246 91.3178 60.759 89.167 57.546 88.2151C52.2499 86.6637 46.8479 86.8048 41.4812 88.5677C37.0325 90.0485 35.4437 92.305 35.5143 97.1706C35.5143 99.0745 36.1498 100.52 37.3503 101.543C37.668 101.825 38.0211 102.071 38.3742 102.318C36.397 100.661 35.479 98.3693 35.6555 95.4429C35.7614 93.0807 36.856 91.2473 38.7979 90.0485C41.4459 88.4266 44.5176 87.6157 48.4368 87.4394C48.8957 87.4042 49.39 87.4394 49.849 87.4394C50.0609 87.4394 50.2727 87.4394 50.4846 87.4394C50.9083 87.4394 51.2966 87.4394 51.7203 87.4394Z" fill="#FFC2EE"/>
<path d="M13.1648 57.0119C12.9176 54.4028 14.0121 52.3226 15.5657 50.3129C19.4495 45.3063 25.9813 44.5306 29.9357 46.2582C33.0075 47.598 35.3377 49.6782 36.0439 53.1335C36.3617 54.7554 36.1145 54.9669 34.4904 55.0727C30.0417 55.3195 25.6282 55.4958 21.2148 55.8836C18.5315 56.0952 15.8834 56.624 13.1648 57.0119ZM35.3731 53.9797C35.3377 53.6624 35.3024 53.204 35.1965 52.7809C34.2432 49.643 31.9836 47.7038 28.9824 46.7166C23.0508 44.7421 15.7775 48.55 13.9062 54.5086C13.7297 55.0374 13.6591 55.6368 13.6237 55.9189C20.8971 55.2842 28.0997 54.6496 35.3731 53.9797Z" fill="#FFC2EE"/>
<path d="M12.8469 57.3997L12.8116 57.0472C12.5291 54.0855 13.9061 51.8643 15.2831 50.1014C19.1316 45.13 25.84 44.0723 30.0768 45.941C33.6429 47.5276 35.726 49.8546 36.3969 53.063C36.5734 53.9092 36.6087 54.4733 36.2909 54.8612C35.9732 55.249 35.4083 55.3548 34.4903 55.4253C33.5017 55.4958 32.513 55.5311 31.5244 55.5663C28.1349 55.7426 24.6395 55.9189 21.1794 56.201C19.3434 56.342 17.4721 56.6593 15.6715 56.9414C14.8241 57.0824 14.012 57.2235 13.1646 57.3292L12.8469 57.3997ZM13.4824 56.3067C13.4824 56.4125 13.4824 56.5183 13.4824 56.6241C14.1886 56.5183 14.8947 56.4125 15.6008 56.3067C16.4482 56.1657 17.2956 56.0247 18.143 55.9189L13.4824 56.3067ZM25.6634 46.5403C23.8275 46.5403 21.9209 46.9987 20.1908 47.8801C17.2956 49.361 15.1419 51.7937 14.2592 54.6144C14.1532 54.9317 14.0826 55.249 14.0473 55.5311L34.9846 53.6624C34.9493 53.4156 34.9139 53.1335 34.8433 52.8867C33.9607 50.0309 31.9481 48.0564 28.8764 47.0339C27.8525 46.7166 26.758 46.5403 25.6634 46.5403ZM25.6634 45.8352C26.8639 45.8352 27.9937 46.0115 29.0882 46.364C32.4071 47.4923 34.5962 49.6078 35.5142 52.6752C35.6201 52.9925 35.6554 53.3451 35.6907 53.6272C35.6907 53.7329 35.726 53.8387 35.726 53.9092L35.7966 54.2618L25.8047 55.1432C27.7113 55.0375 29.6532 54.9317 31.5244 54.8259C32.513 54.7907 33.5017 54.7202 34.4903 54.6849C35.0552 54.6496 35.6201 54.6144 35.7613 54.4028C35.9026 54.2265 35.8319 53.6624 35.726 53.1688C35.1258 50.1719 33.1839 48.0212 29.8297 46.5403C26.4402 45.0595 21.3912 45.5531 17.684 48.6205C18.3548 48.0917 19.0963 47.6333 19.873 47.2455C21.709 46.3288 23.7215 45.8352 25.6634 45.8352Z" fill="#FFC2EE"/>
<path d="M63.6545 46.6108C65.1021 46.7871 66.585 46.8576 67.962 47.175C72.093 48.1622 74.2114 51.1944 75.4825 55.0022C75.5178 55.1432 75.5178 55.2843 75.5531 55.4253C75.7296 56.8356 75.5178 57.0119 74.0702 56.9061C68.0679 56.483 62.0304 56.0247 55.9928 55.6721C55.0748 55.6016 54.7571 55.39 54.8983 54.4028C55.5691 49.361 58.6056 46.6108 63.6545 46.6108ZM55.5691 54.8612C61.9951 55.2137 68.3504 55.5663 74.741 55.9189C74.4939 53.3098 73.1522 51.1591 70.9984 49.4667C68.1032 47.175 64.7843 47.2807 61.3595 47.7391C57.7935 48.1974 55.8163 51.6527 55.5691 54.8612Z" fill="#FFC2EE"/>
<path d="M74.5996 57.294C74.423 57.294 74.2465 57.294 74.0347 57.2587L72.3046 57.153C66.9379 56.7651 61.4299 56.3773 55.9573 56.0247C55.4983 55.9894 55.004 55.9189 54.7569 55.5663C54.4744 55.2138 54.5097 54.7202 54.545 54.3323C55.2159 49.1142 58.4641 46.223 63.619 46.223H63.6543C64.1133 46.2935 64.537 46.3288 64.996 46.3641C65.9846 46.4698 67.0085 46.5756 67.9971 46.7871C71.8103 47.7038 74.2465 50.2424 75.7647 54.8259C75.8 54.967 75.8353 55.108 75.8353 55.2138V55.3195C75.9413 56.0952 75.9059 56.5888 75.6235 56.9061C75.4469 57.2235 75.0939 57.294 74.5996 57.294ZM55.3924 55.1785C55.4983 55.249 55.7102 55.2843 56.0279 55.3195C61.4652 55.6721 67.0085 56.06 72.3752 56.4478L74.1053 56.5536C74.3877 56.5888 75.0233 56.6241 75.1645 56.483C75.3057 56.342 75.2351 55.7074 75.1998 55.4606V55.3548C75.1998 55.249 75.1645 55.1785 75.1645 55.108C74.988 54.6144 74.8114 54.1208 74.6349 53.6977C74.882 54.4028 75.0586 55.1433 75.1292 55.8837L75.1645 56.3068L55.3924 55.1785ZM55.9573 54.5086L74.3524 55.5311C73.9994 53.2746 72.8342 51.3354 70.8217 49.7135C67.9265 47.4218 64.6076 47.6333 61.4299 48.0564C58.0758 48.5148 56.2751 51.6527 55.9573 54.5086ZM63.619 46.9634C59.4174 46.9634 56.6988 48.9379 55.6396 52.6399C56.4516 50.1014 58.3229 47.7744 61.3593 47.3865C62.5245 47.2455 63.7602 47.1045 65.0313 47.1397H64.996C64.537 47.0692 64.078 47.0339 63.619 46.9634ZM68.9504 47.8449C69.7272 48.1622 70.5039 48.5853 71.2807 49.1847C72.1987 49.8898 72.9401 50.7008 73.5404 51.547C72.3399 49.7135 70.8217 48.5148 68.9504 47.8449Z" fill="#FFC2EE"/>
<path d="M6.20936 98.9688C3.9497 97.9815 1.37227 97.5232 -0.287169 95.5135C-0.958007 94.7025 -0.993317 93.3275 -1.13455 92.1992C-1.24047 91.2825 -0.993316 90.3658 -1.02862 89.4491C-1.09924 87.7215 -0.216557 86.7695 1.26635 86.2054C2.21964 85.8528 3.20825 85.465 4.16154 85.1124C4.19685 85.2182 4.23216 85.324 4.30277 85.4298C3.52601 85.8528 2.74925 86.3112 1.90188 86.6638C0.136517 87.4394 -0.710856 88.7087 -0.287169 90.6832C-0.251862 90.8242 -0.251865 90.9652 -0.251865 91.1063C-0.428401 94.0327 0.595512 96.0776 3.59663 96.9591C4.62054 97.2764 5.50322 98.0168 6.45651 98.5809C6.35059 98.7219 6.27998 98.8277 6.20936 98.9688Z" fill="#FFC2EE"/>
<path d="M6.35071 99.4271L6.06825 99.286C5.50333 99.0392 4.93841 98.8277 4.3735 98.6514C2.57282 98.0167 0.736846 97.3469 -0.534216 95.725C-1.16975 94.9493 -1.27567 93.7858 -1.38159 92.7633C-1.4169 92.587 -1.4169 92.4108 -1.45221 92.2345C-1.52282 91.7056 -1.45221 91.1767 -1.4169 90.6479C-1.38159 90.2248 -1.34629 89.8369 -1.34629 89.4491C-1.4169 87.7215 -0.604833 86.5227 1.19584 85.8528C1.86668 85.606 2.50221 85.3592 3.17305 85.1124L4.4088 84.6188L4.79718 85.5355L4.51472 85.6765C4.26757 85.8175 4.02042 85.9233 3.77327 86.0643C3.24366 86.3464 2.67875 86.6637 2.11383 86.9105C0.383773 87.6862 -0.251762 88.8145 0.101311 90.5421C0.136618 90.6831 0.13662 90.8594 0.13662 91.071C-0.0399162 94.0326 1.08992 95.7955 3.73796 96.5712C4.47942 96.7827 5.15026 97.2411 5.8211 97.6642C6.10355 97.8405 6.38601 98.052 6.66847 98.2283L6.98623 98.4046L6.35071 99.4271ZM-0.710753 90.3658C-0.710753 90.4716 -0.746062 90.5774 -0.746062 90.6831C-0.781369 91.1767 -0.851986 91.6703 -0.781372 92.1287C-0.746064 92.305 -0.74606 92.4813 -0.710753 92.6576C-0.604831 93.6448 -0.498909 94.6673 -0.00460674 95.2666C1.16053 96.7122 2.85528 97.3116 4.62065 97.9462C4.83249 98.0167 5.00902 98.0873 5.22087 98.1578C4.65595 97.7699 4.09104 97.4174 3.49081 97.2411C0.525001 96.3596 -0.816679 94.3499 -0.604835 91.0357C-0.604835 90.8947 -0.604835 90.7889 -0.604835 90.7184C-0.67545 90.6126 -0.675445 90.5068 -0.710753 90.3658ZM1.23115 86.5932C-0.00460674 87.0868 -0.604834 87.8625 -0.675449 88.9907C-0.463605 88.0035 0.17193 87.1926 1.23115 86.5932Z" fill="#FFC2EE"/>
<path d="M5.32644 112.226C5.25583 112.719 5.36176 113.319 5.1146 113.706C4.02008 115.575 4.76153 117.197 5.75013 118.783C7.19773 121.04 8.61003 121.498 11.1875 120.723C11.823 120.546 12.4585 120.441 13.0941 120.335C13.1294 120.441 13.1647 120.546 13.2 120.652C12.9881 120.793 12.8116 120.969 12.5644 121.04C11.8936 121.287 11.1875 121.428 10.5519 121.675C8.75126 122.38 7.23304 121.851 6.03259 120.511C4.54968 118.854 3.41985 117.021 3.91415 114.658C4.09069 113.777 4.58499 113.001 4.93807 112.155C5.1146 112.19 5.22052 112.226 5.32644 112.226Z" fill="#FFC2EE"/>
<path d="M9.10434 122.38C7.90389 122.38 6.80936 121.851 5.85606 120.793C4.51438 119.312 3.06677 117.303 3.667 114.623C3.80823 113.988 4.09069 113.389 4.37315 112.825C4.47907 112.578 4.6203 112.331 4.72622 112.049L4.83215 111.802L5.75013 111.979L5.71483 112.296C5.71483 112.437 5.67952 112.613 5.67952 112.754C5.67952 113.142 5.64422 113.565 5.46768 113.918C4.51438 115.505 5.00868 116.915 6.10321 118.607C7.44489 120.687 8.68065 121.146 11.1522 120.405C11.6112 120.264 12.0702 120.194 12.4938 120.123C12.7057 120.088 12.8822 120.053 13.0941 120.018L13.3765 119.947L13.6943 120.793L13.4471 120.934C13.3765 120.97 13.3412 121.005 13.2706 121.075C13.1294 121.181 12.9528 121.322 12.741 121.393C12.4232 121.498 12.1408 121.604 11.823 121.675C11.4346 121.78 11.0816 121.886 10.7285 122.027C10.1989 122.239 9.63395 122.38 9.10434 122.38ZM4.93807 113.213C4.69092 113.742 4.44376 114.235 4.33784 114.764C3.84354 117.091 5.0793 118.889 6.38567 120.3C7.58612 121.604 8.96311 121.992 10.5166 121.393C10.905 121.252 11.2934 121.146 11.6465 121.005C11.5406 121.04 11.4346 121.075 11.3287 121.075C8.53942 121.886 7.02121 121.357 5.46768 118.96C4.40846 117.338 3.63169 115.54 4.79684 113.53C4.86745 113.46 4.90276 113.354 4.93807 113.213Z" fill="#FFC2EE"/>
<path d="M81.4487 97.6287C81.59 97.523 81.7312 97.3467 81.9077 97.2762C84.5558 95.6896 85.4032 93.151 85.3679 90.2951C85.3679 89.4842 84.6264 88.5675 84.0262 87.9328C83.4966 87.3687 82.6845 87.0867 81.9783 86.6636C83.6731 86.4168 86.0387 88.3912 86.2152 90.2246C86.4271 92.3753 85.8269 94.4203 84.697 96.1832C84.0262 97.2056 82.7904 97.6287 81.5547 97.8755C81.5194 97.7698 81.484 97.6993 81.4487 97.6287Z" fill="#FFC2EE"/>
<path d="M81.343 98.2635L81.0252 97.4878L81.2371 97.3115C81.2724 97.2762 81.343 97.241 81.3783 97.2057C81.4842 97.1 81.5901 96.9942 81.7314 96.9237C83.9557 95.5839 85.0502 93.3979 85.0149 90.2599C85.0149 89.449 84.0616 88.4618 83.7792 88.1092C83.4614 87.7566 83.0024 87.5451 82.5081 87.2983C82.261 87.1925 82.0491 87.0515 81.802 86.9457L80.9546 86.4521L81.9432 86.3111C82.7906 86.17 83.8145 86.5226 84.7678 87.263C85.827 88.0739 86.4978 89.1669 86.6037 90.1894C86.7803 92.3401 86.2507 94.4556 85.0149 96.3948C84.2382 97.5936 82.8259 98.0167 81.6607 98.2635H81.343ZM84.7325 88.1797C85.2268 88.7791 85.6858 89.5195 85.7211 90.2599C85.7564 93.4684 84.7325 95.7602 82.5787 97.241C83.2849 96.9942 83.991 96.6416 84.4147 95.9717C85.5445 94.2088 86.0741 92.1991 85.8623 90.2247C85.7917 89.5548 85.368 88.8144 84.7325 88.1797Z" fill="#FFC2EE"/>
<path d="M50.9081 101.084C49.284 100.873 47.9423 100.696 46.6006 100.591C44.9765 100.414 44.0232 99.3214 43.1405 98.1579C42.3637 97.1706 42.9287 95.0904 44.2703 94.3853C45.5767 93.6801 47.0596 93.1512 48.5425 92.8692C51.2259 92.3403 53.8739 92.4461 56.4514 93.5743C57.899 94.209 58.7816 95.1609 58.7463 96.7828C58.711 97.9816 57.2281 99.9208 55.9217 100.203C54.227 100.591 52.4263 100.802 50.9081 101.084ZM49.4605 100.168C51.4377 99.8855 53.4502 99.6387 55.4274 99.2861C56.5926 99.0746 57.9696 97.6642 57.9343 96.677C57.899 95.4783 57.0516 94.8084 56.063 94.2795C55.9571 94.2442 55.8864 94.1737 55.7805 94.1385C51.8614 92.8692 48.0835 93.2217 44.5528 95.3372C43.4583 96.0071 43.423 97.1354 44.235 98.1579C45.6473 99.8502 47.4127 100.168 49.4605 100.168Z" fill="#FFC2EE"/>
<path d="M50.9083 101.437H50.873C50.3434 101.366 49.8491 101.296 49.3901 101.26C48.4015 101.155 47.4835 101.014 46.6008 100.943C44.8708 100.767 43.8822 99.6386 42.8936 98.3693C42.5052 97.8405 42.3639 97.1001 42.5405 96.2891C42.7523 95.3019 43.3525 94.491 44.1293 94.0679C45.471 93.3627 46.9892 92.8339 48.5074 92.5166C51.4732 91.9524 54.1919 92.164 56.6281 93.2217C58.3582 93.9621 59.1702 95.1256 59.1349 96.7827C59.0996 98.2283 57.4755 100.203 56.0279 100.555C54.7921 100.837 53.5211 101.049 52.3206 101.225C51.8263 101.296 51.3673 101.366 50.9436 101.437H50.9083ZM49.3548 100.52C49.3901 100.52 49.4254 100.52 49.4607 100.52C49.9197 100.591 50.3787 100.626 50.9083 100.696C51.332 100.626 51.791 100.555 52.25 100.485C53.4504 100.309 54.6862 100.097 55.8866 99.8149C57.0871 99.5329 58.4288 97.7347 58.4288 96.7122C58.4641 95.3724 57.7932 94.4557 56.3456 93.8211C54.0154 92.7986 51.4732 92.5871 48.6486 93.1512C47.201 93.4333 45.7534 93.9621 44.4824 94.632C43.8822 94.9493 43.4232 95.6192 43.2466 96.3949C43.1054 96.9943 43.2113 97.5584 43.4585 97.911C44.3412 99.0745 45.2238 100.062 46.6714 100.203C46.742 100.203 46.8127 100.203 46.9186 100.238C45.8947 99.9559 44.8708 99.4271 44.0587 98.4046C43.5291 97.77 43.3172 97.0648 43.4232 96.4654C43.5291 95.9013 43.8822 95.4077 44.4471 95.0904C48.0131 92.9749 51.8969 92.5518 55.9573 93.8564C56.0632 93.8916 56.2044 93.9621 56.275 93.9974C57.2283 94.491 58.3228 95.2667 58.3228 96.7122C58.3582 97.8757 56.8399 99.4623 55.5336 99.6739C54.1213 99.9207 52.709 100.132 51.2967 100.309C50.6965 100.379 50.1315 100.485 49.5313 100.555H49.496C49.4254 100.52 49.3901 100.52 49.3548 100.52ZM51.332 93.7858C49.037 93.7858 46.848 94.4205 44.7295 95.6545C44.3411 95.9013 44.094 96.1834 44.0234 96.5359C43.9528 96.959 44.1293 97.4527 44.5177 97.911C45.8594 99.5681 47.66 99.7797 49.4254 99.7797C49.9903 99.7091 50.5905 99.6034 51.1555 99.5329C52.5324 99.3566 53.9447 99.145 55.357 98.8982C56.3456 98.7219 57.5814 97.4526 57.5814 96.6417C57.5814 95.7955 57.0518 95.1609 55.922 94.5615C55.816 94.5263 55.7454 94.4557 55.6748 94.4557C54.2272 94.0326 52.7796 93.7858 51.332 93.7858Z" fill="#FFC2EE"/>
<path d="M24.2159 52.3931C23.5097 52.3931 22.9448 51.8289 22.9448 51.1238C22.9448 50.4186 23.5097 49.8545 24.2159 49.8545C24.922 49.8545 25.4869 50.4186 25.4869 51.1238C25.4869 51.8289 24.922 52.3931 24.2159 52.3931Z" fill="#FFC2EE"/>
<path d="M65.1724 52.9573C64.4663 52.9573 63.9014 52.3931 63.9014 51.688C63.9014 50.9828 64.4663 50.4187 65.1724 50.4187C65.8786 50.4187 66.4435 50.9828 66.4435 51.688C66.4435 52.3931 65.8433 52.9573 65.1724 52.9573Z" fill="#FFC2EE"/>
</g>
<defs>
<clipPath id="clip0_201_1160">
<rect width="139" height="160" fill="white"/>
</clipPath>
</defs>
</svg>
