<svg width="125" height="205" viewBox="0 0 125 205" fill="none" xmlns="http://www.w3.org/2000/svg">
<g clip-path="url(#clip0_201_1309)">
<path d="M138.564 106.101C139.237 105.072 139.91 104.043 140.493 102.97C141.122 101.852 141.526 100.599 142.243 99.5703C143.231 98.1389 143.276 97.7363 141.84 96.7075C140.314 95.5892 140.224 95.2314 141.391 93.7106C141.974 92.9054 142.692 92.1897 143.41 91.474C144.308 90.6242 145.25 89.7743 144.981 88.3429C144.936 88.1193 145.026 87.8061 145.205 87.6719C146.641 86.7326 146.237 85.3907 146.192 84.0935C146.058 80.9624 148.795 77.7865 151.936 77.2497C152.474 77.1603 153.192 76.713 153.327 76.3104C154.808 71.2558 160.282 71.2111 163.692 72.2847C164.769 72.6425 165.801 73.1793 166.833 73.6266C169.705 74.879 171.769 77.0261 173.564 79.4415C175.359 81.857 175.179 84.7197 174.686 87.4483C174.506 88.3876 173.699 89.3717 172.891 89.9085C172.083 90.4452 171.769 91.0267 171.769 91.8766C171.814 94.5604 170.961 96.6628 168.045 97.3785C167.417 98.8098 165.936 99.6597 165.308 101.002C164.769 102.12 164.993 103.596 164.545 104.759C163.917 106.369 163.064 107.89 162.122 109.366C161.942 109.635 160.91 109.769 160.551 109.545C159.429 108.919 158.891 109.322 158.173 110.216C156.468 112.408 154.628 114.51 152.026 115.718C151.756 115.852 151.442 116.076 151.308 116.344C149.827 119.386 147.583 121.846 145.07 124.083C143.904 125.156 142.513 126.095 141.122 126.856C140.09 127.393 139.372 128.019 139.192 129.137C138.923 131.016 137.756 132.402 136.635 133.834C136.276 134.281 136.096 134.818 135.782 135.399C137.038 136.339 138.384 136.115 139.686 135.981C141.929 135.713 142.737 136.205 143.096 138.441C143.41 140.186 144.352 141.17 146.192 141.393C151.487 141.93 156.782 142.377 162.032 141.259C162.436 141.17 162.885 141.17 163.333 141.125C167.506 140.678 169.57 142.064 170.109 146.224C170.423 148.729 170.602 151.458 170.064 153.873C169.211 157.765 167.686 161.477 166.34 165.235C165.981 166.219 165.397 167.158 164.724 168.545C164.096 167.695 163.602 167.203 163.333 166.621C162.077 163.937 160.596 161.254 158.038 159.688C156.199 158.57 154 157.988 151.936 157.273C151.622 157.138 150.993 157.586 150.635 157.899C149.288 159.107 148.077 160.538 146.596 161.522C145.385 162.327 143.814 162.64 142.378 163.177C141.75 163.401 141.122 163.58 140.404 163.803C142.199 167.337 141.167 170.915 140.897 174.852C142.513 173.778 143.724 172.928 144.981 172.168C146.641 171.184 148.346 170.2 150.141 169.395C150.545 169.216 151.487 169.484 151.846 169.842C154.493 172.705 155.75 176.194 155.795 179.996C155.84 183.082 155.615 186.213 155.256 189.3C155.032 191.357 154 193.102 152.385 194.578C150.32 196.457 148.032 198.022 145.743 199.677C142.647 201.958 140.135 200.93 137.487 199.319C136.365 198.648 135.423 197.977 134.077 198.783C133.808 198.917 132.865 198.425 132.641 198.022C131.968 196.77 130.981 196.412 129.679 196.501C128.647 196.591 127.57 196.591 126.538 196.68C125.596 196.77 124.654 196.859 123.891 196.009C123.711 195.786 122.814 195.92 122.5 196.188C120.57 197.709 118.865 199.588 116.756 200.795C115.096 201.78 113.032 202.227 111.058 202.585C106.301 203.39 101.5 203.927 96.6986 204.642C95.9807 204.732 95.3076 205 94.5896 205.09C91.673 205.492 89.3396 203.882 86.9165 202.674C82.2948 200.348 77.7627 197.843 73.096 195.517C71.6601 194.802 70.0448 194.444 68.4742 193.996C68.1601 193.907 67.6665 194.22 67.3076 194.354C65.7819 194.98 64.8396 194.757 63.8973 193.37C63.3589 192.565 62.8653 192.386 62.0127 192.833C61.6537 193.012 60.9806 193.102 60.7563 192.878C59.4999 191.715 58.1986 192.297 56.8524 192.565C53.6217 193.236 50.3909 193.862 47.1601 194.399C45.3204 194.712 43.6153 194.131 41.9101 193.281C38.3653 191.447 34.955 189.479 32.0832 186.75C30.8717 185.587 29.8396 184.29 28.7627 182.993C27.4165 181.382 27.1473 179.325 26.923 177.357C26.7883 176.194 26.4294 175.299 25.4871 174.539C24.9037 174.091 24.3653 173.465 23.8717 172.928C22.7499 171.721 22.4806 171.765 21.6281 173.241C21.5383 173.42 21.4486 173.555 21.314 173.733C20.1024 175.925 19.923 176.015 17.5896 175.254C15.8396 174.718 14.1345 174.181 12.4742 173.465C10.814 172.749 9.10885 172.794 7.40372 173.107C5.65372 173.42 4.30757 172.794 3.7691 171.139C3.1409 169.126 2.78193 166.979 2.28834 164.877C1.66013 162.059 1.0768 159.196 0.313976 156.423C-0.224486 154.41 -0.134742 152.621 0.89731 150.787C2.78193 147.521 4.53193 144.211 6.41654 140.946C7.98705 138.173 10.1858 137.904 12.4294 140.275C15.4806 143.496 17.814 147.074 18.5319 151.637C19.8332 151.413 21.1345 151.323 22.346 150.966C22.8396 150.831 23.3332 150.205 23.4678 149.713C24.0063 147.969 24.2755 146.09 24.9037 144.39C25.3524 143.183 26.205 142.064 26.923 140.946C27.1024 140.678 27.5063 140.499 27.8653 140.364C29.5704 139.872 31.3204 139.559 32.9806 138.933C33.923 138.575 34.7755 137.815 35.5383 137.099C35.8973 136.741 35.7627 136.026 34.9101 136.115C31.9037 136.473 28.9422 136.786 25.9806 137.278C24.9486 137.457 24.0512 138.262 23.0191 138.665C22.6153 138.844 22.0768 138.754 21.5832 138.799C21.5383 138.352 21.4037 137.815 21.5383 137.412C21.8076 136.339 22.346 135.355 22.5704 134.281C23.3781 130.926 25.1281 128.108 26.9678 125.246C27.5512 124.351 28.2242 124.038 29.2114 124.038C30.9165 124.038 32.6665 124.083 34.3717 123.859C36.0319 123.591 37.6024 123.009 39.2178 122.472C39.5768 122.338 39.9358 122.025 40.205 121.667C40.7883 120.817 41.3268 119.923 41.9999 118.849C41.0127 117.507 39.8012 116.165 38.9935 114.6C38.1409 112.945 37.5127 111.155 37.1537 109.366C36.5255 106.459 36.2114 103.462 35.7178 100.51C35.673 100.241 35.6281 99.8834 35.4486 99.7492C33.7883 98.6757 33.3396 96.8417 32.6217 95.1867C32.3076 94.4263 31.9037 93.979 31.0063 94.2026C30.1089 94.4263 29.6601 93.8895 29.6601 92.9949C29.6601 91.0267 29.5704 89.0586 29.6601 87.1352C29.705 86.2853 29.705 85.838 28.7178 85.6143C28.314 85.5249 27.7306 84.7645 27.7306 84.3619C27.7755 83.4225 27.4614 82.8858 26.7435 82.349C25.1281 81.0518 24.6794 79.3968 25.0383 77.3392C25.173 76.6235 24.7691 75.7736 24.4999 74.9685C24.4101 74.6106 24.096 74.3423 23.8268 74.0739C21.4037 71.6584 22.3909 68.1694 24.096 65.8435C27.7306 60.9678 32.9806 59.1339 38.814 59.1339C42.2242 59.1339 44.1986 60.2969 45.096 64.1884C45.2306 64.6805 45.4999 65.1725 45.814 65.5303C46.6665 66.5144 47.564 67.4538 48.4165 68.4378C49.0448 66.8723 49.5383 65.083 50.4358 63.5622C51.5127 61.6835 52.7691 59.8496 54.2948 58.3287C54.9678 57.6578 56.4037 57.5683 57.5255 57.5236C59.2306 57.4788 60.3076 56.9421 61.205 55.3765C62.0127 53.9899 63.314 52.7821 64.5255 51.7086C67.0383 49.5168 69.5512 47.2803 72.3332 45.4911C76.3717 42.8967 80.814 41.1075 85.5704 40.3023C86.7371 40.1234 87.3653 39.4524 87.5896 38.5578C88.7563 33.1902 91.7627 28.7618 94.8589 24.423C97.955 20.0841 101.365 15.9689 105.045 12.1221C109.532 7.42539 114.782 3.80222 121.109 1.74461C124.519 0.626351 127.929 0.223776 131.384 0.134315C135.154 0.0448544 138.295 1.69988 141.032 4.20479C144.038 6.93335 145.878 10.3776 147.404 14.0455C148.615 16.9977 148.526 20.1289 148.391 23.2153C148.301 25.1387 148.032 27.1068 147.449 28.9408C146.776 31.0431 145.654 33.056 143.455 33.9059C142.602 34.219 141.256 34.3084 140.538 33.8611C139.237 33.0112 138.16 31.6246 138.654 29.8354C139.327 27.4647 140 25.0492 140.987 22.8127C141.436 21.7392 142.602 20.934 143.59 19.771C143.186 16.5504 138.519 13.5982 135.917 13.1509C133.763 12.7931 131.833 13.7771 130.308 15.4769C126.808 19.3684 124.429 23.9757 122.276 28.7171C121.333 30.73 120.211 32.6981 119.269 34.711C118.641 36.1424 118.192 37.6632 117.654 39.1393C116.846 41.3311 116.083 43.4782 115.365 45.3569C118.282 47.0119 121.109 48.2196 123.487 50.0536C125.641 51.6639 127.615 53.632 129.141 55.8238C130.891 58.3287 132.147 61.1915 133.404 64.0095C134.032 65.4409 134.211 67.0959 134.481 68.7062C134.615 69.5561 135.019 69.8692 135.872 70.1823C138.07 70.9875 140.179 71.9268 142.199 73.0898C142.872 73.4924 143.32 74.6554 143.545 75.5052C144.442 79.6205 144.622 83.7357 143.186 87.7614C143.051 88.1193 143.051 88.5218 143.006 88.8797C142.602 91.3846 141.301 93.2185 138.968 94.3815C138.609 94.5604 138.16 95.0525 138.205 95.3656C138.654 98.5862 138.699 101.807 137.891 105.027C137.801 105.296 137.891 105.654 137.891 105.922C138.16 105.922 138.34 106.011 138.564 106.101ZM56.673 172.302C55.8653 171.452 55.0127 170.558 54.1601 169.618C53.5319 168.903 52.9486 168.768 52.2307 169.484C51.5576 170.11 50.7948 170.647 49.8973 171.452C50.1217 169.529 51.7371 169.037 52.7242 167.874C51.9614 166.666 51.1537 165.503 50.5255 164.206C49.8076 162.64 48.8653 161.611 47.0255 162.104C46.4871 162.238 45.9486 162.506 45.4999 162.819C43.5255 164.206 41.596 165.682 39.6665 167.113C39.0383 167.561 38.455 168.053 37.8268 168.545C37.7371 168.411 37.6473 168.276 37.5576 168.142C39.2627 166.577 40.8781 164.877 42.7627 163.535C44.423 162.327 45.9037 160.314 48.5063 161.164C48.5512 161.164 48.6858 160.985 48.7755 160.851C47.5191 159.375 45.9037 158.838 44.0191 158.704C41.4165 158.48 38.9935 159.196 36.6153 160.001C34.9101 160.583 33.1601 161.119 31.455 161.656C31.4101 161.477 31.3653 161.343 31.3204 161.164C35.673 159.554 39.7114 156.915 45.1409 157.63C44.6024 157.004 44.3332 156.736 44.1089 156.467C42.9422 155.126 41.6858 153.918 40.6986 152.442C39.5768 150.742 38.1858 149.624 36.1665 149.355C35.314 149.221 34.5063 148.997 33.6537 148.819C33.6537 148.729 33.6537 148.595 33.6537 148.505C34.9101 148.416 36.1665 148.327 37.6922 148.237C36.8396 145.464 36.0319 142.825 35.2242 140.275C34.1473 140.409 33.0255 140.499 31.9037 140.678C29.7499 141.08 27.596 141.527 26.7883 143.988C26.2499 145.598 25.846 147.298 25.4871 148.953C25.2178 150.071 25.1281 151.189 24.9037 152.71C26.6986 151.726 28.0447 150.966 29.3909 150.205C29.4358 150.339 29.5255 150.429 29.5704 150.563C28.2691 151.726 26.7435 152.71 25.6665 154.052C22.8396 157.63 22.346 160.851 26.3845 164.295C27.5063 163.624 28.5832 162.953 29.705 162.327C29.7947 162.461 29.8845 162.64 29.9742 162.774C29.6601 162.998 29.346 163.222 29.0319 163.49C27.4614 165.011 25.846 166.487 24.3653 168.053C24.096 168.321 23.8717 169.081 24.0512 169.305C25.4422 171.094 26.7435 172.973 28.4037 174.494C29.7947 175.791 31.5896 176.596 33.205 177.625C33.205 177.714 33.205 177.804 33.2499 177.849C31.9037 177.536 30.5127 177.267 28.9422 176.909C29.346 178.654 29.346 180.443 30.5576 181.874C31.6794 183.172 32.6217 184.692 33.923 185.721C36.705 187.868 39.5768 190.015 42.673 191.581C46.1281 193.325 49.8524 192.476 53.5319 191.626C52.5448 190.91 51.6473 190.284 50.7499 189.568C49.8524 188.897 48.9999 188.137 48.1473 187.421C52.0063 189.792 56.3589 191.581 57.8845 191.044C56.314 189.255 55.3717 187.242 55.5063 184.514C56.8524 186.84 56.9871 189.836 60.4422 190.373C60.1281 189.165 59.7691 188.137 59.6345 187.108C59.455 186.034 59.4101 184.916 59.4101 183.843C59.4101 182.814 59.5447 181.785 59.6345 180.756C59.7691 180.756 59.9486 180.756 60.0832 180.756C60.1281 181.203 60.0832 181.651 60.173 182.098C60.4422 184.245 60.6665 186.347 61.0255 188.45C61.1601 189.121 61.6089 189.747 61.9678 190.328C62.1024 190.552 62.5512 190.552 62.8204 190.642C62.9101 190.373 63.0448 190.06 63.0448 189.792C62.9999 188.36 62.8204 186.929 62.8653 185.498C62.955 183.306 63.0448 181.069 64.3909 179.191C64.6601 178.833 65.1089 178.609 65.5127 178.296C65.6473 178.385 65.7819 178.475 65.9165 178.609C65.7819 179.414 65.7371 180.175 65.5576 180.98C65.1986 182.948 64.6153 184.871 64.4358 186.84C64.3012 188.226 64.4806 189.702 64.8396 191.044C64.9742 191.626 65.8717 192.341 66.4999 192.386C67.5768 192.52 68.2948 191.849 68.4294 190.642C68.564 189.568 68.7883 188.45 69.1922 187.421C69.7755 185.766 70.5383 184.2 71.2114 182.545C70.7627 185.006 70.0896 187.376 69.596 189.747C69.1024 191.984 69.7755 192.61 72.1537 192.297C73.2307 192.162 74.3524 191.984 75.4294 191.805C75.4742 191.894 75.4742 192.028 75.5191 192.118C74.9807 192.386 74.4422 192.654 73.6345 193.102C74.3973 193.504 74.9358 193.773 75.4742 194.041C78.0319 195.383 80.5448 196.725 83.1024 198.067C85.9294 199.543 88.7114 201.064 91.5832 202.45C92.346 202.808 93.3781 202.942 94.2307 202.853C99.346 202.272 104.461 201.601 109.532 200.93C113.481 200.438 116.846 198.872 119.583 195.92C120.391 195.025 120.615 194.086 120.436 193.012C120.211 191.626 118.82 191.849 117.923 191.536C117.16 191.268 116.891 191.805 116.756 192.565C116.711 192.878 116.352 193.281 116.038 193.325C114.154 193.728 112.224 194.086 110.34 194.444C110.295 194.265 110.25 194.086 110.205 193.907C110.564 193.817 110.968 193.683 111.327 193.594C112.224 193.325 113.167 193.147 114.064 192.833C115.365 192.386 116.352 190.686 115.993 189.389C115.59 188.003 114.333 187.958 113.077 187.913C111.686 187.868 110.295 187.555 108.904 187.376C108.904 187.197 108.904 187.018 108.949 186.884C110.295 186.884 111.686 186.884 113.032 186.884C114.288 186.929 115.141 186.258 115.724 185.274C115.859 185.095 115.5 184.335 115.231 184.245C114.019 183.887 112.763 183.843 111.596 183.44C110.16 182.903 108.769 182.143 107.378 181.472C107.468 181.293 107.513 181.159 107.602 180.98C108.186 181.203 108.769 181.561 109.397 181.696C111.282 182.143 113.167 182.59 115.096 182.948C115.41 182.993 115.859 182.858 116.128 182.635C118.102 180.622 120.032 178.609 121.961 176.596C122.141 176.373 122.276 176.015 122.276 175.702C122.32 174.404 122.41 173.152 122.365 171.855C122.32 171.139 122.186 170.289 121.737 169.797C120.615 168.634 119.359 167.605 118.102 166.577C117.205 165.816 116.263 165.503 115.051 165.95C112.718 166.8 110.34 167.561 108.006 168.366C107.782 168.455 107.558 168.634 107.423 168.724C108.276 169.663 108.993 170.558 109.756 171.452C109.667 171.542 109.532 171.676 109.442 171.765C109.218 171.631 108.993 171.497 108.769 171.318C107.737 170.602 106.75 169.35 105.718 169.35C103.654 169.26 101.545 169.887 99.3909 170.2C100.378 172.436 101.231 174.404 102.128 176.507C100.288 175.97 99.5704 174.673 99.2563 173.018C98.9422 171.363 97.9101 170.379 96.6986 170.513C94.7242 170.692 92.705 170.781 90.6858 170.96C88.173 171.229 85.6601 171.542 83.1922 171.855C82.7435 171.9 82.3396 172.168 82.2499 172.213C83.1024 176.775 82.205 180.98 81.5319 185.229C81.3524 184.737 81.3076 184.245 81.3524 183.753C81.3524 180.801 81.4422 177.849 81.3973 174.896C81.3973 173.42 80.4101 172.749 78.9294 173.063C77.1794 173.465 75.4294 173.957 73.6345 174.36C72.4678 174.583 71.8396 175.075 72.1537 176.373C72.1986 176.641 72.0191 176.954 71.8845 177.67C71.705 177.044 71.6153 176.82 71.6153 176.641C71.4358 175.299 70.7627 174.807 69.3717 174.941C67.8012 175.12 66.1858 175.165 64.6601 174.986C61.564 174.941 59.0512 173.778 56.673 172.302ZM84.7627 126.498C85.4806 126.319 85.9742 126.185 86.5127 126.095C91.3589 125.156 96.205 124.172 101.051 123.322C105.493 122.562 109.936 121.98 114.378 121.309C115.724 121.13 117.115 121.443 118.327 120.415C119.269 119.61 120.301 118.939 121.378 118.357C123.173 117.418 125.237 116.836 126.897 115.718C128.827 114.376 130.532 112.676 132.282 111.066C133.583 109.858 135.019 108.651 135.872 107.174C137.891 103.551 137.173 99.615 136.41 95.8129C136.365 95.5892 135.961 95.3209 135.692 95.2761C132.013 94.8288 130.308 93.1291 129.635 88.8797C130.218 89.6848 130.532 90.2216 130.936 90.7136C132.013 92.1003 133.09 93.8 134.974 93.8448C137.128 93.9342 140.314 92.4581 140.942 89.6401C141.122 88.8349 141.346 88.0745 141.705 87.3141C143.186 84.1382 142.917 80.8282 142.513 77.5181C142.333 76.042 141.84 74.5212 140.404 73.8055C138.699 72.9556 136.904 72.2846 135.199 71.4795C134.032 70.898 133.404 71.39 132.955 72.3741C132.417 73.5371 131.923 74.7001 131.384 75.9078C131.205 75.8631 131.026 75.8184 130.846 75.7736C131.25 74.3422 131.34 72.732 132.058 71.4348C132.955 69.8692 133.045 68.4826 132.372 66.8723C131.878 65.754 131.654 64.5015 131.205 63.3385C130.487 61.5046 130.038 59.4917 128.917 57.9709C126.897 55.1976 124.788 52.469 121.692 50.7693C119.583 49.6063 117.474 48.488 115.724 47.5487C114.602 49.1142 113.75 50.322 112.897 51.5297C112.808 51.485 112.673 51.3955 112.583 51.3508C112.763 50.9482 112.942 50.5903 113.211 49.9641C111.91 50.9929 110.788 51.8875 109.711 52.7374C109.622 52.6479 109.532 52.5585 109.442 52.4243C110.026 51.7533 110.564 51.0376 111.192 50.4114C113.077 48.4433 114.782 46.4304 114.602 43.4335C114.558 42.9862 114.827 42.4941 114.961 42.0468C115.859 39.4524 116.756 36.8581 117.654 34.3084C117.743 34.04 117.833 33.7717 117.968 33.5033C119.628 30.1932 121.333 26.8832 122.949 23.5284C124.699 19.9499 126.763 16.6399 129.679 13.8666C131.878 11.809 135.378 10.154 138.654 12.2563C139.731 12.972 140.897 13.5087 141.974 14.2244C144.397 15.8795 145.519 19.3684 144.577 22.3207C143.769 21.2919 143.32 21.8733 142.961 22.6785C142.019 24.7361 141.032 26.749 140.269 28.8066C139.955 29.6117 140.09 30.5958 140.179 31.4904C140.359 32.8323 141.974 33.5033 142.872 32.5192C143.949 31.4009 145.07 30.1485 145.609 28.7171C147 25.0045 147.045 21.0682 146.417 17.1766C145.654 12.6589 143.724 8.63311 140.269 5.50198C137.981 3.44437 135.513 1.56569 132.282 1.47623C125.82 1.29731 119.897 3.26545 114.378 6.35186C108.769 9.52772 104.596 14.4481 100.513 19.279C97.0576 23.3495 94.0063 27.7778 91.5832 32.5639C90.4614 34.8005 89.205 37.0817 88.5319 39.4972C87.9037 41.689 88.0832 44.1044 87.814 46.4304C87.3204 50.5903 88.3076 54.4819 89.7435 58.3287C90.0127 58.9997 90.2819 59.6706 90.596 60.3416C90.4614 60.3863 90.3717 60.4758 90.2371 60.5205C88.4422 58.5971 87.0512 56.4053 86.7371 53.7662C86.3781 50.5456 86.423 47.2803 86.3332 44.0597C86.2883 43.2545 86.3332 42.4047 86.3332 41.5548C85.8845 41.5548 85.705 41.51 85.5255 41.5548C78.7499 43.4782 72.3332 46.0278 67.2178 51.1718C63.6281 54.795 60.7563 58.8208 58.9165 63.5175C57.8396 66.246 57.3012 69.1535 56.4486 71.9715C56.2691 72.5083 55.8653 73.0451 55.4165 73.3582C54.3396 74.0291 53.0832 74.4764 52.0063 75.1027C46.8909 78.0549 43.7948 82.3043 43.3909 88.3429C42.9422 94.8288 45.0512 100.51 48.8204 105.609C50.9742 108.472 53.0832 111.379 56.2242 113.481C58.8268 115.226 60.9358 117.776 63.314 119.833C64.3012 120.683 65.5576 121.265 66.6345 122.07C67.8909 123.054 69.1024 124.127 70.314 125.156C73.4999 122.741 74.3973 126.23 76.0576 127.169C77.1345 126.632 78.1217 125.872 79.1089 125.782C80.9037 125.603 83.1922 123.277 84.7627 126.498ZM63.5383 128.019C61.3396 126.364 59.0063 124.575 56.4486 122.651C54.9678 124.798 53.5319 126.945 52.096 129.003C50.705 131.016 49.4486 133.073 47.8781 134.907C45.9486 137.189 42.9871 136.786 41.4614 134.147C40.8781 133.118 40.2947 132.045 39.5768 130.747C39.0383 131.732 38.4101 132.537 38.1409 133.476C36.8845 137.904 38.4101 141.751 40.923 145.24C43.7948 149.266 47.564 152.486 51.423 155.528C57.346 160.18 64.2114 162.73 71.6601 163.58C76.6409 164.161 81.6666 164.43 86.6473 164.653C90.0127 164.787 93.423 164.564 96.8332 164.474C101.051 164.34 105.045 163.177 109.038 161.969C113.167 160.717 117.115 159.062 120.75 156.691C124.474 154.276 127.66 151.413 129.5 147.298C130.038 146.09 129.993 144.972 129.365 143.853C129.186 143.898 129.051 143.943 129.006 143.988C128.872 144.077 128.782 144.167 128.692 144.256C124.474 148.55 119.718 151.95 113.66 153.157C110.205 153.828 107.154 152.934 104.955 150.384C102.308 147.253 100.243 143.675 99.9742 139.38C99.7948 136.07 99.1666 132.716 100.513 129.092C97.1922 129.898 94.1409 130.703 90.955 131.463C91.314 132 91.5383 132.447 91.7627 132.805C93.6024 135.578 95.5319 138.307 97.2371 141.17C98.4935 143.272 98.2242 145.732 98.0896 148.237C96.6089 147.969 95.3524 147.79 94.096 147.521C92.0319 147.074 90.0127 146.672 87.9935 146.135C85.3012 145.419 82.7883 144.435 81.3076 141.841C80.4999 140.365 79.6473 138.888 78.7948 137.368C77.5383 137.323 75.9678 137.636 74.8012 137.099C73.2306 136.383 72.064 137.278 70.7178 137.412C70.6281 137.412 70.4935 137.412 70.4486 137.368C69.6858 136.876 69.2819 137.412 68.6986 137.77C66.814 139.112 64.9742 140.678 62.9101 141.662C61.1153 142.512 59.0063 143.048 57.0319 143.093C55.1024 143.138 53.173 142.422 51.2883 141.885C49.0448 141.214 48.7307 139.738 50.3909 138.039C50.5704 137.815 50.705 137.591 50.9294 137.368C52.7691 135.444 54.4294 133.297 56.5383 131.687C58.5576 130.211 61.0255 129.316 63.5383 128.019ZM144.352 99.123C143.859 100.196 143.231 101.091 142.917 102.12C142.243 104.446 141.122 106.414 138.878 107.532C138.205 107.89 137.622 108.382 137.083 108.919C134.75 111.2 132.461 113.571 130.038 115.807C129.32 116.478 128.333 117.06 127.391 117.418C124.115 118.67 120.974 120.191 118.461 122.696C117.25 123.904 115.859 125.022 115.455 126.856C114.468 131.553 115.814 135.578 119.045 137.904C123.981 141.349 128.782 140.007 132.865 135.981C134.974 133.879 136.006 130.747 137.577 128.108C137.891 127.572 138.295 126.901 138.788 126.632C142.019 124.932 144.487 122.428 146.91 119.788C148.795 117.731 149.872 115.136 152.564 113.571C154.673 112.363 156.109 109.948 157.904 107.98C153.327 104.938 148.974 102.12 144.352 99.123ZM9.33321 157.854C9.24346 157.809 9.19859 157.765 9.10885 157.72C9.24346 157.496 9.28834 157.183 9.46782 157.004C11.0832 155.036 12.8781 153.247 15.4358 152.486C16.5127 152.173 16.6922 151.637 16.4678 150.563C15.7947 146.985 13.6858 144.167 11.3973 141.572C9.78193 139.694 8.66013 139.917 7.40372 142.064C5.74346 144.838 4.08321 147.611 2.60244 150.474C1.61526 152.352 1.25628 154.41 2.10885 156.557C2.60244 157.899 2.87167 159.33 3.1409 160.717C3.7691 163.624 4.35244 166.577 5.02552 169.484C5.47423 171.407 6.73064 171.855 8.57039 171.05C8.43577 170.244 8.25628 169.439 8.12167 168.634C8.25628 168.634 8.34603 168.589 8.48064 168.589C8.88449 169.35 9.28834 170.11 9.69218 170.826C9.78193 170.781 9.91654 170.737 10.0063 170.692C9.8268 169.618 9.64731 168.5 9.46782 167.426C9.96141 167.963 10.096 168.545 10.2306 169.126C10.455 170.11 10.7242 171.005 11.8909 171.407C13.9101 172.078 15.9294 172.928 17.9486 173.599C18.4871 173.778 19.1153 173.644 19.6986 173.644C17.6794 169.976 18.6665 166.263 18.3524 162.685C18.0383 158.793 19.923 155.797 22.0768 152.755C18.3076 153.426 14.4486 153.202 11.6665 156.199C11.7563 155.886 11.8909 155.573 11.9806 155.304C11.8909 155.26 11.846 155.215 11.7563 155.215C10.9935 156.065 10.1409 156.96 9.33321 157.854ZM146.506 88.5666C147.359 90.0874 146.686 90.9373 145.654 91.7424C144.891 92.3687 144.263 93.1738 143.59 93.9342C142.917 94.6052 142.917 95.2761 143.59 95.9024C144.667 96.9312 145.654 98.0942 146.865 98.8993C151.263 101.807 155.75 104.535 160.147 107.398C161.179 108.069 161.808 107.577 162.211 106.727C162.66 105.743 162.84 104.67 163.199 103.641C163.872 101.807 163.154 99.3913 165.891 98.3178C163.109 96.4391 159.654 96.0366 157.769 93.2185C158.667 93.6658 159.429 94.2921 160.327 94.6946C162.795 95.7682 165.083 97.6916 168 95.4551C169.301 94.471 170.019 93.6658 169.885 91.3846C169.391 91.3846 168.852 91.3846 168.359 91.3846C165.173 91.474 162.526 90.2216 160.461 87.9403C159.25 86.6431 158.173 85.6143 156.243 85.8827C155.526 85.9722 154.718 85.7933 154 85.6143C153.237 85.3907 152.564 84.9881 151.801 84.675C151.846 84.4961 151.891 84.3619 151.936 84.183C152.385 84.2277 152.833 84.2277 153.237 84.2724C154.897 84.3619 156.558 84.5408 158.218 84.4961C159.34 84.4513 160.237 83.7804 160.461 82.6174C160.686 81.5886 159.699 80.023 158.756 79.5757C156.827 78.6811 154.718 78.4575 152.743 78.9495C151.352 79.3073 149.961 80.2467 148.974 81.2755C147.179 83.1542 148.481 85.5249 148.301 87.5825C149.154 87.8509 149.827 88.0745 150.545 88.2982C150.5 88.3876 150.5 88.5218 150.455 88.6113C149.199 88.5666 147.942 88.5666 146.506 88.5666ZM154.314 181.74C154.09 178.475 153.776 176.104 152.385 174.002C151.756 173.018 151.263 171.273 150.455 171.139C149.513 170.96 148.301 172.123 147.224 172.705C146.91 172.884 146.596 173.152 146.372 173.465C143.993 176.596 141.615 179.772 139.192 182.903C137.577 184.961 137.128 187.242 137.263 189.836C137.352 191.894 136.859 193.952 136.635 196.009C136.59 196.367 136.679 196.904 136.859 197.038C138.115 197.798 139.417 198.469 140.718 199.185C141.705 199.722 142.602 199.722 143.5 199.051C143.859 198.783 144.308 198.559 144.756 198.335C148.032 196.859 150.231 194.175 152.474 191.536C152.923 190.999 153.282 190.284 153.372 189.613C153.865 186.705 154.135 183.843 154.314 181.74ZM135.692 166.308C135.602 166.263 135.468 166.263 135.378 166.219C135.378 165.995 135.378 165.771 135.468 165.548C137.263 161.611 137.083 157.675 135.288 153.784C134.929 152.979 134.481 152.173 133.942 151.458C133.359 150.742 132.506 150.742 131.968 151.413C131.16 152.442 130.487 153.56 129.724 154.678C131.968 156.378 132.372 158.659 130.711 160.001C130.667 159.554 130.577 159.107 130.532 158.704C130.487 158.212 130.487 157.765 130.352 157.273C130.128 156.244 128.827 155.707 128.154 156.378C126.269 158.167 124.429 160.001 122.5 161.835C123.667 162.864 125.192 163.58 125.865 165.235C124.25 164.385 122.859 163.043 121.423 163.043C119.987 163.043 118.596 164.34 116.981 165.145C118.147 165.906 119.045 166.398 119.852 166.979C121.961 168.5 124.205 170.021 123.263 173.197C123.218 173.376 123.263 173.599 123.308 173.778C123.487 174.181 123.667 174.852 123.936 174.896C124.474 174.986 125.102 174.762 125.641 174.583C126.045 174.449 126.404 174.181 126.763 173.957C127.256 173.599 127.929 173.331 128.064 172.839C128.647 171.005 129.006 169.171 129.455 167.292C129.635 166.666 129.769 165.995 129.904 165.369C130.083 165.414 130.308 165.458 130.487 165.503C130.173 168.142 129.814 170.737 129.5 173.376C129.59 173.42 129.679 173.465 129.769 173.51C131.34 171.676 132.91 169.842 134.481 168.008C134.615 168.097 134.705 168.187 134.84 168.232C133.583 170.334 132.327 172.392 131.07 174.539C132.102 175.567 133.269 175.299 134.301 174.583C135.468 173.823 136.455 172.839 137.577 172.034C140.135 170.2 139.551 167.561 139.192 165.1C139.058 164.072 138.295 163.177 137.801 162.193C137.128 163.714 136.41 165.011 135.692 166.308ZM33.6986 80.7387C33.7435 80.8282 33.7883 80.8729 33.7883 80.9624C32.3524 81.9017 30.9165 82.7963 29.2114 83.8699C30.1537 84.1382 30.6473 84.2724 31.2306 84.4514C31.2306 86.9115 31.2306 89.4164 31.2306 91.9213C31.6345 91.8766 31.9486 91.8766 32.173 91.7872C34.9999 90.5794 37.8268 89.4164 40.564 88.1193C41.1024 87.8509 41.7306 87.0457 41.7755 86.4195C42.0448 82.7069 44.064 79.9336 46.5768 77.4287C47.2499 76.7577 47.4742 76.1315 46.8909 75.2369C45.7691 75.7736 44.6473 76.3104 43.5704 76.8024C43.4358 76.4893 43.346 76.2209 43.1665 75.8184C44.1986 75.3711 45.1858 74.9237 45.814 74.6554C45.9037 72.8214 45.814 71.2111 46.1281 69.6903C46.3524 68.6167 46.0383 67.8116 45.3204 67.3196C43.8396 66.2908 42.1345 65.6198 40.2948 66.1566C38.9486 66.5144 37.5576 67.3196 37.5127 68.7062C37.4678 69.6903 38.3204 70.898 39.1281 71.6584C39.846 72.3294 40.9678 72.6425 41.955 72.9556C42.7178 73.224 43.5704 73.224 44.5576 73.3582C43.2114 74.7001 41.8653 74.2528 40.5191 74.0291C39.7563 73.8949 38.9037 73.8502 38.2306 74.0739C37.2435 74.387 36.3909 75.0579 35.4037 75.4158C32.846 76.2657 30.2435 77.1603 27.4614 76.713C27.1922 76.6682 26.6537 77.1603 26.6089 77.4287C26.3845 78.9495 27.1024 80.1125 28.1345 81.2308C29.1665 82.349 30.1089 82.6174 31.455 81.7228C32.1281 81.2755 32.9358 81.0518 33.6986 80.7387ZM41.4165 89.327C38.9935 90.4005 36.8396 91.3846 34.6409 92.2792C33.8332 92.637 33.6089 93.1738 33.9678 93.8448C34.8204 95.5445 35.7627 97.1995 36.6601 98.8546C36.8845 99.2572 37.1089 99.7045 37.1986 100.152C37.5127 102.165 37.7371 104.222 38.1409 106.235C38.8589 109.814 40.1601 113.213 42.0448 116.344C42.9871 117.91 43.4806 117.955 44.6922 116.613C45.814 115.405 46.846 114.152 47.9678 112.945C48.2371 112.632 48.6409 112.408 49.0448 112.229C50.4358 111.648 50.6153 110.485 49.5832 109.277C45.2306 104.133 42.2691 98.3625 41.6858 91.5635C41.5512 90.8925 41.5063 90.1321 41.4165 89.327ZM67.1281 167.605C64.6601 169.305 64.6601 169.305 63.314 167.784C62.1922 169.529 60.6217 170.289 58.5576 170.021C56.8076 169.752 55.0127 167.695 55.3717 166.04C55.4614 165.548 56.0896 165.145 56.4486 164.743C56.673 165.145 56.8973 165.548 57.1217 165.95C57.2114 166.174 57.1217 166.532 57.2563 166.621C57.9294 167.248 58.5576 168.008 59.3204 168.321C60.2627 168.679 60.6665 167.784 61.0255 166.979C61.3845 166.085 61.8332 165.235 62.1473 164.34C62.4614 163.356 62.955 163.311 63.5832 163.982C64.346 164.787 65.0191 165.637 65.7819 166.532C66.5896 166.04 67.4422 165.503 68.4294 164.922C65.3781 163.848 62.5512 163.043 59.8589 161.835C57.1217 160.627 54.564 159.062 51.9614 157.675C50.5255 159.554 50.3012 160.627 51.3781 162.372C52.7691 164.698 54.2948 166.934 55.955 169.126C57.346 170.96 59.1858 172.347 61.4294 173.152C65.8717 174.718 70.2691 174.181 74.7114 173.107C77.0448 172.57 79.3332 171.989 81.6665 171.318C82.1153 171.184 82.7435 170.692 82.7435 170.334C82.7435 167.784 81.2627 166.263 78.7948 165.995C78.346 165.95 77.9422 165.861 77.4935 165.816C75.0255 165.548 72.6024 165.279 70.2691 165.011C69.8653 166.442 69.2819 167.695 69.1473 168.992C69.1024 169.752 69.5512 171.005 70.1794 171.318C71.3012 171.855 73.4101 170.468 74.0832 169.26C74.3076 168.858 74.846 168.679 75.2499 168.411C75.3396 168.903 75.6537 169.484 75.5191 169.887C74.8012 172.034 72.0191 173.555 69.7755 173.152C67.9358 172.839 66.9486 171.452 67.173 169.529C67.0832 168.947 67.0832 168.366 67.1281 167.605ZM38.096 72.8661C36.2114 70.8085 35.1794 68.9299 37.1089 66.6933C38.7242 64.8147 40.8781 64.2779 43.2563 64.5463C42.9871 62.1308 41.3268 60.6994 38.9037 60.7889C37.3332 60.8784 35.8076 61.1467 34.2819 61.3704C31.3204 61.773 28.7178 63.1149 26.5191 65.0383C23.8268 67.409 23.5576 72.0163 25.9358 74.5659C26.1153 74.7896 26.5191 74.8343 26.7883 74.9685C29.2563 75.9526 31.5896 74.9685 33.9678 74.4764C35.2691 74.2975 36.5255 73.5371 38.096 72.8661ZM160.461 85.6143C161.583 87.493 161.583 87.4036 164.455 89.1033C167.776 91.0267 170.109 90.0874 172.442 87.4483C172.801 87.0457 173.25 86.4642 173.205 86.0169C173.115 84.5408 172.981 83.02 172.487 81.6781C171.231 78.2785 168.449 76.2657 165.218 74.8343C162.615 73.6713 160.013 72.9109 157.186 74.1186C156.019 74.6554 155.122 75.3711 155.077 76.8024C159.878 78.1443 160.641 78.3233 161.179 79.3968C162.122 81.2755 163.064 82.5727 160.461 85.6143ZM125.641 194.712C126.942 194.712 128.288 194.802 129.635 194.667C130.442 194.623 131.205 194.265 132.147 193.996C132.551 194.712 133.179 195.786 133.808 196.859C133.942 196.814 134.032 196.725 134.167 196.68C133.808 195.115 132.731 193.594 133.763 191.849C134.211 193.236 134.615 194.533 135.019 195.875C135.154 195.875 135.288 195.83 135.423 195.83C136.141 193.907 136.186 191.894 136.051 189.881C135.872 187.689 135.782 185.542 137.218 183.619C138.07 182.501 138.833 181.248 139.596 180.085C140.314 178.967 141.077 177.849 141.795 176.73C141.705 176.641 141.57 176.551 141.481 176.462C140.224 177.491 138.923 178.385 137.756 179.548C136.635 180.667 135.692 182.009 134.66 183.261C134.526 183.172 134.391 183.082 134.256 182.993C135.423 181.293 136.59 179.593 137.756 177.849C137.173 177.178 136.635 176.507 136.051 175.836C128.513 180.354 124.654 187.51 125.641 194.712ZM50.9294 73.9397C52.3204 73.2687 53.3524 72.8214 54.3396 72.2399C54.7435 72.0163 55.1024 71.4795 55.2371 71.0322C55.8653 68.572 56.3589 66.0224 57.0319 63.5622C57.4807 61.9966 58.1537 60.4758 58.7371 58.955C56.8076 58.3735 55.2819 58.8208 54.2948 60.2074C53.1281 61.8624 52.1409 63.6964 51.2883 65.5303C50.5704 67.1406 50.0768 68.8404 49.6281 70.5402C49.2691 71.8821 49.2242 73.2687 50.2563 74.5659C50.4358 73.0003 50.6601 71.4795 50.8396 69.9139C50.9294 69.9139 51.0191 69.9587 51.1537 69.9587C51.064 71.1217 51.0191 72.3294 50.9294 73.9397ZM102.846 129.003C102.667 128.958 102.487 128.913 102.263 128.869C102.038 129.495 101.635 130.121 101.545 130.747C101.006 134.415 101.096 138.128 102.038 141.662C102.667 143.943 104.102 146.045 105.224 148.148C106.66 150.787 108.904 152.129 111.91 151.86C113.615 151.726 115.365 151.413 116.891 150.787C119.179 149.847 121.288 148.595 123.487 147.432C123.218 147.029 123.083 146.985 123.038 147.029C122.814 147.119 122.634 147.253 122.41 147.387C119.583 148.908 116.711 150.16 113.526 150.876C110.34 151.592 108.096 150.16 106.211 148.148C104.102 145.866 103.16 142.825 102.756 139.828C102.352 136.965 102.622 134.058 102.622 131.15C102.667 130.479 102.756 129.763 102.846 129.003ZM54.2499 123.456C54.1601 123.367 54.1153 123.322 54.0255 123.233C53.8909 123.322 53.6665 123.367 53.5768 123.501C52.0063 125.738 50.4358 128.019 48.8204 130.3C48.0576 131.374 47.2948 132.492 46.3524 133.387C45.3204 134.371 44.1537 134.192 43.5255 132.895C42.8973 131.553 42.4486 130.166 42.0896 128.735C41.6409 126.811 41.4165 124.888 41.1024 122.964C40.564 126.095 40.8332 129.182 41.9999 132.134C43.6601 136.339 46.173 135.31 48.2371 132.671C48.3268 132.537 48.3717 132.447 48.4614 132.313C49.9422 130.076 51.423 127.885 52.8589 125.648C53.3524 124.888 53.8012 124.172 54.2499 123.456ZM113.615 129.227C112.673 134.952 118.058 142.154 122.814 141.304C116.846 139.336 113.481 135.578 113.615 129.227ZM136.949 174.449C137.442 175.12 137.936 175.746 138.385 176.373C138.474 176.328 138.609 176.238 138.699 176.194C138.923 174.896 139.102 173.555 139.327 172.257C139.237 172.213 139.147 172.168 139.058 172.123C138.429 172.839 137.756 173.555 136.949 174.449Z" fill="#FFC2EE"/>
<path d="M83.2817 89.7295C85.8843 89.9084 86.9163 91.4292 87.724 93.2185C88.801 95.5445 88.9804 98.0494 88.6215 100.554C88.1279 103.73 87.6343 106.995 86.6022 110.037C86.0189 111.692 84.4484 113.168 82.9676 114.242C81.3522 115.45 79.2433 114.287 79.0638 112.274C78.5702 106.503 78.7945 100.823 81.3971 95.455C81.8458 94.5604 82.3394 93.6658 83.0125 92.9054C83.6856 91.966 84.224 91.1161 83.2817 89.7295Z" fill="#FFC2EE"/>
<path d="M110.52 78.0101C109.936 78.3232 109.443 78.7258 108.904 78.9047C106.257 79.6204 103.564 80.2466 100.917 81.007C100.02 81.2754 99.3016 81.9464 98.449 82.3042C98.1349 82.4384 97.731 82.3042 97.3721 82.3042C97.5067 81.9911 97.5067 81.5438 97.731 81.3649C100.289 79.3073 102.891 77.2497 105.987 76.0867C107.513 75.5052 109.039 75.8183 109.891 76.9366C110.071 77.1602 110.205 77.4286 110.52 78.0101Z" fill="#FFC2EE"/>
<path d="M73.2305 70.7639C74.6664 69.4219 76.0574 69.4219 77.2241 70.6297C79.1984 72.6425 79.9164 75.2817 80.8138 77.8313C80.9484 78.2339 80.41 78.9496 80.1407 79.4863C79.692 79.1732 79.1535 78.9048 78.8394 78.5023C77.2241 76.3999 75.6535 74.2528 74.083 72.1058C73.8138 71.7032 73.5446 71.2559 73.2305 70.7639Z" fill="#FFC2EE"/>
<path d="M112.583 53.9451C112.853 54.8397 112.897 55.5554 113.301 56.0474C114.423 57.4788 114.199 58.9996 113.795 60.5205C113.705 60.923 112.987 61.5045 112.628 61.4598C112 61.4151 111.013 61.0572 110.833 60.6099C109.891 58.2839 110.788 56.1369 112 54.124C112.09 53.9451 112.538 53.9898 112.583 53.9451ZM112.494 57.0762C112.269 57.0762 112.045 57.0762 111.82 57.0762C111.82 58.105 111.82 59.0891 111.82 60.1179C112.045 60.1179 112.269 60.1179 112.494 60.1179C112.494 59.1338 112.494 58.105 112.494 57.0762Z" fill="#FFC2EE"/>
<path d="M80.2304 49.0248C79.0189 50.0983 77.8073 51.2613 76.5061 52.2006C76.0573 52.5585 75.2048 52.648 74.6663 52.469C74.3522 52.3796 73.9484 51.1718 74.0381 51.1271C74.9804 50.4562 75.9676 49.4721 76.9548 49.4721C77.8522 49.4721 78.3907 49.2484 79.0638 48.8459C79.3779 48.6669 79.7817 48.7564 80.1855 48.7117C80.1855 48.8459 80.1856 48.9353 80.2304 49.0248Z" fill="#FFC2EE"/>
<path d="M122.903 54.0793C123.576 54.9292 124.339 55.6449 124.698 56.4948C124.968 57.1658 124.923 58.1051 124.698 58.8208C124.609 59.1339 123.711 59.2234 123.128 59.3128C122.903 59.3576 122.589 59.1339 122.41 58.9102C121.557 58.0156 121.871 54.974 122.903 54.0793Z" fill="#FFC2EE"/>
<path d="M103.699 56.6289C103.609 56.8078 103.564 57.121 103.43 57.2104C100.558 59.0444 97.6863 60.8783 94.7696 62.5781C94.2311 62.8912 93.3786 62.6676 92.7055 62.5781C92.526 62.5781 92.3914 62.1755 92.2119 61.9519C92.4363 61.8177 92.6606 61.5046 92.8401 61.5046C95.8465 61.9519 97.8658 59.8048 100.244 58.5971C101.411 58.0156 102.443 57.121 103.52 56.4053C103.564 56.5395 103.609 56.5842 103.699 56.6289Z" fill="#FFC2EE"/>
<path d="M100.647 84.9881C103.519 83.8698 106.436 82.7516 109.308 81.6333C109.397 81.8122 109.442 81.9911 109.532 82.1701C106.615 83.2436 103.699 84.3171 100.782 85.3907C100.737 85.2565 100.692 85.1223 100.647 84.9881Z" fill="#FFC2EE"/>
<path d="M86.5573 55.4661C87.0509 56.9869 87.4996 58.5525 88.0381 60.2075C86.5124 59.8497 85.7047 57.5237 86.5573 55.4661Z" fill="#FFC2EE"/>
<path d="M96.4746 76.3998C97.1477 74.7448 98.5387 73.7607 99.9746 72.7766C100.064 72.8661 100.154 72.9555 100.244 73.045C99.122 74.2975 98.0451 75.5499 96.9233 76.7576C96.7887 76.6234 96.6541 76.4892 96.4746 76.3998Z" fill="#FFC2EE"/>
<path d="M74.936 82.1253C73.904 80.3361 72.8719 78.5916 71.8848 76.8918C73.2758 77.2497 75.2053 80.3808 74.936 82.1253Z" fill="#FFC2EE"/>
<path d="M83.6412 72.911C83.2374 71.748 82.8335 70.585 82.4297 69.4668C82.5643 69.422 82.7438 69.3326 82.8784 69.2878C83.6861 70.2719 84.4938 71.3007 84.2246 72.6874C84.0451 72.7768 83.8656 72.8216 83.6412 72.911Z" fill="#FFC2EE"/>
<path d="M83.102 117.418C81.1276 118.447 80.0058 118.223 79.1084 116.747C80.4546 116.97 81.7558 117.194 83.102 117.418Z" fill="#FFC2EE"/>
<path d="M103.43 59.3575C102.398 60.2073 101.366 61.0125 100.333 61.8624C100.199 61.6835 100.064 61.5045 99.8848 61.3256C100.962 60.5205 101.994 59.7153 103.071 58.9102C103.205 59.0443 103.34 59.2233 103.43 59.3575Z" fill="#FFC2EE"/>
<path d="M77.2239 80.6941C76.7303 79.6653 76.2367 78.5918 75.6982 77.563C75.8329 77.4735 75.9675 77.4288 76.1021 77.3394C76.6406 78.3682 77.179 79.397 77.7175 80.4258C77.5829 80.5152 77.4034 80.6047 77.2239 80.6941Z" fill="#FFC2EE"/>
<path d="M56.6731 172.302C55.9551 173.376 55.2372 174.405 54.5192 175.478C54.4295 175.389 54.3397 175.344 54.25 175.254C54.8333 174.047 55.2372 172.794 56.6731 172.302C56.6731 172.302 56.718 172.302 56.6731 172.302Z" fill="#FFC2EE"/>
<path d="M63.6729 144.569C70.628 142.735 81.8908 144.524 83.8203 147.835C77.3139 144.569 70.5831 144.211 63.6729 144.569Z" fill="#FFC2EE"/>
<path d="M64.705 142.377C68.3396 142.467 72.0639 141.885 75.5639 143.138C75.5639 143.317 75.5191 143.451 75.5191 143.63C73.7242 143.361 71.9293 143.048 70.1345 142.914C68.2947 142.78 66.455 142.869 64.6152 142.869C64.6601 142.69 64.6601 142.556 64.705 142.377Z" fill="#FFC2EE"/>
<path d="M129.41 125.246C126.718 129.182 123.128 132.671 123.712 138.173C122.231 137.636 122.5 136.697 122.59 135.891C122.904 133.297 124.16 131.105 125.641 129.048C126.718 127.572 127.974 126.274 129.141 124.888C129.231 125.022 129.321 125.111 129.41 125.246Z" fill="#FFC2EE"/>
</g>
<defs>
<clipPath id="clip0_201_1309">
<rect width="125" height="205" fill="white"/>
</clipPath>
</defs>
</svg>
