<svg width="139" height="133" viewBox="0 0 139 133" fill="none" xmlns="http://www.w3.org/2000/svg">
<g clip-path="url(#clip0_201_1375)">
<path d="M260.043 67.4939C222.085 60.0609 186.44 46.3872 152.589 27.7847C152.509 27.8245 152.469 27.904 152.39 27.9437C152.509 28.3412 152.669 28.7784 152.828 29.1759C153.466 30.8454 154.144 32.4751 154.782 34.1843C154.981 34.7805 155.3 34.8998 155.819 34.7408C160.643 33.2701 163.354 36.4102 164.072 40.2659C164.67 43.406 164.311 46.4667 163.753 49.5274C163.753 49.6069 163.713 49.7261 163.713 49.8056C163.713 49.8454 163.793 49.9249 163.873 50.0839C164.152 49.8454 164.391 49.6069 164.63 49.3684C166.943 46.8642 169.375 44.3998 172.525 42.9688C173.801 42.3726 175.196 41.9751 176.592 41.7366C178.506 41.4186 180.22 43.0881 180.26 45.4332C180.26 47.8182 180.14 50.2826 179.662 52.6278C178.027 60.4186 175.196 67.8516 172.166 75.1655C168.777 83.3537 165.188 91.4625 161.759 99.6111C161.122 101.161 160.882 102.87 160.364 104.46C159.487 107.243 158.291 109.827 156.377 112.052C154.622 114.04 152.509 115.391 149.718 115.073C147.964 114.875 146.528 114 145.292 112.768C144.774 112.211 144.336 112.172 143.658 112.529C138.993 115.073 134.089 116.942 128.865 117.856C128.028 118.015 127.51 118.412 127.151 119.287C125.755 122.586 123.483 125.329 121.09 127.912C119.894 129.184 118.658 130.416 117.382 131.688C117.183 131.887 116.904 132.046 116.625 132.205C116.545 132.126 116.465 132.086 116.386 132.006C116.505 131.728 116.625 131.45 116.784 131.211C118.897 127.873 120.811 124.454 121.888 120.638C121.968 120.32 122.047 120.002 122.087 119.684C122.247 119.009 121.928 118.81 121.29 118.85C115.229 119.207 109.288 118.492 103.387 117.339C100.875 116.862 98.4034 116.147 95.9712 115.511C94.9744 115.232 94.4162 115.391 93.6985 116.226C92.3429 117.816 90.8676 119.406 89.193 120.638C86.3621 122.665 83.2521 122.506 80.4611 120.519C78.8663 119.406 77.4707 117.935 76.0354 116.584C73.4437 114.159 70.9318 111.655 68.38 109.23C60.2861 101.638 52.1921 94.0462 44.0982 86.4144C43.54 85.8977 43.221 85.9374 42.7026 86.4542C38.0775 90.906 33.4524 95.3579 28.7874 99.8098C28.309 100.287 28.2292 100.486 28.9868 100.724C30.7013 101.201 31.6582 102.513 31.5784 104.142C31.4987 105.534 30.4222 106.806 28.9868 107.124C27.3122 107.521 25.8369 106.845 25.0794 105.335C24.8401 104.818 24.7604 104.262 24.561 103.586C20.5739 106.607 16.7861 109.628 12.8786 112.529C9.01108 115.391 5.14353 118.174 1.03675 120.678C0.917132 120.599 0.837388 120.519 0.717773 120.44C0.957003 119.486 1.15636 118.492 1.43546 117.538C3.3493 111.258 5.94096 105.216 9.48954 99.6906C14.1944 92.2575 19.1784 84.9834 24.0028 77.6299C25.6774 75.1257 27.2723 72.5818 28.9868 70.0776C29.3456 69.5211 29.3456 69.1236 28.9868 68.5671C27.2723 65.8642 25.8369 63.042 25.1591 59.9019C25.0395 59.4249 24.9598 58.9479 24.9199 58.4311C24.7604 56.4834 25.0395 56.1654 26.9533 55.8077C29.4254 55.3705 31.6981 55.9667 33.9707 56.8412C35.1669 57.3182 36.3232 57.8747 37.4795 58.4709C38.1174 58.7889 38.4762 58.7491 38.875 58.1131C45.1747 48.2157 52.7104 39.3516 61.3626 31.4416C66.1073 27.109 71.0913 23.0546 76.155 19.1194C80.6206 15.6613 85.3653 12.5609 90.0303 9.30144C92.1037 7.87048 94.0175 6.20102 96.2104 4.96881C102.71 1.07341 109.926 0.119433 117.462 0.795165C122.645 1.27215 127.629 2.54412 132.613 4.01483C134.846 4.65081 137.238 4.84956 139.551 5.32655C143.737 6.24077 147.924 7.11525 152.031 8.26797C157.055 9.69893 162.078 11.2094 166.983 12.9583C172.086 14.7868 177.15 16.7742 182.134 18.9207C191.743 23.0148 201.033 27.7847 210.084 32.9521C219.573 38.3579 228.824 44.1215 237.715 50.4019C245.051 55.5692 252.228 61.0148 259.445 66.3014C259.764 66.5399 260.003 66.8182 260.282 67.0567C260.203 67.2157 260.123 67.3349 260.043 67.4939ZM215.546 37.1257C215.586 37.0462 215.626 36.9667 215.706 36.8872C214.988 36.45 214.27 35.973 213.553 35.5357C204.98 30.6069 196.328 25.9563 187.357 21.8621C180.061 18.5232 172.684 15.4228 165.069 12.8788C160.244 11.2491 155.34 9.77843 150.436 8.42696C146.568 7.35374 142.661 6.55876 138.714 5.68429C136.481 5.2073 134.168 4.9688 131.975 4.33282C126.473 2.74286 120.971 1.3914 115.189 1.15291C109.607 0.914412 104.185 1.62989 99.0413 3.89558C93.6188 6.36002 89.3126 10.1759 85.8039 14.9855C83.0129 18.8014 80.8997 22.9751 79.1454 27.3475C77.2315 32.1571 75.7961 37.086 74.7196 42.1341C73.8424 46.2282 73.1646 50.4019 72.6064 54.5357C72.0083 58.9479 71.49 63.3998 71.171 67.8516C70.7723 72.9793 70.7324 78.1069 70.2938 83.2345C70.1742 84.4667 70.6128 85.0232 71.3305 85.6989C72.0482 86.3349 72.6861 87.0504 73.4038 87.7261C73.3241 87.8056 73.2443 87.8851 73.1646 88.0044C72.8855 87.8056 72.5665 87.6069 72.2874 87.3286C70.8919 86.0169 69.5363 84.6654 68.1009 83.3537C60.924 76.6362 53.6275 69.9981 45.6133 64.2345C41.4268 61.2136 37.1206 58.3119 32.0968 56.7617C30.1032 56.1655 28.1096 55.768 26.0363 56.5232C25.3983 56.7617 25.0794 57.1194 25.199 57.7554C25.518 59.1864 25.7173 60.6173 26.1559 62.0085C27.5514 66.1027 29.9836 69.6403 32.5752 73.019C38.9946 81.2868 46.6101 88.4416 54.2256 95.5964C54.385 95.7554 54.6243 95.8747 54.8236 95.9939C54.7439 95.5567 54.5047 95.2387 54.3053 94.9207C53.0294 92.973 51.8333 91.0253 51.2751 88.7198C51.0358 87.7659 50.996 86.8516 51.7535 86.1362C52.4712 85.4207 53.4281 85.5002 54.2654 85.8579C55.342 86.2952 56.4185 86.7324 57.3754 87.3684C61.8012 90.2303 65.3099 94.0462 68.3003 98.3788C69.616 100.327 70.852 102.354 71.171 104.739C71.4103 106.527 70.5331 107.442 68.7787 107.163C67.9813 107.044 67.1839 106.726 66.3864 106.527C66.3067 106.647 66.1871 106.726 66.1073 106.845C66.4662 107.084 66.8649 107.283 67.1839 107.561C70.6527 110.9 74.1215 114.278 77.5904 117.657C78.3081 118.333 79.0257 119.009 79.8232 119.605C83.2521 122.228 86.9203 122.149 90.1499 119.287C91.4657 118.134 92.5422 116.703 93.6586 115.391C94.0574 114.914 94.3763 114.596 95.0542 114.755C96.5693 115.193 98.1243 115.67 99.6793 115.948C103.946 116.743 108.212 117.617 112.518 118.134C115.508 118.492 118.539 118.253 121.569 118.293C122.526 118.293 122.924 118.571 122.685 119.287C121.808 121.791 120.891 124.335 119.934 126.799C119.575 127.674 119.057 128.509 118.618 129.343C118.698 129.383 118.778 129.463 118.858 129.502C119.535 128.787 120.213 128.071 120.891 127.356C123.283 124.653 125.596 121.91 126.951 118.452C127.111 118.055 127.669 117.617 128.108 117.538C132.215 116.743 136.162 115.55 139.95 113.841C141.345 113.205 142.701 112.45 144.136 111.734C143.618 110.86 143.179 110.145 142.781 109.389C142.9 109.31 142.98 109.27 143.1 109.191C143.418 109.668 143.737 110.105 144.096 110.582C145.572 112.569 147.286 114.278 149.878 114.596C152.31 114.875 154.184 113.682 155.739 111.973C157.852 109.707 159.088 106.925 160.005 103.983C160.484 102.393 160.803 100.724 161.401 99.1341C162.158 97.1466 163.155 95.2784 163.952 93.3307C167.9 83.632 171.927 73.973 175.715 64.1947C177.628 59.3454 179.144 54.2973 179.742 49.0901C179.941 47.5002 179.742 45.8705 179.462 44.2805C179.223 42.8098 178.067 42.0546 176.632 42.2533C175.316 42.4521 173.96 42.8098 172.764 43.3663C169.375 44.9562 166.823 47.5399 164.431 50.3224C160.723 54.6152 157.613 59.3454 154.862 64.314C151.552 70.3558 148.442 76.5567 145.253 82.678C145.133 82.9165 144.934 83.155 144.734 83.3537C144.655 83.314 144.575 83.2742 144.495 83.2345C144.575 83.0357 144.615 82.837 144.694 82.6383C146.489 78.9813 148.243 75.3244 150.117 71.7073C153.466 65.268 157.055 58.9876 161.401 53.1843C162.039 52.3098 162.637 51.3558 162.956 50.3621C163.314 49.1299 163.394 47.8182 163.554 46.5462C163.873 43.9625 163.873 41.4186 163.115 38.8747C162.158 35.814 159.646 34.3035 156.496 34.9793C154.822 35.337 153.386 36.132 152.15 37.245C148.682 40.3056 146.648 44.3203 144.814 48.4542C144.655 48.8119 144.415 49.1696 144.256 49.5274C144.176 49.4876 144.056 49.4479 143.977 49.4081C144.056 49.1696 144.056 48.8914 144.176 48.6529C144.934 47.0232 145.611 45.3935 146.489 43.8433C148.363 40.5044 150.476 37.3245 153.905 35.337C154.104 35.2178 154.224 34.5818 154.144 34.2638C152.629 29.9709 150.795 25.7973 148.442 21.8621C144.734 15.6613 140.069 10.4542 133.211 7.59224C133.012 7.51274 132.853 7.31399 132.693 7.155C133.012 6.996 133.251 6.996 133.411 7.11525C134.647 7.71148 135.843 8.34747 137.039 8.9437C137.438 9.14244 137.876 9.26169 138.355 9.38094C141.505 10.0964 144.694 10.5337 147.725 11.4876C153.307 13.2366 158.49 15.9395 163.474 19.0002C163.673 19.1194 163.913 19.1592 164.391 19.3579C163.833 18.1257 163.354 17.1717 162.916 16.2178C162.995 16.1383 163.075 16.0588 163.115 15.9793C181.217 21.5441 198.561 28.8977 215.546 37.1257ZM139.352 10.0169C139.312 10.1362 139.272 10.2554 139.232 10.3747C139.71 10.7722 140.189 11.1696 140.667 11.5671C145.253 15.4228 148.442 20.2722 151.114 25.5588C151.512 26.3935 151.991 26.95 152.908 27.427C160.364 31.1236 167.621 35.1383 175.156 38.7157C182.333 42.1341 189.63 45.2345 197.006 48.2554C202.389 50.4814 207.891 52.429 213.393 54.337C218.935 56.2449 224.517 57.9939 230.139 59.7031C234.087 60.8956 238.114 61.9688 242.101 62.9625C246.527 64.0755 250.992 65.0295 255.458 66.0629C256.455 66.3014 257.451 66.4604 258.488 66.6592C258.568 66.5399 258.608 66.4207 258.688 66.2617C258.488 66.1424 258.289 66.0629 258.089 65.9437C256.654 64.8307 255.219 63.7178 253.743 62.6445C247.165 57.9144 240.626 53.1843 234.007 48.5337C230.578 46.1487 227.109 43.8433 223.481 41.7763C220.132 39.8684 216.583 38.1989 213.074 36.609C204.342 32.6738 195.611 28.6194 186.719 25.0023C179.542 22.0609 172.086 19.6759 164.79 17.0922C164.59 17.0127 164.311 17.0525 163.913 17.0127C164.431 18.0065 164.83 18.8412 165.228 19.6759C165.348 19.9144 165.268 20.1927 165.268 20.4709C165.029 20.3914 164.75 20.3914 164.55 20.2722C163.434 19.6362 162.318 18.9604 161.201 18.2847C155.46 14.9458 149.439 12.2031 142.9 10.6927C141.704 10.3747 140.508 10.2157 139.352 10.0169ZM1.31585 119.406C1.43546 119.486 1.55508 119.525 1.67469 119.605C1.87405 119.525 2.11328 119.446 2.27277 119.327C8.45288 114.875 14.633 110.423 20.7334 105.891C22.6073 104.5 22.4877 104.858 21.0922 103.069C20.534 102.393 20.7334 102.036 21.2916 101.519C23.1257 99.8495 24.9199 98.1403 26.754 96.4709C27.1128 96.1529 27.5115 95.8747 27.9103 95.5169C28.4286 96.1131 28.9469 96.5901 29.3456 97.1466C29.864 97.8621 30.3026 97.8621 30.9405 97.2261C34.6486 93.5692 38.3965 89.9918 42.1046 86.3349C43.0615 85.4207 42.9817 85.4207 42.0647 84.3872C39.3136 81.3663 36.5624 78.3056 33.8113 75.2449C33.0138 74.3705 32.336 73.4165 31.5784 72.4625C31.3392 72.701 31.1797 72.8203 31.0601 72.9793C27.6312 76.8349 24.0427 80.5713 20.7732 84.5462C14.1147 92.496 8.41301 101.082 4.46571 110.701C3.26956 113.563 2.35251 116.504 1.31585 119.406ZM87.7178 11.7261C87.638 11.6864 87.5982 11.6069 87.5184 11.5671C87.2792 11.6864 87.0399 11.8056 86.8406 11.9249C79.3846 17.0127 72.1678 22.3788 65.4295 28.3412C55.7008 36.927 47.0088 46.427 39.9515 57.3182C38.6756 59.3056 38.3965 58.8286 40.6692 60.2596C41.347 60.6968 41.7856 60.5776 42.3039 60.1006C43.4203 59.1069 44.5766 58.1529 45.693 57.1989C49.122 54.2972 52.5908 51.3956 56.0597 48.5337C56.2989 48.3349 56.6179 48.3349 56.9368 48.2157C56.9368 48.5337 57.0166 48.8119 56.9767 49.1299C56.8172 50.1236 56.6577 51.1173 56.4584 52.1111C57.0166 51.9123 57.3754 51.5943 57.6944 51.2763C63.8745 44.6383 70.0546 38.0002 76.2347 31.3621C77.1518 30.3684 77.8695 29.3747 78.3878 28.0629C80.3415 22.8558 82.8534 17.927 86.3621 13.5148C86.7608 12.8788 87.2393 12.2826 87.7178 11.7261ZM76.9923 31.6404C76.8727 31.5609 76.7929 31.4416 76.6733 31.3621C76.3942 31.7199 76.1151 32.0776 75.836 32.4353C69.4964 39.2324 63.1568 46.0692 56.8172 52.8663C56.578 53.1048 56.259 53.3035 55.9799 53.5023C55.9002 53.4625 55.8204 53.383 55.7407 53.3433C55.94 51.9918 56.1394 50.6006 56.4185 49.0106C56.0198 49.2491 55.8204 49.3684 55.6211 49.4876C51.3149 53.1048 47.0088 56.7617 42.7026 60.3788C42.0647 60.9353 42.1843 61.1738 42.7824 61.6111C46.7696 64.5922 50.7966 67.6132 54.7439 70.6738C56.2191 71.7868 56.1793 71.8663 57.3754 70.3956C57.4153 70.3558 57.4552 70.2763 57.495 70.2366C61.9208 64.5525 66.3067 58.7889 70.852 53.1843C72.2476 51.4751 72.7659 49.6864 73.1646 47.6592C73.8026 44.2408 74.6 40.8621 75.3974 37.4834C75.836 35.5358 76.4341 33.588 76.9923 31.6404ZM70.7324 104.46C70.5331 103.904 70.2141 102.711 69.6559 101.638C67.144 96.7094 63.5157 92.7345 59.2494 89.2763C57.6147 87.9646 55.8603 86.6926 53.7072 86.2952C52.3516 86.0169 51.5542 86.7324 51.8333 88.1236C52.0326 89.0378 52.232 90.0316 52.6706 90.8663C55.4616 96.5504 59.6082 101.082 64.7118 104.739C65.8681 105.573 67.2237 106.209 68.5794 106.686C70.0147 107.084 70.7723 106.448 70.7324 104.46ZM69.6559 84.0295C69.8154 83.791 69.8553 83.7512 69.8553 83.7115C70.1344 78.4646 70.3736 73.2178 70.6527 67.9709C70.6926 67.2952 70.3736 67.0169 69.7755 67.0567C68.4199 67.1759 67.0244 67.1759 65.7485 67.4939C62.6385 68.2491 59.8873 69.7596 57.2558 71.4688C57.0166 71.6278 56.8571 71.9855 56.6577 72.2638C57.0565 72.5023 57.4552 72.7805 57.8938 72.9395C58.0532 72.9793 58.2925 72.7805 58.5317 72.701C60.8841 71.6675 63.5555 72.7408 64.3131 75.2052C64.6321 76.2387 64.5125 77.3914 64.6321 78.5044C64.6719 78.8621 64.5922 79.3391 64.7916 79.5378C66.3864 81.0483 68.0212 82.519 69.6559 84.0295ZM58.6912 69.5211C58.7709 69.6006 58.8108 69.6801 58.8905 69.7596C59.1696 69.6403 59.4487 69.5211 59.688 69.3621C62.8777 67.6529 66.1871 66.3014 69.8951 66.5399C70.5729 66.5797 70.7324 66.2617 70.8122 65.6655C71.2906 61.4918 71.7691 57.3182 72.2476 53.1445C72.2874 52.9458 72.1678 52.747 72.1279 52.3098C67.5427 58.2324 63.1169 63.8767 58.6912 69.5211ZM28.1096 106.726C29.7842 106.726 31.0202 105.534 31.0202 103.864C31.0202 102.393 29.6646 101.082 28.1096 101.082C26.7141 101.082 25.199 102.552 25.199 103.944C25.2389 105.534 26.5147 106.726 28.1096 106.726ZM22.7269 104.182C23.0459 103.944 23.325 103.824 23.5642 103.626C25.1591 102.314 26.754 100.963 28.309 99.6111C29.7842 98.3391 29.7444 98.2993 28.3887 96.8286C27.9501 96.3516 27.671 96.3119 27.1926 96.7491C25.4382 98.4186 23.644 100.009 21.8896 101.678C21.6504 101.916 21.3713 102.433 21.4909 102.632C21.77 103.188 22.2485 103.626 22.7269 104.182ZM29.5849 69.9583C26.9533 73.973 24.3218 77.9876 21.6504 82.0023C21.7301 82.042 21.8099 82.1215 21.8498 82.1613C22.089 81.9228 22.3282 81.6445 22.5276 81.406C24.9598 78.7429 27.352 76.0797 29.7842 73.4165C31.2595 71.8265 31.2595 71.8265 29.864 70.1173C29.9038 70.1173 29.864 70.0776 29.5849 69.9583ZM63.7549 78.5441C64.6719 77.3516 64.1935 75.0462 62.8378 73.7742C61.562 72.5818 59.5285 72.5023 58.2526 73.655C60.0867 75.2847 61.9208 76.9144 63.7549 78.5441Z" fill="#FFC2EE"/>
<path d="M116.665 133L115.708 132.245L115.907 131.807C115.947 131.728 115.987 131.648 116.027 131.569C116.106 131.37 116.226 131.171 116.346 130.933C118.22 127.991 120.293 124.494 121.369 120.519C121.409 120.32 121.449 120.161 121.489 119.962C121.529 119.843 121.529 119.724 121.569 119.565C121.569 119.525 121.569 119.485 121.569 119.445C121.529 119.445 121.449 119.445 121.369 119.445C116.066 119.763 110.484 119.286 103.308 117.935C101.035 117.498 98.7621 116.862 96.5692 116.265L95.8515 116.067C95.1338 115.868 94.775 115.908 94.2168 116.623C92.9409 118.134 91.3859 119.843 89.5917 121.115C86.6412 123.222 83.2919 123.182 80.1421 121.035C78.8263 120.121 77.67 119.008 76.5536 117.935C76.2346 117.617 75.9555 117.339 75.6366 117.06C74.4005 115.908 73.1645 114.715 71.9684 113.523C70.6526 112.251 69.297 110.939 67.9812 109.707C64.4725 106.408 60.9239 103.069 57.4152 99.7697C52.83 95.4768 48.2846 91.1839 43.6994 86.891C43.5 86.6923 43.4203 86.6923 43.4203 86.6923C43.4203 86.6923 43.3405 86.732 43.1412 86.9308C38.835 91.0646 34.2896 95.3973 29.2658 100.207C31.1398 100.803 32.2562 102.314 32.1764 104.182C32.0967 105.851 30.8208 107.362 29.1063 107.719C27.1526 108.157 25.3983 107.362 24.5211 105.613C24.3616 105.295 24.2819 104.977 24.1622 104.619C23.2053 105.374 22.2085 106.13 21.2516 106.845C18.5005 108.991 15.8689 110.979 13.1577 113.006C9.64895 115.59 5.54216 118.571 1.27589 121.194L0.917049 121.393L0 120.678L0.0797434 120.32C0.159487 120.002 0.23923 119.724 0.279102 119.406C0.438588 118.73 0.598075 118.054 0.797434 117.378C2.87076 110.542 5.54216 104.659 8.89138 99.3722C12.1609 94.2446 15.55 89.117 18.8593 84.1483C20.3744 81.8826 21.8896 79.5772 23.4047 77.2718C24.0028 76.3178 24.6407 75.4036 25.2388 74.4496C26.2754 72.8994 27.3121 71.2697 28.3488 69.7195C28.588 69.3617 28.588 69.2425 28.3488 68.845C26.2754 65.5458 25.0394 62.8031 24.4413 59.981C24.3217 59.504 24.242 58.9872 24.2021 58.4308C24.0028 56.2048 24.5211 55.5688 26.7539 55.1713C29.5848 54.6944 32.1366 55.4893 34.0903 56.2446C35.406 56.7613 36.6421 57.3575 37.6787 57.8743C38.0775 58.073 38.0775 58.073 38.2768 57.7153C44.417 48.0165 52.0325 38.9935 60.8442 30.9245C65.1105 27.0291 69.8153 23.0939 75.6764 18.5626C78.7466 16.1776 82.016 13.9119 85.2058 11.7655C86.6412 10.7718 88.1164 9.73829 89.5917 8.74457C90.2695 8.26758 90.9473 7.7906 91.5852 7.27386C92.9409 6.28014 94.3364 5.20691 95.8116 4.37219C101.992 0.794781 109.089 -0.596432 117.502 0.158798C122.885 0.675534 127.988 2.027 132.773 3.41821C134.049 3.77595 135.444 4.01445 136.76 4.21319C137.717 4.37219 138.714 4.53118 139.67 4.72993L141.624 5.16717C145.093 5.9224 148.681 6.71737 152.19 7.7111C157.772 9.26131 162.676 10.8115 167.182 12.4015C171.967 14.1107 176.911 16.0584 182.373 18.3638C191.344 22.1797 200.515 26.7906 210.403 32.3952C220.57 38.1588 229.621 43.8826 238.074 49.8847C243.257 53.5416 248.44 57.3973 253.464 61.0939C255.577 62.6441 257.691 64.2341 259.804 65.7843C260.043 65.9433 260.242 66.1818 260.442 66.3408C260.522 66.4203 260.601 66.4998 260.681 66.5793L261 66.8973L260.362 68.0898L259.923 68.0103C232.771 62.6839 205.778 53.8994 179.263 41.8157C179.303 41.8157 179.303 41.8554 179.343 41.8554C180.3 42.6504 180.858 43.9224 180.898 45.3534C180.898 48.255 180.698 50.5605 180.3 52.6672C178.625 60.7362 175.515 68.6065 172.764 75.3241C170.85 79.9747 168.817 84.6651 166.903 89.1964C165.428 92.6546 163.873 96.232 162.397 99.7697C162.038 100.684 161.799 101.598 161.56 102.632C161.401 103.268 161.241 103.943 161.042 104.579C160.005 107.878 158.689 110.383 156.895 112.37C154.662 114.874 152.39 115.908 149.718 115.59C147.964 115.391 146.409 114.596 144.934 113.125C144.615 112.807 144.495 112.728 144.017 113.006C139.152 115.669 134.088 117.498 129.025 118.412C128.387 118.531 128.028 118.809 127.749 119.485C126.393 122.705 124.32 125.328 121.569 128.309C120.612 129.343 119.575 130.376 118.618 131.33L117.861 132.086C117.661 132.284 117.462 132.404 117.263 132.523C117.183 132.563 117.103 132.602 117.063 132.682L116.665 133ZM121.29 117.657C121.409 117.657 121.569 117.657 121.688 117.657C122.247 117.657 122.924 117.736 123.243 118.213C123.483 118.531 123.522 118.968 123.323 119.445C122.446 122.029 121.569 124.374 120.692 126.68C123.004 124.096 125.157 121.473 126.433 118.213C126.672 117.617 127.39 117.06 128.028 116.941C132.175 116.146 136.122 114.914 139.71 113.284C140.667 112.847 141.584 112.37 142.541 111.893C142.78 111.774 143.06 111.615 143.299 111.496L141.943 109.19L143.219 108.395L143.857 109.309C144.096 109.627 144.296 109.945 144.535 110.263C145.771 111.973 147.406 113.722 149.918 114.04C151.831 114.278 153.506 113.483 155.26 111.615C157.055 109.707 158.37 107.242 159.407 103.864C159.606 103.268 159.766 102.632 159.925 101.996C160.204 101.002 160.444 99.9684 160.842 98.9747C161.281 97.8617 161.759 96.7885 162.238 95.7153C162.637 94.8806 163.035 94.0061 163.394 93.1316C164.231 91.1044 165.069 89.0375 165.906 87.0103C168.976 79.4977 172.166 71.7069 175.196 63.9956C177.389 58.4308 178.625 53.6609 179.183 49.05C179.343 47.778 179.263 46.3073 178.904 44.3994C178.705 43.2467 177.907 42.6902 176.751 42.8889C175.356 43.0877 174.08 43.4454 173.043 43.9621C169.694 45.5124 167.142 48.1755 164.909 50.7592C161.44 54.7739 158.37 59.3052 155.42 64.6713C153.147 68.8052 150.954 73.0584 148.841 77.1923C147.844 79.14 146.847 81.0877 145.851 82.9956C145.731 83.2341 145.571 83.3931 145.452 83.5521C145.412 83.6316 145.332 83.6713 145.292 83.7508L144.973 84.1881L143.857 83.5521L144.017 83.0751C144.017 83.0354 144.056 82.9559 144.056 82.9161C144.096 82.7571 144.136 82.5981 144.216 82.3994C144.734 81.3262 145.253 80.2927 145.771 79.2195C147.007 76.6755 148.323 74.0521 149.638 71.4684C152.429 66.1421 156.217 59.2257 161.002 52.8262C161.759 51.8324 162.238 50.9977 162.477 50.163C162.756 49.2885 162.836 48.3345 162.956 47.3408C162.995 47.0626 163.035 46.7446 163.035 46.4663C163.394 43.5249 163.275 41.1797 162.597 39.0333C161.72 36.2508 159.527 34.9391 156.696 35.5354C155.22 35.8534 153.865 36.5291 152.629 37.6421C149.12 40.7425 147.087 44.9559 145.452 48.6525C145.332 48.9308 145.173 49.209 145.053 49.4475C144.973 49.5667 144.934 49.6462 144.854 49.7655L144.615 50.2425L143.379 49.7655L143.498 49.2488C143.498 49.1693 143.538 49.0898 143.538 49.05C143.578 48.8513 143.618 48.6128 143.737 48.3743C143.937 47.937 144.136 47.4998 144.335 47.0626C144.894 45.8701 145.452 44.6379 146.09 43.4852C148.203 39.709 150.316 36.7676 153.665 34.8199C153.705 34.7006 153.745 34.5019 153.705 34.4224C152.071 29.8115 150.236 25.7969 148.044 22.14C143.817 15.0647 139.072 10.6128 133.092 8.10859C132.852 7.98934 132.693 7.83035 132.533 7.7111C132.494 7.67135 132.454 7.6316 132.414 7.59185L131.696 6.99562L132.533 6.59813C132.972 6.39938 133.411 6.35963 133.769 6.55838C134.288 6.83662 134.806 7.07512 135.364 7.35336C136.042 7.7111 136.72 8.02909 137.438 8.38683C137.757 8.54583 138.155 8.66507 138.594 8.78432C139.591 9.02281 140.627 9.22156 141.624 9.4203C143.737 9.85754 145.93 10.255 148.004 10.9308C152.748 12.4015 157.613 14.7069 163.235 18.1253L162.318 16.1776L163.035 15.3429L163.434 15.4621C176.831 19.596 190.826 25.0416 205.937 31.958C199.358 28.3408 193.138 25.2006 187.158 22.458C178.785 18.6023 171.727 15.7801 164.909 13.5144C160.125 11.9245 155.22 10.4538 150.316 9.06256C147.246 8.22783 144.056 7.51235 141.026 6.87637C140.229 6.71737 139.431 6.51863 138.674 6.35963C137.797 6.16089 136.919 6.00189 136.042 5.88265C134.687 5.64415 133.251 5.40566 131.896 5.00817C127.071 3.57721 121.33 2.1065 115.269 1.868C109.248 1.62951 104.065 2.50399 99.4001 4.57093C94.2965 6.83662 90.0303 10.3743 86.3621 15.4224C83.8501 18.8806 81.6971 22.8554 79.7832 27.6651C77.9491 32.2362 76.4739 37.2048 75.3973 42.3722C74.5999 46.2278 73.8822 50.2822 73.2841 54.7341C72.6462 59.4642 72.1677 63.7969 71.8488 68.0103C71.6893 70.3554 71.5697 72.7801 71.45 75.1253C71.3304 77.8282 71.2108 80.6504 70.9716 83.3931C70.8918 84.3868 71.1709 84.7843 71.8089 85.3806C72.3272 85.8575 72.8057 86.3345 73.2443 86.8115C73.4436 87.0103 73.643 87.209 73.8423 87.4475L74.2411 87.845L73.2841 88.958L72.8456 88.64C72.7658 88.5605 72.6861 88.5207 72.5665 88.4412C72.3671 88.2822 72.1279 88.1232 71.9285 87.9245C71.2906 87.3282 70.6925 86.732 70.0545 86.1358C69.297 85.3805 68.4995 84.6651 67.742 83.9496C60.884 77.55 53.5078 70.7927 45.3341 64.8701C41.3071 61.9684 37.0009 59.027 32.017 57.4768C30.3423 56.9601 28.3488 56.5228 26.3552 57.2383C25.8368 57.437 25.8767 57.5563 25.9166 57.7948C25.9963 58.1923 26.0761 58.55 26.1558 58.9475C26.3552 59.9412 26.5545 61.0144 26.8735 61.9684C28.3089 66.1421 30.9006 69.799 33.2131 72.7801C38.9945 80.2529 45.8126 86.8513 52.5907 93.2111C51.8332 91.8994 51.1952 90.5082 50.7965 88.9977C50.5573 88.0437 50.4377 86.8115 51.4345 85.8178C51.9927 85.2613 52.9895 84.7446 54.5843 85.4203L54.6641 85.46C55.7406 85.8973 56.8171 86.3345 57.8139 86.9705C62.0005 89.6734 65.6288 93.3303 68.8983 98.14C70.1343 99.9684 71.4899 102.115 71.8886 104.738C72.088 106.09 71.6494 106.845 71.2507 107.242C70.852 107.64 70.1343 108.037 68.8185 107.839C68.6192 107.799 68.4597 107.759 68.3002 107.719C69.9349 109.309 71.5697 110.86 73.2044 112.45C74.879 114.079 76.5138 115.669 78.1884 117.299C78.8662 117.935 79.5839 118.611 80.3813 119.207C83.6109 121.632 87 121.552 89.9505 118.889C90.9473 117.975 91.8643 116.901 92.7415 115.868C92.9808 115.59 93.1801 115.312 93.4193 115.033C93.7782 114.596 94.3763 113.92 95.4528 114.238L96.2104 114.437C97.4464 114.795 98.7223 115.153 99.9982 115.391C100.835 115.55 101.633 115.709 102.47 115.868C105.859 116.504 109.328 117.18 112.797 117.577C114.87 117.816 116.984 117.776 119.057 117.736C119.735 117.696 120.492 117.657 121.29 117.657ZM31.4986 73.3366C31.4986 73.3764 31.4986 73.3764 31.4986 73.3366C30.4221 74.5291 29.3456 75.7216 28.269 76.8743C25.9166 79.458 23.4445 82.1609 21.1719 84.9036C13.8355 93.6881 8.53254 102.194 4.94409 110.899C4.14665 112.847 3.42896 114.874 2.79102 116.822C2.59166 117.378 2.3923 117.975 2.19294 118.531C3.58845 117.537 4.98396 116.504 6.37947 115.51C10.9647 112.211 15.7094 108.753 20.3346 105.335C20.494 105.215 20.6535 105.096 20.7731 105.017C21.0522 104.818 21.3313 104.619 21.451 104.5C21.3712 104.381 21.1719 104.142 21.0124 103.943C20.8928 103.784 20.7333 103.586 20.5339 103.387C19.6567 102.274 20.2149 101.558 20.7731 101.002C21.8896 99.9684 23.0458 98.9349 24.1622 97.9015C24.8401 97.2655 25.5577 96.5898 26.2754 95.9538C26.5545 95.7153 26.7938 95.5165 27.0729 95.278C27.1925 95.1985 27.3121 95.0793 27.4716 94.96L27.9102 94.6023L28.3089 95.0395C28.4684 95.2383 28.6279 95.3973 28.7874 95.5563C29.1462 95.9538 29.4652 96.3115 29.7841 96.709C29.9835 96.9872 30.1031 97.027 30.1031 97.027C30.1031 97.027 30.2227 97.027 30.5018 96.7487C32.5353 94.7613 34.5687 92.7739 36.6022 90.7864C38.2768 89.1567 39.9913 87.4872 41.6659 85.8575C41.8254 85.6985 42.0646 85.4998 42.1444 85.3408C42.0646 85.2216 41.8653 85.0228 41.6659 84.7843L41.5862 84.7048C38.2369 81.0479 35.725 78.2257 33.3327 75.5626C32.7745 74.9663 32.2961 74.3303 31.7777 73.6546C31.7379 73.6149 31.6182 73.4956 31.4986 73.3366ZM65.8281 106.05C65.868 106.09 65.9079 106.13 65.9876 106.209L66.0275 106.169C65.9478 106.13 65.9079 106.09 65.8281 106.05ZM53.1888 86.8115C52.9097 86.8115 52.7104 86.891 52.5907 87.0103C52.4313 87.1693 52.3515 87.527 52.4313 87.9642C52.5907 88.7195 52.7901 89.7132 53.2287 90.5479C55.8203 95.8743 59.7278 100.326 65.1105 104.182C66.1072 104.897 67.3433 105.533 68.8584 106.05C69.1774 106.169 69.5761 106.249 69.8153 106.09C70.0545 105.891 70.214 105.335 70.214 104.579C70.1742 104.42 70.0944 104.261 70.0545 104.063C69.8552 103.466 69.5761 102.632 69.2172 101.876C66.9844 97.4642 63.6352 93.4893 58.9702 89.7132C57.4551 88.481 55.7805 87.2488 53.7071 86.8513C53.4679 86.8115 53.3084 86.8115 53.1888 86.8115ZM28.1494 101.717C27.6311 101.717 27.033 101.996 26.5545 102.473C26.1159 102.91 25.8368 103.466 25.8368 103.943C25.8368 105.176 26.8336 106.13 28.1095 106.13C29.4652 106.13 30.4221 105.215 30.4221 103.864C30.4221 103.347 30.2227 102.83 29.7841 102.393C29.3854 101.956 28.7475 101.717 28.1494 101.717ZM22.049 102.473C22.2484 102.751 22.4876 103.029 22.7667 103.347L22.8066 103.387C22.9262 103.307 23.0458 103.228 23.1256 103.148L24.1224 102.314C25.3584 101.28 26.6343 100.207 27.8703 99.1337C28.269 98.8157 28.7076 98.3785 28.7874 98.2195C28.7475 98.1002 28.3488 97.663 27.9899 97.2257L27.95 97.186C27.8703 97.1065 27.7906 97.027 27.7507 97.027C27.7108 97.0667 27.6709 97.1065 27.5912 97.1462C26.714 97.981 25.8368 98.7759 24.9597 99.5709C24.0825 100.366 23.1654 101.201 22.2883 102.075C22.2085 102.194 22.0889 102.353 22.049 102.473ZM21.4111 82.5584C21.0921 83.0354 20.7731 83.5123 20.494 83.9496C20.8529 83.5123 21.2117 83.0751 21.5706 82.6776L21.4111 82.5584ZM65.3098 79.14C66.4661 80.2927 67.6622 81.3659 68.8983 82.5186L69.3368 82.9161L69.5761 78.345C69.7356 74.8868 69.9349 71.3889 70.0944 67.9308C70.0944 67.732 70.0545 67.6525 70.0545 67.6525C70.0545 67.6525 70.0147 67.6128 69.8552 67.6525C69.5362 67.6923 69.2571 67.6923 68.9381 67.6923C67.9015 67.7718 66.8648 67.8115 65.9079 68.05C62.5985 68.845 59.7278 70.5542 57.6146 71.9454C57.5747 71.9454 57.5747 71.9852 57.5348 72.0249C57.6943 72.1044 57.8538 72.1839 58.0133 72.2634C58.0532 72.2634 58.0532 72.2236 58.093 72.2236C58.1728 72.1839 58.2525 72.1441 58.3323 72.1044C59.648 71.5082 61.1632 71.5082 62.3992 72.1044C63.6352 72.6609 64.5124 73.6944 64.9111 75.0061C65.1503 75.8011 65.1902 76.596 65.1902 77.391C65.1902 77.7488 65.2301 78.1065 65.2301 78.4642C65.2301 78.5835 65.2301 78.663 65.2301 78.7822C65.2699 78.9015 65.2699 79.0605 65.3098 79.14ZM59.2094 73.6944L63.5555 77.5898C63.8346 76.5563 63.3561 75.0856 62.3992 74.2111C61.5619 73.3764 60.2062 73.2174 59.2094 73.6944ZM29.7443 70.8324L25.4381 77.391C26.7539 75.9203 28.1095 74.4496 29.4253 73.0186L29.4652 72.9789C29.9436 72.4224 30.3822 71.9852 30.3822 71.7864C30.3822 71.6274 30.1031 71.2697 29.7443 70.8324ZM42.9019 60.9747C42.9418 61.0144 43.0215 61.0542 43.1013 61.1337C47.7264 64.5918 51.5142 67.4538 55.0628 70.1965L55.1824 70.2759C55.5811 70.5542 55.94 70.8722 56.0994 70.9119C56.1792 70.8722 56.5779 70.4349 56.8969 70.0375L56.9766 69.958C56.9766 69.9182 57.0165 69.9182 57.0165 69.8785C58.2525 68.2885 59.4885 66.6985 60.6847 65.1086C63.8346 61.0542 67.0642 56.8408 70.3735 52.8262C71.6494 51.2362 72.1677 49.5667 72.5665 47.5793C73.1645 44.3199 73.8822 41.14 74.7993 37.4036C75.1182 36.0124 75.517 34.6609 75.9157 33.3094C75.9157 33.3094 75.9157 33.2697 75.9157 33.2299C69.6957 39.9077 63.4757 46.5856 57.2557 53.2634C57.0564 53.5019 56.8171 53.6609 56.6178 53.7801C56.538 53.8199 56.4583 53.8994 56.3785 53.9789L56.0197 54.2571L55.1027 53.6211L55.621 50.322C54.385 51.3554 53.1888 52.3889 51.9528 53.4224C49.0422 55.8471 46.0518 58.391 43.1013 60.8554C42.9817 60.8952 42.9418 60.9349 42.9019 60.9747ZM71.5697 54.0584L60.4056 68.3282C63.1169 66.937 66.3066 65.7446 69.9349 65.9433C70.0944 65.9433 70.1343 65.9433 70.1742 65.9433C70.1742 65.9433 70.214 65.8638 70.214 65.6253C70.4931 63.0814 70.8121 60.5772 71.0912 58.0333C71.2507 56.7216 71.4102 55.4098 71.5697 54.0584ZM140.787 10.8513C140.867 10.9308 140.986 11.0103 141.066 11.0898C145.173 14.5479 148.522 19.0395 151.672 25.2801C152.031 25.9956 152.39 26.4726 153.227 26.8701C156.257 28.3806 159.287 29.9705 162.238 31.481C166.544 33.7069 171.01 36.0124 175.475 38.1588C183.011 41.7362 190.746 44.9956 197.285 47.6985C202.987 50.0437 208.728 52.0709 213.632 53.7801C218.457 55.4496 223.6 57.0793 230.339 59.1462C233.768 60.1797 237.595 61.2132 242.3 62.4057C245.649 63.2404 249.039 63.9956 252.348 64.7508C253.464 64.9893 254.541 65.2278 255.657 65.5061C256.056 65.5856 256.495 65.7048 256.933 65.7843C256.694 65.6253 256.495 65.4266 256.255 65.2676C255.338 64.5521 254.421 63.8366 253.464 63.1609C252.148 62.2069 250.833 61.2927 249.517 60.3387C244.374 56.6421 239.031 52.7864 233.728 49.0898C229.701 46.2676 226.352 44.1211 223.242 42.3324C219.733 40.345 216.065 38.6358 212.875 37.2048C211.2 36.4496 209.526 35.6944 207.851 34.9391C200.913 31.799 193.697 28.5395 186.52 25.5981C181.496 23.4517 176.233 21.6232 171.209 19.8743C169.176 19.1588 167.062 18.4433 164.989 17.6881C165.268 18.2446 165.547 18.7613 165.786 19.3178C165.906 19.596 165.906 19.914 165.866 20.1525C165.866 20.232 165.866 20.3115 165.866 20.3513L165.906 21.1462L165.148 20.9475C165.069 20.9475 165.029 20.9077 164.949 20.9077C164.75 20.868 164.511 20.8283 164.271 20.709C163.673 20.3513 163.075 19.9935 162.477 19.6358C161.959 19.3178 161.44 18.9998 160.922 18.7216C154.503 15.0249 148.602 12.5605 142.78 11.209C142.103 11.05 141.425 10.9705 140.787 10.8513ZM39.5926 58.868C39.7521 58.9872 40.071 59.186 40.39 59.3847C40.5495 59.504 40.7489 59.6232 40.9482 59.7425C41.3469 59.981 41.5064 59.981 41.8653 59.6232C42.8222 58.7885 43.819 57.9538 44.7759 57.119L45.6531 56.3638C48.9225 53.6211 52.2718 50.799 55.621 48.0165C55.8602 47.8178 56.1792 47.7383 56.4184 47.6588C56.4982 47.619 56.5779 47.619 56.6577 47.5793L57.4152 47.3011L57.4551 48.096C57.4551 48.1755 57.4551 48.255 57.495 48.3345C57.5348 48.573 57.5348 48.8115 57.495 49.0898C57.4152 49.6065 57.3355 50.163 57.2557 50.6797C59.8474 47.8973 62.4789 45.0751 65.0706 42.2927C68.6192 38.4768 72.2076 34.6609 75.7562 30.845C76.753 29.7718 77.3511 28.8178 77.7896 27.7446C79.9028 22.14 82.4148 17.4893 85.445 13.5144C77.8694 18.7613 71.45 23.7299 65.7883 28.6985C55.2621 37.9998 46.929 47.4601 40.39 57.5563C40.1907 57.8743 40.0312 58.1128 39.8717 58.3115C39.7919 58.5898 39.6723 58.7488 39.5926 58.868ZM158.131 33.7069C159.287 33.7069 160.324 33.9852 161.241 34.5416C162.956 35.5751 164.192 37.5626 164.67 40.1065C165.228 43.0479 164.989 45.9098 164.55 48.573C166.743 46.1881 169.176 43.8031 172.365 42.3722C173.641 41.7759 175.077 41.3785 176.592 41.1002C176.99 41.0207 177.389 41.0207 177.748 41.1002C169.574 37.3241 161.44 33.2299 153.386 28.8178C153.386 28.8575 153.426 28.8973 153.426 28.8973C153.626 29.4538 153.865 30.0103 154.064 30.5667C154.503 31.64 154.941 32.7927 155.34 33.9057C155.38 34.0647 155.42 34.1044 155.46 34.1044C155.46 34.1044 155.539 34.1044 155.659 34.0647C156.496 33.8659 157.334 33.7069 158.131 33.7069ZM216.144 37.2843C216.503 37.4433 216.862 37.6421 217.221 37.8011C216.862 37.6023 216.543 37.4036 216.184 37.1651L216.144 37.2843Z" fill="#FFC2EE"/>
<path d="M96.1701 16.1382C96.21 10.5733 100.795 6.1612 106.537 6.20095C112.079 6.2407 116.624 10.8913 116.584 16.3767C116.505 21.862 111.88 26.3537 106.218 26.2742C100.516 26.1549 96.0106 21.6235 96.1701 16.1382ZM98.5226 10.7323C95.4524 14.3892 96.2499 20.5503 100.157 23.5712C104.663 27.0692 110.962 26.1947 114.232 21.6633C117.342 17.3307 116.186 11.2491 111.64 8.2679C107.773 5.76371 102.35 6.67794 100.795 8.70513C102.869 9.26162 103.546 10.0963 103.387 11.7658C103.267 12.9185 102.31 13.8725 101.154 13.952C99.8782 14.0712 99.1206 13.1968 98.5226 10.7323ZM99.32 11.4081C99.32 12.521 99.9978 13.3558 100.995 13.3558C102.071 13.3955 102.948 12.4813 102.948 11.3286C102.948 10.3348 102.031 9.34112 101.114 9.34112C100.078 9.30137 99.32 10.2156 99.32 11.4081Z" fill="#FFC2EE"/>
<path d="M106.377 26.8703C106.298 26.8703 106.258 26.8703 106.178 26.8703C103.188 26.8306 100.437 25.6381 98.443 23.5314C96.4893 21.5042 95.4925 18.8808 95.5324 16.1381C95.5723 13.2762 96.6887 10.613 98.762 8.6653C100.835 6.67785 103.547 5.60463 106.497 5.64438C109.328 5.68413 112.039 6.7971 114.033 8.86404C116.066 10.931 117.143 13.5942 117.103 16.4163C117.063 19.1988 115.907 21.8222 113.873 23.8096C111.88 25.7573 109.208 26.8703 106.377 26.8703ZM98.3234 12.0837C97.4861 13.5147 97.1273 15.3034 97.3266 17.0921C97.5659 19.5168 98.762 21.703 100.596 23.0942C102.669 24.6841 105.181 25.3599 107.693 25.0021C110.165 24.6444 112.318 23.3327 113.794 21.3055C115.189 19.3578 115.747 16.9728 115.269 14.5879C114.83 12.1632 113.435 10.0963 111.322 8.74479C108.132 6.67785 103.866 7.07534 101.912 8.4268C103.547 9.10254 104.145 10.136 103.945 11.8055C103.786 13.2762 102.63 14.4289 101.194 14.5481C99.5993 14.7071 98.8019 13.5544 98.3234 12.0837ZM99.9183 11.408C99.9183 12.203 100.357 12.7594 100.995 12.7594C101.314 12.7594 101.673 12.6402 101.912 12.4017C102.191 12.1235 102.35 11.7657 102.35 11.3285C102.35 10.6527 101.713 9.93726 101.114 9.93726C100.835 9.93726 100.596 10.0565 100.397 10.2553C100.078 10.4937 99.9183 10.931 99.9183 11.408Z" fill="#FFC2EE"/>
<path d="M101.872 38.9146C102.111 39.5505 102.191 39.9878 102.43 40.3455C103.068 41.2597 104.105 41.4982 105.062 41.4585C106.577 41.4187 108.092 41.1802 109.607 40.9417C111.84 40.5443 114.073 40.0673 116.226 39.63C116.425 43.6447 116.704 47.5401 116.824 51.4355C116.904 55.1321 116.904 58.8685 115.748 62.4459C115.508 63.1614 115.11 63.8371 114.631 64.3936C113.674 65.4668 112.319 65.3079 111.521 64.1154C110.405 62.5652 109.807 60.7765 109.408 58.9083C108.252 53.7012 108.172 48.4145 108.172 43.0882C108.172 41.8162 108.172 41.8957 106.896 41.856C105.62 41.8162 104.304 41.7765 103.068 41.4982C101.992 41.2597 101.474 40.0673 101.872 38.9146ZM116.306 50.9982C116.146 48.3748 115.947 44.9166 115.748 41.4585C115.668 40.3455 115.468 40.1865 114.432 40.425C112.837 40.7827 111.282 41.1802 109.687 41.4585C108.89 41.5777 108.65 41.9355 108.65 42.6907C108.65 47.9773 108.73 53.3037 109.886 58.471C110.285 60.2995 111.122 62.0882 111.96 63.7576C112.478 64.8309 113.555 64.8706 114.312 63.9166C114.791 63.3204 115.15 62.5652 115.389 61.8497C116.386 58.63 116.186 55.2116 116.306 50.9982Z" fill="#FFC2EE"/>
<path d="M113.156 65.6655C113.116 65.6655 113.076 65.6655 112.997 65.6655C112.239 65.6257 111.521 65.1885 111.003 64.4333C110.006 63.0023 109.289 61.2931 108.81 59.0274C107.654 53.6613 107.574 48.2157 107.574 43.0881C107.574 42.8893 107.574 42.6508 107.574 42.4918C107.455 42.4918 107.255 42.4918 107.096 42.4918H106.896C105.541 42.4521 104.225 42.4123 102.949 42.0943C102.311 41.9354 101.793 41.5379 101.474 40.9814C101.115 40.3056 101.035 39.5107 101.314 38.7157L101.833 37.1257L102.431 38.6759C102.51 38.9144 102.59 39.1132 102.63 39.2722C102.71 39.5902 102.79 39.8287 102.909 39.9877C103.308 40.5839 104.026 40.8621 105.022 40.8224C106.338 40.7826 107.734 40.6236 109.488 40.3056C111.043 40.0274 112.638 39.7094 114.153 39.3914C114.791 39.2722 115.469 39.1132 116.107 38.9939L116.785 38.8747L116.824 39.5504C116.904 40.7826 116.944 41.9751 117.024 43.2073C117.183 46.0295 117.343 48.6529 117.422 51.3956C117.502 55.2115 117.502 58.9876 116.306 62.6048C116.067 63.3998 115.588 64.155 115.03 64.7512C114.512 65.3475 113.834 65.6655 113.156 65.6655ZM115.07 40.9416C114.99 40.9416 114.831 40.9416 114.552 41.0211C114.193 41.1006 113.794 41.1801 113.435 41.2596C112.239 41.5379 111.003 41.8161 109.767 42.0149C109.289 42.0943 109.249 42.1738 109.249 42.6508C109.249 47.7387 109.329 53.1446 110.445 58.3119C110.844 60.1404 111.721 61.9291 112.478 63.4793C112.558 63.6383 112.757 63.9563 113.037 63.996C113.276 64.0358 113.555 63.8768 113.834 63.5588C114.233 63.042 114.592 62.4061 114.831 61.6906C115.628 59.1466 115.668 56.4835 115.708 53.383C115.708 52.6278 115.708 51.8328 115.748 50.9981L115.19 41.4584C115.15 41.1404 115.11 41.0211 115.07 40.9416Z" fill="#FFC2EE"/>
<path d="M117.144 29.5733C119.097 25.2804 133.371 23.8097 136.96 27.5063C133.611 26.5523 130.301 25.5984 126.753 25.8766C123.164 26.1151 120.054 27.5063 117.144 29.5733Z" fill="#FFC2EE"/>
<path d="M115.708 31.3222L116.625 29.3348C117.861 26.6319 122.606 25.5586 124.56 25.2009C129.105 24.4059 135.046 24.6842 137.398 27.0691L138.953 28.6591L136.601 27.9833C133.291 27.0691 130.181 26.1549 126.832 26.4331C123.682 26.6716 120.652 27.8641 117.542 30.0503L115.708 31.3222Z" fill="#FFC2EE"/>
<path d="M84.4082 37.046C86.4815 33.7071 89.5517 32.0377 93.3793 31.7197C95.7318 31.5209 100.596 32.4352 101.433 33.5481C98.2437 32.5147 95.2134 31.9582 92.1034 32.3954C88.9137 32.8724 86.5214 34.7406 84.4082 37.046Z" fill="#FFC2EE"/>
<path d="M84.8466 37.4436L83.8896 36.7281C85.963 33.3892 89.1527 31.4812 93.3392 31.0838C95.5721 30.885 100.835 31.7197 101.912 33.1507L102.988 34.6214L101.234 34.0649C97.6454 32.9122 94.8544 32.5545 92.183 32.952C89.5913 33.3892 87.3186 34.7407 84.8466 37.4436Z" fill="#FFC2EE"/>
<path d="M102.55 17.3306C102.669 14.7072 104.424 12.2825 106.657 11.7658C108.65 11.3285 110.325 12.044 111.601 13.634C113.196 15.6612 113.315 18.6423 111.84 20.7888C110.763 22.3787 109.248 23.1737 107.374 23.0147C105.221 22.816 103.826 21.5042 103.068 19.5168C102.789 18.8411 102.709 18.0461 102.55 17.3306ZM112.518 17.4896C112.438 17.4499 112.398 17.4101 112.318 17.4101C112.279 16.9331 112.239 16.4959 112.159 16.0189C111.8 14.1109 110.205 12.4812 108.291 12.203C106.417 11.9645 105.022 12.839 104.025 14.3494C102.749 16.2574 102.949 19.2783 104.504 20.9875C106.457 23.134 109.727 22.975 111.242 20.59C111.88 19.7155 112.119 18.5231 112.518 17.4896Z" fill="#FFC2EE"/>
<path d="M107.813 23.611C107.654 23.611 107.454 23.611 107.295 23.5713C105.022 23.3725 103.348 22.0211 102.47 19.7156C102.271 19.1989 102.152 18.6424 102.072 18.1257C102.032 17.8872 101.992 17.6884 101.952 17.45V17.3705V17.291C102.072 14.3495 104.065 11.7261 106.537 11.1696C108.73 10.6926 110.604 11.4081 112.04 13.2366C113.794 15.4625 113.914 18.6822 112.319 21.0671C111.202 22.7763 109.647 23.611 107.813 23.611ZM107.694 12.7596C106.458 12.7596 105.421 13.3956 104.544 14.7073C103.388 16.4165 103.587 19.1194 104.982 20.6299C105.82 21.5441 106.976 22.0211 108.172 21.9416C109.249 21.8621 110.206 21.2659 110.804 20.3516C111.163 19.7554 111.402 19.0797 111.641 18.3642C111.681 18.2052 111.761 18.0064 111.8 17.8474L111.761 17.5294C111.761 17.3705 111.721 17.2115 111.721 17.0922C111.681 16.7742 111.681 16.496 111.601 16.2177C111.282 14.5085 109.847 13.1173 108.252 12.8788C108.053 12.7596 107.853 12.7596 107.694 12.7596Z" fill="#FFC2EE"/>
</g>
<defs>
<clipPath id="clip0_201_1375">
<rect width="139" height="133" fill="white"/>
</clipPath>
</defs>
</svg>
