<svg width="130" height="241" viewBox="0 0 130 241" fill="none" xmlns="http://www.w3.org/2000/svg">
<g clip-path="url(#clip0_201_1361)">
<path d="M-3.25912 70.563C-3.93163 70.2262 -4.50806 69.9375 -5.03646 69.6007C-7.19809 68.2054 -8.49506 66.0884 -9.64793 63.8271C-11.6655 59.8337 -11.4733 55.7441 -9.93615 51.7026C-9.50382 50.596 -8.87935 49.5375 -8.15881 48.6715C-6.57362 46.7951 -4.89235 45.0149 -2.58661 43.9083C0.15145 42.5612 3.03362 42.513 5.86775 43.1385C10.143 44.1008 13.1693 46.4583 14.13 50.9809C14.13 51.0772 14.2741 51.1734 14.3702 51.2696C16.0034 50.3555 17.5886 49.4894 19.2218 48.5753C22.152 46.8913 25.4185 46.2177 28.6369 45.3998C31.6632 44.63 34.7375 44.4376 37.8118 45.3517C39.5411 45.881 41.2704 46.4102 42.9997 46.8432C43.384 46.9394 43.9124 46.8913 44.2967 46.6989C46.7946 45.5442 49.1484 44.197 51.6943 43.2828C53.4716 42.6093 55.4891 42.4168 57.4106 42.2244C60.581 41.9357 63.7514 41.9357 66.8737 42.5612C67.1139 42.6093 67.6423 42.08 67.6903 41.7913C67.8825 40.781 67.8344 39.7225 67.9785 38.7121C68.3148 36.6432 69.5637 35.0555 70.8127 33.4197C73.3106 30.148 76.8172 28.897 80.516 28.1753C83.5423 27.598 86.4244 28.5121 89.1145 29.9555C93.2936 32.2168 95.5033 35.7772 96.2719 40.2998C96.7042 42.7055 96.3199 45.1593 95.2631 47.2762C94.1583 49.4413 94.7347 51.3177 95.5033 53.2904C95.8876 54.2526 96.5601 55.0224 97.3767 55.7922C100.307 58.4866 103.141 61.5177 103.333 65.7035C103.429 67.9167 104.774 69.2639 105.303 71.0922C106.215 74.0752 106.311 77.0582 105.735 80.0412C105.399 81.8214 104.726 83.5535 104.054 85.1893C103.477 86.5365 104.294 87.5469 104.486 88.7497C104.966 91.5403 105.543 94.3308 106.023 97.1214C106.311 98.7572 106.6 100.393 106.888 102.029C107.464 105.493 107.993 109.005 108.569 112.469C109.049 115.645 109.578 118.82 110.01 121.996C110.25 124.017 110.394 126.037 110.491 128.058C110.635 132.051 110.971 136.045 110.827 139.99C110.683 144.128 111.019 148.266 110.346 152.451C109.818 155.723 109.818 159.043 109.434 162.315C109.194 164.383 108.617 166.356 108.281 168.425C108.233 168.81 108.329 169.339 108.569 169.724C109.53 171.264 110.875 172.659 111.451 174.295C112.412 177.133 111.884 179.972 110.106 182.426C109.77 182.859 108.665 183.292 108.473 183.099C107.897 182.57 107.945 181.848 108.521 181.079C109.29 180.068 109.77 178.865 109.098 177.566C107.464 174.583 105.303 172.274 101.796 171.649C100.691 171.456 99.4903 171.6 98.3854 171.6C96.6081 171.649 96.464 171.504 96.416 169.724C96.416 169.532 96.3679 169.339 96.3679 169.147C95.4552 169.628 94.2063 172.13 94.3024 173.044C94.4945 174.68 94.6867 176.267 94.7347 177.903C94.9268 183.003 95.0229 188.055 95.167 193.155C95.2631 196.86 95.3111 200.516 95.2631 204.221C95.2631 204.798 94.8308 205.52 94.3984 205.953C93.1495 207.108 91.8045 208.166 90.4114 209.177C87.8175 211.101 85.1755 213.074 82.4855 214.854C81.7169 215.383 80.6601 215.528 79.6994 215.672C77.2976 215.961 74.8958 216.346 72.4939 216.346C70.4764 216.346 68.5069 215.864 66.4894 215.672C64.3758 215.48 62.3103 215.383 60.1967 215.335C59.8124 215.335 59.332 215.864 58.9958 216.201C56.594 219.088 54 221.734 50.8296 223.803C50.6375 223.947 50.3973 224.092 50.3012 224.284C48.4759 227.604 45.2094 229.192 42.1351 231.02C41.6067 231.357 41.0302 231.645 40.5979 232.079C38.1 234.292 35.6982 236.649 33.0562 238.67C31.6151 239.777 29.7417 240.546 27.9644 240.883C25.5146 241.364 23.5931 239.825 23.0647 236.89C22.5843 234.244 23.3049 231.838 24.4578 229.577C25.8508 226.834 27.6281 224.236 28.8771 221.397C30.03 218.751 31.5671 216.49 33.4405 214.373C33.6327 214.18 33.8248 213.892 34.065 213.844C36.4668 213.411 36.5148 211.101 37.4275 209.513C37.5236 209.321 37.0913 208.647 36.755 208.455C35.1698 207.637 33.5846 206.819 31.9034 206.146C31.471 205.953 30.7985 206.097 30.3182 206.29C29.0212 206.771 27.7723 207.397 26.5233 207.974C26.2351 208.118 25.8988 208.359 25.7067 208.647C23.497 211.438 20.4227 212.833 17.1082 213.796C16.3877 213.988 15.5711 213.651 14.8025 213.747C13.8418 213.844 12.881 213.94 11.9684 214.229C9.61458 215.046 7.35688 216.153 4.95507 216.779C1.97683 217.5 -1.09749 217.933 -4.12377 218.318C-5.56486 218.511 -7.00594 218.078 -8.15881 217.019C-8.87935 216.346 -9.26364 214.18 -8.68721 213.026C-7.53434 210.764 -6.23736 208.647 -4.31591 206.867C-2.20232 204.895 0.0553773 203.307 2.45719 201.767C3.03362 201.382 3.2738 200.516 3.75416 199.987C6.25205 197.293 8.99011 194.887 12.833 194.31C13.8898 194.165 14.178 193.492 13.6496 192.53C12.4487 190.413 11.1998 188.296 10.0469 186.082C9.51851 185.072 9.23029 183.917 8.99011 182.811C8.94207 182.522 9.47047 181.993 9.80672 181.8C10.5753 181.367 10.7674 180.886 10.2871 180.068C8.50975 176.7 7.74117 173.092 7.6451 169.291C7.59706 168.232 6.87652 166.885 7.98135 166.116C8.79796 165.538 9.95083 165.394 11.0076 165.201C14.4662 164.48 17.8768 163.806 21.3354 163.084C22.152 162.94 22.9686 162.796 23.9294 162.651C22.2001 158.61 21.7677 154.665 21.3834 150.623C21.0952 147.303 21.4315 144.128 22.5363 141.049C22.7765 140.327 22.6324 139.942 21.9118 139.701C19.6541 138.98 17.3964 138.306 15.1387 137.536C12.6889 136.767 10.239 135.949 7.83724 135.131C6.92455 134.794 6.49223 134.168 7.16473 133.302C8.07742 132.1 8.99011 130.897 10.0469 129.79C10.6714 129.117 10.7674 128.684 10.143 127.914C8.79796 126.278 7.50099 124.401 7.6451 122.284C7.74117 120.456 8.50974 118.628 9.23029 116.848C9.56654 115.934 9.75869 115.693 8.60582 115.308C7.35688 114.875 6.10794 114.202 5.14721 113.335C3.8022 112.133 2.21701 111.748 0.631812 111.17C0.00734151 110.93 -0.665166 110.737 -1.2416 110.449C-1.91411 110.112 -2.15429 110.208 -2.2984 110.93C-3.06698 116.078 -3.93163 121.178 -4.65217 126.326C-5.08449 129.405 -5.18057 132.484 -5.46878 135.564C-5.66093 137.969 -5.99718 140.375 -6.09325 142.781C-6.18933 145.138 -6.14129 147.544 -6.14129 149.901C-6.14129 152.499 -6.14129 155.098 -6.09325 157.696C-6.04522 161.112 -6.04522 164.528 -5.85307 167.944C-5.51682 173.092 -5.08449 178.192 -4.60413 183.34C-4.50806 184.639 -4.07574 185.89 -3.97966 187.189C-3.88359 188.873 -4.50806 189.258 -5.99718 188.632C-8.06274 187.766 -9.93615 188.44 -11.7615 189.306C-13.779 190.268 -15.4123 191.712 -16.7573 193.444C-17.8621 194.839 -17.9582 197.966 -16.9494 199.458C-15.9407 200.901 -14.9319 202.297 -12.9144 202.489C-12.6742 202.489 -12.2419 203.114 -12.2899 203.307C-12.386 203.644 -12.8183 204.029 -13.1546 204.077C-14.8839 204.413 -16.2769 203.692 -17.3818 202.393C-18.1503 201.479 -18.967 200.613 -19.6395 199.698C-21.2247 197.437 -21.8491 195.031 -21.0805 192.193C-20.36 189.354 -18.4866 187.478 -16.7092 185.361C-16.4691 185.072 -16.325 184.543 -16.421 184.254C-16.9014 182.618 -17.5739 181.031 -18.0062 179.395C-18.8709 176.075 -19.7836 172.755 -20.408 169.387C-21.0325 165.971 -21.4648 162.507 -21.8491 159.043C-22.2814 155.001 -22.7138 151.008 -22.954 146.967C-23.0981 143.935 -22.8579 140.856 -22.8579 137.777C-22.9059 132.34 -21.8491 127.048 -21.1766 121.707C-20.6963 117.906 -19.7355 114.25 -18.5827 110.593C-17.0935 105.83 -15.5083 101.115 -13.8751 96.3997C-13.3948 94.9563 -12.6742 93.6572 -12.0978 92.2619C-11.9056 91.7808 -11.7135 91.1553 -11.7615 90.6742C-12.386 87.1139 -11.3772 83.794 -10.3204 80.4261C-9.26364 77.0582 -7.19809 74.4601 -4.84431 72.0545C-4.65217 71.4771 -3.97966 71.1403 -3.25912 70.563ZM72.4459 59.4488C72.3018 59.4007 72.2057 59.3526 72.0616 59.3526C72.0616 58.9677 71.8695 58.4866 72.0136 58.1979C73.2145 55.3111 74.2713 52.3762 75.7604 49.6338C76.8652 47.5649 76.4809 47.9498 74.8958 47.0357C74.6075 46.8432 74.2232 46.7951 73.887 46.6508C72.8782 46.1696 71.8695 46.0253 70.9087 46.7951C69.1794 48.1904 67.4501 49.6338 65.7689 51.0772C64.1837 52.4243 62.6946 53.8677 61.1574 55.3111C61.0613 55.263 60.9172 55.2149 60.8212 55.1668C60.8692 54.8781 60.8211 54.4451 61.0133 54.2526C63.223 51.847 65.4807 49.4413 67.7384 47.0357C68.2187 46.5064 68.7471 45.9772 69.2275 45.4479C69.1314 45.3517 69.0353 45.2074 68.9873 45.1111C68.0746 45.5923 67.21 46.1215 66.2973 46.6027C63.6072 48.046 61.3015 49.9706 59.1399 52.0875C58.7556 52.4724 58.3713 53.1941 57.6508 52.5687C59.6202 49.2489 62.6946 47.0838 65.5287 44.5819C62.8387 44.3894 60.2928 44.3413 57.7468 44.4376C53.3275 44.5819 49.2925 46.0253 45.6417 48.5753C45.0172 49.0083 43.8644 49.297 43.2399 49.0083C39.7333 47.4206 36.1306 46.7951 32.2396 47.1319C28.1085 47.4687 24.1695 48.2866 20.5188 50.2111C18.8856 51.0772 17.3004 52.1357 15.7152 53.0979C15.7152 53.2904 15.7632 53.4828 15.7632 53.6753C19.3659 54.0121 22.7765 54.9262 25.5626 57.3319C24.9862 58.4866 24.2176 57.8611 23.5931 57.5724C20.4227 56.0809 17.1082 55.2149 13.6016 55.696C12.833 55.7922 12.3046 55.9847 12.6409 56.8507C13.0251 57.7649 13.4575 58.679 13.9859 59.497C15.2348 61.4696 16.5798 63.3941 17.8768 65.3667C18.0209 65.6073 17.9248 66.0884 17.9729 66.4252C17.6847 66.329 17.2523 66.329 17.0602 66.1366C15.1868 63.779 13.3614 61.3734 11.536 59.0158C11.2958 58.7271 11.0557 58.4385 10.6714 57.9573C10.5753 58.4385 10.5273 58.6309 10.5273 58.8234C10.5273 59.0158 10.5273 59.2083 10.5753 59.4007C11.2478 61.9507 11.9203 64.4526 13.5055 66.6658C13.7937 67.0507 13.7457 67.6281 13.8418 68.1092C13.6977 68.1573 13.6016 68.1573 13.4575 68.2054C10.9596 66.4733 9.99887 63.6828 8.94207 60.7479C8.55778 61.229 8.36564 61.4696 8.26956 61.662C7.54902 63.0573 6.73241 64.4526 6.15597 65.9441C5.81972 66.8101 4.81096 67.6281 5.57954 68.7828C5.62757 68.879 5.33936 69.312 5.09918 69.4564C4.71489 69.6488 4.28256 69.745 3.89827 69.8894C1.88075 70.7554 -0.232839 71.4771 -2.15429 72.5356C-4.50806 73.8346 -6.2854 75.9516 -7.4863 78.3092C-8.5431 80.3299 -9.40775 82.495 -9.98418 84.7082C-10.6087 87.2101 -10.3204 89.8563 -9.79204 92.4063C-9.64793 93.0799 -9.35971 93.7534 -9.0715 94.7157C-8.83132 94.1384 -8.68721 93.8978 -8.59114 93.6572C-8.5431 93.5129 -8.44703 93.3685 -8.39899 93.2242C-7.77452 89.0865 -5.37271 85.9591 -2.63465 83.0242C-2.34643 82.6874 -1.67392 82.6393 -1.19356 82.495C-1.2416 83.0242 -1.19356 83.5054 -1.33767 83.9865C-1.43375 84.3233 -1.77 84.5157 -1.96214 84.8525C-2.87483 86.344 -3.97966 87.7874 -4.70021 89.4233C-6.09325 92.5987 -6.04522 95.9667 -5.56486 99.3346C-5.18057 101.885 -4.60413 104.386 -2.77876 106.455C-1.77 107.562 -0.809274 108.669 0.920028 108.957C0.77592 108.572 0.727884 108.332 0.631812 108.091C-0.424984 105.301 -0.953382 102.414 0.00734185 99.4789C0.103414 99.1421 0.487703 98.8534 0.77592 98.5648C0.920029 98.9015 1.16021 99.2383 1.16021 99.5751C1.25628 100.922 1.25628 102.269 1.44843 103.617C1.83272 107.081 3.56202 109.823 6.25205 111.94C7.21277 112.71 8.55778 112.951 9.61458 113.624C10.5273 114.202 11.1998 114.057 12.0164 113.528C13.0732 112.806 14.2741 112.469 15.5711 112.421C15.9073 112.421 16.2916 112.469 16.4357 112.469C16.3877 111.796 16.1475 111.074 16.3877 110.834C16.6759 110.497 17.3964 110.401 17.9248 110.401C19.414 110.401 21.2874 109.342 21.5275 108.524C19.5581 107.562 17.5886 106.744 15.7152 105.637C13.6496 104.435 12.4007 101.115 12.9291 98.7572C13.0251 98.3723 13.4094 98.0836 13.6496 97.6987C13.8898 98.0836 14.3702 98.4204 14.3702 98.8053C14.3221 101.692 15.9073 103.569 18.165 104.868C20.1825 105.974 22.3442 106.167 24.4097 104.868C23.5931 104.002 22.7285 103.28 22.104 102.318C19.9424 99.094 20.1345 95.4855 20.6149 91.877C20.6629 91.3478 20.7109 90.7704 20.5188 90.2412C19.7502 87.9318 19.7502 85.5742 20.2786 83.2167C20.4227 82.5912 20.3747 81.4846 21.4315 81.629C21.6717 81.6771 21.9118 82.8799 21.8158 83.5054C21.4795 85.3337 21.5756 87.1138 22.152 88.7978C22.5843 90.0006 23.3049 91.1072 23.9774 92.5506C24.6499 91.0591 25.0342 89.9044 25.7067 88.9421C26.2831 88.0761 26.2831 87.2582 26.1871 86.344C26.091 85.3337 25.9949 84.3233 26.139 83.361C26.1871 82.928 26.8115 82.5431 27.1478 82.1101C27.3399 82.495 27.6762 82.8799 27.7723 83.3129C27.9164 83.9865 27.9164 84.7082 28.0124 85.6705C28.5408 85.2374 28.733 85.045 28.9732 84.8044C30.6544 83.4573 32.3357 82.1582 34.5934 81.8695C35.458 81.7733 35.6982 81.5808 35.458 80.6667C34.7375 77.6356 34.9777 74.7488 36.2266 71.8139C37.2354 69.4082 39.2049 68.3979 41.5106 68.1092C43.6242 67.8686 45.4976 68.6384 46.7946 70.4667C47.2269 71.0441 47.6592 71.6696 48.1396 72.295C48.9562 70.9479 49.5326 69.6969 50.3493 68.5903C51.6462 66.9064 53.3755 65.6554 55.4411 65.2705C57.7949 64.7894 61.2535 65.9922 62.7426 69.1196C64.0396 71.862 64.2798 74.5563 62.7906 77.1544C61.6858 79.079 60.0045 80.4742 57.6508 80.811C57.3625 80.8592 57.1224 81.0516 56.7861 81.1959C57.7468 82.8318 59.1399 83.7459 60.7731 84.4195C63.1749 85.3818 65.6248 85.0931 68.0266 84.5639C70.4764 83.9865 72.3018 82.3988 73.839 80.4742C74.1752 80.0893 74.5115 79.3676 73.5988 79.1752C71.8695 78.7903 70.1402 78.2129 68.4109 78.9346C67.4021 79.3195 66.4414 79.8969 65.3846 80.2818C65.0483 80.4261 64.568 80.2337 64.1356 80.2337C64.2798 79.8007 64.2798 79.2233 64.616 78.9827C65.3365 78.4054 66.2012 77.8761 67.0178 77.4912C69.3716 76.3365 71.8695 76.4327 74.3193 77.1544C75.3281 77.4431 75.4722 76.962 75.3761 76.1922C75.3281 75.6629 74.9438 75.0856 75.0399 74.5563C75.1359 74.0752 75.6163 73.6422 75.9525 73.2092C76.3368 73.5941 76.7692 73.8828 77.0574 74.3158C77.2015 74.5563 77.1054 75.0375 77.1054 75.3743C77.1054 76.2884 77.1054 77.2507 77.1054 78.1648C77.2495 78.1648 77.3936 78.1648 77.5377 78.1648C77.6338 77.5875 77.5858 76.962 77.7779 76.3846C77.922 75.9997 78.2583 75.6629 78.5465 75.3261C78.8347 75.7111 79.3151 76.1441 79.3151 76.529C79.3631 77.395 79.0749 78.261 79.0269 79.1271C79.0269 79.8007 79.267 80.4742 79.4112 81.0997C79.7474 82.6874 80.1797 84.2271 80.4679 85.8148C80.516 86.0554 79.9876 86.4403 79.7474 86.7771C79.5072 86.4884 79.1229 86.2478 79.0269 85.911C78.6426 84.7082 78.3544 83.4573 78.0181 82.3507C75.9045 83.794 73.9831 85.045 71.9175 86.4403C73.887 87.595 75.9045 88.5091 78.2102 88.6535C81.0924 88.8459 83.6383 87.7874 85.9441 86.1516C87.8175 84.8525 89.4988 83.361 89.7389 80.8592C89.787 80.5224 89.883 80.1375 90.0272 79.8488C90.1232 79.6563 90.4114 79.4158 90.6516 79.4158C90.8438 79.4158 91.0839 79.7526 91.132 79.945C91.9966 83.0724 90.6036 85.4299 88.2498 87.1138C86.6646 88.2204 84.9833 89.1346 83.254 90.1931C83.3021 90.3855 83.4462 90.6261 83.4462 90.8186C83.4462 91.0591 83.206 91.3959 83.3021 91.5884C83.4462 91.9252 83.7344 92.3582 84.0226 92.4544C86.6166 92.9355 89.0664 92.5506 91.4202 91.444C92.7652 90.8186 93.9181 90.0006 94.9268 88.894C95.119 88.6535 95.6954 88.7978 96.0797 88.7497C96.0797 89.0865 96.2719 89.5676 96.0797 89.7601C95.2151 90.7704 94.2543 91.7327 93.3416 92.695C92.525 93.561 91.6604 94.427 90.8438 95.2931C90.9398 95.4374 90.9879 95.5336 91.0839 95.678C91.6604 95.4855 92.2849 95.3893 92.7652 95.1006C93.5338 94.6195 94.1583 93.9459 94.8788 93.4167C95.2151 93.1761 95.5993 93.128 95.9836 92.9355C95.9836 93.3204 96.0317 93.7535 95.9356 94.1384C95.7915 94.6676 95.5513 95.1968 95.3592 95.7261C95.9356 95.7261 96.2719 95.5817 96.5601 95.3412C98.8178 93.4648 99.8746 90.9629 100.499 88.2204C101.172 85.1412 100.883 82.1582 99.5383 79.2714C99.0099 78.2129 98.5296 77.1063 98.1453 75.9516C98.0492 75.6148 98.2413 75.1818 98.3374 74.7969C98.6737 74.9412 99.106 74.9894 99.2981 75.2299C99.7305 75.7592 100.211 76.3846 100.451 77.0101C101.364 79.2233 102.18 81.4846 103.093 83.8422C103.285 83.361 103.525 82.8799 103.669 82.3507C103.862 81.7252 103.91 81.0516 104.006 80.378C104.534 77.3469 104.582 74.412 103.429 71.4771C102.709 69.6969 101.412 68.3979 100.259 66.9064C98.5776 64.7894 96.2719 63.8752 93.9661 62.8649C92.2849 62.1432 90.6036 61.9507 88.7782 62.1913C88.49 62.2394 88.1537 61.8545 87.8655 61.6139C88.0577 61.3734 88.1537 60.9403 88.3939 60.8441C89.0664 60.6036 89.7389 60.363 90.4114 60.2668C93.2456 59.93 95.6954 61.1809 98.0492 62.48C99.106 63.0573 100.115 63.8271 101.123 64.5488C99.3942 60.4592 97.0885 56.8988 92.6691 55.4555C89.6429 54.4451 86.5685 53.2904 83.3021 54.6856C83.0139 54.83 82.5335 54.5894 82.1492 54.5413C82.2933 54.1564 82.2933 53.7234 82.5335 53.4347C82.9178 53.0017 83.206 52.5687 82.6776 52.0875C81.7649 51.2215 80.8522 50.3074 79.8435 49.5375C78.7386 48.6715 78.2583 48.8159 77.6338 50.0187C76.1927 52.7611 74.7516 55.5036 73.3106 58.246C73.0704 58.679 72.7341 59.0639 72.4459 59.4488ZM91.5643 97.9874C90.2193 97.6025 88.9223 97.4582 87.8175 96.9289C86.8087 96.4478 86.1362 96.6402 85.2716 97.1695C84.1187 97.8912 82.9658 98.5648 81.7169 99.094C80.2758 99.7676 80.3238 99.6714 80.8042 101.211C81.3326 102.895 81.6208 104.675 81.909 106.407C82.0531 107.321 81.3326 107.851 80.6121 107.947C79.8435 108.043 79.0749 107.802 78.3063 107.658C77.2976 107.514 76.9133 106.888 76.8652 105.83C76.6731 102.606 76.0967 99.527 73.7909 97.0251C72.2538 95.3893 70.4764 94.1865 68.1226 94.6676C65.1924 95.2931 62.4544 96.4478 61.2054 99.4789C60.4369 101.403 59.9565 103.472 59.4761 105.493C59.236 106.407 59.332 107.418 59.1879 108.38C59.1399 108.62 58.7076 109.005 58.4674 109.005C58.2272 109.005 57.8429 108.572 57.7949 108.332C57.6508 106.792 57.3145 105.156 57.6027 103.713C58.4193 99.7676 60.1006 96.1591 63.271 93.5129C67.1139 90.2893 70.9568 89.712 75.3761 92.5506C75.8084 92.8393 76.2408 93.3204 76.6731 93.3685C77.2495 93.4167 77.874 93.128 78.4504 92.8393C78.5465 92.7912 78.4504 91.9252 78.2102 91.7327C77.5858 91.2516 76.8652 90.7223 76.1447 90.5299C73.6948 89.8563 71.4852 88.8459 69.6598 86.9695C69.4196 86.6808 68.9393 86.4884 68.555 86.4884C67.5943 86.5846 66.5855 86.8252 65.6248 86.9214C63.271 87.162 60.9653 87.0176 58.8036 85.8148C55.7774 84.179 54.1922 81.5327 53.5677 78.261C53.4716 77.7318 53.9039 77.1544 54.0961 76.5771C54.4804 76.9139 55.0568 77.1544 55.249 77.5875C55.7293 78.5497 56.5459 78.9346 57.5067 78.8384C60.4849 78.5497 62.7426 74.5082 61.5897 71.7658C61.4456 71.4771 61.2054 71.1884 60.9172 70.996C59.7163 70.2262 58.7556 70.4667 57.1224 71.7177C56.7381 72.0063 55.8254 72.2469 55.6332 72.0545C55.0088 71.4771 55.5372 70.8997 56.0656 70.5148C56.9302 69.8894 57.8909 69.312 58.7556 68.6865C57.939 68.6384 57.0263 68.5903 56.4979 69.0715C55.1529 70.2262 53.8559 71.5733 52.703 72.9205C52.0786 73.6422 51.5982 73.8346 50.7336 73.3054C51.358 70.7554 53.2795 69.2158 55.1048 67.5799C51.9345 68.5903 50.6855 70.4667 49.8209 73.1129C49.5327 73.979 49.6287 74.8931 48.668 75.4224C48.3317 75.6148 48.0916 75.9997 47.8033 76.2884C47.5151 75.9035 47.0828 75.6148 46.9867 75.1818C46.5064 73.4497 45.3055 72.1988 44.0565 71.0441C42.1351 69.312 39.2529 69.6969 38.2922 71.8139C38.7725 71.9101 39.2049 71.9582 39.6852 72.0545C41.1744 72.3431 42.4233 72.9686 43.384 74.2677C43.9604 75.0375 44.4408 75.6148 43.2879 76.2403C43.1438 76.2884 43.1438 76.5771 43.0958 76.7695C42.9997 77.2026 42.9037 77.6356 42.8076 78.1167C42.3272 77.9243 41.7988 77.7799 41.4145 77.4912C40.2136 76.5771 38.9647 76.1441 37.5236 76.7695C37.1393 76.962 36.707 77.6356 36.755 78.0205C37.0432 80.0412 37.2834 82.2063 39.7333 82.9761C39.9254 83.0242 40.1176 83.2648 40.3097 83.4091C41.7028 84.4195 41.7027 84.4676 40.5018 85.7667C41.7508 87.1138 43.1438 88.1723 45.0653 88.2204C46.5544 88.2204 46.6505 88.2205 46.2662 89.6157C46.074 90.1931 45.8819 90.8667 45.5456 91.3478C42.9037 95.1487 39.0608 96.111 34.6895 95.9185C33.7768 95.8704 32.8161 95.9667 31.9514 96.2072C29.8858 96.7846 27.9164 97.41 25.8508 96.3034C25.6106 96.1591 25.2744 96.111 25.0342 96.1591C24.1215 96.544 23.9294 95.8704 23.6411 95.2931C23.2569 94.6676 22.8245 94.0902 22.4402 93.5129C22.3442 93.561 22.2001 93.6091 22.104 93.6572C21.6717 95.7261 22.0559 97.6987 22.8726 99.5751C23.9774 102.173 26.8115 102.366 28.9251 103.809C29.2133 103.376 29.4055 102.991 29.6937 102.654C30.3662 101.836 30.9426 100.97 31.7112 100.345C34.2571 98.2761 37.1874 97.1695 40.5499 97.795C42.3272 98.1317 44.2006 98.0355 45.7378 99.2865C47.5151 100.778 49.0523 102.51 49.9169 104.675C50.4934 106.167 50.7816 107.802 51.2139 109.342C51.5021 110.304 51.2139 111.315 50.5414 111.315C49.6287 111.315 49.2444 110.737 49.1484 109.871C48.716 106.985 47.6112 104.338 45.5937 102.221C44.3447 100.874 42.7115 99.96 40.7901 100.345C37.0913 101.115 34.4493 103.424 32.768 106.696C31.375 109.39 31.2309 112.325 31.8553 115.308C31.9514 115.789 31.7112 116.703 31.3269 116.944C30.5103 117.473 29.5016 117.714 28.5408 117.954C28.3487 118.002 27.9164 117.618 27.7723 117.329C26.6194 115.019 27.0517 112.614 27.2919 110.256C27.388 109.486 27.1478 109.102 26.4753 108.909C25.6587 108.717 24.794 108.524 23.8333 108.332C23.5451 110.064 22.2481 110.978 20.807 111.7C19.6541 112.277 19.3659 112.854 20.2306 113.913C20.4227 114.202 20.3266 114.971 20.0865 115.26C19.8463 115.549 19.1738 115.549 18.7415 115.501C18.3091 115.404 17.9248 115.019 17.4445 114.875C16.1475 114.394 14.7544 114.202 13.6016 115.116C12.5928 115.934 11.5841 116.8 10.9116 117.858C9.85476 119.542 9.03814 121.37 9.80672 123.487C10.6233 125.701 12.1125 127.384 14.0339 128.684C15.1387 129.453 16.4838 129.934 17.9248 129.453C17.6366 127.481 17.6847 126.903 18.7895 126.037C20.0865 124.931 22.4402 124.401 23.3049 126.855C23.6411 127.818 24.1695 128.876 24.9381 129.405C27.2439 131.041 29.5976 132.869 32.1916 133.832C35.458 135.083 39.0608 135.612 42.4713 136.478C43.5281 136.767 44.0565 136.334 44.4888 135.419C45.2574 133.784 46.4583 132.533 48.3317 132.484C50.4453 132.388 52.5589 132.388 54.6245 132.629C56.3058 132.821 58.0831 133.158 59.1879 134.746C59.284 134.89 59.6202 134.938 59.8124 134.986C61.5417 135.179 62.0701 134.601 62.2622 132.533C61.1574 132.677 60.0045 133.11 58.9477 132.966C56.642 132.629 55.4891 130.752 54.5284 128.876C53.8079 127.433 53.4236 125.845 52.7511 124.353C51.6943 121.948 51.8384 119.35 51.8864 116.848C51.9345 115.934 52.3187 115.212 53.5197 115.019C55.5852 114.635 57.6027 114.057 59.5722 113.432C61.7338 112.758 62.5024 113.095 63.1269 115.212C63.4631 116.463 63.9435 117.714 64.0876 118.965C64.3278 120.985 64.616 123.006 64.5199 125.027C64.4239 127.24 64.616 129.55 63.1269 131.57C64.2317 131.282 65.1444 130.849 66.1051 130.608C67.258 130.319 68.4109 130.031 69.6118 130.031C71.197 129.983 72.7822 130.175 74.3674 130.175C75.4241 130.175 76.4809 131.185 77.5858 130.223C78.1622 129.742 78.8828 129.453 79.5553 129.117C83.3021 127.096 86.6646 124.594 88.8743 120.841C90.5075 118.051 91.4202 115.116 90.6997 111.844C90.0271 108.765 90.4114 105.685 90.8918 102.654C91.0359 101.019 91.3241 99.4789 91.5643 97.9874ZM95.3111 163.902C95.4552 163.999 95.6474 164.095 95.7915 164.191C96.3199 163.421 97.0404 162.748 97.3767 161.882C98.7697 158.417 99.8265 154.857 100.307 151.152C100.691 147.977 101.027 144.85 101.22 141.674C101.316 139.99 101.124 138.258 101.027 136.526C100.931 134.409 100.835 132.292 100.643 130.223C100.499 128.635 100.163 127.048 99.9226 125.364C99.5383 125.556 99.2981 125.652 99.154 125.797C98.0972 126.855 97.0885 128.01 95.9356 128.972C93.9661 130.608 91.9966 132.292 89.787 133.639C86.2803 135.756 82.6296 137.633 79.0269 139.605C78.6426 139.798 78.2103 140.086 78.0181 140.471C77.5377 141.337 77.2015 142.251 76.7692 143.214C77.7779 144.176 78.0661 145.427 78.0661 146.87C78.0661 147.303 78.4504 147.929 78.8347 148.121C80.3719 148.939 81.5247 150.142 82.1012 151.73C82.7737 153.558 83.254 155.483 83.7344 157.407C83.8305 157.696 83.3501 158.177 83.158 158.514C82.9178 158.225 82.5335 157.984 82.3894 157.599C81.861 156.06 81.5728 154.376 80.9003 152.884C80.4199 151.826 79.6033 150.96 78.7867 150.094C78.5465 149.853 77.874 149.805 77.4897 149.901C76.4329 150.142 75.3761 150.623 74.3193 150.864C73.0704 151.104 72.9743 151.249 73.5507 152.355C73.7909 152.836 73.839 153.414 73.9831 153.943C73.839 153.991 73.7429 154.039 73.5988 154.087C73.1184 153.75 72.638 153.462 72.0616 153.077C71.1009 154.472 69.948 155.531 68.2187 154.568C66.7776 153.75 67.6903 152.5 68.0266 151.489C66.4894 151.297 65.0483 151.249 63.7033 150.912C62.9828 150.767 62.5985 150.864 62.2622 151.489C61.3015 153.558 60.8211 155.771 60.9172 158.032C61.0133 160.053 61.3976 162.074 61.7338 164.095C61.974 165.394 62.2622 166.741 62.8387 167.944C64.1356 170.782 65.5287 173.525 67.5943 175.882C69.1794 177.711 71.0529 178.914 73.4547 179.395C73.935 179.491 74.4154 179.491 74.9438 179.491C76.7211 179.491 78.4985 179.635 80.2278 179.395C83.3501 178.914 85.6078 176.941 87.6253 174.728C90.5075 171.6 92.8613 168.184 93.7259 163.902C93.9661 162.651 94.2543 161.449 94.4945 160.198C94.8788 157.792 95.3111 155.434 95.5993 153.029C95.9356 150.094 96.0317 147.111 96.3199 144.128C96.3679 143.743 96.6561 143.406 96.8002 143.069C97.2326 143.502 97.5208 143.887 97.5208 144.272C97.4728 146.437 97.5208 148.602 97.3286 150.767C97.0404 153.75 96.512 156.733 96.1277 159.716C95.7435 161.112 95.5033 162.507 95.3111 163.902ZM50.1571 151.826C49.7248 153.269 48.8121 153.991 47.5632 154.28C46.9867 154.424 46.074 154.616 45.8339 154.328C45.4496 153.847 45.2574 152.981 45.3535 152.355C45.4976 151.489 45.4015 151.056 44.5369 150.719C43.9605 150.527 43.384 150.094 42.9997 149.613C42.3753 148.795 41.7508 149.035 41.1744 149.468C40.8381 149.709 40.646 150.19 40.3097 150.431C40.0215 150.671 39.5892 150.767 39.2049 150.912C39.1088 150.527 38.8686 150.094 38.9647 149.757C39.349 148.554 40.5018 147.207 41.991 147.351C42.4233 147.4 43.1438 147.159 43.2399 146.87C43.9604 145.09 43.1919 144.032 41.2704 143.743C38.7725 143.406 36.2747 142.973 33.7768 142.492C30.7985 141.915 27.8203 141.193 24.842 140.567C24.5538 140.519 23.9774 140.76 23.8813 141C23.5451 141.915 23.2569 142.877 23.0647 143.839C22.4883 146.293 22.4402 148.747 22.6804 151.2C22.8245 152.788 23.2569 154.328 23.3049 155.916C23.401 158.273 24.2656 160.294 25.4665 162.266C26.9556 164.672 28.733 166.933 30.9426 168.762C34.017 171.264 37.4275 173.044 41.5106 173.092C45.0653 173.188 48.2837 172.033 51.262 170.205C52.7991 169.243 54.2882 168.184 55.249 166.5C55.7293 165.634 56.642 164.961 57.1704 164.047C57.939 162.699 58.9958 161.304 59.0918 159.813C59.284 157.696 59.0438 155.531 59.6683 153.462C59.7644 153.077 59.9085 152.5 59.7163 152.163C59.5242 151.73 58.9958 151.2 58.6595 151.2C56.642 151.249 54.6245 151.441 52.607 151.585C51.8384 151.633 51.7904 152.066 51.9825 152.644C52.3187 153.558 52.7511 154.472 53.0393 155.434C53.1834 155.867 53.0393 156.349 53.0393 156.83C52.655 156.541 52.1266 156.349 51.9345 155.964C51.4061 154.713 50.8777 153.414 50.1571 151.826ZM69.5157 180.501C69.5637 179.635 68.8432 179.106 67.6423 178.962C64.3278 178.577 61.0613 178.192 57.7468 177.663C56.8822 177.518 56.69 177.759 56.4979 178.384C55.4411 181.512 54.3843 184.591 53.2795 187.718C51.9345 191.567 50.5894 195.416 49.1964 199.217C47.9955 202.537 46.6985 205.809 45.4496 209.08C45.1614 209.85 45.3055 210.235 46.1701 210.428C47.5151 210.716 48.8121 211.149 50.1571 211.534C52.3668 212.112 54.5765 212.833 56.7861 213.17C59.5242 213.603 62.3583 213.747 65.1444 214.036C65.865 214.132 66.1051 213.796 66.1532 213.074C66.2012 211.727 66.2492 210.38 66.3934 209.032C66.7296 205.761 67.1139 202.537 67.4501 199.265C67.9305 195.128 68.4109 191.038 68.8912 186.9C69.2275 184.735 69.3716 182.618 69.5157 180.501ZM55.1529 177.518C54.8166 177.278 54.4804 176.893 54 176.7C52.3668 175.979 50.7336 175.305 49.1003 174.583C48.2837 174.247 43.4321 174.632 42.8076 175.209C42.7115 175.305 42.7115 175.401 42.6154 175.498C40.3097 178.625 37.9079 181.656 35.6502 184.831C32.1435 189.739 28.781 194.743 25.3224 199.65C24.8901 200.228 25.1303 200.468 25.6106 200.757C27.8683 202.104 30.03 203.596 32.2877 204.847C35.7463 206.723 39.3009 208.455 43.2399 209.032C43.5281 209.08 44.1046 208.792 44.2006 208.551C44.729 207.3 45.1133 205.953 45.5456 204.654C47.0348 200.372 48.5239 196.138 50.061 191.856C51.5021 187.766 52.9913 183.725 54.4323 179.683C54.7686 179.058 54.9127 178.432 55.1529 177.518ZM-20.9845 148.169C-20.8404 147.833 -20.6482 147.544 -20.5041 147.207C-20.1198 146.245 -19.7836 145.283 -19.3032 144.368C-17.6219 141.145 -15.9887 137.873 -14.1633 134.746C-12.434 131.859 -10.6087 129.02 -8.63917 126.278C-7.29416 124.45 -6.18933 122.573 -5.85307 120.264C-5.32467 116.607 -4.60413 112.999 -4.0277 109.39C-3.93163 108.909 -4.0277 108.187 -4.36395 107.851C-5.90111 105.926 -6.71772 103.761 -7.24612 101.403C-7.4863 100.441 -6.8138 98.4685 -9.11953 98.7572C-9.31168 98.7572 -9.55186 98.3242 -9.744 98.0836C-9.93615 97.7468 -10.0322 97.3619 -10.2244 96.977C-10.6087 96.2553 -10.9929 95.5336 -11.4733 94.6195C-18.6787 111.94 -22.0413 129.598 -20.9845 148.169ZM83.0139 180.405C82.4374 180.549 81.9571 180.694 81.4767 180.79C80.1317 181.031 78.7867 181.512 77.4417 181.464C75.5683 181.415 73.6948 180.982 71.8214 180.694C71.245 180.598 70.8127 180.598 70.7166 181.367C70.5725 182.763 70.3803 184.11 70.2843 185.505C69.9 189.643 69.6598 193.781 69.1794 197.918C68.651 202.922 67.9785 207.878 67.4021 212.881C67.3541 213.17 67.5462 213.651 67.7384 213.747C68.555 214.036 69.4677 214.421 70.3323 214.421C71.7734 214.421 73.2145 214.229 74.6075 213.988C76.7692 213.651 78.8828 213.218 80.9963 212.785C81.2846 212.737 81.6208 212.256 81.6689 211.919C81.861 210.187 82.0051 208.455 82.1012 206.723C82.3414 202.056 82.4855 197.389 82.7257 192.77C82.8217 191.086 82.9178 189.45 82.9658 187.766C83.0619 185.361 83.0139 182.955 83.0139 180.405ZM41.2704 175.113C37.5236 174.68 34.4493 173.381 31.5671 171.456C31.2309 171.215 30.5103 171.408 30.078 171.6C29.0692 172.082 28.1565 172.707 27.1958 173.236C24.4097 174.824 21.5756 176.412 18.7415 178.048C16.1955 179.539 13.6496 181.127 11.1037 182.618C10.3832 183.051 10.3351 183.532 10.7194 184.158C12.1125 186.467 13.4094 188.825 14.9946 190.99C16.3877 192.866 18.117 194.598 19.7982 196.234C20.5668 197.004 21.5756 197.533 22.5843 198.063C23.3049 198.447 24.1215 198.736 24.794 197.822C26.6674 195.176 28.5408 192.53 30.4142 189.883C32.768 186.612 35.1698 183.34 37.5236 180.068C38.7725 178.529 39.9734 176.893 41.2704 175.113ZM92.9093 174.824C92.477 174.968 92.2368 174.968 92.0447 175.113C89.9791 176.315 87.9616 177.615 85.848 178.673C84.7912 179.202 84.5991 179.924 84.6471 180.982C84.6951 182.811 84.6951 184.639 84.6471 186.467C84.551 188.921 84.3589 191.375 84.2628 193.877C84.1667 196.282 84.1667 198.736 84.0226 201.142C83.7824 204.75 83.4462 208.311 83.158 212.015C83.6864 211.679 84.1667 211.39 84.6471 211.053C86.9048 209.417 89.1145 207.733 91.3722 206.194C92.8613 205.183 93.774 204.125 93.6299 202.056C93.3897 198.207 93.5818 194.31 93.5338 190.413C93.4858 187.381 93.4377 184.35 93.3416 181.319C93.2936 179.202 93.0534 177.085 92.9093 174.824ZM-15.3162 182.137C-15.1721 182.137 -15.076 182.089 -14.9319 182.089C-14.8358 181.752 -14.7398 181.415 -14.6917 181.079C-14.2594 179.202 -14.0673 177.23 -13.4428 175.401C-12.2419 172.13 -10.8969 168.906 -9.45579 165.731C-8.63917 163.902 -7.67845 162.266 -7.91863 160.101C-8.15881 157.696 -8.11077 155.242 -8.20685 152.836C-8.20685 152.644 -8.30292 152.451 -8.30292 152.259C-8.30292 150.527 -8.39899 148.747 -8.35095 147.015C-8.25488 144.032 -8.11077 141.097 -7.96667 137.777C-8.97543 139.846 -9.84008 141.626 -10.7528 143.358C-11.9056 145.619 -13.2026 147.833 -14.1633 150.19C-15.7966 154.28 -17.2857 158.466 -18.7268 162.651C-19.015 163.517 -19.3512 164.528 -19.2552 165.394C-18.7748 170.446 -17.8621 175.449 -16.0848 180.261C-15.7485 180.886 -15.5564 181.512 -15.3162 182.137ZM12.0644 180.405C18.165 176.893 23.9294 173.525 29.7417 170.157C28.1085 168.232 26.5714 166.356 24.9862 164.528C24.746 164.239 24.1215 164.047 23.6892 164.095C22.0559 164.335 20.4227 164.624 18.7895 164.913C16.0034 165.442 13.2173 166.019 10.4312 166.645C9.5185 166.837 8.79796 167.222 8.99011 168.425C9.32636 170.398 9.42243 172.466 9.95083 174.391C10.4792 176.46 11.3439 178.336 12.0644 180.405ZM57.6988 215.335C57.6988 215.191 57.6508 215.095 57.6508 214.95C55.9215 214.565 54.2402 214.18 52.5109 213.796C50.7816 213.411 49.0042 213.074 47.323 212.496C45.0172 211.727 42.7595 210.764 40.4538 209.898C39.5892 209.562 39.0127 209.706 38.5804 210.764C37.9079 212.448 37.0432 214.084 36.2266 215.72C35.458 217.26 35.5061 218.078 36.707 219.329C38.2922 221.013 40.1656 222.263 42.4233 222.793C43.4801 223.033 44.4889 223.466 45.4976 223.514C46.6985 223.611 47.9475 224.236 49.0523 223.081C49.9169 222.167 51.0218 221.542 51.9345 220.724C53.9039 218.992 55.7774 217.163 57.6988 215.335ZM71.6293 131.57C71.6293 131.522 71.6293 131.474 71.5813 131.426C69.6118 131.715 67.5943 131.955 65.6248 132.292C64.1837 132.533 63.3671 133.495 63.0789 134.938C62.5985 137.296 62.8867 139.509 63.8474 141.674C63.9435 141.915 64.4719 142.203 64.7601 142.107C67.8344 141.241 70.9088 141.915 73.935 142.348C74.8958 142.492 75.4722 142.348 75.7124 141.482C76.1927 139.846 76.7211 138.162 76.9613 136.478C77.2015 134.842 75.232 132.051 73.7429 131.715C73.1184 131.522 72.3498 131.618 71.6293 131.57ZM-9.21561 57.5724C-9.21561 60.2668 -8.11077 62.5762 -6.71772 64.7413C-6.2854 65.4149 -5.757 65.7516 -4.94039 65.0781C-2.20232 62.7686 1.25628 62.48 4.57078 61.9026C5.96383 61.662 6.54026 60.9885 5.96383 59.6894C5.67561 59.0639 5.33936 58.3422 4.81096 57.9092C2.36111 55.6479 -0.0406947 53.2423 -3.69144 53.1941C-5.08449 53.146 -6.52558 53.3385 -7.82256 53.7234C-9.69597 54.3007 -9.02346 56.129 -9.26364 57.4762C-9.21561 57.5243 -9.21561 57.5724 -9.21561 57.5724ZM63.0789 124.979C62.9828 123.391 62.9828 122.14 62.7906 120.889C62.5505 119.157 62.2142 117.473 61.7819 115.789C61.6858 115.404 60.9653 114.923 60.677 114.971C58.4674 115.404 56.2577 116.078 54 116.511C53.1834 116.655 53.1354 117.04 53.0873 117.714C52.8471 121.13 54 124.209 55.249 127.24C55.8734 128.732 56.7861 129.886 58.0831 130.801C59.4761 131.763 62.3583 131.474 62.5985 129.405C62.7906 127.818 62.9347 126.23 63.0789 124.979ZM50.4934 133.735C47.4191 133.976 46.7465 134.409 45.4496 136.959C45.3055 137.2 45.1614 137.488 44.9212 137.584C43.336 138.402 43.4321 139.942 43.4321 141.337C43.4321 141.963 43.9604 142.636 44.4408 143.166C44.5849 143.31 45.2094 142.973 45.6417 142.877C45.9299 142.781 46.2662 142.733 46.5544 142.733C49.965 142.684 53.3755 142.636 56.69 143.55C57.6027 143.791 58.3233 143.55 58.6115 142.492C58.8036 141.77 59.0438 141.049 59.1879 140.327C59.4761 138.787 58.0351 135.323 56.3538 135.034C54.4323 134.65 52.4629 134.168 50.4934 133.735ZM76.8172 45.3517C77.2015 45.8328 77.2976 46.0253 77.4897 46.1215C78.5945 46.5545 79.7474 47.3243 80.8522 47.2762C81.9571 47.2281 83.0139 46.2659 84.1667 45.8328C86.1843 45.1111 88.2018 44.7744 90.2673 45.7366C91.18 46.1696 92.0927 46.6508 93.1015 47.18C93.3416 46.5545 93.5818 45.881 93.822 45.2074C94.6867 42.8498 94.1102 40.5885 93.5818 38.3272C93.2936 37.2206 92.5731 36.7395 91.4202 36.6432C87.9136 36.4508 84.8873 37.798 82.2933 39.7706C80.1797 41.3102 78.6426 43.4272 76.8172 45.3517ZM103.093 143.166C102.997 143.166 102.853 143.214 102.757 143.214C102.084 150.912 100.883 158.466 97.7129 165.346C100.883 166.164 103.814 166.885 106.936 167.703C107.128 166.404 107.512 164.913 107.464 163.469C107.416 162.074 106.936 160.679 106.696 159.283C106.119 155.964 105.687 152.644 104.966 149.372C104.534 147.207 103.765 145.186 103.093 143.166ZM23.2569 208.936C23.2088 208.792 23.2088 208.647 23.1608 208.551C22.9206 208.455 22.6804 208.311 22.4402 208.311C18.8856 207.926 15.6671 206.723 12.785 204.702C11.1517 203.547 9.51851 200.516 10.5753 198.303C10.8635 197.774 10.9116 197.148 11.1037 196.427C10.7674 196.475 10.6233 196.475 10.4792 196.523C9.08618 197.485 7.59706 198.303 6.30008 199.41C3.8022 201.575 3.46595 202.73 5.19525 205.664C6.87652 208.599 9.66261 210.331 12.7369 211.534C14.6584 212.304 16.7239 212.4 18.6454 211.486C20.2306 210.764 21.7197 209.802 23.2569 208.936ZM92.3329 103.857C92.477 103.905 92.6211 103.953 92.7652 104.002C92.9574 103.857 93.1015 103.665 93.3416 103.617C93.9181 103.424 94.5906 102.751 95.119 103.617C95.5993 104.435 94.7827 104.675 94.2543 105.012C92.6691 105.974 91.9966 107.225 92.429 109.15C92.6691 110.352 92.1888 112.325 94.5906 111.988C94.6386 111.988 94.7347 112.036 94.7827 112.085C95.9356 112.758 96.7522 112.662 97.761 111.748C99.154 110.449 100.259 109.005 100.979 107.273C102.469 103.809 102.469 100.489 100.259 97.3138C99.6344 96.3997 98.8658 96.3034 97.9531 96.9289C96.9924 97.6025 96.0317 98.4685 94.9268 98.7091C93.5818 98.9978 93.0534 99.6232 92.8613 100.826C92.8132 101.259 92.6691 101.692 92.6211 102.125C92.477 102.606 92.3809 103.232 92.3329 103.857ZM-6.57362 126.951C-6.71772 126.903 -6.86183 126.807 -7.00594 126.759C-7.4863 127.384 -8.06274 128.01 -8.44703 128.684C-10.4645 132.148 -12.5301 135.612 -14.4516 139.22C-16.1328 142.348 -17.67 145.571 -19.015 148.891C-19.8316 150.864 -21.3207 152.74 -20.6963 155.194C-20.312 156.685 -20.2159 158.321 -19.9757 159.861C-19.8796 159.861 -19.7355 159.861 -19.6395 159.861C-19.4473 159.332 -19.3512 158.754 -19.1111 158.225C-17.0935 153.51 -15.1241 148.795 -13.0105 144.176C-11.4733 140.856 -9.50382 137.729 -8.15881 134.361C-7.19809 132.051 -7.05398 129.453 -6.57362 126.951ZM29.0692 204.847C27.9164 204.077 26.9076 203.355 25.8988 202.633C24.9381 201.96 24.0254 201.142 23.0167 200.564C20.6149 199.314 18.4052 197.774 16.5798 195.753C16.2916 195.416 15.9073 195.176 15.5711 194.983C15.3309 194.839 14.9466 194.839 14.7064 194.935C11.536 196.764 10.6233 201.334 14.3221 203.451C16.0995 204.51 18.0689 205.328 19.9904 206.097C23.1608 207.397 26.1871 206.723 29.0692 204.847ZM43.7683 90.4818C40.4538 89.1346 38.7245 87.4988 37.2834 85.045C36.5629 83.8903 35.6982 83.8422 34.6414 83.9384C32.5278 84.0827 31.0387 85.478 29.5496 86.7289C29.0692 87.162 28.5408 87.9799 28.6369 88.461C29.4055 91.444 31.3269 92.8874 34.017 93.3204C35.7943 93.6091 37.6677 93.561 39.4451 93.3204C41.2224 93.0799 42.6635 92.0695 43.7683 90.4818ZM91.132 34.7187C91.0359 34.3819 91.0359 34.1895 90.9398 34.1414C89.1625 33.0829 87.3852 31.9282 85.5117 31.014C83.8785 30.1961 82.3414 30.4848 80.7562 31.6876C78.0661 33.7083 76.1927 36.2583 75.184 39.4338C74.6075 41.214 74.6075 43.0423 75.4241 45.1593C77.0093 41.8876 79.3151 39.6744 82.0051 37.8461C84.7432 35.9697 87.7695 34.9593 91.132 34.7187ZM107.849 116.078C107.752 116.078 107.608 116.03 107.512 116.03C107.368 116.222 107.224 116.367 107.08 116.559C105.687 118.339 104.438 120.312 102.805 121.9C101.7 123.006 100.835 123.92 101.556 125.556C102.853 125.171 103.381 126.085 103.814 127.048C105.543 130.752 106.84 134.601 107.416 138.691C107.608 140.183 108.041 141.674 108.425 143.454C108.665 142.829 108.857 142.54 108.857 142.251C108.857 140.038 108.905 137.873 108.857 135.66C108.761 133.495 108.521 131.33 108.473 129.117C108.425 127.336 108.713 125.556 108.617 123.824C108.473 121.226 108.089 118.676 107.849 116.078ZM33.8248 216.153C33.0562 217.308 32.2396 218.463 31.471 219.665C30.4142 221.253 30.4142 222.552 31.5191 224.044C31.8073 224.429 32.3357 224.669 32.6239 225.054C35.0257 227.989 38.3883 228.759 41.8469 229.288C42.1831 229.336 42.6154 229.144 42.9037 228.951C44.0565 228.085 45.1133 227.171 46.2182 226.257C46.4583 226.064 46.5544 225.728 46.7465 225.439C43.7683 225.006 40.8861 224.91 38.4363 223.226C35.9864 221.59 33.7768 219.665 33.8248 216.153ZM66.9217 177.855C66.7776 177.663 66.7296 177.47 66.5855 177.326C64.664 175.257 63.0788 172.948 61.974 170.301C61.8299 170.013 61.4456 169.724 61.1094 169.628C59.7644 169.243 58.3713 168.858 56.9783 168.617C56.594 168.521 56.0175 168.665 55.6813 168.906C54.6725 169.676 53.7598 170.59 52.7511 171.36C51.9345 171.985 51.0218 172.466 50.1091 173.044C52.9432 174.872 60.4369 177.037 66.9217 177.855ZM100.019 94.7157C100.115 94.8601 100.163 94.9082 100.211 94.9563C103.429 97.41 104.726 101.307 103.669 105.156C103.045 107.466 101.94 109.583 100.595 111.555C100.019 112.421 100.355 112.854 101.172 113.047C103.237 113.576 105.303 114.057 107.656 114.635C106.071 106.07 104.438 97.4582 102.853 88.8459C102.709 88.8459 102.613 88.894 102.469 88.894C101.652 90.8186 100.835 92.7431 100.019 94.7157ZM-6.8138 181.897C-7.15005 176.845 -7.53434 171.793 -7.87059 166.741C-10.4645 171.793 -12.2899 177.085 -13.2026 182.618C-11.089 182.378 -9.0715 182.137 -6.8138 181.897ZM108.089 157.166C108.185 156.974 108.377 156.733 108.377 156.445C108.377 154.328 108.521 152.163 108.281 150.046C107.945 147.544 107.32 145.09 106.744 142.636C105.879 138.884 105.014 135.083 104.006 131.33C103.669 130.031 102.901 128.828 102.324 127.577C102.18 127.625 102.036 127.673 101.94 127.721C102.18 130.367 102.42 133.014 102.661 135.66C102.757 136.622 102.757 137.584 103.045 138.45C103.669 140.375 104.534 142.203 105.062 144.128C106.119 148.458 107.08 152.788 108.089 157.166ZM9.3744 55.8404C9.51851 55.8885 9.61458 55.9847 9.75868 56.0328C10.6233 55.0705 11.536 54.1083 12.3526 53.0979C12.5448 52.9055 12.6409 52.4243 12.5448 52.2319C11.8723 50.8847 11.3439 49.3451 10.3351 48.2385C7.69313 45.2555 4.09042 44.63 0.295558 45.063C-0.569093 45.1593 -1.62589 45.0149 -2.34643 46.2659C0.727884 45.9772 3.03362 47.3243 5.19525 48.9602C7.54902 50.6441 8.46171 53.2423 9.3744 55.8404ZM7.74117 58.3904C7.69313 57.4281 7.7892 56.6583 7.59706 55.9847C6.5883 53.146 5.05114 50.7404 2.31308 49.2008C0.439667 48.1423 -1.52982 47.5168 -3.64341 47.7574C-4.50806 47.8536 -5.42075 48.046 -5.94915 49.0083C-6.42951 49.8743 -7.05398 50.6923 -7.72648 51.7026C-0.85731 49.8743 3.70613 53.1941 7.74117 58.3904ZM78.4504 31.2546C78.1142 31.2065 78.0181 31.1584 77.922 31.2065C74.0311 32.265 71.7254 35.1036 70.2362 38.5197C69.7078 39.7706 69.9 41.4546 70.1402 42.8498C70.2362 43.331 71.5332 43.5715 72.3018 43.9083C72.3498 43.9083 72.3498 43.9564 72.3979 43.9564C73.0223 44.2451 73.2625 44.1008 73.2145 43.3791C72.7822 39.6744 74.1752 36.547 76.4329 33.7083C76.9613 32.8904 77.6338 32.1206 78.4504 31.2546ZM25.9469 231.261C25.8028 231.261 25.7067 231.309 25.5626 231.309C25.1783 232.56 24.6019 233.762 24.5058 235.013C24.3136 238.045 26.043 240.402 29.5016 238.67C30.7505 238.045 32.0475 237.515 33.0082 236.264C30.126 235.254 27.436 234.099 25.9469 231.261ZM81.813 48.5272C82.9178 49.73 83.7344 50.6441 84.6471 51.5583C85.2716 52.1838 88.6341 52.4724 89.3066 51.8951C90.0272 51.2696 90.6997 50.596 91.3241 49.8743C91.9486 49.1045 91.7565 48.6715 90.8438 48.1423C89.0184 47.0357 87.0969 47.3243 85.2235 47.5649C84.0707 47.6611 83.0619 48.1423 81.813 48.5272ZM4.76292 63.8271C1.30432 64.4526 -1.91411 64.8856 -4.70021 67.0026C-3.01894 68.0611 -1.81803 70.1299 0.583775 68.7347C0.631811 68.6865 0.775919 68.7347 0.823955 68.7347C1.73664 68.3016 2.88951 68.0611 3.46595 67.3875C4.13845 66.4733 4.28256 65.1743 4.76292 63.8271ZM-5.18057 210.283C-5.80504 211.246 -6.52558 212.015 -6.8138 212.93C-7.4863 215.046 -7.19809 216.538 -4.65217 216.394C-2.53858 216.249 -0.424984 215.864 1.68861 215.624C2.31308 215.528 2.93755 215.48 3.56202 215.383C3.56202 215.287 3.61006 215.143 3.61006 215.046C0.199487 214.421 -3.54734 214.373 -5.18057 210.283ZM-19.1111 192.241C-19.015 192.289 -18.9189 192.337 -18.8228 192.385C-18.6787 192.241 -18.4866 192.097 -18.3425 191.952C-17.0455 190.076 -15.2682 188.777 -13.2987 187.766C-11.3772 186.756 -9.31168 186.034 -7.05398 186.179C-6.2854 186.227 -6.18933 185.746 -6.52558 185.168C-7.10201 184.11 -8.11077 184.062 -9.11953 184.11C-12.6742 184.254 -15.3162 186.179 -17.4298 188.825C-18.1503 189.787 -18.5346 191.086 -19.1111 192.241ZM110.106 175.257C110.01 174.92 110.01 174.583 109.866 174.295C108.281 171.167 106.071 168.714 102.469 167.992C100.931 167.703 99.3462 167.703 97.809 167.559C97.3767 168.954 97.6169 169.483 98.9619 169.724C99.6824 169.868 100.451 169.868 101.22 169.868C102.805 169.916 104.294 170.301 105.495 171.312C107.032 172.563 108.521 173.862 110.106 175.257ZM10.143 212.785C8.99011 211.438 7.93331 210.957 6.25205 210.861C5.05114 210.764 3.85024 210.572 2.60129 210.428C1.83272 210.38 0.968065 210.187 0.295558 210.428C-0.0887313 210.572 -0.280876 211.582 -0.184804 212.16C-0.136767 212.448 0.583775 212.881 1.0161 212.93C4.09042 213.363 7.1167 213.892 10.143 212.785ZM98.8658 117.954C95.4072 121.178 92.429 124.353 89.0184 127.048C85.6559 129.694 81.909 131.859 78.2102 134.313C80.9963 134.698 97.9531 121.274 99.9706 117.425C98.7697 116.944 97.6169 116.222 96.1758 116.703C96.9924 117.088 97.761 117.425 98.8658 117.954ZM9.13422 133.495C10.6233 134.89 28.2046 140.183 29.4535 139.653C27.8203 139.124 26.1871 138.595 24.5538 138.066C22.9206 137.536 21.3354 137.103 19.7022 136.526C17.1082 135.612 14.5623 134.746 12.0164 133.735C11.0076 133.351 11.0076 132.484 11.8242 131.763C12.1125 131.474 12.4487 131.185 12.7369 130.897C12.6409 130.801 12.5448 130.656 12.4487 130.56C11.0557 131.185 10.3832 132.629 9.13422 133.495ZM15.3789 131.715C16.3877 133.302 31.8073 138.354 33.3925 137.729C27.388 135.419 21.4795 133.302 15.3789 131.715ZM30.6064 230.828C30.7025 230.683 30.7985 230.539 30.8946 230.395C30.7985 229.24 30.6544 228.133 30.7025 226.979C30.7505 225.776 30.2701 224.958 29.1173 224.236C28.4448 225.535 27.7723 226.786 27.0997 228.037C26.7155 228.759 26.9076 229.336 27.5801 229.625C28.4928 230.154 29.5496 230.443 30.6064 230.828ZM85.4157 95.3893C85.3676 95.245 85.3196 95.1006 85.2235 95.0044C84.1667 94.6676 83.0619 94.4751 82.1012 93.994C80.8522 93.3685 79.8915 93.7535 79.0269 94.6195C78.7386 94.9082 78.4504 95.6299 78.5465 95.8223C79.0749 96.4959 79.1229 97.9874 80.3719 97.6025C82.1492 97.0251 83.7824 96.1591 85.4157 95.3893ZM78.6426 137.729C84.0226 136.237 96.7042 127.096 98.9138 123.199C92.9574 129.165 85.7519 133.447 78.6426 137.729ZM93.87 121.034C88.49 124.931 83.3501 128.635 78.2583 132.34C84.0226 129.501 89.2105 125.893 93.87 121.034ZM2.64933 204.606C2.50522 204.606 2.36111 204.558 2.21701 204.558C1.78468 205.52 1.35235 206.53 0.871993 207.493C0.535739 208.166 0.920029 208.551 1.44843 208.647C2.6013 208.84 3.75416 208.888 5.14721 209.032C4.23452 207.397 3.46595 206.001 2.64933 204.606ZM29.6457 94.7157C29.6937 94.6195 29.7417 94.4751 29.7898 94.3789C28.8771 93.128 28.0124 91.877 26.8115 90.2893C26.3792 91.6365 26.091 92.695 25.7067 93.9459C27.1478 94.2346 28.3967 94.4751 29.6457 94.7157ZM63.8474 147.207C67.5462 147.207 71.245 147.207 74.9438 147.207C74.9438 147.063 74.9438 146.918 74.9438 146.774C71.245 146.822 67.4982 146.052 63.8474 147.207ZM32.1916 227.845C32.3357 228.518 32.4318 229.144 32.6239 229.769C32.768 230.154 33.0562 230.683 33.3925 230.779C34.8816 231.02 36.3707 231.405 37.8118 230.731C35.9384 229.769 34.113 228.855 32.1916 227.845ZM61.6858 145.667C61.7819 145.619 61.8779 145.571 61.926 145.523C61.6858 145.283 61.4456 144.898 61.1574 144.898C60.8211 144.898 60.2447 145.138 60.1967 145.331C60.0045 146.437 59.8604 147.592 59.9085 148.699C59.9085 149.083 60.5329 149.468 60.8692 149.853C61.1574 149.372 61.6858 148.939 61.7338 148.41C61.8779 147.496 61.7338 146.582 61.6858 145.667ZM57.3145 166.933C58.5634 167.222 59.5242 167.463 60.7251 167.751C60.3888 166.26 60.1006 165.057 59.8124 163.806C59.7163 163.806 59.5722 163.806 59.4761 163.806C58.8036 164.72 58.1311 165.682 57.3145 166.933ZM101.7 116.607C100.307 120.552 96.5601 122.284 94.3504 125.316C94.5426 125.316 94.6867 125.268 94.7827 125.171C96.0317 124.065 97.3286 123.006 98.5296 121.851C99.8265 120.601 101.027 119.301 102.18 117.906C102.757 117.329 102.661 116.703 101.7 116.607ZM95.5033 166.164C93.9181 166.837 93.774 168.473 93.0534 169.724C92.2849 171.071 91.5163 172.418 90.7477 173.717C93.2456 171.841 94.1583 168.858 95.5033 166.164ZM61.1574 136.959C61.0613 136.911 60.9172 136.863 60.8212 136.863C60.7731 137.007 60.629 137.151 60.629 137.296C60.629 138.884 60.581 140.471 60.677 142.059C60.677 142.3 61.3976 142.444 61.7819 142.684C61.926 142.348 62.1662 142.011 62.1181 141.722C62.0221 140.904 61.7338 140.134 61.5897 139.317C61.3976 138.499 61.3015 137.729 61.1574 136.959ZM46.6024 148.073C48.62 148.891 52.9432 148.843 53.8559 148.073C51.4061 148.073 49.0042 148.073 46.6024 148.073ZM46.2662 149.661C49.5326 150.527 51.1178 150.575 52.7511 149.661C50.5894 149.661 48.4278 149.661 46.2662 149.661ZM71.9655 144.032C69.6118 143.214 65.1444 143.454 64.1356 144.513C66.7776 144.368 69.2755 144.176 71.9655 144.032ZM12.9771 132.388C12.9291 132.581 12.833 132.773 12.785 132.966C15.0907 133.832 17.3484 134.698 19.6541 135.516C19.7022 135.371 19.7502 135.275 19.7982 135.131C18.5973 134.65 17.3964 134.217 16.1955 133.735C15.1387 133.302 14.0819 132.821 12.9771 132.388ZM33.4886 232.848C33.8248 233.474 34.017 234.244 34.4012 234.436C35.8423 235.062 35.9864 233.329 36.8511 232.848C35.8904 232.848 34.9296 232.848 33.4886 232.848ZM93.1015 119.061C92.5731 119.061 91.7084 118.868 91.5643 119.109C91.0839 119.831 90.9398 120.697 90.6516 121.515C90.7477 121.563 90.8438 121.611 90.8918 121.707C91.6123 120.889 92.2848 120.023 93.1015 119.061ZM-0.232839 205.809C-0.328911 205.713 -0.424984 205.664 -0.47302 205.568C-1.09749 206.049 -1.72196 206.482 -2.25036 207.06C-2.4425 207.252 -2.20232 207.781 -2.20232 208.118C-1.77 208.022 -1.14553 208.07 -1.00142 207.83C-0.665166 207.252 -0.47302 206.53 -0.232839 205.809ZM102.901 119.542C103.717 118.676 104.39 117.954 105.062 117.281C105.831 116.559 105.399 116.222 104.678 115.934C104.438 115.837 104.15 115.837 103.765 115.789C104.87 117.329 103.045 118.051 102.901 119.542ZM-1.38571 209.706C-2.15429 209.802 -3.16305 209.85 -3.16305 209.995C-3.30716 210.909 -2.77876 211.486 -1.81803 211.967C-1.67393 211.246 -1.52982 210.668 -1.38571 209.706ZM69.4196 148.699C69.4196 148.602 69.4196 148.554 69.4196 148.458C67.8825 148.458 66.3933 148.458 64.8562 148.458C64.8562 148.554 64.8562 148.602 64.8562 148.699C66.3933 148.699 67.8825 148.699 69.4196 148.699ZM40.742 74.8931C39.5892 73.546 38.004 73.4497 37.2834 74.8931C38.4843 74.8931 39.6852 74.8931 40.742 74.8931ZM93.0054 51.4621C92.429 51.9432 91.9966 52.3281 91.5643 52.6649C91.6123 52.7611 91.6604 52.8573 91.7084 52.9536C92.2849 53.0498 92.8613 53.146 93.6299 53.2904C93.3897 52.6168 93.2456 52.1357 93.0054 51.4621ZM21.1433 128.684C21.2874 128.635 21.3834 128.587 21.5275 128.539C21.4315 128.106 21.4315 127.384 21.2874 127.384C20.759 127.288 20.1825 127.433 19.6541 127.529C19.6541 127.673 19.6541 127.818 19.6541 127.962C20.1345 128.154 20.6149 128.443 21.1433 128.684ZM26.043 105.637C26.4753 106.888 27.0997 106.888 27.7723 106.648C27.9164 106.6 27.9164 106.215 27.9644 105.974C27.388 105.878 26.8596 105.782 26.043 105.637ZM68.9873 152.933C69.0353 153.077 69.0834 153.173 69.1794 153.317C69.5157 153.173 70.0441 153.125 70.1882 152.884C70.4284 152.5 70.3804 151.97 70.4764 151.489C70.3323 151.441 70.1882 151.393 70.0441 151.345C69.6598 151.874 69.3236 152.403 68.9873 152.933Z" fill="#FFC2EE"/>
<path d="M16.5798 118.82C17.7326 119.301 18.9816 119.734 20.0864 120.36C20.4227 120.552 20.4227 121.274 20.5668 121.755C20.0864 121.755 19.558 121.948 19.1737 121.755C17.7326 121.034 16.2915 120.6 14.7063 121.13C13.9378 121.37 13.7937 120.841 13.9858 120.264C14.4181 119.109 15.4749 119.109 16.4837 119.109C16.4837 119.013 16.5317 118.917 16.5798 118.82Z" fill="#FFC2EE"/>
<path d="M34.3053 122.958C34.1132 122.621 33.7769 122.285 33.825 121.996C33.9691 120.793 34.1612 119.59 34.4014 118.387C34.4494 118.195 34.8337 118.002 35.1219 117.906C35.17 117.906 35.5062 118.243 35.4582 118.435C35.266 119.927 35.0739 121.419 34.8337 122.91C34.6416 122.91 34.4975 122.91 34.3053 122.958Z" fill="#FFC2EE"/>
<path d="M39.3008 122.717C39.0126 121.515 38.7244 120.36 38.5322 119.157C38.5322 119.109 39.2528 118.724 39.4929 118.82C40.2135 119.205 40.4537 121.996 39.8772 122.621C39.8292 122.669 39.7331 122.621 39.3008 122.717Z" fill="#FFC2EE"/>
<path d="M73.407 111.892C73.5031 112.181 73.7432 112.469 73.7432 112.758C73.6952 113.48 73.5991 114.153 73.407 114.875C73.3589 115.116 72.9747 115.308 72.7825 115.549C72.5904 115.356 72.2061 115.116 72.2541 114.923C72.3982 113.913 72.6384 112.951 72.8305 111.94C73.0227 111.892 73.2148 111.892 73.407 111.892Z" fill="#FFC2EE"/>
<path d="M78.3542 113.384C78.066 113.865 77.7778 114.298 77.5376 114.779C77.2975 114.25 77.1053 113.72 76.8651 113.143C76.8171 113.047 76.8171 112.903 76.8651 112.806C77.1053 112.421 77.3935 112.037 77.6817 111.652C77.8259 112.037 78.018 112.47 78.1141 112.854C78.1621 112.951 78.1141 113.095 78.1141 113.191C78.2101 113.287 78.3062 113.336 78.3542 113.384Z" fill="#FFC2EE"/>
</g>
<defs>
<clipPath id="clip0_201_1361">
<rect width="130" height="241" fill="white"/>
</clipPath>
</defs>
</svg>
