<svg width="16" height="16" viewBox="0 0 16 16" fill="none" xmlns="http://www.w3.org/2000/svg">
<path d="M9.66646 4.00001C9.7542 3.9995 9.84118 4.01632 9.9224 4.0495C10.0036 4.08267 10.0775 4.13156 10.1398 4.19334C10.2023 4.25532 10.2519 4.32905 10.2857 4.41029C10.3196 4.49153 10.337 4.57867 10.337 4.66668C10.337 4.75469 10.3196 4.84182 10.2857 4.92306C10.2519 5.0043 10.2023 5.07804 10.1398 5.14001L7.27313 8.00001L10.1398 10.86C10.2653 10.9855 10.3359 11.1558 10.3359 11.3333C10.3359 11.5109 10.2653 11.6811 10.1398 11.8067C10.0143 11.9322 9.844 12.0027 9.66646 12.0027C9.48893 12.0027 9.31867 11.9322 9.19313 11.8067L5.8598 8.47334C5.79731 8.41137 5.74771 8.33763 5.71387 8.25639C5.68002 8.17516 5.6626 8.08802 5.6626 8.00001C5.6626 7.912 5.68002 7.82487 5.71387 7.74363C5.74771 7.66239 5.79731 7.58865 5.8598 7.52668L9.19313 4.19334C9.25542 4.13156 9.3293 4.08267 9.41053 4.0495C9.49175 4.01632 9.57873 3.9995 9.66646 4.00001Z" fill="#D73400"/>
</svg>
