<svg width="40" height="40" viewBox="0 0 40 40" fill="none" xmlns="http://www.w3.org/2000/svg">
<path d="M10 15.8333C9.99876 15.614 10.0408 15.3966 10.1237 15.1935C10.2067 14.9904 10.3289 14.8057 10.4834 14.65C10.6383 14.4938 10.8226 14.3698 11.0257 14.2852C11.2288 14.2006 11.4467 14.157 11.6667 14.157C11.8867 14.157 12.1046 14.2006 12.3077 14.2852C12.5108 14.3698 12.6951 14.4938 12.85 14.65L20 21.8167L27.15 14.65C27.4639 14.3362 27.8895 14.1599 28.3334 14.1599C28.7772 14.1599 29.2029 14.3362 29.5167 14.65C29.8305 14.9638 30.0068 15.3895 30.0068 15.8333C30.0068 16.2772 29.8305 16.7028 29.5167 17.0167L21.1834 25.35C21.0284 25.5062 20.8441 25.6302 20.641 25.7148C20.4379 25.7994 20.22 25.843 20 25.843C19.78 25.843 19.5622 25.7994 19.3591 25.7148C19.156 25.6302 18.9716 25.5062 18.8167 25.35L10.4834 17.0167C10.3289 16.8609 10.2067 16.6762 10.1237 16.4732C10.0408 16.2701 9.99876 16.0527 10 15.8333Z" fill="#3B3F51"/>
</svg>
