<svg width="20" height="20" viewBox="0 0 20 20" fill="none" xmlns="http://www.w3.org/2000/svg">
<path d="M9.99984 3.33341C11.3184 3.33341 12.6073 3.72441 13.7036 4.45695C14.8 5.18949 15.6545 6.23069 16.159 7.44886C16.6636 8.66703 16.7956 10.0075 16.5384 11.3007C16.2812 12.5939 15.6462 13.7818 14.7139 14.7141C13.7815 15.6465 12.5936 16.2814 11.3004 16.5387C10.0072 16.7959 8.66679 16.6639 7.44862 16.1593C6.23044 15.6547 5.18925 14.8002 4.45671 13.7039C3.72417 12.6076 3.33317 11.3186 3.33317 10.0001C3.33317 8.23197 4.03555 6.53628 5.2858 5.28604C6.53604 4.03579 8.23173 3.33341 9.99984 3.33341V3.33341ZM9.99984 1.66675C8.35166 1.66675 6.7405 2.15549 5.37009 3.07117C3.99968 3.98685 2.93158 5.28834 2.30084 6.81105C1.67011 8.33377 1.50509 10.0093 1.82663 11.6258C2.14817 13.2423 2.94185 14.7272 4.10728 15.8926C5.27272 17.0581 6.75758 17.8518 8.37409 18.1733C9.9906 18.4948 11.6662 18.3298 13.1889 17.6991C14.7116 17.0683 16.0131 16.0002 16.9288 14.6298C17.8444 13.2594 18.3332 11.6483 18.3332 10.0001C18.3332 8.90573 18.1176 7.8221 17.6988 6.81105C17.28 5.80001 16.6662 4.88135 15.8924 4.10753C15.1186 3.3337 14.1999 2.71987 13.1889 2.30109C12.1778 1.8823 11.0942 1.66675 9.99984 1.66675V1.66675Z" fill="#232043"/>
<path d="M13.3332 9.07511H10.8332V5.74178C10.8332 5.52077 10.7454 5.30881 10.5891 5.15253C10.4328 4.99624 10.2209 4.90845 9.99984 4.90845C9.77882 4.90845 9.56686 4.99624 9.41058 5.15253C9.2543 5.30881 9.1665 5.52077 9.1665 5.74178V9.90845C9.1665 10.1295 9.2543 10.3414 9.41058 10.4977C9.56686 10.654 9.77882 10.7418 9.99984 10.7418H13.3332C13.5542 10.7418 13.7661 10.654 13.9224 10.4977C14.0787 10.3414 14.1665 10.1295 14.1665 9.90845C14.1665 9.68743 14.0787 9.47547 13.9224 9.31919C13.7661 9.16291 13.5542 9.07511 13.3332 9.07511Z" fill="#232043"/>
</svg>
