<svg width="40" height="40" viewBox="0 0 40 40" fill="none" xmlns="http://www.w3.org/2000/svg">
<path d="M18.3334 26.7667C17.9361 26.7667 17.5519 26.6248 17.25 26.3667L10.5834 20.7167C10.2474 20.4293 10.0394 20.0203 10.005 19.5796C9.97063 19.1389 10.1127 18.7026 10.4 18.3667C10.6874 18.0307 11.0964 17.8227 11.5371 17.7883C11.9778 17.7539 12.4141 17.896 12.75 18.1833L18.1834 22.8167L27.15 13.7333C27.4617 13.4195 27.8852 13.2423 28.3275 13.2407C28.7698 13.2392 29.1945 13.4134 29.5084 13.725C29.8222 14.0366 29.9994 14.4602 30.001 14.9024C30.0025 15.3447 29.8283 15.7695 29.5167 16.0833L19.5167 26.2667C19.3624 26.4241 19.1783 26.5494 18.9752 26.6353C18.772 26.7211 18.5539 26.7657 18.3334 26.7667Z" fill="#3B3F51"/>
</svg>
