<svg width="18" height="20" viewBox="0 0 18 20" fill="none" xmlns="http://www.w3.org/2000/svg">
<g clip-path="url(#clip0_127_1372)">
<path d="M8.76089 20C8.33824 19.8487 8.18171 19.5513 8.19736 19.1078C8.21823 18.4712 8.20258 17.8346 8.20258 17.1667C8.13997 17.2032 8.09822 17.2241 8.05648 17.2502C7.55035 17.6259 7.04944 18.0068 6.53809 18.3825C6.16762 18.659 5.72932 18.6121 5.48408 18.2833C5.23362 17.9494 5.31189 17.5215 5.68236 17.245C6.47547 16.6449 7.2738 16.0501 8.06692 15.45C8.12953 15.4031 8.19214 15.3092 8.19214 15.2361C8.19736 13.9525 8.19736 12.6742 8.19736 11.3906C8.19736 11.3645 8.19214 11.3384 8.18693 11.2914C8.11909 11.328 8.06692 11.3488 8.01474 11.3801C6.97117 12.0063 5.93282 12.6376 4.88403 13.2533C4.73271 13.342 4.67532 13.4464 4.65966 13.6186C4.56574 14.6048 4.4666 15.5857 4.35703 16.5667C4.31007 16.9789 3.98134 17.2502 3.59522 17.2189C3.19345 17.1824 2.91168 16.8641 2.94299 16.4414C2.98995 15.857 3.05778 15.2779 3.11518 14.6935C3.12562 14.5787 3.13605 14.4639 3.15171 14.3021C3.063 14.3491 3.00561 14.3804 2.94821 14.4117C2.40034 14.7404 1.85768 15.0691 1.30981 15.3927C1.0437 15.5492 0.772367 15.5388 0.521911 15.3561C0.276672 15.1787 0.187969 14.9283 0.245365 14.6361C0.287108 14.4117 0.427989 14.2552 0.62105 14.1404C1.15327 13.8273 1.68027 13.509 2.21249 13.1907C2.27511 13.1542 2.3325 13.1125 2.41599 13.0603C1.93595 12.862 1.48199 12.6794 1.02804 12.4915C0.855853 12.4185 0.678446 12.3506 0.506257 12.2776C0.0888295 12.1054 -0.093795 11.7141 0.0575225 11.3332C0.214058 10.9418 0.62105 10.7853 1.04891 10.9627C1.97247 11.3332 2.89081 11.7141 3.81437 12.0793C3.88742 12.1054 3.997 12.1106 4.05961 12.0741C5.18145 11.4062 6.30328 10.7331 7.42512 10.06C7.45121 10.0444 7.47208 10.0235 7.51382 9.99218C7.44599 9.95044 7.39381 9.91391 7.34163 9.87739C6.27198 9.23559 5.1971 8.5938 4.13266 7.94679C4.00221 7.86852 3.89786 7.8633 3.75697 7.9207C2.85429 8.29116 1.95682 8.66685 1.04891 9.01645C0.88716 9.07906 0.688882 9.09471 0.521911 9.06341C0.229711 9.00601 0.0314333 8.73468 0.0157797 8.44248C-0.00509166 8.11898 0.151444 7.85287 0.454079 7.72764C1.03848 7.48762 1.62288 7.25281 2.20727 7.01801C2.26989 6.99192 2.3325 6.96061 2.42642 6.92409C2.20727 6.79364 2.01421 6.67363 1.82115 6.55362C1.41938 6.3136 1.01761 6.07358 0.615832 5.82834C0.245365 5.60397 0.130572 5.18655 0.334068 4.83695C0.542782 4.48214 0.970645 4.37778 1.35155 4.60737C1.88377 4.92044 2.41077 5.24394 2.93777 5.56223C2.99517 5.59876 3.05778 5.63006 3.15692 5.68746C3.11518 5.2909 3.08387 4.92565 3.04735 4.5604C3.01604 4.2369 2.9743 3.91339 2.94821 3.58989C2.9169 3.15159 3.18301 2.82808 3.59 2.78634C3.98134 2.7446 4.31007 3.01592 4.36224 3.44379C4.47182 4.41431 4.57096 5.38482 4.65966 6.35534C4.67532 6.54319 4.73793 6.65276 4.9049 6.7519C5.94847 7.36761 6.9816 7.99375 8.01995 8.61467C8.06692 8.64598 8.11909 8.66685 8.19214 8.70859C8.19736 8.62511 8.20258 8.56249 8.20258 8.5051C8.20258 7.27368 8.20258 6.04227 8.2078 4.81608C8.2078 4.68563 8.16605 4.60215 8.0617 4.52388C7.26859 3.93426 6.48069 3.33943 5.68758 2.74459C5.46321 2.57762 5.33276 2.36369 5.35364 2.08193C5.37451 1.80538 5.51539 1.60189 5.76585 1.48709C6.02152 1.3723 6.27719 1.39839 6.50156 1.57058C7.00769 1.94626 7.51382 2.32717 8.01474 2.70285C8.06692 2.73938 8.11909 2.7759 8.2078 2.83852C8.2078 2.73416 8.2078 2.66633 8.2078 2.5985C8.2078 1.9567 8.20258 1.30969 8.21301 0.667892C8.21823 0.307861 8.50521 0.0260974 8.85481 -0.00520968C9.19919 -0.0365168 9.51748 0.182633 9.60618 0.516575C9.63227 0.610496 9.63227 0.709635 9.63227 0.808774C9.63227 1.47144 9.63227 2.13411 9.63227 2.83852C9.71054 2.78634 9.76793 2.74981 9.82011 2.70807C10.3315 2.32717 10.8376 1.94105 11.3542 1.56536C11.6046 1.38274 11.8759 1.3723 12.1421 1.52884C12.4082 1.68537 12.5177 1.93583 12.4812 2.24368C12.4551 2.47327 12.3142 2.6298 12.1368 2.76547C11.3542 3.34986 10.5767 3.93948 9.79402 4.51866C9.67923 4.60215 9.62705 4.69085 9.63227 4.83695C9.63749 6.12054 9.63749 7.39891 9.63749 8.71903C9.71054 8.6825 9.76272 8.65641 9.81489 8.62511C10.8793 7.98853 11.9438 7.34674 13.0134 6.71016C13.1126 6.65276 13.1543 6.57971 13.1648 6.46492C13.2587 5.4944 13.3682 4.52388 13.4622 3.55336C13.5091 3.08375 13.7805 2.79677 14.1927 2.80199C14.6257 2.80721 14.944 3.16202 14.8971 3.60554C14.8292 4.26821 14.7614 4.92565 14.6936 5.5831C14.6936 5.60919 14.6936 5.63528 14.6936 5.68224C14.7666 5.6405 14.8292 5.60919 14.8866 5.57788C15.4397 5.24916 15.9876 4.91 16.5459 4.58649C16.8694 4.39865 17.2555 4.48736 17.4695 4.77434C17.6782 5.0561 17.6521 5.45787 17.4069 5.70311C17.3442 5.76573 17.266 5.81791 17.1877 5.86487C16.6711 6.17794 16.1494 6.49101 15.6328 6.79886C15.5702 6.83539 15.5128 6.87713 15.4293 6.92931C15.972 7.14846 16.4833 7.36239 16.9999 7.5711C17.1094 7.61284 17.219 7.65459 17.3234 7.70155C17.7512 7.87896 17.9391 8.27029 17.7825 8.65641C17.626 9.04253 17.219 9.19907 16.7912 9.02166C15.8832 8.65641 14.9701 8.28595 14.0674 7.91026C13.9422 7.85808 13.8483 7.8633 13.7283 7.93635C12.6638 8.58336 11.589 9.22516 10.5193 9.87217C10.4619 9.90348 10.4097 9.94 10.3367 9.98696C10.3889 10.0235 10.4254 10.0548 10.4671 10.0809C11.5629 10.7436 12.6638 11.401 13.7596 12.0637C13.8639 12.1263 13.9422 12.1211 14.0466 12.0793C14.9649 11.7036 15.8832 11.3227 16.812 10.9627C16.9738 10.9001 17.1825 10.8897 17.3599 10.9262C17.6417 10.9836 17.8295 11.2549 17.8452 11.5419C17.8608 11.8654 17.7095 12.1263 17.4069 12.2567C16.8903 12.4759 16.3737 12.6794 15.8572 12.8933C15.7267 12.9455 15.5963 13.0029 15.4345 13.0655C15.5128 13.1177 15.5702 13.1542 15.6328 13.1907C16.1807 13.5194 16.7285 13.843 17.2712 14.1769C17.5477 14.3439 17.6625 14.6308 17.6051 14.9283C17.553 15.21 17.3234 15.4605 17.026 15.4814C16.8485 15.4918 16.6451 15.4448 16.4937 15.3613C15.9511 15.0587 15.4189 14.7248 14.8866 14.4065C14.8345 14.3752 14.7771 14.3439 14.6936 14.3021C14.751 14.8604 14.8032 15.3874 14.8605 15.9197C14.8762 16.0605 14.8919 16.2066 14.9075 16.3475C14.9597 16.7754 14.6988 17.1406 14.3075 17.1876C13.8796 17.2398 13.5352 16.9737 13.483 16.5197C13.41 15.8466 13.3474 15.1735 13.2743 14.5004C13.2378 14.1665 13.2065 13.8273 13.1648 13.4934C13.1595 13.4307 13.1178 13.3525 13.0708 13.3212C11.9594 12.6481 10.8428 11.9802 9.72619 11.3123C9.71054 11.3019 9.68966 11.3019 9.65314 11.2914C9.64792 11.3645 9.6427 11.4323 9.6427 11.5001C9.6427 12.7159 9.6427 13.9369 9.63749 15.1526C9.63749 15.2987 9.67923 15.3874 9.79924 15.4761C10.5871 16.0605 11.375 16.6502 12.1577 17.2398C12.4499 17.4589 12.5595 17.7511 12.4708 18.0538C12.3247 18.5338 11.7716 18.7216 11.3489 18.4138C10.8376 18.0433 10.3367 17.6572 9.83055 17.2815C9.77837 17.245 9.72619 17.2085 9.65314 17.1563C9.64792 17.2346 9.63749 17.2867 9.63749 17.3389C9.63749 17.9233 9.62183 18.5129 9.6427 19.0973C9.65836 19.5356 9.50182 19.8383 9.08961 19.9948C8.9696 20 8.86525 20 8.76089 20Z" fill="white"/>
</g>
<defs>
<clipPath id="clip0_127_1372">
<rect width="17.8242" height="20" fill="white"/>
</clipPath>
</defs>
</svg>
