<svg width="32" height="32" viewBox="0 0 32 32" fill="none" xmlns="http://www.w3.org/2000/svg">
<g clip-path="url(#clip0_104:1174)">
<path d="M24.4333 31.9244C17.1 31.9244 9.76667 31.9244 2.43333 31.9244C2.35833 31.8994 2.275 31.8744 2.2 31.8577C1.175 31.5994 0.483333 30.9661 0.133333 29.9661C0.075 29.8077 0.0416667 29.6494 0 29.4911C0 24.2494 0 19.0161 0 13.7744C0.133333 13.2494 0.308333 12.7411 0.675 12.3244C1.2 11.7244 1.875 11.4161 2.68333 11.3327C2.475 10.5744 2.275 9.83273 2.08333 9.09107C1.66667 7.48273 2.51667 5.98273 4.10833 5.5494C5.33333 5.21607 6.55833 4.8994 7.78333 4.5744C13.3167 3.09107 18.85 1.60773 24.3833 0.1244C26.1417 -0.342266 27.6 0.4994 28.0667 2.2494C29.0917 6.05773 30.1083 9.86607 31.1333 13.6744C31.4167 14.7244 31.7083 15.7744 31.9917 16.8244C31.9917 17.0911 31.9917 17.3661 31.9917 17.6327C31.975 17.6827 31.95 17.7244 31.9333 17.7744C31.6833 18.8994 31 19.6244 29.9 19.9577C29.6083 20.0411 29.3167 20.1161 29.025 20.1994C28.3083 20.3911 27.5917 20.5827 26.8667 20.7827C26.8667 20.9411 26.8667 21.0661 26.8667 21.1911C26.8667 23.8244 26.8667 26.4494 26.8667 29.0827C26.8667 30.3244 26.1333 31.3577 25 31.7661C24.8167 31.8244 24.625 31.8744 24.4333 31.9244ZM13.4167 30.0577C16.9083 30.0577 20.3917 30.0577 23.8833 30.0577C24.65 30.0577 25 29.7077 25 28.9327C25 24.0661 25 19.2077 25 14.3411C25 13.5661 24.65 13.2161 23.875 13.2161C16.9167 13.2161 9.96667 13.2161 3.00833 13.2161C2.21667 13.2161 1.875 13.5577 1.875 14.3577C1.875 19.2077 1.875 24.0661 1.875 28.9161C1.875 29.7077 2.21667 30.0577 3.00833 30.0577C6.48333 30.0577 9.95 30.0577 13.4167 30.0577ZM26.775 4.65773C26.5917 3.9744 26.425 3.34107 26.25 2.71607C26.0583 1.9994 25.6167 1.74107 24.8917 1.93273C18.1417 3.74107 11.3917 5.54107 4.65 7.3494C3.99167 7.5244 3.725 7.98273 3.9 8.6494C4.05 9.23273 4.20833 9.81607 4.36667 10.3911C4.38333 10.4661 4.425 10.5411 4.45833 10.6244C11.9083 8.64107 19.325 6.6494 26.775 4.65773ZM9.275 11.2827C9.275 11.2994 9.275 11.3244 9.275 11.3411C9.39167 11.3411 9.5 11.3411 9.61667 11.3411C11.7333 11.3411 13.8417 11.3411 15.9583 11.3327C16.1917 11.3327 16.4333 11.2994 16.6667 11.2327C19.6667 10.4327 22.675 9.63273 25.675 8.83273C26.3667 8.6494 27.0583 8.45773 27.7583 8.26607C27.5917 7.6494 27.4333 7.06607 27.2667 6.46607C21.2417 8.08273 15.2583 9.68273 9.275 11.2827ZM23.7583 11.2827C23.7583 11.2994 23.7667 11.3161 23.7667 11.3327C23.8167 11.3327 23.8583 11.3411 23.9083 11.3411C25.7333 11.3744 26.875 12.5411 26.875 14.3577C26.875 15.6744 26.875 16.9994 26.875 18.3161C26.875 18.4827 26.875 18.6411 26.875 18.8411C27.6917 18.6244 28.475 18.4161 29.2583 18.2077C30 18.0077 30.25 17.5744 30.05 16.8244C29.6583 15.3494 29.2583 13.8744 28.8667 12.4077C28.6583 11.6411 28.45 10.8661 28.2333 10.0911C26.725 10.4911 25.2417 10.8827 23.7583 11.2827Z" fill="#232043"/>
<path d="M7.83333 15.0833C8.83333 15.0833 9.83333 15.0833 10.8333 15.0833C11.5 15.0833 11.875 15.4583 11.875 16.1249C11.875 17.2999 11.875 18.4749 11.875 19.6499C11.875 20.3166 11.5 20.6999 10.8333 20.6999C8.81667 20.6999 6.8 20.6999 4.775 20.6999C4.13333 20.6999 3.75 20.3166 3.75 19.6666C3.75 18.4833 3.75 17.2999 3.75 16.1166C3.75 15.4666 4.13333 15.0916 4.775 15.0833C5.79167 15.0833 6.81667 15.0833 7.83333 15.0833ZM9.98333 16.9666C8.51667 16.9666 7.08333 16.9666 5.64167 16.9666C5.64167 17.5916 5.64167 18.1916 5.64167 18.7999C7.1 18.7999 8.54167 18.7999 9.98333 18.7999C9.98333 18.1833 9.98333 17.5833 9.98333 16.9666Z" fill="#232043"/>
<path d="M7.81678 28.1833C6.80845 28.1833 5.80012 28.1833 4.79178 28.1833C4.18345 28.1833 3.75845 27.8 3.75012 27.2583C3.74178 26.7 4.17512 26.3083 4.80012 26.3083C6.80845 26.3083 8.81678 26.3083 10.8251 26.3083C11.4584 26.3083 11.8834 26.6917 11.8751 27.25C11.8751 27.8083 11.4501 28.1833 10.8168 28.1833C9.81678 28.1833 8.81678 28.1833 7.81678 28.1833Z" fill="#232043"/>
<path d="M20.6584 15.0833C21.1501 15.0833 21.6334 15.0833 22.1251 15.0833C22.7084 15.0916 23.1251 15.4749 23.1251 16.0082C23.1334 16.5416 22.7167 16.9499 22.1418 16.9499C21.1334 16.9582 20.1251 16.9582 19.1168 16.9499C18.5418 16.9499 18.1251 16.5416 18.1334 16.0082C18.1418 15.4749 18.5584 15.0833 19.1334 15.0833C19.6418 15.0833 20.1501 15.0833 20.6584 15.0833Z" fill="#232043"/>
<path d="M20.6252 20.6999C20.1252 20.6999 19.6252 20.6999 19.1252 20.6999C18.5418 20.6916 18.1252 20.3083 18.1168 19.7749C18.1085 19.2333 18.5335 18.8333 19.1335 18.8333C20.1168 18.8333 21.1085 18.8333 22.0918 18.8333C22.6918 18.8333 23.1168 19.2249 23.1085 19.7749C23.1085 20.3166 22.6835 20.6999 22.0751 20.7083C21.6085 20.6999 21.1168 20.6999 20.6252 20.6999Z" fill="#232043"/>
<path d="M5.625 22.5667C5.93333 22.5667 6.25 22.5583 6.55833 22.5667C7.09167 22.5833 7.49167 22.9833 7.5 23.4917C7.50833 24.0167 7.1 24.425 6.55 24.4333C5.93333 24.4417 5.325 24.4417 4.70833 24.4333C4.15833 24.425 3.75 24.0167 3.75 23.4917C3.75 22.975 4.16667 22.575 4.71667 22.5583C5.01667 22.5667 5.31667 22.5667 5.625 22.5667Z" fill="#232043"/>
<path d="M11.275 22.5666C11.575 22.5666 11.875 22.5582 12.175 22.5666C12.7083 22.5832 13.1167 22.9749 13.125 23.4832C13.1333 24.0082 12.725 24.4249 12.175 24.4332C11.55 24.4416 10.925 24.4416 10.3083 24.4332C9.78333 24.4249 9.375 24.0082 9.375 23.4999C9.375 22.9916 9.78333 22.5832 10.3083 22.5666C10.6333 22.5582 10.95 22.5666 11.275 22.5666Z" fill="#232043"/>
<path d="M16.875 22.5667C17.1833 22.5667 17.5 22.5583 17.8083 22.5667C18.3417 22.5833 18.7417 22.9833 18.75 23.4917C18.7583 24.0167 18.35 24.425 17.8 24.4333C17.1833 24.4417 16.575 24.4417 15.9583 24.4333C15.4083 24.425 15 24.0167 15 23.4917C15 22.975 15.4167 22.575 15.9667 22.5583C16.2667 22.5667 16.5667 22.5667 16.875 22.5667Z" fill="#232043"/>
</g>
<defs>
<clipPath id="clip0_104:1174">
<rect width="32" height="31.925" fill="white"/>
</clipPath>
</defs>
</svg>
