<svg width="21" height="20" viewBox="0 0 21 20" fill="none" xmlns="http://www.w3.org/2000/svg">
<g clip-path="url(#clip0_104:1166)">
<path d="M20.0313 0.433024C20.0313 0.537353 20.0313 0.641683 20.0313 0.746013C19.9061 0.902507 19.7913 1.06422 19.6557 1.20506C19.2697 1.60152 18.8889 2.00319 18.4768 2.37356C18.2316 2.59265 18.1168 2.80131 18.2838 3.10908C18.2994 3.13516 18.2994 3.17168 18.3099 3.20298C18.722 4.86182 19.1184 6.52066 19.5462 8.17429C19.7444 8.94111 19.567 9.5723 19.0037 10.1305C15.9885 13.1352 12.9786 16.1451 9.97392 19.1654C9.59311 19.5514 9.19666 19.8957 8.64893 20.0001C8.482 20.0001 8.30986 20.0001 8.13772 20.0001C7.57955 19.8853 7.18831 19.5306 6.8023 19.1393C4.82525 17.1571 2.8482 15.18 0.86072 13.2082C0.4747 12.8222 0.114763 12.4309 0 11.8728C0 11.7058 0 11.5337 0 11.3668C0.10433 10.8138 0.448618 10.4226 0.839854 10.0418C1.67971 9.2228 2.50391 8.38816 3.33333 7.56396C5.53991 5.36782 7.74126 3.17168 9.94783 0.975538C10.4538 0.469539 11.0537 0.292179 11.7527 0.469539C12.7387 0.714714 13.7246 0.954672 14.7105 1.19985C15.5295 1.40329 16.3537 1.60673 17.1674 1.82061C17.2926 1.85191 17.3605 1.85191 17.4491 1.75801C17.9551 1.24158 18.4664 0.73558 18.9828 0.224364C19.3427 -0.130357 19.7757 -0.057326 20 0.391292C20.0052 0.406941 20.0209 0.417374 20.0313 0.433024ZM17.2092 3.64116C16.7397 4.11065 16.3015 4.54883 15.8738 4.99223C15.8372 5.02875 15.8372 5.13308 15.8581 5.19046C16.3172 6.48415 15.2791 7.74654 13.9176 7.54309C12.9577 7.39703 12.3161 6.47893 12.483 5.49301C12.6395 4.55926 13.5994 3.87069 14.5227 4.10543C14.9139 4.20454 15.1539 4.13151 15.3678 3.83417C15.3991 3.79244 15.4408 3.76114 15.4773 3.72463C15.7694 3.4325 16.0668 3.14038 16.3745 2.82739C16.2963 2.80652 16.2493 2.78566 16.1972 2.77523C14.6427 2.39442 13.0882 2.01362 11.5336 1.62238C11.205 1.53892 10.9598 1.60673 10.7251 1.84669C7.63172 4.93485 4.53312 8.02301 1.42932 11.1164C1.08503 11.4607 1.08503 11.7684 1.4241 12.1075C3.57851 14.2567 5.7277 16.4059 7.88211 18.5551C8.25248 18.9255 8.5446 18.9202 8.92019 18.5499C12.0136 15.4617 15.1017 12.3683 18.1951 9.28018C18.4298 9.04544 18.4977 8.80548 18.4142 8.48728C18.1586 7.50658 17.9238 6.52066 17.6787 5.53475C17.5274 4.9192 17.3709 4.30366 17.2092 3.64116ZM14.7887 5.82165C14.7939 5.49301 14.5436 5.23741 14.2149 5.23219C13.8915 5.22697 13.6255 5.48258 13.6202 5.806C13.615 6.12421 13.8811 6.39547 14.1993 6.40068C14.5227 6.4059 14.7887 6.14507 14.7887 5.82165Z" fill="#232043"/>
<path d="M5.17483 12.191C4.78359 12.2014 4.52277 11.9823 4.49668 11.6589C4.4706 11.3303 4.69491 11.0642 5.04963 11.0225C5.78516 10.9338 6.5259 10.8608 7.26664 10.7773C8.62814 10.626 9.98443 10.4748 11.3459 10.3235C11.7215 10.2818 12.0971 10.2348 12.4727 10.1983C12.8118 10.167 13.0935 10.3965 13.1352 10.7199C13.1717 11.0277 12.937 11.3198 12.6083 11.3616C11.4294 11.4972 10.2505 11.6224 9.07154 11.7528C7.84567 11.8884 6.62501 12.024 5.39914 12.1597C5.31046 12.1753 5.22178 12.1858 5.17483 12.191Z" fill="#232043"/>
<path d="M9.23814 12.3423C10.2032 12.3423 10.9909 13.13 10.9909 14.095C10.9909 15.0653 10.198 15.8582 9.22249 15.8582C8.25223 15.8582 7.46454 15.0601 7.46975 14.0846C7.47497 13.1195 8.26788 12.3423 9.23814 12.3423ZM9.23293 13.516C8.90951 13.516 8.64868 13.7716 8.64868 14.095C8.64346 14.4184 8.89907 14.6793 9.22249 14.6897C9.54592 14.6949 9.82239 14.4237 9.82239 14.1002C9.81196 13.7768 9.55113 13.516 9.23293 13.516Z" fill="#232043"/>
<path d="M8.40919 10.0522C7.43893 10.0574 6.65646 9.28541 6.64602 8.31514C6.64081 7.33444 7.41284 6.54675 8.39354 6.54153C9.3638 6.53631 10.1671 7.32922 10.1619 8.29949C10.1567 9.26454 9.37945 10.047 8.40919 10.0522ZM8.40397 8.87852C8.73261 8.87852 8.98822 8.61769 8.98822 8.29427C8.98822 7.97607 8.72218 7.71524 8.39876 7.71524C8.07534 7.71524 7.81973 7.97607 7.81973 8.29949C7.81973 8.62813 8.07534 8.88374 8.40397 8.87852Z" fill="#232043"/>
</g>
<defs>
<clipPath id="clip0_104:1166">
<rect width="20.0313" height="20" fill="white"/>
</clipPath>
</defs>
</svg>
