<svg width="32" height="32" viewBox="0 0 32 32" fill="none" xmlns="http://www.w3.org/2000/svg">
<g clip-path="url(#clip0_145_317)">
<path d="M0 29.5629C0 24.3715 0 19.1884 0 14.0053C0.00834637 13.9886 0.0333855 13.9719 0.0333855 13.9552C0.442358 12.3527 1.42723 11.5932 3.08816 11.5848C4.22327 11.5848 5.35837 11.5765 6.49348 11.5932C6.75222 11.5932 6.93584 11.5264 7.11946 11.3344C10.5665 7.87904 14.0219 4.42364 17.4773 0.976584C18.7877 -0.325451 20.4403 -0.325451 21.7507 0.98493C22.1596 1.38556 22.5603 1.79453 22.9692 2.2035C25.6734 4.90773 28.3693 7.61195 31.0736 10.3078C31.6828 10.9088 32.0584 11.6349 31.9666 12.4862C31.8998 13.1206 31.9666 13.7298 31.9666 14.3475C32 19.3136 31.9917 24.2797 31.9833 29.2458C31.9833 30.481 31.1487 31.5327 29.9635 31.8832C29.8216 31.9249 29.6881 31.9583 29.5462 32.0001C20.507 32.0001 11.4679 32.0001 2.42045 32.0001C2.35368 31.975 2.28691 31.95 2.21179 31.9333C1.18519 31.6829 0.48409 31.0569 0.125196 30.0637C0.0834637 29.9051 0.0500782 29.7298 0 29.5629ZM15.9833 30.1221C20.3151 30.1221 24.6468 30.1221 28.9786 30.1221C29.7715 30.1221 30.1221 29.7716 30.1221 28.987C30.1221 24.1962 30.1221 19.4054 30.1221 14.6229C30.1221 13.8133 29.7799 13.4711 28.9619 13.4711C20.3151 13.4711 11.6766 13.4711 3.02973 13.4711C2.21179 13.4711 1.86959 13.8133 1.86959 14.6229C1.86959 19.4054 1.86959 24.1795 1.86959 28.962C1.86959 29.7966 2.20344 30.1305 3.04643 30.1305C7.3615 30.1221 11.6682 30.1221 15.9833 30.1221ZM24.4549 6.35999C24.4048 6.30157 24.3714 6.25149 24.338 6.21811C23.0026 4.87434 21.6588 3.53892 20.3151 2.2035C19.8727 1.76114 19.3385 1.77784 18.8795 2.22854C15.8331 5.27497 12.7783 8.32139 9.73187 11.3678C9.68179 11.4179 9.63172 11.4847 9.56495 11.5681C9.6651 11.5765 9.72353 11.5848 9.7903 11.5848C12.8534 11.5848 15.9165 11.5848 18.9713 11.5765C19.1132 11.5765 19.2885 11.4847 19.3886 11.3762C20.7324 10.0407 22.0762 8.70533 23.4116 7.36156C23.7621 7.02771 24.1043 6.69385 24.4549 6.35999ZM25.832 7.77053C24.555 9.04753 23.278 10.3245 22.0094 11.5932C22.7689 11.5932 23.5785 11.6015 24.3798 11.5848C24.4716 11.5848 24.5884 11.5014 24.6635 11.4262C25.1643 10.9338 25.6651 10.4247 26.1659 9.93224C26.4747 9.62343 26.7835 9.32296 27.0756 9.03084C26.6333 8.57178 26.2076 8.14612 25.832 7.77053ZM27.2175 11.5932C28.0605 11.5932 28.8701 11.5932 29.6129 11.5932C29.2207 11.2009 28.8033 10.7836 28.4194 10.3913C28.0522 10.7669 27.6515 11.1592 27.2175 11.5932Z" fill="#232043"/>
<path d="M6.91914 21.5838C6.41835 21.5838 5.91757 21.5922 5.42513 21.5838C4.39018 21.5671 3.75586 20.9328 3.75586 19.9062C3.75586 19.1383 3.75586 18.3705 3.75586 17.5942C3.76421 16.6344 4.41522 15.9667 5.3834 15.9667C6.40166 15.9584 7.41992 15.9584 8.43818 15.9667C9.43139 15.9751 10.0657 16.6261 10.0741 17.6193C10.0824 18.3955 10.0824 19.1801 10.0741 19.9563C10.0657 20.9244 9.44809 21.5588 8.47991 21.5838C7.96243 21.5922 7.43661 21.5838 6.91914 21.5838ZM5.63379 19.6892C6.50182 19.6892 7.33645 19.6892 8.17109 19.6892C8.17109 19.0632 8.17109 18.4706 8.17109 17.8613C7.31141 17.8613 6.47678 17.8613 5.63379 17.8613C5.63379 18.4706 5.63379 19.0716 5.63379 19.6892Z" fill="#232043"/>
<path d="M8.03684 27.276C6.58457 27.276 5.149 27.276 3.70508 27.276C3.70508 26.6584 3.70508 26.0658 3.70508 25.4398C5.149 25.4398 6.58457 25.4398 8.03684 25.4398C8.03684 26.0408 8.03684 26.6417 8.03684 27.276Z" fill="#232043"/>
<path d="M14.7893 27.276C13.3287 27.276 11.9015 27.276 10.4492 27.276C10.4492 26.6584 10.4492 26.0658 10.4492 25.4398C11.8931 25.4398 13.3287 25.4398 14.7893 25.4398C14.7893 26.0491 14.7893 26.65 14.7893 27.276Z" fill="#232043"/>
<path d="M21.5501 25.4398C21.5501 26.0575 21.5501 26.6417 21.5501 27.2593C20.1061 27.2593 18.6706 27.2593 17.21 27.2593C17.21 26.6584 17.21 26.0658 17.21 25.4398C18.6455 25.4398 20.0811 25.4398 21.5501 25.4398Z" fill="#232043"/>
<path d="M23.9453 27.2678C23.9453 26.6501 23.9453 26.0659 23.9453 25.4482C25.3892 25.4482 26.8332 25.4482 28.2854 25.4482C28.2854 26.0492 28.2854 26.6418 28.2854 27.2678C26.8582 27.2678 25.4143 27.2678 23.9453 27.2678Z" fill="#232043"/>
</g>
<defs>
<clipPath id="clip0_145_317">
<rect width="32" height="32" fill="white"/>
</clipPath>
</defs>
</svg>
