<svg width="40" height="40" viewBox="0 0 40 40" fill="none" xmlns="http://www.w3.org/2000/svg">
<path d="M22.35 20L29.5166 12.85C29.8305 12.5362 30.0068 12.1105 30.0068 11.6667C30.0068 11.2228 29.8305 10.7972 29.5166 10.4833C29.2028 10.1695 28.7771 9.99319 28.3333 9.99319C27.8895 9.99319 27.4638 10.1695 27.15 10.4833L20 17.65L12.85 10.4833C12.5361 10.1695 12.1105 9.99319 11.6666 9.99319C11.2228 9.99319 10.7971 10.1695 10.4833 10.4833C10.1695 10.7972 9.99314 11.2228 9.99314 11.6667C9.99314 12.1105 10.1695 12.5362 10.4833 12.85L17.65 20L10.4833 27.15C10.3271 27.305 10.2031 27.4893 10.1185 27.6924C10.0339 27.8955 9.9903 28.1133 9.9903 28.3333C9.9903 28.5534 10.0339 28.7712 10.1185 28.9743C10.2031 29.1774 10.3271 29.3617 10.4833 29.5167C10.6382 29.6729 10.8226 29.7969 11.0257 29.8815C11.2288 29.9661 11.4466 30.0097 11.6666 30.0097C11.8866 30.0097 12.1045 29.9661 12.3076 29.8815C12.5107 29.7969 12.695 29.6729 12.85 29.5167L20 22.35L27.15 29.5167C27.3049 29.6729 27.4892 29.7969 27.6923 29.8815C27.8954 29.9661 28.1133 30.0097 28.3333 30.0097C28.5533 30.0097 28.7712 29.9661 28.9743 29.8815C29.1774 29.7969 29.3617 29.6729 29.5166 29.5167C29.6728 29.3617 29.7968 29.1774 29.8814 28.9743C29.9661 28.7712 30.0096 28.5534 30.0096 28.3333C30.0096 28.1133 29.9661 27.8955 29.8814 27.6924C29.7968 27.4893 29.6728 27.305 29.5166 27.15L22.35 20Z" fill="#3B3F51"/>
</svg>
