<svg width="20" height="20" viewBox="0 0 20 20" fill="none" xmlns="http://www.w3.org/2000/svg">
<path d="M17.8915 3.99168L16.2248 2.32501C15.9129 2.01712 15.4922 1.84448 15.054 1.84448C14.6157 1.84448 14.195 2.01712 13.8831 2.32501L3.0498 12.9833C2.86605 13.1726 2.72659 13.4003 2.64146 13.65L1.80813 16.15C1.71762 16.438 1.70702 16.7452 1.77747 17.0387C1.84792 17.3322 1.99677 17.6011 2.20813 17.8167C2.36011 17.9762 2.54221 18.104 2.7439 18.1927C2.94558 18.2813 3.16285 18.3292 3.38313 18.3333C3.56146 18.3338 3.73872 18.3057 3.90813 18.25L6.40813 17.4167C6.64775 17.3339 6.86664 17.2003 7.0498 17.025L17.8831 6.35834C18.0393 6.20341 18.1633 6.01907 18.2479 5.81597C18.3326 5.61287 18.3761 5.39503 18.3761 5.17501C18.3761 4.95499 18.3326 4.73715 18.2479 4.53405C18.1633 4.33095 18.0393 4.14661 17.8831 3.99168H17.8915ZM5.88313 15.8333L3.38313 16.6667L4.21646 14.1667L12.7748 5.74168L14.4415 7.40834L5.88313 15.8333ZM15.6331 6.24168L13.9665 4.57501L15.0498 3.50001L16.7165 5.16668L15.6331 6.24168Z" fill="#3B3F51"/>
</svg>
