<svg width="64" height="64" viewBox="0 0 64 64" fill="none" xmlns="http://www.w3.org/2000/svg">
<g clip-path="url(#clip0_37_491)">
<path d="M0 7.76357C0.918341 4.1236 3.74015 2.52068 6.9293 1.40197C11.0535 -0.0339803 15.3112 -0.234345 19.6358 0.216476C22.3407 0.500327 24.9622 1.11812 27.4 2.3871C28.6689 3.05498 29.8043 3.87314 30.706 5.00854C31.5575 6.09386 32.0084 7.31274 31.9917 8.6986C31.975 12.6558 32.0083 16.613 31.9583 20.5702C31.9583 21.2047 32.2922 21.355 32.7096 21.6055C33.1271 21.8559 33.3274 21.5554 33.5612 21.355C41.8429 14.5426 50.1247 7.73017 58.4065 0.901058C59.4417 0.0495054 60.5604 -0.251042 61.8294 0.233174C63.0483 0.700692 63.7495 1.61903 63.9332 2.88801C64.1169 4.17369 63.5993 5.20891 62.6141 6.01037C58.5233 9.2997 54.4493 12.6057 50.3752 15.8951C46.1675 19.3013 41.9598 22.7075 37.7355 26.097C37.3514 26.3975 37.2345 26.6981 37.2512 27.199C37.318 29.236 37.318 31.2731 37.3514 33.3268C37.3514 33.5606 37.3514 33.7777 37.3514 34.1283C37.6019 33.978 37.7855 33.8778 37.9525 33.7777C44.7816 29.57 51.5941 25.379 58.4065 21.1713C59.2413 20.6537 60.0595 20.1862 61.078 20.3198C62.564 20.5202 63.6327 21.522 63.9499 22.9746C64.2338 24.3104 63.6327 25.6796 62.3804 26.4309C54.2322 31.3733 46.084 36.3156 37.9358 41.258C37.5017 41.5084 37.3514 41.7923 37.3514 42.2932C37.3681 45.8163 37.3347 49.3394 37.3681 52.8457C37.4015 55.751 36.2494 58.0886 34.0788 59.9587C31.4406 62.2128 28.3016 63.2647 24.9288 63.7657C24.3277 63.8491 23.7433 63.9326 23.1422 64.0161C21.9734 64.0161 20.8046 64.0161 19.6358 64.0161C19.0347 63.9326 18.4503 63.8491 17.8492 63.7657C14.2593 63.2146 10.9032 62.1126 8.0647 59.725C7.93112 59.6081 7.59718 59.5914 7.44691 59.6916C6.47848 60.2593 5.52674 60.8437 4.57501 61.4448C3.00548 62.4299 1.03522 61.8455 0.250457 60.1925C0.183668 60.0422 0.100183 59.9086 0.0166971 59.775C0.0166971 59.2407 0.0166971 58.6897 0.0166971 58.1554C0.40073 57.1703 1.11871 56.5358 2.00365 56.0349C2.8552 55.5507 3.65667 54.9997 4.49152 54.4821C5.45995 53.8643 5.52674 53.6973 5.25959 52.4283C5.1761 52.4784 5.10931 52.5118 5.05922 52.5452C3.55648 53.6639 1.80329 53.5136 0.734673 52.1779C-0.317245 50.8588 -0.0667884 49.0555 1.35247 47.87C2.23741 47.1353 3.07227 46.3339 4.024 45.7161C5.12601 44.9981 5.57683 44.1132 5.39316 42.8108C5.32638 42.3767 5.24289 42.1095 4.85886 41.8757C2.98878 40.6903 1.45265 39.2042 0.617793 37.1171C0.367336 36.4826 0.217062 35.8147 0.0166971 35.1635C0 26.0135 0 16.8802 0 7.76357ZM7.497 52.612C8.43204 52.0276 9.26689 51.5267 10.0851 51.0091C15.7955 47.4693 21.5226 43.9462 27.233 40.4064C27.4333 40.2895 27.7005 40.0892 27.7005 39.9055C27.7506 38.7868 27.7172 37.6848 27.7172 36.5828C20.3705 38.1356 13.5247 37.5178 7.4803 32.6423C7.497 39.2543 7.497 45.8831 7.497 52.612ZM27.7005 47.3858C21.6728 51.0425 15.712 54.649 9.58414 58.3558C10.6194 58.9569 11.4709 59.558 12.4059 59.9754C17.1813 62.1293 22.1237 62.3798 27.1662 61.1108C27.617 60.9939 27.7339 60.7936 27.7339 60.3427C27.7172 56.2353 27.7172 52.1445 27.7172 48.037C27.7339 47.87 27.7172 47.6863 27.7005 47.3858ZM61.8628 23.5924C61.8795 22.7075 60.9444 22.1231 60.143 22.5572C59.7589 22.7576 59.4083 23.0247 59.041 23.2585C42.9283 33.2099 26.8322 43.1781 10.7195 53.1296C8.0814 54.7659 5.44326 56.3855 2.80511 58.0218C2.13723 58.4226 1.97026 58.8567 2.27081 59.3242C2.57135 59.8084 2.95539 59.8418 3.65667 59.4244C4.22437 59.0905 4.80877 58.7565 5.37647 58.4059C19.402 49.9071 33.4276 41.4249 47.4532 32.9261C51.9948 30.1711 56.5364 27.4328 61.078 24.6777C61.5288 24.444 61.8628 24.1434 61.8628 23.5924ZM2.15393 13.2736C2.13723 13.5074 2.12053 13.6076 2.12053 13.7077C2.12053 20.4868 2.08714 27.2825 2.13723 34.0615C2.15393 36.2154 3.13906 37.9853 4.85886 39.3044C4.97574 39.4046 5.12601 39.4547 5.34307 39.5882C5.34307 39.271 5.34307 39.0372 5.34307 38.8202C5.34307 35.247 5.34307 31.6571 5.34307 28.0839C5.34307 26.3307 5.94417 24.8447 7.17975 23.5924C7.33003 23.4421 7.46361 23.175 7.46361 22.9579C7.4803 20.9877 7.4803 19.0007 7.46361 17.0305C7.46361 16.8468 7.31333 16.5796 7.16306 16.5128C5.32638 15.7615 3.69006 14.7263 2.15393 13.2736ZM26.6486 34.5791C25.9807 33.9613 25.4464 33.427 24.8453 32.9261C24.695 32.8092 24.4279 32.7758 24.2275 32.8092C22.3908 33.1432 20.5374 33.1599 18.7008 32.8593C16.9977 32.5755 15.378 32.0412 14.0757 30.839C12.3058 29.2193 12.3559 27.032 14.2259 25.5126C14.6768 25.1453 15.1777 24.8614 15.712 24.4941C15.0107 23.8429 14.3094 23.1917 13.6081 22.5572C13.5247 22.4737 13.341 22.457 13.2241 22.4904C11.4542 23.0748 9.75111 23.7928 8.48213 25.2454C7.38012 26.4977 7.17976 27.917 7.91443 29.4197C8.46543 30.5551 9.35038 31.4067 10.3689 32.1246C12.8735 33.9112 15.7287 34.7461 18.7508 35.0967C21.3556 35.414 23.9603 35.2303 26.6486 34.5791ZM10.3021 12.8061C9.71772 12.372 9.13332 12.0213 8.6658 11.5872C7.12966 10.168 7.07957 8.26448 8.51552 6.72835C9.30029 5.89349 10.2854 5.35918 11.3707 4.99185C13.7918 4.17369 16.263 4.1069 18.7675 4.52433C18.9345 4.55772 19.185 4.60781 19.2852 4.50763C19.9697 3.92323 20.6209 3.30544 21.3556 2.65425C21.1385 2.58747 21.0384 2.55407 20.9382 2.53737C17.1646 1.93628 13.3911 1.96967 9.66762 2.83792C7.58049 3.32214 5.59353 4.02342 3.90712 5.37588C3.15575 5.99367 2.53796 6.71165 2.27081 7.68008C1.87008 9.14943 2.47117 10.3349 3.37282 11.4035C4.6418 12.8729 6.27811 13.8079 8.048 14.5259C8.16488 14.576 8.34855 14.576 8.43204 14.5092C9.06653 13.9582 9.68432 13.3738 10.3021 12.8061ZM27.0326 32.0245C27.617 32.5588 28.2181 33.1098 28.8192 33.6441C28.9194 33.7276 29.1364 33.7943 29.2533 33.7443C31.3739 32.8593 33.3441 31.7573 34.5797 29.7203C35.5481 28.134 35.3979 26.4643 33.9953 25.1786C33.1104 24.3605 32.0584 23.6425 30.9564 23.1583C27.0827 21.4218 22.9585 21.1713 18.7842 21.4719C17.8826 21.5387 16.9977 21.6889 15.9624 21.8225C16.6637 22.4737 17.198 23.0247 17.7824 23.5089C17.9661 23.6592 18.3 23.7761 18.5505 23.7427C20.4873 23.4254 22.4075 23.4088 24.3277 23.7928C26.131 24.1434 27.8174 24.7779 29.0363 26.2473C30.1884 27.6498 30.1216 29.3028 28.8526 30.5885C28.3517 31.0894 27.6838 31.5068 27.0326 32.0245ZM21.6061 5.30909C22.107 5.64303 22.5578 5.89349 22.9585 6.21074C24.9956 7.81366 25.0457 10.1012 23.0921 11.7876C22.1738 12.5723 21.1051 13.0565 19.9363 13.3738C17.6822 13.9749 15.4114 14.0083 13.1239 13.6243C12.9403 13.5909 12.6731 13.5742 12.5562 13.6743C11.9384 14.192 11.354 14.743 10.7195 15.3274C10.8865 15.3941 10.9867 15.4442 11.0702 15.4609C15.5617 16.4127 19.9697 16.1622 24.2275 14.409C25.964 13.691 27.5335 12.7393 28.7357 11.27C30.3887 9.23291 30.1884 7.16247 28.2014 5.45937C27.0326 4.45754 25.6634 3.80635 24.2108 3.33883C24.0438 3.28874 23.7767 3.32214 23.6598 3.42232C22.9752 4.02342 22.3073 4.65791 21.6061 5.30909ZM36.2995 24.5108C36.4665 24.3772 36.6167 24.277 36.767 24.1601C44.9152 17.5982 53.0467 11.0529 61.1949 4.49093C61.3619 4.35736 61.5288 4.22378 61.6457 4.05681C61.963 3.65608 61.9797 3.20526 61.7292 2.77113C61.4787 2.33701 61.0613 2.08655 60.5771 2.18673C60.2431 2.25352 59.9259 2.45389 59.6588 2.67095C52.0616 8.89897 44.4644 15.127 36.8672 21.3717C36.216 21.906 35.5648 22.457 34.9136 22.9913C35.3812 23.5089 35.8153 23.9932 36.2995 24.5108ZM35.1975 42.8943C34.8636 43.0946 34.6465 43.2115 34.4461 43.3284C33.077 44.1466 31.7078 44.9981 30.3219 45.7829C29.9546 45.9832 29.8544 46.217 29.8544 46.6177C29.8711 50.8922 29.8711 55.1499 29.8711 59.4244C29.8711 59.6081 29.8878 59.7917 29.9045 60.1758C30.8729 59.5246 31.7579 59.007 32.5594 58.3558C34.3626 56.9031 35.2977 55.0164 35.2309 52.6454C35.1641 50.3245 35.2142 47.9869 35.2142 45.6493C35.1975 44.7977 35.1975 43.9295 35.1975 42.8943ZM29.8377 13.4072C23.7767 18.3328 16.9142 18.9172 9.63423 17.3978C9.63423 18.8504 9.63423 20.253 9.63423 21.6723C16.2129 18.6501 22.9585 18.6501 29.8377 20.3532C29.8377 18.0156 29.8377 15.7114 29.8377 13.4072ZM15.929 11.7542C17.3984 11.7208 18.851 11.5705 20.2035 11.0028C20.7378 10.7857 21.2554 10.4852 21.7062 10.1346C22.6079 9.43328 22.6079 8.7153 21.7062 7.98063C21.3556 7.69678 20.9549 7.42962 20.5374 7.27935C17.4986 6.07716 14.443 6.07716 11.4208 7.29605C10.8531 7.52981 10.3355 7.98063 9.86799 8.41475C9.45056 8.81549 9.45056 9.36649 9.86799 9.75052C10.3355 10.1846 10.8531 10.5854 11.4208 10.8525C12.8568 11.5538 14.3929 11.7041 15.929 11.7542ZM21.3389 30.9725C22.107 30.9058 22.875 30.8724 23.6264 30.7388C24.8954 30.5384 26.1143 30.1711 27.0994 29.3195C27.9176 28.6182 27.9343 27.9003 27.0994 27.2324C26.5818 26.8317 25.9807 26.481 25.3796 26.264C22.9919 25.4124 20.5708 25.3957 18.1331 25.9968C17.1145 26.2473 16.1461 26.6313 15.3947 27.3827C14.8103 27.9671 14.7936 28.5515 15.3947 29.1192C15.6953 29.4197 16.0793 29.6702 16.4466 29.8705C17.9661 30.7054 19.6358 30.9224 21.3389 30.9725ZM29.8711 38.7701C31.641 37.6681 33.3274 36.6496 34.9804 35.5976C35.0806 35.5308 35.1808 35.3639 35.1808 35.247C35.1975 34.3621 35.1975 33.4771 35.1975 32.5922C35.0973 32.5922 35.0639 32.5922 35.0472 32.5922C33.5779 33.8945 31.9583 34.9798 30.1216 35.6978C30.0214 35.7312 29.8711 35.8815 29.8711 35.9817C29.8544 36.8833 29.8711 37.7683 29.8711 38.7701ZM5.34307 47.319C4.39134 48.1205 3.55648 48.805 2.73833 49.4896C2.65484 49.5564 2.53796 49.6065 2.50457 49.69C2.42108 49.9738 2.25411 50.3078 2.33759 50.5415C2.42108 50.7753 2.73833 51.0091 3.00548 51.0926C3.4563 51.2261 5.30968 49.7568 5.32638 49.2893C5.35977 48.6882 5.34307 48.1038 5.34307 47.319Z" fill="white"/>
</g>
<defs>
<clipPath id="clip0_37_491">
<rect width="64" height="64" fill="white"/>
</clipPath>
</defs>
</svg>
