<svg width="16" height="20" viewBox="0 0 16 20" fill="none" xmlns="http://www.w3.org/2000/svg">
<g clip-path="url(#clip0_127_1370)">
<path d="M9.00822 12.0452C9.07372 13.1884 8.91891 14.3019 8.47235 15.3558C8.26395 15.85 7.99601 16.3263 7.72212 16.7907C7.48991 17.1837 7.06121 17.2492 6.68015 16.9991C5.95969 16.5168 5.37619 15.9035 4.94153 15.1474C4.91176 15.0997 4.88199 15.0521 4.79268 15.0104C4.79268 15.4629 4.76291 15.9214 4.79863 16.3739C4.87008 17.267 5.13802 18.1006 5.56672 18.8866C5.74534 19.22 5.70962 19.5356 5.48932 19.7737C5.26306 20.0119 4.9594 20.0595 4.61405 19.8988C2.29193 18.8211 0.874846 17.011 0.285385 14.54C-0.161176 12.6823 -0.0182766 10.8246 0.344927 8.97291C0.583093 7.75826 0.970113 6.59125 1.48217 5.46591C1.67866 5.03721 2.10736 4.87645 2.49438 5.08485C2.69682 5.19202 2.83972 5.37064 2.85163 5.59095C2.87544 6.10896 3.13742 6.50789 3.45895 6.87109C3.68521 7.12117 3.93528 7.35338 4.19131 7.60941C4.73909 6.95445 5.10229 6.25186 5.26901 5.454C5.57863 3.92974 5.22138 2.52456 4.4652 1.20274C4.34612 1.0003 4.25085 0.797855 4.31635 0.553735C4.40566 0.238165 4.64383 0.023815 4.9713 0.0119067C6.98976 -0.0714514 8.75219 0.559689 10.1336 2.03632C11.1577 3.13188 11.7233 4.49538 11.9972 5.97201C12.0627 6.33522 12.0984 6.70437 12.152 7.12116C12.289 6.96636 12.4199 6.82941 12.5271 6.68056C12.676 6.47812 12.8129 6.26377 12.9439 6.04942C13.2357 5.59095 13.8013 5.55522 14.1407 5.98392C14.7183 6.71628 15.0517 7.56177 15.272 8.4549C15.7007 10.2054 15.8972 11.9798 15.5578 13.7541C14.9743 16.7788 13.188 18.833 10.3062 19.9345C10.0145 20.0476 9.72867 20.006 9.49051 19.7916C9.25234 19.5832 9.21066 19.3093 9.29402 19.0176C9.57982 17.9458 9.78821 16.8622 9.8418 15.7487C9.89539 14.6294 9.78821 13.5397 9.31784 12.5037C9.24043 12.337 9.15112 12.1822 9.06181 12.0214C9.04394 12.0333 9.02608 12.0393 9.00822 12.0452ZM3.51849 17.4516C3.52444 17.3921 3.5304 17.3802 3.5304 17.3683C3.52444 17.3325 3.51254 17.2968 3.50658 17.2611C3.11361 15.5403 3.39941 13.9446 4.3878 12.4799C4.58428 12.1941 4.87604 12.075 5.1797 12.1584C5.50122 12.2477 5.67389 12.4918 5.72153 12.8431C5.76321 13.1527 5.81679 13.4623 5.90611 13.7541C6.10259 14.3674 6.44793 14.8973 6.94808 15.3379C7.37678 14.5103 7.59113 13.6588 7.62686 12.7538C7.66258 11.9023 7.50777 11.0866 7.21007 10.2888C7.02549 9.80649 7.28747 9.31825 7.75785 9.28848C7.95433 9.27657 8.17464 9.34206 8.35326 9.43138C9.55005 10.0268 10.3241 11.0092 10.8004 12.2358C11.372 13.7065 11.3958 15.2367 11.2172 16.7788C11.1696 17.1777 11.1041 17.5767 11.0386 18.0054C11.1279 17.9518 11.1934 17.922 11.2529 17.8803C12.4854 17.0944 13.3548 16.0167 13.8728 14.6532C14.2241 13.7362 14.2836 12.7776 14.2836 11.8071C14.2836 10.4912 14.0871 9.21703 13.6465 7.98452C13.6227 7.91307 13.587 7.84162 13.5512 7.75231C13.069 8.31795 12.5212 8.73474 11.9198 9.09794C11.3065 9.4671 10.6992 9.0384 10.7409 8.37154C10.8183 7.22239 10.6694 6.08514 10.3003 4.98958C9.71081 3.24501 8.58547 2.04823 6.7635 1.5838C6.61465 1.54808 6.45984 1.52426 6.31099 1.50045C6.30503 1.54212 6.29908 1.55999 6.30503 1.57189C6.3229 1.62548 6.35267 1.67907 6.37053 1.73861C7.32915 4.42989 6.85877 6.83537 4.92962 8.94314C4.59024 9.31825 4.23894 9.35993 3.84597 9.05031C3.39941 8.69902 2.98262 8.30604 2.55392 7.92498C2.44079 7.82376 2.34552 7.69872 2.22644 7.56773C2.19667 7.65704 2.17285 7.71658 2.14903 7.77612C1.74415 9.05031 1.52385 10.3602 1.44049 11.688C1.35713 13.0694 1.54171 14.3971 2.18476 15.6416C2.5301 16.3084 2.9588 16.9098 3.51849 17.4516Z" fill="white"/>
</g>
<defs>
<clipPath id="clip0_127_1370">
<rect width="15.7309" height="20" fill="white"/>
</clipPath>
</defs>
</svg>
