<svg width="20" height="20" viewBox="0 0 20 20" fill="none" xmlns="http://www.w3.org/2000/svg">
<path fill-rule="evenodd" clip-rule="evenodd" d="M10.0002 9.16675C9.75294 9.16675 9.51126 9.09344 9.3057 8.95609C9.10014 8.81873 8.93992 8.62351 8.84531 8.3951C8.7507 8.1667 8.72595 7.91536 8.77418 7.67289C8.82241 7.43041 8.94146 7.20768 9.11628 7.03286C9.2911 6.85805 9.51382 6.739 9.7563 6.69077C9.99878 6.64254 10.2501 6.66729 10.4785 6.7619C10.7069 6.85651 10.9021 7.01672 11.0395 7.22229C11.1769 7.42785 11.2502 7.66952 11.2502 7.91675C11.2502 8.24827 11.1185 8.56621 10.884 8.80063C10.6496 9.03505 10.3317 9.16675 10.0002 9.16675ZM10.0002 5.00008C9.4233 5.00008 8.85939 5.17114 8.37975 5.49163C7.90011 5.81212 7.52627 6.26764 7.30551 6.80059C7.08476 7.33354 7.027 7.91998 7.13954 8.48576C7.25208 9.05154 7.52987 9.57124 7.93777 9.97914C8.34567 10.387 8.86537 10.6648 9.43115 10.7774C9.99693 10.8899 10.5834 10.8322 11.1163 10.6114C11.6493 10.3906 12.1048 10.0168 12.4253 9.53716C12.7458 9.05752 12.9168 8.49361 12.9168 7.91675C12.9168 7.1432 12.6095 6.40133 12.0626 5.85435C11.5156 5.30737 10.7737 5.00008 10.0002 5.00008V5.00008ZM10.0002 16.3751C8.60016 15.0501 5.00016 11.3751 5.00016 8.26675C5.00016 6.94067 5.52695 5.6689 6.46463 4.73121C7.40231 3.79353 8.67408 3.26675 10.0002 3.26675C11.3262 3.26675 12.598 3.79353 13.5357 4.73121C14.4734 5.6689 15.0002 6.94067 15.0002 8.26675C15.0002 11.3417 11.4002 15.0501 10.0002 16.3751ZM10.0002 1.66675C8.24354 1.66666 6.55788 2.35988 5.30953 3.59574C4.06119 4.8316 3.35106 6.51022 3.3335 8.26675C3.3335 12.8334 9.2085 17.9167 9.4585 18.1334C9.60944 18.2625 9.80154 18.3335 10.0002 18.3335C10.1988 18.3335 10.3909 18.2625 10.5418 18.1334C10.8335 17.9167 16.6668 12.8334 16.6668 8.26675C16.6493 6.51022 15.9391 4.8316 14.6908 3.59574C13.4425 2.35988 11.7568 1.66666 10.0002 1.66675Z" fill="#232043"/>
</svg>
