<svg width="32" height="28" viewBox="0 0 32 28" fill="none" xmlns="http://www.w3.org/2000/svg">
<g clip-path="url(#clip0_145_335)">
<path d="M0 6.66208C0.250457 6.05263 0.69293 5.82722 1.35247 5.84392C2.94704 5.86897 4.54161 5.85227 6.13619 5.85227C6.21967 5.85227 6.30316 5.85227 6.38664 5.85227C6.70389 5.86897 6.93765 6.08603 6.93765 6.37823C6.946 6.67878 6.70389 6.91253 6.36995 6.91253C5.44326 6.92088 4.51657 6.91253 3.58988 6.91253C2.76337 6.91253 1.94521 6.91253 1.09366 6.91253C1.09366 11.5293 1.09366 16.1377 1.09366 20.7628C4.78372 20.7628 8.48213 20.7628 12.2306 20.7628C9.83459 19.0597 8.54892 16.7889 8.54057 13.8585C8.53222 10.9198 9.80955 8.64068 12.2557 6.90419C12.0804 6.90419 11.9885 6.90419 11.8883 6.90419C10.9783 6.90419 10.0767 6.90419 9.16671 6.90419C8.76598 6.90419 8.53222 6.70382 8.53222 6.36988C8.53222 6.03594 8.76598 5.83557 9.16671 5.83557C16.4049 5.83557 23.6431 5.83557 30.8896 5.83557C31.5408 5.83557 32 6.27804 32 6.92923C32 11.5376 32 16.1377 32 20.7461C32 21.3806 31.5492 21.8231 30.9147 21.8314C30.8312 21.8314 30.7477 21.8314 30.6642 21.8314C20.8964 21.8314 11.1203 21.8314 1.35247 21.8397C0.701278 21.8397 0.250457 21.6227 0 21.0216C0 16.2546 0 11.4541 0 6.66208ZM19.7694 20.7628C23.5179 20.7628 27.2163 20.7628 30.9147 20.7628C30.9147 16.1377 30.9147 11.5376 30.9147 6.93758C27.1996 6.93758 23.5095 6.93758 19.7694 6.93758C24.695 10.2019 24.6783 17.5319 19.7694 20.7628ZM22.3992 14.2676C22.3992 12.3641 21.9984 11.0033 21.1636 9.75939C18.9512 6.46171 14.5849 5.95245 11.7631 8.65738C9.06653 11.2454 8.86616 15.737 11.3123 18.5588C13.4913 21.0717 16.9726 21.5225 19.569 19.594C21.4808 18.1831 22.3407 16.2128 22.3992 14.2676Z" fill="black" stroke="black" stroke-width="0.5" stroke-linejoin="round"/>
<path d="M27.6418 1.06025C26.8571 1.32741 26.089 1.57786 25.3209 1.83667C22.3155 2.84684 19.31 3.84867 16.3045 4.8505C16.1459 4.90059 15.9205 4.94233 15.8036 4.86719C15.6533 4.77536 15.503 4.56664 15.478 4.39132C15.4363 4.11582 15.645 3.9405 15.9038 3.85702C17.1978 3.43124 18.4835 2.99712 19.7775 2.56299C22.2487 1.73649 24.7198 0.90163 27.1994 0.0834722C27.3997 0.0166837 27.6335 -0.025059 27.8338 0.0083352C28.2763 0.0751236 28.5435 0.358974 28.6854 0.784751C29.0527 1.88676 29.4284 2.98877 29.7957 4.09078C29.9293 4.49151 29.8208 4.79206 29.5119 4.89224C29.1947 5.00077 28.9275 4.8338 28.7939 4.44142C28.4433 3.41454 28.101 2.39602 27.7587 1.36915C27.7253 1.27732 27.6836 1.18548 27.6418 1.06025Z" fill="black" stroke="black" stroke-width="0.5" stroke-linejoin="round"/>
<path d="M4.35808 26.6569C5.15119 26.3897 5.91926 26.1309 6.68733 25.8805C9.70115 24.8703 12.7233 23.8601 15.7372 22.85C15.9876 22.7665 16.2381 22.7414 16.3883 22.9752C16.4802 23.1171 16.5386 23.3676 16.4802 23.5178C16.4217 23.6681 16.213 23.81 16.0461 23.8685C14.2678 24.4779 12.4812 25.079 10.6946 25.6718C8.77446 26.3146 6.8543 26.9574 4.92578 27.6003C4.03249 27.9008 3.55662 27.6587 3.25607 26.7571C2.89708 25.6801 2.52975 24.6115 2.17911 23.5345C2.03718 23.0837 2.37947 22.6746 2.7969 22.8249C2.96387 22.8833 3.13084 23.0837 3.18928 23.2507C3.55662 24.2776 3.89891 25.3128 4.2412 26.348C4.27459 26.4315 4.30799 26.515 4.35808 26.6569Z" fill="black" stroke="black" stroke-width="0.5" stroke-linejoin="round"/>
<path d="M3.19796 9.04989C3.19796 9.5675 3.19796 10.0434 3.19796 10.5192C3.19796 10.9534 3.01429 11.1788 2.672 11.1788C2.32971 11.1788 2.1377 10.945 2.1377 10.5192C2.1377 9.8931 2.1377 9.26696 2.1377 8.64916C2.1377 8.18164 2.33806 7.98962 2.80558 7.98962C3.43172 7.98962 4.05786 7.98962 4.67566 7.98962C5.10143 7.98962 5.32684 8.18999 5.32684 8.54063C5.31849 8.87457 5.10143 9.05824 4.684 9.05824C4.20814 9.04989 3.72392 9.04989 3.19796 9.04989Z" fill="black" stroke="black" stroke-width="0.5" stroke-linejoin="round"/>
<path d="M3.19792 18.659C3.73223 18.659 4.21645 18.659 4.70901 18.659C5.10974 18.659 5.33515 18.8594 5.3268 19.2017C5.31846 19.5189 5.09304 19.7193 4.71736 19.7276C4.05782 19.736 3.40664 19.736 2.7471 19.7276C2.33802 19.7276 2.13766 19.5189 2.12931 19.1098C2.12096 18.4503 2.12096 17.7991 2.12931 17.1396C2.12931 16.7639 2.33802 16.5385 2.65527 16.5301C2.98921 16.5218 3.18957 16.7555 3.18957 17.1479C3.19792 17.6405 3.19792 18.1247 3.19792 18.659Z" fill="black" stroke="black" stroke-width="0.5" stroke-linejoin="round"/>
<path d="M28.8029 9.0498C28.2603 9.0498 27.7677 9.0498 27.2835 9.0498C26.8995 9.0498 26.6824 8.85778 26.6741 8.53219C26.6657 8.2066 26.8911 7.99789 27.2668 7.98954C27.9347 7.98119 28.6026 7.98119 29.2621 7.98954C29.6545 7.98954 29.8632 8.19825 29.8632 8.59063C29.8716 9.25851 29.8716 9.9264 29.8632 10.5859C29.8632 10.9616 29.6462 11.1787 29.3206 11.1787C28.995 11.1787 28.8029 10.9616 28.7946 10.5776C28.8029 10.0767 28.8029 9.58411 28.8029 9.0498Z" fill="black" stroke="black" stroke-width="0.5" stroke-linejoin="round"/>
<path d="M28.8023 18.659C28.8023 18.1164 28.8023 17.6238 28.8023 17.1396C28.8023 16.7555 28.9943 16.5385 29.3199 16.5301C29.6538 16.5218 29.8625 16.7555 29.8625 17.1479C29.8709 17.7908 29.8709 18.442 29.8625 19.0848C29.8625 19.5189 29.6622 19.7193 29.228 19.7193C28.5852 19.7276 27.934 19.7276 27.2912 19.7193C26.8904 19.7193 26.665 19.5106 26.665 19.1766C26.665 18.8427 26.8904 18.6507 27.2995 18.6507C27.7921 18.659 28.2847 18.659 28.8023 18.659Z" fill="black" stroke="black" stroke-width="0.5" stroke-linejoin="round"/>
<path d="M15.4615 16.9643C15.4615 16.1044 15.4698 15.3029 15.4531 14.5098C15.4531 14.4347 15.3195 14.3178 15.2194 14.2927C14.2092 14.0089 13.4996 13.2325 13.3576 12.2473C13.2074 11.1787 13.9671 10.06 15.0774 9.72609C15.2861 9.6593 15.4698 9.63425 15.5449 9.35875C15.5783 9.22518 15.8455 9.06655 16.0041 9.0749C16.1711 9.08325 16.4048 9.24187 16.4716 9.39215C16.5551 9.58416 16.6553 9.65095 16.8306 9.70104C17.8408 9.97654 18.5337 10.8031 18.6506 11.8466C18.6924 12.2056 18.5087 12.4644 18.1914 12.5062C17.8992 12.5479 17.6655 12.3475 17.5987 11.9969C17.4735 11.2873 17.1395 10.8865 16.5551 10.7697C16.5468 10.8531 16.5301 10.9283 16.5301 11.0034C16.5301 11.688 16.5384 12.3809 16.5217 13.0655C16.5217 13.2742 16.5718 13.3661 16.7972 13.4245C17.7907 13.7 18.4168 14.3512 18.6089 15.3614C18.8259 16.4717 18.0495 17.6238 16.9058 17.9745C16.697 18.0412 16.5134 18.0663 16.4382 18.3418C16.4048 18.4754 16.1377 18.634 15.9791 18.6256C15.8121 18.6173 15.5783 18.4587 15.5116 18.3084C15.4281 18.1164 15.3279 18.0496 15.1442 17.9995C14.134 17.724 13.4411 16.8975 13.3242 15.8539C13.2825 15.4949 13.4662 15.2361 13.7834 15.1944C14.0756 15.1526 14.3177 15.353 14.3678 15.7036C14.4847 16.3298 14.7852 16.7556 15.4615 16.9643ZM15.4448 10.7864C14.9021 10.8531 14.4346 11.3874 14.4095 11.9551C14.3845 12.5062 14.8437 13.0655 15.4448 13.2074C15.4448 12.3976 15.4448 11.5962 15.4448 10.7864ZM16.5551 16.9392C17.1729 16.8057 17.6321 16.2213 17.5987 15.6703C17.5569 15.1026 17.0894 14.5766 16.5551 14.5265C16.5551 15.3196 16.5551 16.1211 16.5551 16.9392Z" fill="black" stroke="black" stroke-width="0.5" stroke-linejoin="round"/>
</g>
<defs>
<clipPath id="clip0_145_335">
<rect width="32" height="27.7088" fill="white"/>
</clipPath>
</defs>
</svg>
