<?xml version="1.0" encoding="UTF-8"?>
<svg xmlns="http://www.w3.org/2000/svg" xmlns:xlink="http://www.w3.org/1999/xlink" viewBox="0 0 48 48" width="48px" height="48px">
<g id="surface18947">
<path style=" stroke:none;fill-rule:nonzero;fill:rgb(30.980393%,76.47059%,96.862745%);fill-opacity:1;" d="M 38.699219 23.648438 C 38.699219 29.640625 31.960938 34.5 23.648438 34.5 C 15.339844 34.5 8.601562 29.640625 8.601562 23.648438 C 8.601562 17.65625 15.339844 12.800781 23.648438 12.800781 C 31.960938 12.800781 38.699219 17.65625 38.699219 23.648438 Z M 38.699219 23.648438 "/>
<path style=" stroke:none;fill-rule:nonzero;fill:rgb(98.039216%,98.039216%,98.039216%);fill-opacity:1;" d="M 22.929688 24.664062 C 21.546875 20.785156 19.511719 17.046875 18.671875 15.566406 C 18.421875 15.132812 18.121094 14.734375 17.765625 14.382812 L 15.980469 12.59375 C 15.707031 12.320312 14.992188 12.59375 14.992188 12.59375 L 13.847656 13.3125 L 13.734375 14.9375 L 13.339844 14.898438 C 12.976562 14.898438 12.683594 15.195312 12.683594 15.554688 C 12.683594 15.921875 12.972656 16.234375 13.335938 16.230469 C 14.671875 16.207031 15.835938 17.351562 15.835938 17.351562 L 17.234375 17.351562 C 17.457031 17.574219 18.03125 18.304688 18.164062 19.058594 C 18.238281 19.484375 18.273438 19.917969 18.246094 20.351562 C 18.019531 24.433594 18.984375 25.398438 18.984375 25.398438 C 15.132812 22.949219 8.609375 23.324219 8.609375 23.324219 L 8.746094 25.4375 L 10.699219 28.898438 C 11.34375 29.046875 11.222656 28.460938 11.933594 28.546875 C 16.273438 29.066406 21.433594 28.550781 21.433594 28.550781 C 22.484375 28.550781 22.804688 27.996094 23.300781 27.5 C 24 26.800781 23.195312 25.402344 22.929688 24.664062 Z M 22.929688 24.664062 "/>
<path style=" stroke:none;fill-rule:nonzero;fill:rgb(98.039216%,98.039216%,98.039216%);fill-opacity:1;" d="M 24.640625 24.664062 C 26.023438 20.785156 28.058594 17.046875 28.898438 15.566406 C 29.144531 15.132812 29.449219 14.734375 29.800781 14.382812 L 31.589844 12.59375 C 31.863281 12.320312 32.578125 12.59375 32.578125 12.59375 L 33.667969 13.5 L 33.835938 14.9375 L 34.226562 14.898438 C 34.589844 14.898438 34.882812 15.195312 34.882812 15.554688 C 34.882812 15.921875 34.59375 16.234375 34.230469 16.230469 C 32.894531 16.207031 31.734375 17.351562 31.734375 17.351562 L 30.335938 17.351562 C 30.109375 17.574219 29.535156 18.304688 29.40625 19.058594 C 29.328125 19.484375 29.296875 19.917969 29.320312 20.351562 C 29.546875 24.433594 28.585938 25.398438 28.585938 25.398438 C 32.433594 22.949219 39.085938 23.300781 39.085938 23.300781 L 38.96875 25.398438 L 36.867188 28.898438 C 36.226562 29.046875 36.347656 28.460938 35.632812 28.546875 C 31.292969 29.066406 26.132812 28.550781 26.132812 28.550781 C 25.085938 28.550781 24.765625 27.996094 24.269531 27.5 C 23.570312 26.800781 24.375 25.402344 24.640625 24.664062 Z M 24.640625 24.664062 "/>
<path style=" stroke:none;fill-rule:nonzero;fill:rgb(10.196079%,13.725491%,49.411765%);fill-opacity:1;" d="M 37.882812 18.628906 C 37.664062 18.335938 37.429688 18.0625 37.1875 17.796875 C 37.148438 17.753906 37.101562 17.710938 37.058594 17.667969 C 36.84375 17.4375 36.621094 17.21875 36.386719 17.011719 C 36.371094 16.996094 36.351562 16.980469 36.332031 16.964844 C 35.921875 16.597656 35.492188 16.253906 35.042969 15.945312 C 35.089844 15.824219 35.117188 15.691406 35.117188 15.554688 C 35.117188 15.003906 34.667969 14.550781 34.082031 14.550781 C 34.082031 14.550781 34.078125 14.550781 34.078125 14.550781 L 34.066406 14.550781 L 34.066406 13.722656 C 34.066406 13.351562 33.867188 13 33.542969 12.816406 L 32.589844 12.269531 C 32.433594 12.207031 31.640625 11.933594 31.226562 12.347656 L 29.941406 13.632812 C 29.671875 13.558594 29.316406 13.457031 29.09375 13.40625 C 27.425781 13 25.710938 12.808594 24 12.800781 C 21.878906 12.796875 19.734375 13.074219 17.6875 13.691406 L 16.34375 12.347656 C 15.929688 11.933594 15.136719 12.207031 14.929688 12.292969 L 14.023438 12.816406 C 13.703125 13 13.5 13.351562 13.5 13.722656 L 13.5 14.554688 L 13.457031 14.550781 C 12.902344 14.550781 12.449219 15.003906 12.449219 15.554688 C 12.449219 15.773438 12.523438 15.988281 12.648438 16.160156 C 11.964844 16.664062 11.316406 17.21875 10.742188 17.859375 C 10.523438 18.101562 10.3125 18.359375 10.113281 18.625 C 9.046875 20.042969 8.644531 21.808594 8.601562 23.648438 C 8.574219 25.488281 8.917969 27.304688 9.953125 28.789062 C 10.988281 30.28125 12.367188 31.488281 13.890625 32.402344 C 16.953125 34.230469 20.496094 35.027344 24 35.097656 C 25.757812 35.078125 27.515625 34.875 29.230469 34.449219 C 30.9375 34.011719 32.597656 33.34375 34.121094 32.417969 C 35.632812 31.488281 37.019531 30.289062 38.050781 28.792969 C 39.085938 27.308594 39.402344 25.492188 39.378906 23.652344 C 39.332031 21.808594 38.949219 20.042969 37.882812 18.628906 Z M 35.753906 17.796875 C 35.914062 17.953125 36.070312 18.117188 36.21875 18.285156 C 36.285156 18.359375 36.355469 18.433594 36.421875 18.507812 C 36.625 18.753906 36.820312 19 37 19.261719 C 37.761719 20.367188 38.25 21.636719 38.371094 22.933594 C 36.777344 22.910156 32.457031 23.011719 29.238281 24.570312 C 29.476562 23.777344 29.671875 22.460938 29.554688 20.332031 C 29.535156 19.945312 29.558594 19.535156 29.632812 19.117188 C 29.730469 18.566406 30.125 17.984375 30.371094 17.699219 L 30.878906 17.699219 C 31.390625 17.699219 31.882812 17.542969 32.296875 17.246094 C 32.734375 16.9375 33.390625 16.558594 34.109375 16.578125 C 34.160156 16.578125 34.207031 16.558594 34.257812 16.550781 C 34.441406 16.683594 34.632812 16.820312 34.8125 16.960938 C 34.863281 17.003906 34.914062 17.046875 34.96875 17.089844 C 35.160156 17.25 35.34375 17.410156 35.523438 17.578125 C 35.601562 17.652344 35.679688 17.722656 35.753906 17.796875 Z M 24 13.5 C 25.660156 13.519531 27.3125 13.710938 28.917969 14.109375 C 29.066406 14.144531 29.207031 14.191406 29.351562 14.234375 C 29.011719 14.585938 28.714844 14.972656 28.480469 15.390625 C 27.65625 16.839844 25.59375 20.628906 24.195312 24.542969 C 24.140625 24.691406 24.078125 24.84375 24.015625 25.007812 C 23.9375 25.203125 23.855469 25.40625 23.785156 25.613281 C 23.710938 25.40625 23.628906 25.203125 23.550781 25.007812 C 23.488281 24.84375 23.425781 24.691406 23.375 24.542969 C 21.972656 20.625 19.910156 16.839844 19.089844 15.390625 C 18.882812 15.027344 18.621094 14.6875 18.335938 14.371094 C 20.164062 13.824219 22.085938 13.539062 24 13.5 Z M 11.003906 19.265625 C 11.179688 19.011719 11.371094 18.765625 11.570312 18.53125 C 11.636719 18.453125 11.710938 18.378906 11.777344 18.300781 C 11.917969 18.144531 12.0625 17.988281 12.214844 17.839844 C 12.296875 17.757812 12.378906 17.679688 12.460938 17.601562 C 12.621094 17.453125 12.785156 17.308594 12.953125 17.167969 C 13.023438 17.109375 13.09375 17.050781 13.164062 16.996094 C 13.332031 16.859375 13.511719 16.730469 13.6875 16.605469 C 14.308594 16.667969 14.882812 16.96875 15.269531 17.246094 C 15.6875 17.542969 16.175781 17.699219 16.6875 17.699219 L 17.199219 17.699219 C 17.445312 17.984375 17.839844 18.566406 17.933594 19.117188 C 18.007812 19.535156 18.035156 19.945312 18.015625 20.332031 C 17.894531 22.460938 18.09375 23.78125 18.328125 24.574219 C 15.394531 23.152344 11.515625 22.941406 9.632812 22.933594 C 9.753906 21.636719 10.242188 20.371094 11.003906 19.265625 Z M 11.566406 28.390625 C 11.429688 28.234375 11.289062 28.082031 11.164062 27.917969 C 10.230469 26.679688 9.644531 25.195312 9.597656 23.648438 C 9.597656 23.644531 9.597656 23.636719 9.597656 23.632812 C 11.613281 23.636719 16.058594 23.878906 18.914062 25.695312 C 19.058594 25.789062 19.25 25.757812 19.363281 25.621094 C 19.476562 25.488281 19.472656 25.289062 19.355469 25.160156 C 19.347656 25.148438 18.503906 24.164062 18.714844 20.371094 C 18.738281 19.929688 18.707031 19.46875 18.625 18.996094 C 18.472656 18.132812 17.832031 17.335938 17.597656 17.101562 C 17.53125 17.035156 17.441406 17 17.351562 17 L 16.6875 17 C 16.324219 17 15.972656 16.890625 15.675781 16.675781 C 15.15625 16.304688 14.328125 15.875 13.449219 15.878906 C 13.355469 15.882812 13.289062 15.835938 13.25 15.796875 C 13.1875 15.734375 13.148438 15.648438 13.148438 15.554688 C 13.148438 15.386719 13.289062 15.25 13.421875 15.25 L 13.816406 15.285156 C 13.894531 15.292969 13.96875 15.265625 14.03125 15.226562 L 14.304688 15.496094 C 14.371094 15.5625 14.460938 15.601562 14.550781 15.601562 C 14.585938 15.601562 14.625 15.59375 14.660156 15.582031 L 15.503906 15.300781 L 16.402344 16.199219 C 16.472656 16.265625 16.558594 16.300781 16.648438 16.300781 C 16.738281 16.300781 16.828125 16.265625 16.898438 16.199219 C 17.035156 16.0625 17.035156 15.839844 16.898438 15.703125 L 16.09375 14.898438 L 16.195312 14.796875 C 16.265625 14.730469 16.300781 14.640625 16.300781 14.550781 C 16.300781 14.460938 16.265625 14.371094 16.199219 14.300781 L 15.496094 13.601562 C 15.359375 13.464844 15.140625 13.464844 15.003906 13.601562 C 14.933594 13.671875 14.898438 13.761719 14.898438 13.851562 C 14.898438 13.941406 14.933594 14.027344 15.003906 14.097656 L 15.453125 14.550781 L 15.410156 14.59375 L 14.644531 14.847656 L 14.199219 14.40625 L 14.199219 13.722656 C 14.199219 13.597656 14.265625 13.484375 14.375 13.421875 L 15.230469 12.921875 C 15.484375 12.824219 15.785156 12.796875 15.847656 12.84375 L 17.636719 14.628906 C 17.96875 14.960938 18.253906 15.335938 18.480469 15.738281 C 19.292969 17.167969 21.335938 20.914062 22.714844 24.78125 C 22.769531 24.933594 22.835938 25.097656 22.902344 25.265625 C 23.144531 25.875 23.421875 26.566406 23.308594 27.074219 C 23.164062 27.714844 22.410156 28.199219 21.542969 28.199219 C 21.492188 28.203125 16.558594 28.296875 12.144531 28.207031 C 11.957031 28.203125 11.757812 28.28125 11.566406 28.390625 Z M 33.25 30.941406 C 31.867188 31.726562 30.34375 32.269531 28.78125 32.636719 C 27.222656 33.011719 25.613281 33.195312 24 33.203125 C 20.785156 33.210938 17.519531 32.539062 14.738281 30.957031 C 13.757812 30.398438 12.84375 29.722656 12.054688 28.933594 C 12.082031 28.925781 12.113281 28.910156 12.132812 28.90625 C 16.558594 28.996094 21.507812 28.902344 21.550781 28.898438 C 22.527344 28.898438 23.382812 28.429688 23.785156 27.730469 C 24.1875 28.429688 25.039062 28.898438 26.011719 28.898438 C 26.0625 28.902344 31.015625 28.996094 35.433594 28.90625 C 35.496094 28.910156 35.625 28.980469 35.773438 29.082031 C 35.023438 29.800781 34.171875 30.429688 33.25 30.941406 Z M 36.832031 27.914062 C 36.65625 28.144531 36.460938 28.359375 36.269531 28.574219 C 36.007812 28.382812 35.703125 28.207031 35.433594 28.207031 C 35.429688 28.207031 35.425781 28.207031 35.421875 28.207031 C 31.011719 28.292969 26.074219 28.199219 26.019531 28.199219 C 25.160156 28.199219 24.402344 27.714844 24.257812 27.074219 C 24.148438 26.566406 24.421875 25.875 24.664062 25.265625 C 24.734375 25.097656 24.796875 24.933594 24.851562 24.78125 C 26.230469 20.917969 28.273438 17.171875 29.085938 15.738281 C 29.316406 15.335938 29.601562 14.960938 29.933594 14.628906 L 31.71875 12.84375 C 31.785156 12.800781 32.082031 12.824219 32.289062 12.898438 L 33.195312 13.421875 C 33.300781 13.484375 33.367188 13.601562 33.367188 13.726562 L 33.367188 14.40625 L 32.925781 14.851562 L 32.15625 14.59375 L 32.113281 14.550781 L 32.566406 14.097656 C 32.632812 14.027344 32.667969 13.941406 32.667969 13.851562 C 32.667969 13.761719 32.632812 13.671875 32.566406 13.601562 C 32.429688 13.464844 32.207031 13.464844 32.070312 13.601562 L 31.371094 14.300781 C 31.300781 14.371094 31.269531 14.460938 31.269531 14.550781 C 31.269531 14.640625 31.304688 14.730469 31.371094 14.796875 L 31.472656 14.898438 L 30.671875 15.703125 C 30.535156 15.839844 30.535156 16.0625 30.671875 16.195312 C 30.738281 16.265625 30.828125 16.300781 30.917969 16.300781 C 31.007812 16.300781 31.097656 16.265625 31.167969 16.199219 L 32.0625 15.300781 L 32.90625 15.582031 C 32.945312 15.59375 32.980469 15.601562 33.019531 15.601562 C 33.109375 15.601562 33.199219 15.5625 33.265625 15.496094 L 33.535156 15.226562 C 33.601562 15.265625 33.675781 15.292969 33.753906 15.285156 L 34.113281 15.25 C 34.28125 15.25 34.417969 15.386719 34.417969 15.554688 C 34.417969 15.648438 34.382812 15.734375 34.320312 15.796875 C 34.28125 15.835938 34.210938 15.871094 34.121094 15.878906 C 33.226562 15.886719 32.414062 16.304688 31.890625 16.675781 C 31.59375 16.890625 31.246094 17 30.882812 17 L 30.21875 17 C 30.125 17 30.035156 17.035156 29.972656 17.101562 C 29.738281 17.335938 29.097656 18.132812 28.945312 18.996094 C 28.863281 19.46875 28.832031 19.929688 28.855469 20.371094 C 29.066406 24.164062 28.222656 25.148438 28.222656 25.152344 C 28.09375 25.277344 28.082031 25.480469 28.195312 25.617188 C 28.304688 25.757812 28.503906 25.789062 28.65625 25.695312 C 31.742188 23.730469 36.757812 23.617188 38.402344 23.636719 C 38.402344 23.640625 38.402344 23.644531 38.402344 23.648438 C 38.355469 25.195312 37.765625 26.675781 36.832031 27.914062 Z M 36.832031 27.914062 "/>
</g>
</svg>
