<svg width="20" height="20" viewBox="0 0 20 20" fill="none" xmlns="http://www.w3.org/2000/svg">
<path fill-rule="evenodd" clip-rule="evenodd" d="M5.49984 3.33341C4.30484 3.33341 3.33317 4.30508 3.33317 5.50008C3.33317 11.6567 8.34234 16.6667 14.4998 16.6667C15.694 16.6667 16.6665 15.6951 16.6665 14.5001C16.6665 14.4076 16.6607 14.3167 16.649 14.2267L12.799 13.3434C12.7223 13.4901 12.6382 13.6492 12.5615 13.7976C12.1815 14.5226 11.9065 15.0492 11.2048 14.7667C8.44984 13.8001 6.20067 11.5501 5.2215 8.76175C4.924 8.10758 5.49067 7.81091 6.209 7.43591C6.35484 7.35925 6.51234 7.27675 6.6565 7.20175L5.77317 3.35091C5.68067 3.33925 5.59067 3.33341 5.49984 3.33341M14.4998 18.3334C7.42317 18.3334 1.6665 12.5767 1.6665 5.50008C1.6665 3.38591 3.38567 1.66675 5.49984 1.66675C5.7165 1.66675 5.93067 1.68508 6.13817 1.72091C6.34067 1.75341 6.544 1.80508 6.74234 1.87341C7.01317 1.96758 7.21734 2.19508 7.2815 2.47508L8.42234 7.44508C8.48567 7.71842 8.4065 8.00508 8.2115 8.20841C8.09817 8.32675 8.09567 8.32925 7.06234 8.87008C7.899 10.6817 9.35317 12.1309 11.1282 12.9392C11.6698 11.9051 11.6732 11.9017 11.7915 11.7884C11.9948 11.5934 12.2832 11.5176 12.5548 11.5776L17.5257 12.7184C17.8048 12.7826 18.0323 12.9859 18.1257 13.2567C18.194 13.4534 18.2457 13.6567 18.2798 13.8659C18.3148 14.0717 18.3332 14.2851 18.3332 14.5001C18.3332 16.6142 16.6132 18.3334 14.4998 18.3334" fill="#232043"/>
</svg>
