<svg width="32" height="28" viewBox="0 0 32 28" fill="none" xmlns="http://www.w3.org/2000/svg">
<g clip-path="url(#clip0_143_1348)">
<path d="M0 9.60983C0 9.40502 0 9.19201 0 8.9872C0.0901178 8.82335 0.180236 8.6595 0.270353 8.49565C1.73682 5.90681 3.21966 3.32616 4.66974 0.729135C4.96467 0.204813 5.31695 0 5.915 0C12.6411 0.016385 19.3753 0.00819252 26.1014 0.00819252C26.1915 0.00819252 26.2898 0.00819252 26.3799 0.00819252C26.7486 0.00819252 27.0108 0.172043 27.191 0.491551C28.7394 3.22785 30.296 5.95596 31.8443 8.69227C31.9345 8.85612 32 9.06912 31.9918 9.24936C31.9099 11.0189 31.0988 12.3543 29.534 13.2145C29.321 13.3292 29.2473 13.4439 29.2473 13.6897C29.2555 18.1055 29.2555 22.5212 29.2555 26.9452C29.2555 27.6743 28.9688 27.9611 28.2396 27.9611C20.0799 27.9611 11.9283 27.9611 3.76856 27.9611C3.03123 27.9611 2.75269 27.6743 2.75269 26.9452C2.75269 22.5458 2.75269 18.1546 2.76088 13.7552C2.76088 13.4685 2.68715 13.3128 2.42499 13.1818C1.65489 12.7885 1.07322 12.1905 0.630824 11.4531C0.278546 10.8797 0.13108 10.2488 0 9.60983ZM7.09473 26.3799C7.09473 26.2079 7.09473 26.0768 7.09473 25.9375C7.09473 23.3323 7.11111 20.7271 7.08653 18.1219C7.07015 16.467 8.20072 15.3528 9.48694 15.2709C10.47 15.2053 11.4613 15.2627 12.4526 15.2791C12.5509 15.2791 12.6574 15.3118 12.7558 15.3364C14.001 15.6969 14.7465 16.7046 14.7465 18.0399C14.7547 20.6943 14.7465 23.3569 14.7465 26.0113C14.7465 26.1341 14.7465 26.2488 14.7465 26.3717C19.0804 26.3717 23.3651 26.3717 27.658 26.3717C27.658 22.1608 27.658 17.9662 27.658 13.7634C25.9457 13.7962 24.6103 13.1162 23.6027 11.7481C22.6523 13.0343 21.4071 13.7471 19.8177 13.7552C18.2202 13.7634 16.9667 13.0425 16 11.7563C15.0415 13.0343 13.7962 13.7552 12.2069 13.7552C10.6011 13.7552 9.34767 13.0507 8.38914 11.7563C7.38146 13.1244 6.0297 13.8044 4.32565 13.7716C4.32565 17.9908 4.32565 22.1854 4.32565 26.3963C5.25141 26.3799 6.15259 26.3799 7.09473 26.3799ZM2.31029 8.1106C11.4531 8.1106 20.5632 8.1106 29.6979 8.1106C29.6651 8.04506 29.6487 8.0041 29.6324 7.97133C28.4608 5.90681 27.2893 3.85049 26.1178 1.77778C26.0113 1.58935 25.872 1.58935 25.6999 1.58935C19.2279 1.58935 12.764 1.58935 6.29186 1.58116C6.06247 1.58116 5.93958 1.6467 5.83308 1.85151C4.71889 3.85049 3.58013 5.84127 2.45776 7.83205C2.4086 7.91398 2.36764 7.9959 2.31029 8.1106ZM13.1736 26.3717C13.1818 26.298 13.19 26.2407 13.19 26.1751C13.19 23.4388 13.19 20.7025 13.19 17.9662C13.19 17.278 12.723 16.8193 12.0266 16.8029C11.363 16.7947 10.6912 16.8029 10.0276 16.8029C9.08551 16.8029 8.67588 17.2043 8.67588 18.1464C8.67588 20.768 8.67588 23.3897 8.67588 26.0195C8.67588 26.1342 8.67588 26.2407 8.67588 26.3717C10.1997 26.3717 11.6743 26.3717 13.1736 26.3717ZM1.6467 9.71633C1.94163 11.2483 3.25243 12.2642 4.77624 12.1741C6.16078 12.0922 7.42243 10.9698 7.52074 9.71633C5.57092 9.71633 3.6211 9.71633 1.6467 9.71633ZM9.26575 9.71633C9.45417 11.1828 10.8879 12.2806 12.4444 12.1741C14.001 12.0676 15.0906 10.6994 15.1152 9.71633C13.1736 9.71633 11.232 9.71633 9.26575 9.71633ZM22.7506 9.72453C20.7844 9.72453 18.8346 9.72453 16.8848 9.72453C17.0486 11.0517 18.3103 12.1331 19.7358 12.1741C21.2023 12.2151 22.4967 11.1828 22.7506 9.72453ZM24.4956 9.72453C24.6267 11.0681 25.9867 12.1905 27.445 12.1823C28.895 12.1659 30.255 11.0189 30.3451 9.72453C28.3953 9.72453 26.4455 9.72453 24.4956 9.72453Z" fill="#232043"/>
<path d="M20.5638 22.8817C19.8839 22.8817 19.2121 22.8899 18.5321 22.8817C17.1394 22.8653 16.2546 21.9887 16.2464 20.596C16.2382 19.5719 16.2382 18.556 16.2464 17.5319C16.2546 16.131 17.1557 15.238 18.5649 15.238C19.9084 15.238 21.252 15.238 22.5956 15.238C23.9965 15.238 24.8895 16.1392 24.8977 17.5483C24.9059 18.556 24.9059 19.5719 24.8977 20.5796C24.8895 21.9887 24.0047 22.8735 22.5956 22.8817C21.9156 22.8899 21.2356 22.8817 20.5638 22.8817ZM20.5556 21.3087C21.2438 21.3087 21.932 21.3087 22.6202 21.3087C23.1117 21.3087 23.3329 21.0957 23.3329 20.6123C23.3411 19.5801 23.3329 18.5478 23.3329 17.5238C23.3329 17.024 23.1117 16.811 22.6038 16.811C21.252 16.811 19.9002 16.811 18.5485 16.811C18.0405 16.811 17.8275 17.024 17.8193 17.5319C17.8193 18.5478 17.8193 19.5719 17.8193 20.5878C17.8193 21.1121 18.0242 21.3087 18.5649 21.3169C19.2203 21.3169 19.892 21.3087 20.5556 21.3087Z" fill="#232043"/>
</g>
<defs>
<clipPath id="clip0_143_1348">
<rect width="32" height="27.9693" fill="white"/>
</clipPath>
</defs>
</svg>
