<svg width="32" height="32" viewBox="0 0 32 32" fill="none" xmlns="http://www.w3.org/2000/svg">
<path fill-rule="evenodd" clip-rule="evenodd" d="M25.3334 26C25.3334 27.1053 24.4374 28 23.3334 28C22.2294 28 21.3334 27.1053 21.3334 26C21.3334 24.8947 22.2294 24 23.3334 24C24.4374 24 25.3334 24.8947 25.3334 26ZM12.0001 26C12.0001 27.1053 11.1041 28 10.0001 28C8.89608 28 8.00008 27.1053 8.00008 26C8.00008 24.8947 8.89608 24 10.0001 24C11.1041 24 12.0001 24.8947 12.0001 26ZM21.8427 18.6667H11.6854L9.50275 10.6667H25.8427L21.8427 18.6667ZM28.1108 9.264C27.6214 8.472 26.7734 8 25.8428 8H8.77608L7.95342 4.98267C7.79475 4.40267 7.26808 4 6.66675 4H4.00008C3.26275 4 2.66675 4.59733 2.66675 5.33333C2.66675 6.06933 3.26275 6.66667 4.00008 6.66667H5.64808L9.38008 20.3507C9.53875 20.9307 10.0654 21.3333 10.6667 21.3333H22.6668C23.1721 21.3333 23.6334 21.048 23.8601 20.596L28.2281 11.8587C28.6441 11.0253 28.6001 10.056 28.1108 9.264Z" fill="#FFC2EE"/>
</svg>
