<svg width="32" height="23" viewBox="0 0 32 23" fill="none" xmlns="http://www.w3.org/2000/svg">
<g clip-path="url(#clip0_143_1312)">
<path d="M31.9999 18.4423C31.7729 19.045 31.3267 19.2642 30.7083 19.2407C29.9177 19.2172 29.1271 19.2407 28.3365 19.2329C28.1408 19.2329 28.0547 19.2955 27.9842 19.4834C27.3893 21.1663 25.8785 22.2309 24.1564 22.2231C22.4187 22.2074 20.9549 21.1585 20.3599 19.4834C20.2895 19.2955 20.2112 19.2329 20.0077 19.2329C18.1916 19.2407 16.3834 19.2407 14.5674 19.2329C14.3325 19.2329 14.2543 19.319 14.1838 19.5225C13.6202 21.1194 12.2112 22.1448 10.5204 22.2231C8.90789 22.2935 7.36581 21.3777 6.73959 19.8513C6.52041 19.319 6.25427 19.1937 5.74546 19.2329C5.14272 19.272 4.53998 19.2564 3.93724 19.2407C3.32668 19.225 2.90397 18.8493 2.87266 18.317C2.83352 17.6908 3.2484 17.2446 3.92159 17.2211C4.40691 17.2055 4.90006 17.2133 5.39321 17.2133C5.74546 17.2133 6.09771 17.2133 6.3482 17.2133C6.70828 16.6106 6.9666 16.0157 7.37364 15.546C9.38538 13.2055 13.1662 13.9335 14.1838 16.8532C14.2856 17.1507 14.4187 17.2211 14.7083 17.2211C16.446 17.2055 18.1838 17.2133 19.9294 17.2211C20.1721 17.2211 20.2895 17.1663 20.3678 16.9159C20.9314 15.2485 22.45 14.1526 24.1799 14.1526C25.9177 14.1526 27.4519 15.2642 28.0077 16.9393C28.0781 17.1663 28.1799 17.2211 28.3991 17.2133C28.9157 17.1977 29.4402 17.2055 30.0038 17.2055C30.0038 17.0802 30.0038 16.9785 30.0038 16.8767C30.0038 15.3425 30.0116 13.8082 29.996 12.274C29.996 12.1096 29.9255 11.9295 29.8316 11.7965C29.4715 11.2955 29.0801 10.8258 28.7122 10.3327C28.5869 10.1683 28.4539 10.1057 28.2425 10.1057C25.8081 10.1135 23.3658 10.1135 20.9314 10.1135C20.039 10.1135 19.6789 9.75342 19.6789 8.86106C19.6789 6.72407 19.6789 4.57926 19.6789 2.44227C19.6789 2.31703 19.6789 2.19961 19.6789 2.0274C19.5224 2.0274 19.3893 2.0274 19.2562 2.0274C14.2151 2.0274 9.17403 2.0274 4.13294 2.0274C3.94507 2.0274 3.7572 2.01957 3.57716 1.9726C3.11533 1.84736 2.84135 1.41683 2.88049 0.915851C2.9118 0.454012 3.27188 0.0782779 3.74155 0.0234834C3.85896 0 3.99986 0 4.13294 0C9.54977 0 14.9666 0 20.3834 0C21.3384 0 21.6828 0.344423 21.6828 1.29159C21.6828 1.51859 21.6828 1.7456 21.6828 2.01957C21.8159 2.01957 21.9255 2.01957 22.0351 2.01957C23.2719 2.01957 24.5165 2.03523 25.7533 2.01174C26.3482 2.00391 26.7318 2.23875 26.9901 2.77104C27.7963 4.41487 28.6339 6.05088 29.448 7.69472C29.7611 8.32877 30.1212 8.91585 30.5674 9.45597C30.9196 9.87867 31.2562 10.317 31.585 10.771C31.7494 10.998 31.8668 11.2485 32.0077 11.4912C31.9999 13.8082 31.9999 16.1252 31.9999 18.4423ZM21.6985 8.05479C23.6006 8.05479 25.4715 8.05479 27.3736 8.05479C26.7161 6.73973 26.0821 5.4638 25.4323 4.19569C25.3932 4.11742 25.2445 4.04697 25.1427 4.04697C24.5478 4.03131 23.9529 4.03914 23.3658 4.03914C22.8179 4.03914 22.2699 4.03914 21.7063 4.03914C21.6985 5.39335 21.6985 6.71624 21.6985 8.05479ZM24.1799 16.18C23.0762 16.1722 22.176 17.0568 22.1525 18.1761C22.1369 19.2642 23.0449 20.1957 24.1408 20.2035C25.2523 20.2192 26.1838 19.3033 26.1838 18.1918C26.1916 17.0881 25.2836 16.1879 24.1799 16.18ZM12.3991 18.1918C12.3991 17.0802 11.5067 16.18 10.403 16.18C9.29145 16.1722 8.39125 17.0646 8.38343 18.1761C8.3756 19.2955 9.28362 20.2114 10.403 20.2114C11.4989 20.2035 12.3913 19.3033 12.3991 18.1918Z" fill="#232043"/>
<path d="M5.30724 10.137C3.94521 10.137 2.57534 10.137 1.21331 10.137C1.0411 10.137 0.853229 10.1292 0.688845 10.0822C0.273973 9.95695 0 9.56556 0 9.13503C0 8.69667 0.289628 8.29746 0.712329 8.18004C0.861057 8.1409 1.01761 8.12524 1.17417 8.12524C3.93738 8.12524 6.69276 8.12524 9.45597 8.12524C9.62035 8.12524 9.79256 8.1409 9.94912 8.19569C10.3875 8.33659 10.6693 8.79061 10.6145 9.24462C10.5597 9.70646 10.1996 10.0744 9.7456 10.1292C9.61252 10.1448 9.47162 10.1448 9.33855 10.1448C7.99217 10.137 6.64579 10.137 5.30724 10.137Z" fill="#232043"/>
<path d="M6.96637 4.14874C8.37537 4.14874 9.77654 4.14874 11.1855 4.14874C11.7961 4.14874 12.2188 4.52448 12.258 5.06459C12.3049 5.67516 11.8744 6.14482 11.2403 6.16048C10.7002 6.17614 10.1601 6.16048 9.61216 6.16048C7.33427 6.16048 5.04856 6.16048 2.77067 6.16048C2.19142 6.16048 1.78437 5.86302 1.67478 5.3777C1.53388 4.73583 1.97224 4.1644 2.65326 4.14874C3.60042 4.14091 4.55541 4.14874 5.50257 4.14874C5.98789 4.14874 6.48104 4.14874 6.96637 4.14874Z" fill="#232043"/>
<path d="M4.96266 12.1018C5.75326 12.1018 6.54387 12.0784 7.33448 12.1097C8.03115 12.1331 8.46168 12.7985 8.23467 13.4404C8.09377 13.8396 7.73369 14.1136 7.27185 14.1136C5.72978 14.1214 4.18771 14.1292 2.64563 14.1136C2.05855 14.1058 1.62802 13.6439 1.63585 13.0881C1.64368 12.5402 2.05855 12.1175 2.64563 12.1018C3.42058 12.0862 4.19553 12.1018 4.96266 12.1018Z" fill="#232043"/>
</g>
<defs>
<clipPath id="clip0_143_1312">
<rect width="32" height="22.2309" fill="white"/>
</clipPath>
</defs>
</svg>
