<svg width="24" height="24" viewBox="0 0 24 24" fill="none" xmlns="http://www.w3.org/2000/svg">
<path d="M10 11C9.73478 11 9.48043 11.1054 9.29289 11.2929C9.10536 11.4804 9 11.7348 9 12V16C9 16.2652 9.10536 16.5196 9.29289 16.7071C9.48043 16.8946 9.73478 17 10 17C10.2652 17 10.5196 16.8946 10.7071 16.7071C10.8946 16.5196 11 16.2652 11 16V12C11 11.7348 10.8946 11.4804 10.7071 11.2929C10.5196 11.1054 10.2652 11 10 11Z" fill="#D73400"/>
<path d="M14 11C13.7348 11 13.4804 11.1054 13.2929 11.2929C13.1054 11.4804 13 11.7348 13 12V16C13 16.2652 13.1054 16.5196 13.2929 16.7071C13.4804 16.8946 13.7348 17 14 17C14.2652 17 14.5196 16.8946 14.7071 16.7071C14.8946 16.5196 15 16.2652 15 16V12C15 11.7348 14.8946 11.4804 14.7071 11.2929C14.5196 11.1054 14.2652 11 14 11Z" fill="#D73400"/>
<path d="M21 6.00004H16V4.33004C15.9765 3.68986 15.7002 3.08509 15.2316 2.64833C14.7629 2.21156 14.1402 1.97843 13.5 2.00004H10.5C9.85975 1.97843 9.23706 2.21156 8.76843 2.64833C8.2998 3.08509 8.02346 3.68986 8 4.33004V6.00004H3C2.73478 6.00004 2.48043 6.10539 2.29289 6.29293C2.10536 6.48047 2 6.73482 2 7.00004C2 7.26525 2.10536 7.51961 2.29289 7.70714C2.48043 7.89468 2.73478 8.00004 3 8.00004H4V19C4 19.7957 4.31607 20.5588 4.87868 21.1214C5.44129 21.684 6.20435 22 7 22H17C17.7956 22 18.5587 21.684 19.1213 21.1214C19.6839 20.5588 20 19.7957 20 19V8.00004H21C21.2652 8.00004 21.5196 7.89468 21.7071 7.70714C21.8946 7.51961 22 7.26525 22 7.00004C22 6.73482 21.8946 6.48047 21.7071 6.29293C21.5196 6.10539 21.2652 6.00004 21 6.00004ZM10 4.33004C10 4.19004 10.19 4.00004 10.5 4.00004H13.5C13.81 4.00004 14 4.19004 14 4.33004V6.00004H10V4.33004ZM18 19C18 19.2653 17.8946 19.5196 17.7071 19.7071C17.5196 19.8947 17.2652 20 17 20H7C6.73478 20 6.48043 19.8947 6.29289 19.7071C6.10536 19.5196 6 19.2653 6 19V8.00004H18V19Z" fill="#D73400"/>
</svg>
