<svg width="24" height="24" viewBox="0 0 24 24" fill="none" xmlns="http://www.w3.org/2000/svg">
<path d="M21.44 7.79993C21.4309 6.97422 21.2821 6.15601 21 5.37993C20.7659 4.7172 20.3906 4.11326 19.9 3.60993C19.4331 3.10567 18.859 2.71267 18.22 2.45993C17.4884 2.16555 16.7085 2.00958 15.92 1.99993C14.92 1.94993 14.58 1.92993 12 1.92993C9.42 1.92993 9.1 1.99993 8.09 1.99993C7.30133 2.01725 6.52223 2.17646 5.79 2.46993C5.14881 2.71936 4.57142 3.10884 4.1 3.60993C3.61427 4.1132 3.23953 4.71278 3 5.36993C2.71881 6.14626 2.57007 6.96431 2.56 7.78993C2.56 8.85993 2.5 9.19993 2.5 11.8999C2.5 14.5999 2.5 14.8999 2.55 16.0099C2.57231 16.8352 2.72416 17.6518 3 18.4299C3.2417 19.089 3.61609 19.6914 4.1 20.1999C4.56861 20.7022 5.14224 21.0948 5.78 21.3499C6.51543 21.6431 7.29836 21.799 8.09 21.8099C9.09 21.8599 9.42 21.8699 12 21.8699C14.58 21.8699 14.9 21.8699 15.91 21.8099C16.7018 21.8001 17.4849 21.6442 18.22 21.3499C18.8607 21.0828 19.4387 20.6853 19.9174 20.1826C20.396 19.6798 20.7647 19.083 21 18.4299C21.2735 17.6481 21.422 16.828 21.44 15.9999C21.44 14.9399 21.44 14.5999 21.44 11.8899C21.44 9.17993 21.49 8.85993 21.44 7.79993ZM19.73 15.9399C19.7256 16.57 19.6175 17.195 19.41 17.7899C19.2547 18.2126 19.0138 18.5987 18.7023 18.9239C18.3908 19.2491 18.0156 19.5065 17.6 19.6799C17.0398 19.9025 16.4428 20.0179 15.84 20.0199C14.84 20.0699 14.54 20.0799 12.01 20.0799C9.48 20.0799 9.17 20.0799 8.17 20.0199C7.56721 20.0179 6.97018 19.9025 6.41 19.6799C5.99471 19.5202 5.62175 19.267 5.32 18.9399C5.00215 18.6131 4.7598 18.2205 4.61 17.7899C4.40351 17.1944 4.29215 16.5701 4.28 15.9399C4.28 14.9399 4.28 14.5699 4.28 11.9399C4.28 9.30993 4.28 8.93993 4.28 7.93993C4.28043 7.27934 4.39199 6.62352 4.61 5.99993C4.75982 5.5758 4.99764 5.18815 5.30786 4.86242C5.61808 4.53669 5.99368 4.28025 6.41 4.10993C6.977 3.90265 7.5763 3.79769 8.18 3.79993C9.18 3.79993 9.48 3.79993 12.01 3.79993C14.54 3.79993 14.85 3.79993 15.85 3.79993C16.4528 3.81145 17.0487 3.92996 17.61 4.14993C18.0237 4.31279 18.396 4.56555 18.7 4.88993C19.0137 5.20458 19.2559 5.58319 19.41 5.99993C19.6175 6.59486 19.7256 7.21988 19.73 7.84993C19.78 8.84993 19.79 9.20993 19.79 11.8499C19.79 14.4899 19.78 14.8799 19.73 15.9399Z" fill="white"/>
<path d="M12.0002 6.78003C11.3435 6.79688 10.6966 6.94297 10.0964 7.20994C9.49616 7.47691 8.95445 7.85953 8.50219 8.33594C8.04992 8.81235 7.69597 9.37321 7.46055 9.98647C7.22513 10.5997 7.11286 11.2534 7.13015 11.91C7.10596 13.2294 7.60431 14.5048 8.51656 15.4583C9.42882 16.4118 10.681 16.9659 12.0002 17C12.6568 16.9845 13.304 16.8397 13.9047 16.5739C14.5054 16.3081 15.0478 15.9266 15.501 15.4511C15.9542 14.9756 16.3092 14.4155 16.5459 13.8028C16.7825 13.1901 16.8961 12.5367 16.8801 11.88C16.907 10.5573 16.4085 9.27778 15.4938 8.32186C14.5791 7.36594 13.3228 6.81151 12.0002 6.78003ZM12.0002 15.23C11.1416 15.2065 10.3274 14.844 9.73525 14.2219C9.14314 13.5998 8.82133 12.7687 8.84015 11.91C8.81864 11.0497 9.13925 10.2159 9.73165 9.59168C10.324 8.96741 11.1399 8.60359 12.0002 8.58003C12.427 8.59041 12.8476 8.68479 13.2379 8.85778C13.6283 9.03077 13.9807 9.27897 14.2751 9.58822C14.5695 9.89747 14.8001 10.2617 14.9536 10.6601C15.1072 11.0585 15.1808 11.4832 15.1702 11.91C15.1889 12.7703 14.8658 13.603 14.2715 14.2254C13.6772 14.8478 12.8604 15.2091 12.0002 15.23Z" fill="white"/>
<path d="M18.2101 6.57989C18.2003 6.80297 18.1252 7.01826 17.9941 7.19904C17.863 7.37982 17.6818 7.51813 17.4728 7.5968C17.2638 7.67547 17.0363 7.69103 16.8186 7.64156C16.6008 7.59209 16.4024 7.47976 16.2479 7.31851C16.0935 7.15727 15.9898 6.95421 15.9497 6.73454C15.9096 6.51488 15.9349 6.28827 16.0225 6.08286C16.11 5.87745 16.256 5.70228 16.4422 5.57909C16.6284 5.45589 16.8468 5.39011 17.0701 5.38989C17.3786 5.39776 17.6716 5.52724 17.8851 5.75014C18.0986 5.97303 18.2154 6.27127 18.2101 6.57989Z" fill="white"/>
</svg>
