<svg width="24" height="24" viewBox="0 0 24 24" fill="none" xmlns="http://www.w3.org/2000/svg">
<path d="M0 24.0006C0.255839 23.0675 0.500392 22.1796 0.741182 21.2879C1.03841 20.2044 1.33563 19.1208 1.62157 18.0335C1.65167 17.9206 1.63662 17.7664 1.58018 17.661C-0.857815 13.1763 -0.278414 7.82627 3.11146 3.9962C5.17699 1.66731 7.78805 0.327916 10.8958 0.0495026C16.1442 -0.417028 20.8961 2.44612 22.9729 7.28073C24.9519 11.8934 23.6727 17.4955 19.8878 20.7913C17.5513 22.8267 14.8349 23.8388 11.7385 23.7937C9.87616 23.7636 8.11914 23.3008 6.46371 22.4392C6.36589 22.3903 6.22292 22.3828 6.11381 22.4091C4.16492 22.9133 2.21602 23.425 0.267127 23.9366C0.195642 23.9554 0.124157 23.9705 0 24.0006ZM2.85938 21.1713C2.93839 21.1525 2.97601 21.1487 3.01364 21.1374C4.09343 20.8553 5.17322 20.5769 6.24926 20.2834C6.49005 20.2194 6.67816 20.2382 6.90014 20.3662C9.80467 22.0404 12.8334 22.2925 15.9147 20.9606C20.1887 19.1171 22.4875 14.7716 21.7313 10.1552C21.0014 5.69302 17.0171 2.17899 12.4797 2.00968C9.97398 1.91563 7.72033 2.62671 5.7752 4.21818C3.53284 6.05797 2.30632 8.44706 2.12573 11.3441C1.99028 13.4961 2.53958 15.4864 3.71343 17.2999C3.81878 17.4616 3.83759 17.5971 3.78492 17.7852C3.47264 18.8989 3.17542 20.0163 2.85938 21.1713Z" fill="white"/>
<path d="M8.19044 6.40049C8.66825 6.27633 8.90904 6.59989 9.08964 7.06266C9.35676 7.75493 9.64646 8.43592 9.93993 9.11314C10.0415 9.35017 10.0415 9.56462 9.88725 9.77155C9.64646 10.0914 9.41696 10.4187 9.16488 10.7272C9.0031 10.9266 8.99558 11.1034 9.1235 11.3179C10.0942 12.9507 11.4449 14.1321 13.2132 14.8357C13.454 14.9335 13.6496 14.8959 13.8114 14.6927C14.1086 14.3202 14.4171 13.9628 14.7031 13.5828C14.8686 13.3608 15.0605 13.2743 15.305 13.3872C16.1553 13.786 17.0056 14.1885 17.8484 14.6062C17.9349 14.6513 18.0214 14.8018 18.0214 14.9034C18.0478 15.7875 17.7919 16.5287 16.9981 17.0404C16.0312 17.6687 15.0153 17.7327 13.9355 17.4317C11.2229 16.6755 9.16864 15.02 7.51321 12.8002C6.91876 12.0026 6.35065 11.19 6.09481 10.208C5.7863 9.01908 5.96689 7.928 6.79084 6.97989C7.24232 6.46445 7.40787 6.3892 8.19044 6.40049Z" fill="white"/>
</svg>
